<?xml version="1.0" encoding="UTF-8" standalone="no"?>
<!DOCTYPE svg PUBLIC "-//W3C//DTD SVG 1.1//EN"
 "http://www.w3.org/Graphics/SVG/1.1/DTD/svg11.dtd">
<!-- Generated by graphviz version 2.36.0 (20140111.2315)
 -->
<!-- Title: IControl.h Pages: 1 -->
<!--zoomable 420 -->
<svg id="main" version="1.1" xmlns="http://www.w3.org/2000/svg" xmlns:xlink="http://www.w3.org/1999/xlink" xml:space="preserve" onload="init(evt)">
<style type="text/css"><![CDATA[
.edge:hover path { stroke: red; }
.edge:hover polygon { stroke: red; fill: red; }
]]></style>
<script type="text/javascript"><![CDATA[
var edges = document.getElementsByTagName('g');
if (edges && edges.length) {
  for (var i=0;i<edges.length;i++) {
    if (edges[i].id.substr(0,4)=='edge') {
      edges[i].setAttribute('class','edge');
    }
  }
}
]]></script>
        <defs>
                <circle id="rim" cx="0" cy="0" r="7"/>
                <circle id="rim2" cx="0" cy="0" r="3.5"/>
                <g id="zoomPlus">
                        <use xlink:href="#rim" fill="#404040">
                                <set attributeName="fill" to="#808080" begin="zoomplus.mouseover" end="zoomplus.mouseout"/>
                        </use>
                        <path d="M-4,0h8M0,-4v8" fill="none" stroke="white" stroke-width="1.5" pointer-events="none"/>
                </g>
                <g id="zoomMin">
                        <use xlink:href="#rim" fill="#404040">
                                <set attributeName="fill" to="#808080" begin="zoomminus.mouseover" end="zoomminus.mouseout"/>
                        </use>
                        <path d="M-4,0h8" fill="none" stroke="white" stroke-width="1.5" pointer-events="none"/>
                </g>
                <g id="dirArrow">
                        <path fill="none" stroke="white" stroke-width="1.5" d="M0,-3.0v7 M-2.5,-0.5L0,-3.0L2.5,-0.5"/>
                </g>
               <g id="resetDef">
                       <use xlink:href="#rim2" fill="#404040">
                               <set attributeName="fill" to="#808080" begin="reset.mouseover" end="reset.mouseout"/>
                       </use>
               </g>
        </defs>

<script type="text/javascript">
var viewWidth = 1232;
var viewHeight = 420;
var sectionId = 'dynsection-0';
</script>
<script xlink:href="svgpan.js"/>
<svg id="graph" class="graph">
<g id="viewport">
<title>IControl.h</title>
<polygon fill="white" stroke="none" points="-4,4 -4,-416 1228,-416 1228,4 -4,4"/>
<!-- Node1 -->
<g id="node1" class="node"><title>Node1</title>
<polygon fill="#bfbfbf" stroke="black" points="844.5,-392.5 844.5,-411.5 903.5,-411.5 903.5,-392.5 844.5,-392.5"/>
<text text-anchor="middle" x="874" y="-399.5" font-family="Helvetica,sans-Serif" font-size="10.00">IControl.h</text>
</g>
<!-- Node2 -->
<g id="node2" class="node"><title>Node2</title>
<polygon fill="white" stroke="#bfbfbf" points="345,-0.5 345,-19.5 391,-19.5 391,-0.5 345,-0.5"/>
<text text-anchor="middle" x="368" y="-7.5" font-family="Helvetica,sans-Serif" font-size="10.00">cstring</text>
</g>
<!-- Node1&#45;&gt;Node2 -->
<g id="edge1" class="edge"><title>Node1&#45;&gt;Node2</title>
<path fill="none" stroke="midnightblue" d="M844.174,-400.094C699.304,-395.305 76,-370.104 76,-291 76,-291 76,-291 76,-121 76,-87.3101 87.2555,-75.1117 115,-56 150.179,-31.7672 274.301,-18.608 334.613,-13.5154"/>
<polygon fill="midnightblue" stroke="midnightblue" points="335.072,-16.9895 344.753,-12.6846 334.501,-10.0129 335.072,-16.9895"/>
</g>
<!-- Node3 -->
<g id="node3" class="node"><title>Node3</title>
<polygon fill="white" stroke="#bfbfbf" points="1042.5,-0.5 1042.5,-19.5 1087.5,-19.5 1087.5,-0.5 1042.5,-0.5"/>
<text text-anchor="middle" x="1065" y="-7.5" font-family="Helvetica,sans-Serif" font-size="10.00">cstdlib</text>
</g>
<!-- Node1&#45;&gt;Node3 -->
<g id="edge2" class="edge"><title>Node1&#45;&gt;Node3</title>
<path fill="none" stroke="midnightblue" d="M903.739,-401.853C973.151,-402.149 1140,-392.321 1140,-291 1140,-291 1140,-291 1140,-121 1140,-81.4439 1106.48,-45.6159 1084.26,-26.2091"/>
<polygon fill="midnightblue" stroke="midnightblue" points="1086.3,-23.351 1076.39,-19.6017 1081.8,-28.7122 1086.3,-23.351"/>
</g>
<!-- Node4 -->
<g id="node4" class="node"><title>Node4</title>
<polygon fill="white" stroke="#bfbfbf" points="760,-56.5 760,-75.5 824,-75.5 824,-56.5 760,-56.5"/>
<text text-anchor="middle" x="792" y="-63.5" font-family="Helvetica,sans-Serif" font-size="10.00">wdlstring.h</text>
</g>
<!-- Node1&#45;&gt;Node4 -->
<g id="edge3" class="edge"><title>Node1&#45;&gt;Node4</title>
<path fill="none" stroke="midnightblue" d="M852.244,-392.433C820.321,-378.524 761.985,-347.687 738,-300 700.504,-225.449 755.158,-124.355 780.389,-84.3368"/>
<polygon fill="midnightblue" stroke="midnightblue" points="783.594,-85.8272 786.095,-75.5319 777.719,-82.0201 783.594,-85.8272"/>
</g>
<!-- Node5 -->
<g id="node5" class="node"><title>Node5</title>
<polygon fill="white" stroke="#bfbfbf" points="1168,-336.5 1168,-355.5 1224,-355.5 1224,-336.5 1168,-336.5"/>
<text text-anchor="middle" x="1196" y="-343.5" font-family="Helvetica,sans-Serif" font-size="10.00">dirscan.h</text>
</g>
<!-- Node1&#45;&gt;Node5 -->
<g id="edge4" class="edge"><title>Node1&#45;&gt;Node5</title>
<path fill="none" stroke="midnightblue" d="M903.515,-396.77C954.662,-389.325 1063.02,-373.047 1154,-356 1155.24,-355.768 1156.49,-355.528 1157.76,-355.281"/>
<polygon fill="midnightblue" stroke="midnightblue" points="1158.46,-358.71 1167.57,-353.3 1157.08,-351.848 1158.46,-358.71"/>
</g>
<!-- Node6 -->
<g id="node6" class="node"><title>Node6</title>
<polygon fill="white" stroke="#bfbfbf" points="959.5,-56.5 959.5,-75.5 1008.5,-75.5 1008.5,-56.5 959.5,-56.5"/>
<text text-anchor="middle" x="984" y="-63.5" font-family="Helvetica,sans-Serif" font-size="10.00">ptrlist.h</text>
</g>
<!-- Node1&#45;&gt;Node6 -->
<g id="edge5" class="edge"><title>Node1&#45;&gt;Node6</title>
<path fill="none" stroke="midnightblue" d="M903.645,-396.6C951.023,-387.794 1042.48,-363.116 1082,-300 1129.4,-224.299 1039.49,-121.698 1000.64,-82.815"/>
<polygon fill="midnightblue" stroke="midnightblue" points="1002.78,-80.0164 993.193,-75.5176 997.886,-85.0163 1002.78,-80.0164"/>
</g>
<!-- Node7 -->
<g id="node7" class="node"><title>Node7</title>
<g id="a_node7"><a xlink:href="_i_plug_base_graphics_8h.html" target="_top" xlink:title="An IPlugBase class for an IPlug plug&#45;in that uses IGraphics for it&#39;s UI. ">
<polygon fill="white" stroke="black" points="373.5,-336.5 373.5,-355.5 482.5,-355.5 482.5,-336.5 373.5,-336.5"/>
<text text-anchor="middle" x="428" y="-343.5" font-family="Helvetica,sans-Serif" font-size="10.00">IPlugBaseGraphics.h</text>
</a>
</g>
</g>
<!-- Node1&#45;&gt;Node7 -->
<g id="edge6" class="edge"><title>Node1&#45;&gt;Node7</title>
<path fill="none" stroke="midnightblue" d="M844.391,-397.415C773.175,-388.793 590.959,-366.73 492.858,-354.853"/>
<polygon fill="midnightblue" stroke="midnightblue" points="493.116,-351.359 482.768,-353.631 492.275,-358.308 493.116,-351.359"/>
</g>
<!-- Node25 -->
<g id="node25" class="node"><title>Node25</title>
<g id="a_node25"><a xlink:href="_i_graphics_8h.html" target="_top" xlink:title="The lowest level base class of an IGraphics context. ">
<polygon fill="white" stroke="black" points="840.5,-336.5 840.5,-355.5 907.5,-355.5 907.5,-336.5 840.5,-336.5"/>
<text text-anchor="middle" x="874" y="-343.5" font-family="Helvetica,sans-Serif" font-size="10.00">IGraphics.h</text>
</a>
</g>
</g>
<!-- Node1&#45;&gt;Node25 -->
<g id="edge47" class="edge"><title>Node1&#45;&gt;Node25</title>
<path fill="none" stroke="midnightblue" d="M868.834,-392.083C867.324,-384.927 866.894,-374.635 867.542,-365.691"/>
<polygon fill="midnightblue" stroke="midnightblue" points="871.015,-366.126 868.869,-355.751 864.077,-365.2 871.015,-366.126"/>
</g>
<!-- Node8 -->
<g id="node8" class="node"><title>Node8</title>
<g id="a_node8"><a xlink:href="_i_plug_base_8h.html" target="_top" xlink:title="The lowest level base class of an IPlug plug&#45;in. ">
<polygon fill="white" stroke="black" points="259,-280.5 259,-299.5 329,-299.5 329,-280.5 259,-280.5"/>
<text text-anchor="middle" x="294" y="-287.5" font-family="Helvetica,sans-Serif" font-size="10.00">IPlugBase.h</text>
</a>
</g>
</g>
<!-- Node7&#45;&gt;Node8 -->
<g id="edge7" class="edge"><title>Node7&#45;&gt;Node8</title>
<path fill="none" stroke="midnightblue" d="M406.767,-336.444C384.616,-327.517 349.681,-313.439 324.564,-303.317"/>
<polygon fill="midnightblue" stroke="midnightblue" points="325.717,-300.008 315.133,-299.516 323.1,-306.501 325.717,-300.008"/>
</g>
<!-- Node8&#45;&gt;Node2 -->
<g id="edge8" class="edge"><title>Node8&#45;&gt;Node2</title>
<path fill="none" stroke="midnightblue" d="M258.867,-283.7C206.484,-273.582 114,-246.204 114,-179 114,-179 114,-179 114,-121 114,-90.9022 110.729,-76.2457 133,-56 162.153,-29.4975 277.132,-17.5632 334.738,-13.1589"/>
<polygon fill="midnightblue" stroke="midnightblue" points="335.076,-16.6437 344.793,-12.4224 334.564,-9.66241 335.076,-16.6437"/>
</g>
<!-- Node8&#45;&gt;Node6 -->
<g id="edge10" class="edge"><title>Node8&#45;&gt;Node6</title>
<path fill="none" stroke="midnightblue" d="M329.093,-286.623C427.145,-278.659 709.846,-246.568 909,-132 932.187,-118.661 954.834,-97.5954 969.068,-83.0804"/>
<polygon fill="midnightblue" stroke="midnightblue" points="971.67,-85.4235 976.061,-75.7811 966.616,-80.5812 971.67,-85.4235"/>
</g>
<!-- Node9 -->
<g id="node9" class="node"><title>Node9</title>
<polygon fill="white" stroke="#bfbfbf" points="250,-56.5 250,-75.5 296,-75.5 296,-56.5 250,-56.5"/>
<text text-anchor="middle" x="273" y="-63.5" font-family="Helvetica,sans-Serif" font-size="10.00">cstdint</text>
</g>
<!-- Node8&#45;&gt;Node9 -->
<g id="edge9" class="edge"><title>Node8&#45;&gt;Node9</title>
<path fill="none" stroke="midnightblue" d="M279.63,-280.33C268.12,-272.469 252.811,-259.722 246,-244 222.361,-189.437 249.127,-117.584 264.167,-84.7485"/>
<polygon fill="midnightblue" stroke="midnightblue" points="267.418,-86.0631 268.56,-75.53 261.099,-83.0521 267.418,-86.0631"/>
</g>
<!-- Node10 -->
<g id="node10" class="node"><title>Node10</title>
<polygon fill="white" stroke="#bfbfbf" points="142,-56.5 142,-75.5 194,-75.5 194,-56.5 142,-56.5"/>
<text text-anchor="middle" x="168" y="-63.5" font-family="Helvetica,sans-Serif" font-size="10.00">mutex.h</text>
</g>
<!-- Node8&#45;&gt;Node10 -->
<g id="edge11" class="edge"><title>Node8&#45;&gt;Node10</title>
<path fill="none" stroke="midnightblue" d="M279.066,-280.381C266.357,-272.38 248.4,-259.405 237,-244 199.454,-193.266 179.484,-119.475 171.794,-85.4485"/>
<polygon fill="midnightblue" stroke="midnightblue" points="175.183,-84.5591 169.649,-75.5242 168.341,-86.0379 175.183,-84.5591"/>
</g>
<!-- Node11 -->
<g id="node11" class="node"><title>Node11</title>
<g id="a_node11"><a xlink:href="_i_plug_platform_8h.html" target="_top" xlink:title="Include to get consistently named preprocessor macros for different platforms and logging functionali...">
<polygon fill="white" stroke="black" points="404,-168.5 404,-187.5 488,-187.5 488,-168.5 404,-168.5"/>
<text text-anchor="middle" x="446" y="-175.5" font-family="Helvetica,sans-Serif" font-size="10.00">IPlugPlatform.h</text>
</a>
</g>
</g>
<!-- Node8&#45;&gt;Node11 -->
<g id="edge12" class="edge"><title>Node8&#45;&gt;Node11</title>
<path fill="none" stroke="midnightblue" d="M312.689,-280.392C329.835,-272.12 355.59,-258.73 376,-244 396.46,-229.234 417.324,-209.062 430.887,-195.124"/>
<polygon fill="midnightblue" stroke="midnightblue" points="433.582,-197.37 437.97,-187.726 428.526,-192.529 433.582,-197.37"/>
</g>
<!-- Node18 -->
<g id="node18" class="node"><title>Node18</title>
<g id="a_node18"><a xlink:href="_i_plug_utilities_8h.html" target="_top" xlink:title="Utility functions and macros. ">
<polygon fill="white" stroke="black" points="556,-56.5 556,-75.5 636,-75.5 636,-56.5 556,-56.5"/>
<text text-anchor="middle" x="596" y="-63.5" font-family="Helvetica,sans-Serif" font-size="10.00">IPlugUtilities.h</text>
</a>
</g>
</g>
<!-- Node8&#45;&gt;Node18 -->
<g id="edge42" class="edge"><title>Node8&#45;&gt;Node18</title>
<path fill="none" stroke="midnightblue" d="M288.218,-280.075C280.575,-267.048 269.163,-242.38 279,-224 321.58,-144.438 376.905,-167.192 460,-132 480.945,-123.129 536.157,-96.333 569.439,-80.0468"/>
<polygon fill="midnightblue" stroke="midnightblue" points="571.16,-83.1013 578.6,-75.5584 568.08,-76.8152 571.16,-83.1013"/>
</g>
<!-- Node20 -->
<g id="node20" class="node"><title>Node20</title>
<g id="a_node20"><a xlink:href="_i_plug_constants_8h.html" target="_top" xlink:title="Constant definitions, magic numbers. ">
<polygon fill="white" stroke="black" points="84,-0.5 84,-19.5 176,-19.5 176,-0.5 84,-0.5"/>
<text text-anchor="middle" x="130" y="-7.5" font-family="Helvetica,sans-Serif" font-size="10.00">IPlugConstants.h</text>
</a>
</g>
</g>
<!-- Node8&#45;&gt;Node20 -->
<g id="edge31" class="edge"><title>Node8&#45;&gt;Node20</title>
<path fill="none" stroke="midnightblue" d="M258.829,-283.484C180.792,-270.255 0,-233.702 0,-179 0,-179 0,-179 0,-121 0,-71.1231 56.4559,-39.2132 94.9593,-23.2503"/>
<polygon fill="midnightblue" stroke="midnightblue" points="96.3141,-26.4782 104.316,-19.5343 93.7304,-19.9724 96.3141,-26.4782"/>
</g>
<!-- Node21 -->
<g id="node21" class="node"><title>Node21</title>
<g id="a_node21"><a xlink:href="_i_plug_structs_8h_source.html" target="_top" xlink:title="IPlugStructs.h">
<polygon fill="white" stroke="black" points="288.5,-224.5 288.5,-243.5 367.5,-243.5 367.5,-224.5 288.5,-224.5"/>
<text text-anchor="middle" x="328" y="-231.5" font-family="Helvetica,sans-Serif" font-size="10.00">IPlugStructs.h</text>
</a>
</g>
</g>
<!-- Node8&#45;&gt;Node21 -->
<g id="edge32" class="edge"><title>Node8&#45;&gt;Node21</title>
<path fill="none" stroke="midnightblue" d="M299.614,-280.083C304.367,-272.534 311.318,-261.495 317.152,-252.23"/>
<polygon fill="midnightblue" stroke="midnightblue" points="320.124,-254.078 322.49,-243.751 314.2,-250.349 320.124,-254.078"/>
</g>
<!-- Node24 -->
<g id="node24" class="node"><title>Node24</title>
<g id="a_node24"><a xlink:href="_i_plug_parameter_8h_source.html" target="_top" xlink:title="IPlugParameter.h">
<polygon fill="white" stroke="black" points="546,-112.5 546,-131.5 638,-131.5 638,-112.5 546,-112.5"/>
<text text-anchor="middle" x="592" y="-119.5" font-family="Helvetica,sans-Serif" font-size="10.00">IPlugParameter.h</text>
</a>
</g>
</g>
<!-- Node8&#45;&gt;Node24 -->
<g id="edge43" class="edge"><title>Node8&#45;&gt;Node24</title>
<path fill="none" stroke="midnightblue" d="M314.756,-280.393C354.658,-263.866 439.345,-228.881 453,-224 504.231,-205.688 530.997,-225.931 570,-188 582.4,-175.941 587.811,-156.653 590.172,-142.215"/>
<polygon fill="midnightblue" stroke="midnightblue" points="593.694,-142.268 591.487,-131.906 586.75,-141.383 593.694,-142.268"/>
</g>
<!-- Node12 -->
<g id="node12" class="node"><title>Node12</title>
<g id="a_node12"><a xlink:href="_i_plug_logger_8h.html" target="_top" xlink:title="IPlug Logging functionailty To trace some arbitrary data: Trace(TRACELOC, &quot;%s:%d&quot;, myStr, myInt); To simply create a trace entry in the log: TRACE; No need to wrap tracer calls in #ifdef TRACER_BUILD because Trace is a no&#45;op unless TRACER_BUILD is defined. ">
<polygon fill="white" stroke="black" points="374.5,-112.5 374.5,-131.5 451.5,-131.5 451.5,-112.5 374.5,-112.5"/>
<text text-anchor="middle" x="413" y="-119.5" font-family="Helvetica,sans-Serif" font-size="10.00">IPlugLogger.h</text>
</a>
</g>
</g>
<!-- Node11&#45;&gt;Node12 -->
<g id="edge13" class="edge"><title>Node11&#45;&gt;Node12</title>
<path fill="none" stroke="midnightblue" d="M440.551,-168.083C435.986,-160.613 429.332,-149.724 423.707,-140.52"/>
<polygon fill="midnightblue" stroke="midnightblue" points="426.549,-138.459 418.348,-131.751 420.576,-142.109 426.549,-138.459"/>
</g>
<!-- Node12&#45;&gt;Node2 -->
<g id="edge18" class="edge"><title>Node12&#45;&gt;Node2</title>
<path fill="none" stroke="midnightblue" d="M388.531,-112.438C372.433,-105.378 352.623,-93.626 343,-76 334.445,-60.3306 344.076,-41.1128 353.76,-27.6528"/>
<polygon fill="midnightblue" stroke="midnightblue" points="356.547,-29.7707 359.941,-19.7342 351.029,-25.4636 356.547,-29.7707"/>
</g>
<!-- Node12&#45;&gt;Node4 -->
<g id="edge21" class="edge"><title>Node12&#45;&gt;Node4</title>
<path fill="none" stroke="midnightblue" d="M451.56,-116.847C514.33,-109.863 642.411,-94.681 750,-76 750.101,-75.9825 750.202,-75.9648 750.303,-75.9472"/>
<polygon fill="midnightblue" stroke="midnightblue" points="750.763,-79.4221 759.947,-74.1389 749.473,-72.542 750.763,-79.4221"/>
</g>
<!-- Node12&#45;&gt;Node9 -->
<g id="edge17" class="edge"><title>Node12&#45;&gt;Node9</title>
<path fill="none" stroke="midnightblue" d="M390.817,-112.444C367.572,-103.478 330.851,-89.314 304.585,-79.1827"/>
<polygon fill="midnightblue" stroke="midnightblue" points="305.669,-75.8497 295.08,-75.5164 303.15,-82.3807 305.669,-75.8497"/>
</g>
<!-- Node12&#45;&gt;Node10 -->
<g id="edge22" class="edge"><title>Node12&#45;&gt;Node10</title>
<path fill="none" stroke="midnightblue" d="M374.449,-112.503C327.817,-102.225 249.914,-85.0545 204.311,-75.0033"/>
<polygon fill="midnightblue" stroke="midnightblue" points="204.791,-71.5252 194.272,-72.7907 203.285,-78.3611 204.791,-71.5252"/>
</g>
<!-- Node13 -->
<g id="node13" class="node"><title>Node13</title>
<polygon fill="white" stroke="#bfbfbf" points="574.5,-0.5 574.5,-19.5 617.5,-19.5 617.5,-0.5 574.5,-0.5"/>
<text text-anchor="middle" x="596" y="-7.5" font-family="Helvetica,sans-Serif" font-size="10.00">cstdio</text>
</g>
<!-- Node12&#45;&gt;Node13 -->
<g id="edge14" class="edge"><title>Node12&#45;&gt;Node13</title>
<path fill="none" stroke="midnightblue" d="M433.98,-112.457C453.638,-104.132 483.571,-90.6198 508,-76 533.259,-60.8835 560.188,-40.2466 577.507,-26.3139"/>
<polygon fill="midnightblue" stroke="midnightblue" points="580.081,-28.7312 585.627,-19.7039 575.662,-23.3022 580.081,-28.7312"/>
</g>
<!-- Node14 -->
<g id="node14" class="node"><title>Node14</title>
<polygon fill="white" stroke="#bfbfbf" points="454,-0.5 454,-19.5 500,-19.5 500,-0.5 454,-0.5"/>
<text text-anchor="middle" x="477" y="-7.5" font-family="Helvetica,sans-Serif" font-size="10.00">cctype</text>
</g>
<!-- Node12&#45;&gt;Node14 -->
<g id="edge15" class="edge"><title>Node12&#45;&gt;Node14</title>
<path fill="none" stroke="midnightblue" d="M415.928,-112.229C420.397,-99.3934 429.615,-74.9614 441,-56 447.039,-45.9416 455.1,-35.6559 462.062,-27.4616"/>
<polygon fill="midnightblue" stroke="midnightblue" points="464.836,-29.6062 468.79,-19.7766 459.569,-24.9954 464.836,-29.6062"/>
</g>
<!-- Node15 -->
<g id="node15" class="node"><title>Node15</title>
<polygon fill="white" stroke="#bfbfbf" points="450.5,-56.5 450.5,-75.5 499.5,-75.5 499.5,-56.5 450.5,-56.5"/>
<text text-anchor="middle" x="475" y="-63.5" font-family="Helvetica,sans-Serif" font-size="10.00">cstdarg</text>
</g>
<!-- Node12&#45;&gt;Node15 -->
<g id="edge16" class="edge"><title>Node12&#45;&gt;Node15</title>
<path fill="none" stroke="midnightblue" d="M422.961,-112.324C432.127,-104.341 445.937,-92.3128 457.028,-82.6529"/>
<polygon fill="midnightblue" stroke="midnightblue" points="459.615,-85.041 464.857,-75.8339 455.018,-79.7624 459.615,-85.041"/>
</g>
<!-- Node16 -->
<g id="node16" class="node"><title>Node16</title>
<polygon fill="white" stroke="#bfbfbf" points="352.5,-56.5 352.5,-75.5 393.5,-75.5 393.5,-56.5 352.5,-56.5"/>
<text text-anchor="middle" x="373" y="-63.5" font-family="Helvetica,sans-Serif" font-size="10.00">ctime</text>
</g>
<!-- Node12&#45;&gt;Node16 -->
<g id="edge19" class="edge"><title>Node12&#45;&gt;Node16</title>
<path fill="none" stroke="midnightblue" d="M406.395,-112.083C400.745,-104.455 392.455,-93.2645 385.549,-83.9408"/>
<polygon fill="midnightblue" stroke="midnightblue" points="388.247,-81.7034 379.482,-75.7511 382.622,-85.87 388.247,-81.7034"/>
</g>
<!-- Node17 -->
<g id="node17" class="node"><title>Node17</title>
<polygon fill="white" stroke="#bfbfbf" points="692.5,-56.5 692.5,-75.5 741.5,-75.5 741.5,-56.5 692.5,-56.5"/>
<text text-anchor="middle" x="717" y="-63.5" font-family="Helvetica,sans-Serif" font-size="10.00">cassert</text>
</g>
<!-- Node12&#45;&gt;Node17 -->
<g id="edge20" class="edge"><title>Node12&#45;&gt;Node17</title>
<path fill="none" stroke="midnightblue" d="M451.502,-114.161C511.214,-103.554 625.219,-83.3032 682.437,-73.1395"/>
<polygon fill="midnightblue" stroke="midnightblue" points="683.2,-76.5588 692.434,-71.3637 681.976,-69.6666 683.2,-76.5588"/>
</g>
<!-- Node12&#45;&gt;Node18 -->
<g id="edge23" class="edge"><title>Node12&#45;&gt;Node18</title>
<path fill="none" stroke="midnightblue" d="M441.997,-112.444C473.185,-103.241 522.93,-88.5617 557.408,-78.3879"/>
<polygon fill="midnightblue" stroke="midnightblue" points="558.538,-81.7036 567.139,-75.5164 556.557,-74.9898 558.538,-81.7036"/>
</g>
<!-- Node18&#45;&gt;Node2 -->
<g id="edge27" class="edge"><title>Node18&#45;&gt;Node2</title>
<path fill="none" stroke="midnightblue" d="M559.873,-56.4435C516.14,-46.0858 443.12,-28.7916 400.894,-18.7907"/>
<polygon fill="midnightblue" stroke="midnightblue" points="401.648,-15.3726 391.111,-16.4736 400.035,-22.1841 401.648,-15.3726"/>
</g>
<!-- Node18&#45;&gt;Node3 -->
<g id="edge26" class="edge"><title>Node18&#45;&gt;Node3</title>
<path fill="none" stroke="midnightblue" d="M636.393,-60.3493C727.71,-49.8351 948.593,-24.4029 1032.2,-14.777"/>
<polygon fill="midnightblue" stroke="midnightblue" points="1032.84,-18.2258 1042.38,-13.6049 1032.04,-11.2718 1032.84,-18.2258"/>
</g>
<!-- Node18&#45;&gt;Node11 -->
<g id="edge30" class="edge"><title>Node18&#45;&gt;Node11</title>
<path fill="none" stroke="midnightblue" d="M584.284,-75.5914C558.704,-94.3501 497.612,-139.151 465.886,-162.417"/>
<polygon fill="midnightblue" stroke="midnightblue" points="463.765,-159.632 457.77,-168.368 467.904,-165.277 463.765,-159.632"/>
</g>
<!-- Node18&#45;&gt;Node13 -->
<g id="edge25" class="edge"><title>Node18&#45;&gt;Node13</title>
<path fill="none" stroke="midnightblue" d="M596,-56.083C596,-49.0059 596,-38.8611 596,-29.9865"/>
<polygon fill="midnightblue" stroke="midnightblue" points="599.5,-29.751 596,-19.7511 592.5,-29.7511 599.5,-29.751"/>
</g>
<!-- Node18&#45;&gt;Node14 -->
<g id="edge28" class="edge"><title>Node18&#45;&gt;Node14</title>
<path fill="none" stroke="midnightblue" d="M577.144,-56.4435C557.734,-47.6356 527.27,-33.8116 505.035,-23.722"/>
<polygon fill="midnightblue" stroke="midnightblue" points="506.32,-20.4615 495.768,-19.5164 503.428,-26.836 506.32,-20.4615"/>
</g>
<!-- Node19 -->
<g id="node19" class="node"><title>Node19</title>
<polygon fill="white" stroke="#bfbfbf" points="906,-0.5 906,-19.5 950,-19.5 950,-0.5 906,-0.5"/>
<text text-anchor="middle" x="928" y="-7.5" font-family="Helvetica,sans-Serif" font-size="10.00">cmath</text>
</g>
<!-- Node18&#45;&gt;Node19 -->
<g id="edge24" class="edge"><title>Node18&#45;&gt;Node19</title>
<path fill="none" stroke="midnightblue" d="M636.047,-58.4863C702.59,-47.6631 834.638,-26.1855 895.675,-16.2577"/>
<polygon fill="midnightblue" stroke="midnightblue" points="896.563,-19.6593 905.872,-14.5992 895.44,-12.7501 896.563,-19.6593"/>
</g>
<!-- Node18&#45;&gt;Node20 -->
<g id="edge29" class="edge"><title>Node18&#45;&gt;Node20</title>
<path fill="none" stroke="midnightblue" d="M555.866,-60.3493C472.792,-50.7227 281.801,-28.5907 186.389,-17.5344"/>
<polygon fill="midnightblue" stroke="midnightblue" points="186.687,-14.0455 176.35,-16.3711 185.881,-20.999 186.687,-14.0455"/>
</g>
<!-- Node21&#45;&gt;Node4 -->
<g id="edge34" class="edge"><title>Node21&#45;&gt;Node4</title>
<path fill="none" stroke="midnightblue" d="M334.219,-224.056C344.831,-209.573 367.937,-181.276 395,-168 496.573,-118.172 538.321,-163.446 647,-132 691.092,-119.242 739.12,-95.6109 767.343,-80.6294"/>
<polygon fill="midnightblue" stroke="midnightblue" points="769.313,-83.5437 776.461,-75.7229 765.996,-77.3795 769.313,-83.5437"/>
</g>
<!-- Node21&#45;&gt;Node11 -->
<g id="edge36" class="edge"><title>Node21&#45;&gt;Node11</title>
<path fill="none" stroke="midnightblue" d="M346.697,-224.444C365.944,-215.636 396.152,-201.812 418.2,-191.722"/>
<polygon fill="midnightblue" stroke="midnightblue" points="419.753,-194.86 427.39,-187.516 416.84,-188.495 419.753,-194.86"/>
</g>
<!-- Node21&#45;&gt;Node20 -->
<g id="edge35" class="edge"><title>Node21&#45;&gt;Node20</title>
<path fill="none" stroke="midnightblue" d="M308.814,-224.441C267.776,-204.955 172.036,-152.938 133,-76 125.732,-61.6757 125.612,-43.2115 126.942,-29.625"/>
<polygon fill="midnightblue" stroke="midnightblue" points="130.432,-29.9306 128.275,-19.5576 123.493,-29.0117 130.432,-29.9306"/>
</g>
<!-- Node22 -->
<g id="node22" class="node"><title>Node22</title>
<polygon fill="white" stroke="#bfbfbf" points="506,-168.5 506,-187.5 562,-187.5 562,-168.5 506,-168.5"/>
<text text-anchor="middle" x="534" y="-175.5" font-family="Helvetica,sans-Serif" font-size="10.00">algorithm</text>
</g>
<!-- Node21&#45;&gt;Node22 -->
<g id="edge33" class="edge"><title>Node21&#45;&gt;Node22</title>
<path fill="none" stroke="midnightblue" d="M360.641,-224.444C397.404,-214.807 457.073,-199.165 495.928,-188.98"/>
<polygon fill="midnightblue" stroke="midnightblue" points="497.029,-192.31 505.815,-186.388 495.254,-185.539 497.029,-192.31"/>
</g>
<!-- Node23 -->
<g id="node23" class="node"><title>Node23</title>
<g id="a_node23"><a xlink:href="_i_plug_midi_8h_source.html" target="_top" xlink:title="IPlugMidi.h">
<polygon fill="white" stroke="black" points="291.5,-112.5 291.5,-131.5 356.5,-131.5 356.5,-112.5 291.5,-112.5"/>
<text text-anchor="middle" x="324" y="-119.5" font-family="Helvetica,sans-Serif" font-size="10.00">IPlugMidi.h</text>
</a>
</g>
</g>
<!-- Node21&#45;&gt;Node23 -->
<g id="edge37" class="edge"><title>Node21&#45;&gt;Node23</title>
<path fill="none" stroke="midnightblue" d="M327.686,-224.368C327.041,-206.617 325.552,-165.666 324.676,-141.597"/>
<polygon fill="midnightblue" stroke="midnightblue" points="328.174,-141.458 324.312,-131.591 321.178,-141.712 328.174,-141.458"/>
</g>
<!-- Node23&#45;&gt;Node9 -->
<g id="edge39" class="edge"><title>Node23&#45;&gt;Node9</title>
<path fill="none" stroke="midnightblue" d="M315.578,-112.083C308.152,-104.22 297.148,-92.5688 288.188,-83.0813"/>
<polygon fill="midnightblue" stroke="midnightblue" points="290.676,-80.618 281.265,-75.7511 285.587,-85.4244 290.676,-80.618"/>
</g>
<!-- Node23&#45;&gt;Node17 -->
<g id="edge38" class="edge"><title>Node23&#45;&gt;Node17</title>
<path fill="none" stroke="midnightblue" d="M356.622,-113.565C359.45,-113.004 362.271,-112.473 365,-112 380.552,-109.305 596.816,-82.0823 682.447,-71.3329"/>
<polygon fill="midnightblue" stroke="midnightblue" points="682.97,-74.7948 692.456,-70.0768 682.098,-67.8493 682.97,-74.7948"/>
</g>
<!-- Node23&#45;&gt;Node18 -->
<g id="edge41" class="edge"><title>Node23&#45;&gt;Node18</title>
<path fill="none" stroke="midnightblue" d="M356.659,-113.758C359.478,-113.155 362.288,-112.562 365,-112 427.247,-99.1068 499.155,-85.2641 545.99,-76.3882"/>
<polygon fill="midnightblue" stroke="midnightblue" points="546.705,-79.815 555.88,-74.517 545.404,-72.937 546.705,-79.815"/>
</g>
<!-- Node23&#45;&gt;Node20 -->
<g id="edge40" class="edge"><title>Node23&#45;&gt;Node20</title>
<path fill="none" stroke="midnightblue" d="M307.691,-112.362C290.891,-103.416 263.989,-88.9585 241,-76 210.36,-58.7289 175.406,-38.106 153.045,-24.7929"/>
<polygon fill="midnightblue" stroke="midnightblue" points="154.663,-21.6826 144.282,-19.5659 151.077,-27.6945 154.663,-21.6826"/>
</g>
<!-- Node24&#45;&gt;Node2 -->
<g id="edge44" class="edge"><title>Node24&#45;&gt;Node2</title>
<path fill="none" stroke="midnightblue" d="M607.73,-112.494C628.881,-99.9882 661.982,-75.9632 645,-56 637.137,-46.7563 473.679,-24.6374 401.62,-15.2882"/>
<polygon fill="midnightblue" stroke="midnightblue" points="401.645,-11.7624 391.279,-13.9528 400.748,-18.7048 401.645,-11.7624"/>
</g>
<!-- Node24&#45;&gt;Node4 -->
<g id="edge45" class="edge"><title>Node24&#45;&gt;Node4</title>
<path fill="none" stroke="midnightblue" d="M623.691,-112.444C658.068,-103.162 713.077,-88.3093 750.789,-78.127"/>
<polygon fill="midnightblue" stroke="midnightblue" points="751.716,-81.5022 760.458,-75.5164 749.891,-74.7442 751.716,-81.5022"/>
</g>
<!-- Node24&#45;&gt;Node18 -->
<g id="edge46" class="edge"><title>Node24&#45;&gt;Node18</title>
<path fill="none" stroke="midnightblue" d="M592.661,-112.083C593.185,-105.006 593.936,-94.8611 594.594,-85.9865"/>
<polygon fill="midnightblue" stroke="midnightblue" points="598.103,-85.9823 595.352,-75.7511 591.123,-85.4652 598.103,-85.9823"/>
</g>
<!-- Node25&#45;&gt;Node1 -->
<g id="edge69" class="edge"><title>Node25&#45;&gt;Node1</title>
<path fill="none" stroke="midnightblue" d="M879.131,-355.751C880.657,-362.858 881.104,-373.136 880.472,-382.101"/>
<polygon fill="midnightblue" stroke="midnightblue" points="876.993,-381.713 879.166,-392.083 883.934,-382.622 876.993,-381.713"/>
</g>
<!-- Node26 -->
<g id="node26" class="node"><title>Node26</title>
<polygon fill="white" stroke="#bfbfbf" points="902,-280.5 902,-299.5 958,-299.5 958,-280.5 902,-280.5"/>
<text text-anchor="middle" x="930" y="-287.5" font-family="Helvetica,sans-Serif" font-size="10.00">ft2build.h</text>
</g>
<!-- Node25&#45;&gt;Node26 -->
<g id="edge48" class="edge"><title>Node25&#45;&gt;Node26</title>
<path fill="none" stroke="midnightblue" d="M882.997,-336.324C891.194,-328.42 903.506,-316.548 913.472,-306.938"/>
<polygon fill="midnightblue" stroke="midnightblue" points="916.07,-309.295 920.839,-299.834 911.211,-304.256 916.07,-309.295"/>
</g>
<!-- Node27 -->
<g id="node27" class="node"><title>Node27</title>
<g id="a_node27"><a xlink:href="_i_graphics_constants_8h_source.html" target="_top" xlink:title="IGraphicsConstants.h">
<polygon fill="white" stroke="black" points="462,-224.5 462,-243.5 574,-243.5 574,-224.5 462,-224.5"/>
<text text-anchor="middle" x="518" y="-231.5" font-family="Helvetica,sans-Serif" font-size="10.00">IGraphicsConstants.h</text>
</a>
</g>
</g>
<!-- Node25&#45;&gt;Node27 -->
<g id="edge49" class="edge"><title>Node25&#45;&gt;Node27</title>
<path fill="none" stroke="midnightblue" d="M846.362,-336.46C783.014,-316.886 627.279,-268.766 555.43,-246.565"/>
<polygon fill="midnightblue" stroke="midnightblue" points="556.454,-243.219 545.866,-243.61 554.387,-249.907 556.454,-243.219"/>
</g>
<!-- Node28 -->
<g id="node28" class="node"><title>Node28</title>
<g id="a_node28"><a xlink:href="_i_graphics_structs_8h_source.html" target="_top" xlink:title="IGraphicsStructs.h">
<polygon fill="white" stroke="black" points="747,-280.5 747,-299.5 845,-299.5 845,-280.5 747,-280.5"/>
<text text-anchor="middle" x="796" y="-287.5" font-family="Helvetica,sans-Serif" font-size="10.00">IGraphicsStructs.h</text>
</a>
</g>
</g>
<!-- Node25&#45;&gt;Node28 -->
<g id="edge51" class="edge"><title>Node25&#45;&gt;Node28</title>
<path fill="none" stroke="midnightblue" d="M861.468,-336.324C849.414,-327.979 830.973,-315.212 816.731,-305.352"/>
<polygon fill="midnightblue" stroke="midnightblue" points="818.715,-302.469 808.501,-299.655 814.731,-308.224 818.715,-302.469"/>
</g>
<!-- Node31 -->
<g id="node31" class="node"><title>Node31</title>
<g id="a_node31"><a xlink:href="_i_graphics_utilites_8h_source.html" target="_top" xlink:title="IGraphicsUtilites.h">
<polygon fill="white" stroke="black" points="976,-280.5 976,-299.5 1074,-299.5 1074,-280.5 976,-280.5"/>
<text text-anchor="middle" x="1025" y="-287.5" font-family="Helvetica,sans-Serif" font-size="10.00">IGraphicsUtilites.h</text>
</a>
</g>
</g>
<!-- Node25&#45;&gt;Node31 -->
<g id="edge61" class="edge"><title>Node25&#45;&gt;Node31</title>
<path fill="none" stroke="midnightblue" d="M897.926,-336.444C923.219,-327.399 963.302,-313.064 991.68,-302.916"/>
<polygon fill="midnightblue" stroke="midnightblue" points="992.948,-306.179 1001.19,-299.516 990.591,-299.588 992.948,-306.179"/>
</g>
<!-- Node32 -->
<g id="node32" class="node"><title>Node32</title>
<g id="a_node32"><a xlink:href="_i_popup_menu_8h.html" target="_top" xlink:title="A class for setting the contents of a pop up menu. ">
<polygon fill="white" stroke="black" points="820,-112.5 820,-131.5 900,-131.5 900,-112.5 820,-112.5"/>
<text text-anchor="middle" x="860" y="-119.5" font-family="Helvetica,sans-Serif" font-size="10.00">IPopupMenu.h</text>
</a>
</g>
</g>
<!-- Node25&#45;&gt;Node32 -->
<g id="edge62" class="edge"><title>Node25&#45;&gt;Node32</title>
<path fill="none" stroke="midnightblue" d="M874.341,-336.381C875.31,-322.856 879.001,-296.492 893,-280 916.928,-251.812 948.308,-275.295 968,-244 972.734,-236.477 971.539,-232.154 968,-224 950.996,-184.817 910.474,-153.903 884.188,-137.061"/>
<polygon fill="midnightblue" stroke="midnightblue" points="885.888,-133.997 875.545,-131.7 882.198,-139.945 885.888,-133.997"/>
</g>
<!-- Node27&#45;&gt;Node11 -->
<g id="edge50" class="edge"><title>Node27&#45;&gt;Node11</title>
<path fill="none" stroke="midnightblue" d="M506.432,-224.324C495.58,-216.185 479.119,-203.839 466.117,-194.087"/>
<polygon fill="midnightblue" stroke="midnightblue" points="467.879,-191.034 457.779,-187.834 463.679,-196.634 467.879,-191.034"/>
</g>
<!-- Node28&#45;&gt;Node4 -->
<g id="edge56" class="edge"><title>Node28&#45;&gt;Node4</title>
<path fill="none" stroke="midnightblue" d="M795.843,-280.297C795.255,-247.633 793.169,-131.866 792.342,-85.9573"/>
<polygon fill="midnightblue" stroke="midnightblue" points="795.84,-85.819 792.16,-75.8837 788.841,-85.9452 795.84,-85.819"/>
</g>
<!-- Node28&#45;&gt;Node6 -->
<g id="edge57" class="edge"><title>Node28&#45;&gt;Node6</title>
<path fill="none" stroke="midnightblue" d="M845.392,-282.447C890.419,-275.39 952.244,-262.61 968,-244 1006.5,-198.528 996.021,-120.947 988.549,-85.5692"/>
<polygon fill="midnightblue" stroke="midnightblue" points="991.926,-84.6344 986.294,-75.6601 985.1,-86.1875 991.926,-84.6344"/>
</g>
<!-- Node28&#45;&gt;Node11 -->
<g id="edge59" class="edge"><title>Node28&#45;&gt;Node11</title>
<path fill="none" stroke="midnightblue" d="M763.738,-280.477C731.675,-271.851 681.184,-257.845 638,-244 612.833,-235.932 606.992,-232.596 582,-224 548.173,-212.365 509.425,-199.599 481.964,-190.645"/>
<polygon fill="midnightblue" stroke="midnightblue" points="482.98,-187.295 472.388,-187.528 480.813,-193.951 482.98,-187.295"/>
</g>
<!-- Node28&#45;&gt;Node17 -->
<g id="edge53" class="edge"><title>Node28&#45;&gt;Node17</title>
<path fill="none" stroke="midnightblue" d="M792.903,-280.297C781.23,-247.494 739.733,-130.884 723.54,-85.3774"/>
<polygon fill="midnightblue" stroke="midnightblue" points="726.811,-84.1316 720.161,-75.8837 720.217,-86.4784 726.811,-84.1316"/>
</g>
<!-- Node28&#45;&gt;Node19 -->
<g id="edge52" class="edge"><title>Node28&#45;&gt;Node19</title>
<path fill="none" stroke="midnightblue" d="M845.222,-283.019C895.215,-276.007 968.161,-262.89 989,-244 1051.59,-187.264 1061.25,-127.96 1017,-56 1004.59,-35.8127 980.004,-24.3483 959.815,-18.05"/>
<polygon fill="midnightblue" stroke="midnightblue" points="960.613,-14.6385 950.038,-15.2829 958.707,-21.3739 960.613,-14.6385"/>
</g>
<!-- Node28&#45;&gt;Node22 -->
<g id="edge55" class="edge"><title>Node28&#45;&gt;Node22</title>
<path fill="none" stroke="midnightblue" d="M775.441,-280.368C729.334,-261.01 617.517,-214.065 563.79,-191.507"/>
<polygon fill="midnightblue" stroke="midnightblue" points="565.038,-188.235 554.463,-187.591 562.329,-194.69 565.038,-188.235"/>
</g>
<!-- Node28&#45;&gt;Node27 -->
<g id="edge60" class="edge"><title>Node28&#45;&gt;Node27</title>
<path fill="none" stroke="midnightblue" d="M751.95,-280.444C703.149,-270.964 624.437,-255.675 571.97,-245.483"/>
<polygon fill="midnightblue" stroke="midnightblue" points="572.328,-241.988 561.844,-243.516 570.993,-248.859 572.328,-241.988"/>
</g>
<!-- Node29 -->
<g id="node29" class="node"><title>Node29</title>
<polygon fill="white" stroke="#bfbfbf" points="820.5,-224.5 820.5,-243.5 879.5,-243.5 879.5,-224.5 820.5,-224.5"/>
<text text-anchor="middle" x="850" y="-231.5" font-family="Helvetica,sans-Serif" font-size="10.00">functional</text>
</g>
<!-- Node28&#45;&gt;Node29 -->
<g id="edge54" class="edge"><title>Node28&#45;&gt;Node29</title>
<path fill="none" stroke="midnightblue" d="M804.917,-280.083C812.78,-272.22 824.431,-260.569 833.919,-251.081"/>
<polygon fill="midnightblue" stroke="midnightblue" points="836.653,-253.297 841.249,-243.751 831.703,-248.347 836.653,-253.297"/>
</g>
<!-- Node30 -->
<g id="node30" class="node"><title>Node30</title>
<polygon fill="white" stroke="#bfbfbf" points="898,-224.5 898,-243.5 960,-243.5 960,-224.5 898,-224.5"/>
<text text-anchor="middle" x="929" y="-231.5" font-family="Helvetica,sans-Serif" font-size="10.00">nanosvg.h</text>
</g>
<!-- Node28&#45;&gt;Node30 -->
<g id="edge58" class="edge"><title>Node28&#45;&gt;Node30</title>
<path fill="none" stroke="midnightblue" d="M817.074,-280.444C839.06,-271.517 873.734,-257.439 898.664,-247.317"/>
<polygon fill="midnightblue" stroke="midnightblue" points="900.076,-250.521 908.024,-243.516 897.442,-244.035 900.076,-250.521"/>
</g>
<!-- Node32&#45;&gt;Node2 -->
<g id="edge64" class="edge"><title>Node32&#45;&gt;Node2</title>
<path fill="none" stroke="midnightblue" d="M859.153,-112.101C857.261,-97.6841 851.301,-69.4785 833,-56 763.277,-4.6486 531.121,-29.027 445,-20 430.741,-18.5054 415.016,-16.6963 401.515,-15.0933"/>
<polygon fill="midnightblue" stroke="midnightblue" points="401.579,-11.576 391.234,-13.8618 400.746,-18.5263 401.579,-11.576"/>
</g>
<!-- Node32&#45;&gt;Node4 -->
<g id="edge67" class="edge"><title>Node32&#45;&gt;Node4</title>
<path fill="none" stroke="midnightblue" d="M849.075,-112.324C838.825,-104.185 823.279,-91.8395 810.999,-82.0874"/>
<polygon fill="midnightblue" stroke="midnightblue" points="813.132,-79.3119 803.124,-75.8339 808.779,-84.7937 813.132,-79.3119"/>
</g>
<!-- Node32&#45;&gt;Node6 -->
<g id="edge68" class="edge"><title>Node32&#45;&gt;Node6</title>
<path fill="none" stroke="midnightblue" d="M879.648,-112.444C899.965,-103.596 931.903,-89.6875 955.098,-79.5865"/>
<polygon fill="midnightblue" stroke="midnightblue" points="956.673,-82.7181 964.444,-75.5164 953.878,-76.3002 956.673,-82.7181"/>
</g>
<!-- Node32&#45;&gt;Node13 -->
<g id="edge65" class="edge"><title>Node32&#45;&gt;Node13</title>
<path fill="none" stroke="midnightblue" d="M864.355,-112.243C870.482,-98.5288 879.478,-71.9106 866,-56 835.739,-20.2783 692.12,-12.8868 627.561,-11.3769"/>
<polygon fill="midnightblue" stroke="midnightblue" points="627.616,-7.87741 617.548,-11.1756 627.475,-14.876 627.616,-7.87741"/>
</g>
<!-- Node32&#45;&gt;Node17 -->
<g id="edge66" class="edge"><title>Node32&#45;&gt;Node17</title>
<path fill="none" stroke="midnightblue" d="M837.341,-112.444C813.598,-103.478 776.091,-89.314 749.262,-79.1827"/>
<polygon fill="midnightblue" stroke="midnightblue" points="750.144,-75.7749 739.553,-75.5164 747.671,-82.3235 750.144,-75.7749"/>
</g>
<!-- Node32&#45;&gt;Node19 -->
<g id="edge63" class="edge"><title>Node32&#45;&gt;Node19</title>
<path fill="none" stroke="midnightblue" d="M870.726,-112.36C880.543,-103.965 894.889,-90.406 904,-76 913.142,-61.5442 919.533,-43.0945 923.408,-29.547"/>
<polygon fill="midnightblue" stroke="midnightblue" points="926.888,-30.0791 926.077,-19.5154 920.123,-28.2795 926.888,-30.0791"/>
</g>
</g>
</svg>
        <g id="navigator" transform="translate(0 0)" fill="#404254">
                <rect fill="#f2f5e9" fill-opacity="0.5" stroke="#606060" stroke-width=".5" x="0" y="0" width="60" height="60"/>
                <use id="zoomplus" xlink:href="#zoomPlus" x="17" y="9" onmousedown="handleZoom(evt,'in')"/>
                <use id="zoomminus" xlink:href="#zoomMin" x="42" y="9" onmousedown="handleZoom(evt,'out')"/>
                <use id="reset" xlink:href="#resetDef" x="30" y="36" onmousedown="handleReset()"/>
                <g id="arrowUp" xlink:href="#dirArrow" transform="translate(30 24)" onmousedown="handlePan(0,-1)">
                  <use xlink:href="#rim" fill="#404040">
                        <set attributeName="fill" to="#808080" begin="arrowUp.mouseover" end="arrowUp.mouseout"/>
                  </use>
                  <path fill="none" stroke="white" stroke-width="1.5" d="M0,-3.0v7 M-2.5,-0.5L0,-3.0L2.5,-0.5"/>
                </g>
                <g id="arrowRight" xlink:href="#dirArrow" transform="rotate(90) translate(36 -43)" onmousedown="handlePan(1,0)">
                  <use xlink:href="#rim" fill="#404040">
                        <set attributeName="fill" to="#808080" begin="arrowRight.mouseover" end="arrowRight.mouseout"/>
                  </use>
                  <path fill="none" stroke="white" stroke-width="1.5" d="M0,-3.0v7 M-2.5,-0.5L0,-3.0L2.5,-0.5"/>
                </g>
                <g id="arrowDown" xlink:href="#dirArrow" transform="rotate(180) translate(-30 -48)" onmousedown="handlePan(0,1)">
                  <use xlink:href="#rim" fill="#404040">
                        <set attributeName="fill" to="#808080" begin="arrowDown.mouseover" end="arrowDown.mouseout"/>
                  </use>
                  <path fill="none" stroke="white" stroke-width="1.5" d="M0,-3.0v7 M-2.5,-0.5L0,-3.0L2.5,-0.5"/>
                </g>
                <g id="arrowLeft" xlink:href="#dirArrow" transform="rotate(270) translate(-36 17)" onmousedown="handlePan(-1,0)">
                  <use xlink:href="#rim" fill="#404040">
                        <set attributeName="fill" to="#808080" begin="arrowLeft.mouseover" end="arrowLeft.mouseout"/>
                  </use>
                  <path fill="none" stroke="white" stroke-width="1.5" d="M0,-3.0v7 M-2.5,-0.5L0,-3.0L2.5,-0.5"/>
                </g>
        </g>
        <svg viewBox="0 0 15 15" width="100%" height="30px" preserveAspectRatio="xMaxYMin meet">
         <g id="arrow_out" transform="scale(0.3 0.3)">
          <a xlink:href="_i_control_8h__incl_org.svg" target="_base">
           <rect id="button" ry="5" rx="5" y="6" x="6" height="38" width="38"
                fill="#f2f5e9" fill-opacity="0.5" stroke="#606060" stroke-width="1.0"/>
           <path id="arrow"
             d="M 11.500037,31.436501 C 11.940474,20.09759 22.043105,11.32322 32.158766,21.979434 L 37.068811,17.246167 C 37.068811,17.246167 37.088388,32 37.088388,32 L 22.160133,31.978069 C 22.160133,31.978069 26.997745,27.140456 26.997745,27.140456 C 18.528582,18.264221 13.291696,25.230495 11.500037,31.436501 z"
             style="fill:#404040;"/>
          </a>
         </g>
        </svg>
</svg>
