<?xml version="1.0" encoding="UTF-8" standalone="no"?>
<!DOCTYPE svg PUBLIC "-//W3C//DTD SVG 1.1//EN"
 "http://www.w3.org/Graphics/SVG/1.1/DTD/svg11.dtd">
<!-- Generated by graphviz version 2.36.0 (20140111.2315)
 -->
<!-- Title: IGraphics.h Pages: 1 -->
<svg width="1196pt" height="476pt"
 viewBox="0.00 0.00 1196.00 476.00" xmlns="http://www.w3.org/2000/svg" xmlns:xlink="http://www.w3.org/1999/xlink">
<g id="graph0" class="graph" transform="scale(1 1) rotate(0) translate(4 472)">
<title>IGraphics.h</title>
<polygon fill="white" stroke="none" points="-4,4 -4,-472 1192,-472 1192,4 -4,4"/>
<!-- Node1 -->
<g id="node1" class="node"><title>Node1</title>
<polygon fill="#bfbfbf" stroke="black" points="339.5,-448.5 339.5,-467.5 406.5,-467.5 406.5,-448.5 339.5,-448.5"/>
<text text-anchor="middle" x="373" y="-455.5" font-family="Helvetica,sans-Serif" font-size="10.00">IGraphics.h</text>
</g>
<!-- Node2 -->
<g id="node2" class="node"><title>Node2</title>
<polygon fill="white" stroke="#bfbfbf" points="85,-392.5 85,-411.5 141,-411.5 141,-392.5 85,-392.5"/>
<text text-anchor="middle" x="113" y="-399.5" font-family="Helvetica,sans-Serif" font-size="10.00">ft2build.h</text>
</g>
<!-- Node1&#45;&gt;Node2 -->
<g id="edge1" class="edge"><title>Node1&#45;&gt;Node2</title>
<path fill="none" stroke="midnightblue" d="M339.289,-450.627C297.422,-442.619 223.585,-428.187 151.019,-412.162"/>
<polygon fill="midnightblue" stroke="midnightblue" points="151.776,-408.745 141.255,-409.994 150.259,-415.579 151.776,-408.745"/>
</g>
<!-- Node3 -->
<g id="node3" class="node"><title>Node3</title>
<g id="a_node3"><a xlink:href="_i_graphics_constants_8h_source.html" target="_top" xlink:title="IGraphicsConstants.h">
<polygon fill="white" stroke="black" points="604,-224.5 604,-243.5 716,-243.5 716,-224.5 604,-224.5"/>
<text text-anchor="middle" x="660" y="-231.5" font-family="Helvetica,sans-Serif" font-size="10.00">IGraphicsConstants.h</text>
</a>
</g>
</g>
<!-- Node1&#45;&gt;Node3 -->
<g id="edge2" class="edge"><title>Node1&#45;&gt;Node3</title>
<path fill="none" stroke="midnightblue" d="M406.789,-453.036C439.22,-447.898 488.393,-436.498 524,-412 586.474,-369.017 632.903,-288.326 651.313,-252.689"/>
<polygon fill="midnightblue" stroke="midnightblue" points="654.553,-254.036 655.934,-243.532 648.304,-250.882 654.553,-254.036"/>
</g>
<!-- Node19 -->
<g id="node19" class="node"><title>Node19</title>
<g id="a_node19"><a xlink:href="_i_graphics_structs_8h_source.html" target="_top" xlink:title="IGraphicsStructs.h">
<polygon fill="white" stroke="black" points="394,-280.5 394,-299.5 492,-299.5 492,-280.5 394,-280.5"/>
<text text-anchor="middle" x="443" y="-287.5" font-family="Helvetica,sans-Serif" font-size="10.00">IGraphicsStructs.h</text>
</a>
</g>
</g>
<!-- Node1&#45;&gt;Node19 -->
<g id="edge22" class="edge"><title>Node1&#45;&gt;Node19</title>
<path fill="none" stroke="midnightblue" d="M406.624,-456.132C438.336,-453.305 484.292,-443.58 507,-412 532.398,-376.679 488.746,-330 461.81,-306.268"/>
<polygon fill="midnightblue" stroke="midnightblue" points="463.962,-303.504 454.082,-299.678 459.42,-308.83 463.962,-303.504"/>
</g>
<!-- Node24 -->
<g id="node24" class="node"><title>Node24</title>
<g id="a_node24"><a xlink:href="_i_graphics_utilites_8h_source.html" target="_top" xlink:title="IGraphicsUtilites.h">
<polygon fill="white" stroke="black" points="401,-392.5 401,-411.5 499,-411.5 499,-392.5 401,-392.5"/>
<text text-anchor="middle" x="450" y="-399.5" font-family="Helvetica,sans-Serif" font-size="10.00">IGraphicsUtilites.h</text>
</a>
</g>
</g>
<!-- Node1&#45;&gt;Node24 -->
<g id="edge32" class="edge"><title>Node1&#45;&gt;Node24</title>
<path fill="none" stroke="midnightblue" d="M385.371,-448.324C397.158,-440.058 415.132,-427.453 429.136,-417.632"/>
<polygon fill="midnightblue" stroke="midnightblue" points="431.482,-420.262 437.659,-411.655 427.462,-414.531 431.482,-420.262"/>
</g>
<!-- Node25 -->
<g id="node25" class="node"><title>Node25</title>
<g id="a_node25"><a xlink:href="_i_popup_menu_8h.html" target="_top" xlink:title="A class for setting the contents of a pop up menu. ">
<polygon fill="white" stroke="black" points="289,-112.5 289,-131.5 369,-131.5 369,-112.5 289,-112.5"/>
<text text-anchor="middle" x="329" y="-119.5" font-family="Helvetica,sans-Serif" font-size="10.00">IPopupMenu.h</text>
</a>
</g>
</g>
<!-- Node1&#45;&gt;Node25 -->
<g id="edge33" class="edge"><title>Node1&#45;&gt;Node25</title>
<path fill="none" stroke="midnightblue" d="M373.54,-448.414C374.455,-427.624 374.443,-373.529 353,-336 302.128,-246.965 219.417,-280.898 176,-188 155.609,-144.369 226.814,-130.001 278.865,-125.285"/>
<polygon fill="midnightblue" stroke="midnightblue" points="279.302,-128.761 288.987,-124.464 278.737,-121.784 279.302,-128.761"/>
</g>
<!-- Node26 -->
<g id="node26" class="node"><title>Node26</title>
<g id="a_node26"><a xlink:href="_i_control_8h.html" target="_top" xlink:title="The lowest level base class of an IGraphics control. ">
<polygon fill="white" stroke="black" points="159.5,-392.5 159.5,-411.5 218.5,-411.5 218.5,-392.5 159.5,-392.5"/>
<text text-anchor="middle" x="189" y="-399.5" font-family="Helvetica,sans-Serif" font-size="10.00">IControl.h</text>
</a>
</g>
</g>
<!-- Node1&#45;&gt;Node26 -->
<g id="edge40" class="edge"><title>Node1&#45;&gt;Node26</title>
<path fill="none" stroke="midnightblue" d="M339.188,-448.562C306.013,-439.423 255.929,-424.782 222.775,-414.572"/>
<polygon fill="midnightblue" stroke="midnightblue" points="223.655,-411.18 213.067,-411.556 221.578,-417.865 223.655,-411.18"/>
</g>
<!-- Node4 -->
<g id="node4" class="node"><title>Node4</title>
<g id="a_node4"><a xlink:href="_i_plug_platform_8h.html" target="_top" xlink:title="Include to get consistently named preprocessor macros for different platforms and logging functionali...">
<polygon fill="white" stroke="black" points="773,-168.5 773,-187.5 857,-187.5 857,-168.5 773,-168.5"/>
<text text-anchor="middle" x="815" y="-175.5" font-family="Helvetica,sans-Serif" font-size="10.00">IPlugPlatform.h</text>
</a>
</g>
</g>
<!-- Node3&#45;&gt;Node4 -->
<g id="edge3" class="edge"><title>Node3&#45;&gt;Node4</title>
<path fill="none" stroke="midnightblue" d="M684.56,-224.444C710.523,-215.399 751.668,-201.064 780.797,-190.916"/>
<polygon fill="midnightblue" stroke="midnightblue" points="782.263,-194.112 790.555,-187.516 779.96,-187.501 782.263,-194.112"/>
</g>
<!-- Node5 -->
<g id="node5" class="node"><title>Node5</title>
<g id="a_node5"><a xlink:href="_i_plug_logger_8h.html" target="_top" xlink:title="IPlug Logging functionailty To trace some arbitrary data: Trace(TRACELOC, &quot;%s:%d&quot;, myStr, myInt); To simply create a trace entry in the log: TRACE; No need to wrap tracer calls in #ifdef TRACER_BUILD because Trace is a no&#45;op unless TRACER_BUILD is defined. ">
<polygon fill="white" stroke="black" points="805.5,-112.5 805.5,-131.5 882.5,-131.5 882.5,-112.5 805.5,-112.5"/>
<text text-anchor="middle" x="844" y="-119.5" font-family="Helvetica,sans-Serif" font-size="10.00">IPlugLogger.h</text>
</a>
</g>
</g>
<!-- Node4&#45;&gt;Node5 -->
<g id="edge4" class="edge"><title>Node4&#45;&gt;Node5</title>
<path fill="none" stroke="midnightblue" d="M819.789,-168.083C823.758,-160.691 829.525,-149.953 834.435,-140.811"/>
<polygon fill="midnightblue" stroke="midnightblue" points="837.653,-142.217 839.3,-131.751 831.486,-138.905 837.653,-142.217"/>
</g>
<!-- Node6 -->
<g id="node6" class="node"><title>Node6</title>
<polygon fill="white" stroke="#bfbfbf" points="647.5,-0.5 647.5,-19.5 690.5,-19.5 690.5,-0.5 647.5,-0.5"/>
<text text-anchor="middle" x="669" y="-7.5" font-family="Helvetica,sans-Serif" font-size="10.00">cstdio</text>
</g>
<!-- Node5&#45;&gt;Node6 -->
<g id="edge5" class="edge"><title>Node5&#45;&gt;Node6</title>
<path fill="none" stroke="midnightblue" d="M855.446,-112.479C871.456,-99.5365 896.983,-74.4794 882,-56 859.517,-28.2706 754.233,-16.9617 700.59,-12.9387"/>
<polygon fill="midnightblue" stroke="midnightblue" points="700.813,-9.44576 690.59,-12.2285 700.317,-16.4282 700.813,-9.44576"/>
</g>
<!-- Node7 -->
<g id="node7" class="node"><title>Node7</title>
<polygon fill="white" stroke="#bfbfbf" points="813,-0.5 813,-19.5 859,-19.5 859,-0.5 813,-0.5"/>
<text text-anchor="middle" x="836" y="-7.5" font-family="Helvetica,sans-Serif" font-size="10.00">cctype</text>
</g>
<!-- Node5&#45;&gt;Node7 -->
<g id="edge6" class="edge"><title>Node5&#45;&gt;Node7</title>
<path fill="none" stroke="midnightblue" d="M867.35,-112.482C893.529,-101.509 930.538,-80.8577 916,-56 905.845,-38.6368 886.255,-27.4558 869.003,-20.5818"/>
<polygon fill="midnightblue" stroke="midnightblue" points="869.798,-17.1469 859.204,-17.0181 867.405,-23.7253 869.798,-17.1469"/>
</g>
<!-- Node8 -->
<g id="node8" class="node"><title>Node8</title>
<polygon fill="white" stroke="#bfbfbf" points="765.5,-56.5 765.5,-75.5 814.5,-75.5 814.5,-56.5 765.5,-56.5"/>
<text text-anchor="middle" x="790" y="-63.5" font-family="Helvetica,sans-Serif" font-size="10.00">cstdarg</text>
</g>
<!-- Node5&#45;&gt;Node8 -->
<g id="edge7" class="edge"><title>Node5&#45;&gt;Node8</title>
<path fill="none" stroke="midnightblue" d="M835.083,-112.083C827.22,-104.22 815.569,-92.5688 806.081,-83.0813"/>
<polygon fill="midnightblue" stroke="midnightblue" points="808.297,-80.3473 798.751,-75.7511 803.347,-85.2971 808.297,-80.3473"/>
</g>
<!-- Node9 -->
<g id="node9" class="node"><title>Node9</title>
<polygon fill="white" stroke="#bfbfbf" points="968,-56.5 968,-75.5 1014,-75.5 1014,-56.5 968,-56.5"/>
<text text-anchor="middle" x="991" y="-63.5" font-family="Helvetica,sans-Serif" font-size="10.00">cstdint</text>
</g>
<!-- Node5&#45;&gt;Node9 -->
<g id="edge8" class="edge"><title>Node5&#45;&gt;Node9</title>
<path fill="none" stroke="midnightblue" d="M867.293,-112.444C891.807,-103.438 930.596,-89.1891 958.2,-79.049"/>
<polygon fill="midnightblue" stroke="midnightblue" points="959.637,-82.25 967.816,-75.5164 957.223,-75.6793 959.637,-82.25"/>
</g>
<!-- Node10 -->
<g id="node10" class="node"><title>Node10</title>
<polygon fill="white" stroke="#bfbfbf" points="491,-0.5 491,-19.5 537,-19.5 537,-0.5 491,-0.5"/>
<text text-anchor="middle" x="514" y="-7.5" font-family="Helvetica,sans-Serif" font-size="10.00">cstring</text>
</g>
<!-- Node5&#45;&gt;Node10 -->
<g id="edge9" class="edge"><title>Node5&#45;&gt;Node10</title>
<path fill="none" stroke="midnightblue" d="M827.492,-112.449C793.647,-94.9231 719.429,-56.5162 718,-56 659.635,-34.9141 588.157,-21.912 547.168,-15.6074"/>
<polygon fill="midnightblue" stroke="midnightblue" points="547.594,-12.1322 537.186,-14.1123 546.557,-19.055 547.594,-12.1322"/>
</g>
<!-- Node11 -->
<g id="node11" class="node"><title>Node11</title>
<polygon fill="white" stroke="#bfbfbf" points="832.5,-56.5 832.5,-75.5 873.5,-75.5 873.5,-56.5 832.5,-56.5"/>
<text text-anchor="middle" x="853" y="-63.5" font-family="Helvetica,sans-Serif" font-size="10.00">ctime</text>
</g>
<!-- Node5&#45;&gt;Node11 -->
<g id="edge10" class="edge"><title>Node5&#45;&gt;Node11</title>
<path fill="none" stroke="midnightblue" d="M845.486,-112.083C846.679,-104.927 848.394,-94.6353 849.885,-85.6911"/>
<polygon fill="midnightblue" stroke="midnightblue" points="853.35,-86.1904 851.541,-75.7511 846.445,-85.0396 853.35,-86.1904"/>
</g>
<!-- Node12 -->
<g id="node12" class="node"><title>Node12</title>
<polygon fill="white" stroke="#bfbfbf" points="561.5,-56.5 561.5,-75.5 610.5,-75.5 610.5,-56.5 561.5,-56.5"/>
<text text-anchor="middle" x="586" y="-63.5" font-family="Helvetica,sans-Serif" font-size="10.00">cassert</text>
</g>
<!-- Node5&#45;&gt;Node12 -->
<g id="edge11" class="edge"><title>Node5&#45;&gt;Node12</title>
<path fill="none" stroke="midnightblue" d="M805.4,-113.981C762.649,-106.044 691.472,-92.3514 620.804,-76.0743"/>
<polygon fill="midnightblue" stroke="midnightblue" points="621.372,-72.613 610.839,-73.7607 619.788,-79.4316 621.372,-72.613"/>
</g>
<!-- Node13 -->
<g id="node13" class="node"><title>Node13</title>
<polygon fill="white" stroke="#bfbfbf" points="403,-56.5 403,-75.5 467,-75.5 467,-56.5 403,-56.5"/>
<text text-anchor="middle" x="435" y="-63.5" font-family="Helvetica,sans-Serif" font-size="10.00">wdlstring.h</text>
</g>
<!-- Node5&#45;&gt;Node13 -->
<g id="edge12" class="edge"><title>Node5&#45;&gt;Node13</title>
<path fill="none" stroke="midnightblue" d="M805.154,-115.871C728.248,-105.717 557.165,-83.1294 477.43,-72.602"/>
<polygon fill="midnightblue" stroke="midnightblue" points="477.632,-69.0983 467.26,-71.2592 476.715,-76.0381 477.632,-69.0983"/>
</g>
<!-- Node14 -->
<g id="node14" class="node"><title>Node14</title>
<polygon fill="white" stroke="#bfbfbf" points="1032,-56.5 1032,-75.5 1084,-75.5 1084,-56.5 1032,-56.5"/>
<text text-anchor="middle" x="1058" y="-63.5" font-family="Helvetica,sans-Serif" font-size="10.00">mutex.h</text>
</g>
<!-- Node5&#45;&gt;Node14 -->
<g id="edge13" class="edge"><title>Node5&#45;&gt;Node14</title>
<path fill="none" stroke="midnightblue" d="M878.329,-112.428C912.332,-103.925 966.156,-90.4305 1021.63,-76.3404"/>
<polygon fill="midnightblue" stroke="midnightblue" points="1022.8,-79.6529 1031.63,-73.7969 1021.08,-72.8687 1022.8,-79.6529"/>
</g>
<!-- Node15 -->
<g id="node15" class="node"><title>Node15</title>
<g id="a_node15"><a xlink:href="_i_plug_utilities_8h.html" target="_top" xlink:title="Utility functions and macros. ">
<polygon fill="white" stroke="black" points="629,-56.5 629,-75.5 709,-75.5 709,-56.5 629,-56.5"/>
<text text-anchor="middle" x="669" y="-63.5" font-family="Helvetica,sans-Serif" font-size="10.00">IPlugUtilities.h</text>
</a>
</g>
</g>
<!-- Node5&#45;&gt;Node15 -->
<g id="edge14" class="edge"><title>Node5&#45;&gt;Node15</title>
<path fill="none" stroke="midnightblue" d="M816.271,-112.444C786.574,-103.28 739.284,-88.6876 706.331,-78.5192"/>
<polygon fill="midnightblue" stroke="midnightblue" points="707.187,-75.1206 696.6,-75.5164 705.123,-81.8094 707.187,-75.1206"/>
</g>
<!-- Node15&#45;&gt;Node4 -->
<g id="edge21" class="edge"><title>Node15&#45;&gt;Node4</title>
<path fill="none" stroke="midnightblue" d="M689.069,-75.5485C706.786,-83.5928 732.855,-96.6729 753,-112 771.706,-126.232 789.876,-146.237 801.658,-160.283"/>
<polygon fill="midnightblue" stroke="midnightblue" points="799.067,-162.643 808.116,-168.154 804.479,-158.203 799.067,-162.643"/>
</g>
<!-- Node15&#45;&gt;Node6 -->
<g id="edge16" class="edge"><title>Node15&#45;&gt;Node6</title>
<path fill="none" stroke="midnightblue" d="M669,-56.083C669,-49.0059 669,-38.8611 669,-29.9865"/>
<polygon fill="midnightblue" stroke="midnightblue" points="672.5,-29.751 669,-19.7511 665.5,-29.7511 672.5,-29.751"/>
</g>
<!-- Node15&#45;&gt;Node7 -->
<g id="edge19" class="edge"><title>Node15&#45;&gt;Node7</title>
<path fill="none" stroke="midnightblue" d="M695.462,-56.4435C724.674,-46.9976 771.728,-31.7826 803.245,-21.5916"/>
<polygon fill="midnightblue" stroke="midnightblue" points="804.451,-24.88 812.889,-18.473 802.297,-18.2195 804.451,-24.88"/>
</g>
<!-- Node15&#45;&gt;Node10 -->
<g id="edge18" class="edge"><title>Node15&#45;&gt;Node10</title>
<path fill="none" stroke="midnightblue" d="M644.44,-56.4435C618.172,-47.2922 576.362,-32.726 547.18,-22.5594"/>
<polygon fill="midnightblue" stroke="midnightblue" points="548.026,-19.1478 537.431,-19.1629 545.723,-25.7581 548.026,-19.1478"/>
</g>
<!-- Node16 -->
<g id="node16" class="node"><title>Node16</title>
<polygon fill="white" stroke="#bfbfbf" points="277,-0.5 277,-19.5 321,-19.5 321,-0.5 277,-0.5"/>
<text text-anchor="middle" x="299" y="-7.5" font-family="Helvetica,sans-Serif" font-size="10.00">cmath</text>
</g>
<!-- Node15&#45;&gt;Node16 -->
<g id="edge15" class="edge"><title>Node15&#45;&gt;Node16</title>
<path fill="none" stroke="midnightblue" d="M628.906,-57.6434C625.558,-57.0715 622.222,-56.5164 619,-56 513.919,-39.1605 388.865,-22.5688 331.134,-15.1037"/>
<polygon fill="midnightblue" stroke="midnightblue" points="331.523,-11.625 321.157,-13.818 330.628,-18.5676 331.523,-11.625"/>
</g>
<!-- Node17 -->
<g id="node17" class="node"><title>Node17</title>
<polygon fill="white" stroke="#bfbfbf" points="94.5,-0.5 94.5,-19.5 139.5,-19.5 139.5,-0.5 94.5,-0.5"/>
<text text-anchor="middle" x="117" y="-7.5" font-family="Helvetica,sans-Serif" font-size="10.00">cstdlib</text>
</g>
<!-- Node15&#45;&gt;Node17 -->
<g id="edge17" class="edge"><title>Node15&#45;&gt;Node17</title>
<path fill="none" stroke="midnightblue" d="M628.932,-57.4651C625.578,-56.9326 622.234,-56.4352 619,-56 442.997,-32.3186 230.546,-17.9027 150.059,-12.9453"/>
<polygon fill="midnightblue" stroke="midnightblue" points="149.789,-9.42251 139.595,-12.3086 149.364,-16.4096 149.789,-9.42251"/>
</g>
<!-- Node18 -->
<g id="node18" class="node"><title>Node18</title>
<g id="a_node18"><a xlink:href="_i_plug_constants_8h.html" target="_top" xlink:title="Constant definitions, magic numbers. ">
<polygon fill="white" stroke="black" points="1085,-0.5 1085,-19.5 1177,-19.5 1177,-0.5 1085,-0.5"/>
<text text-anchor="middle" x="1131" y="-7.5" font-family="Helvetica,sans-Serif" font-size="10.00">IPlugConstants.h</text>
</a>
</g>
</g>
<!-- Node15&#45;&gt;Node18 -->
<g id="edge20" class="edge"><title>Node15&#45;&gt;Node18</title>
<path fill="none" stroke="midnightblue" d="M709.191,-60.3023C791.694,-50.6592 980.333,-28.6104 1074.85,-17.5626"/>
<polygon fill="midnightblue" stroke="midnightblue" points="1075.27,-21.0373 1084.8,-16.3999 1074.46,-14.0846 1075.27,-21.0373"/>
</g>
<!-- Node19&#45;&gt;Node3 -->
<g id="edge31" class="edge"><title>Node19&#45;&gt;Node3</title>
<path fill="none" stroke="midnightblue" d="M477.384,-280.444C514.922,-271.102 575.131,-256.119 616.067,-245.933"/>
<polygon fill="midnightblue" stroke="midnightblue" points="616.918,-249.328 625.777,-243.516 615.227,-242.535 616.918,-249.328"/>
</g>
<!-- Node19&#45;&gt;Node4 -->
<g id="edge30" class="edge"><title>Node19&#45;&gt;Node4</title>
<path fill="none" stroke="midnightblue" d="M459.896,-280.429C487.51,-266.731 544.322,-239.839 595,-224 651.097,-206.467 717.419,-193.978 762.468,-186.673"/>
<polygon fill="midnightblue" stroke="midnightblue" points="763.269,-190.09 772.594,-185.061 762.168,-183.177 763.269,-190.09"/>
</g>
<!-- Node19&#45;&gt;Node12 -->
<g id="edge24" class="edge"><title>Node19&#45;&gt;Node12</title>
<path fill="none" stroke="midnightblue" d="M450.893,-280.456C462.546,-267.904 485.123,-243.821 505,-224 515.519,-213.511 596.134,-145.647 602,-132 608.582,-116.685 602.765,-98.126 596.378,-84.7662"/>
<polygon fill="midnightblue" stroke="midnightblue" points="599.351,-82.902 591.577,-75.7033 593.165,-86.1785 599.351,-82.902"/>
</g>
<!-- Node19&#45;&gt;Node13 -->
<g id="edge27" class="edge"><title>Node19&#45;&gt;Node13</title>
<path fill="none" stroke="midnightblue" d="M442.686,-280.297C441.509,-247.633 437.338,-131.866 435.683,-85.9573"/>
<polygon fill="midnightblue" stroke="midnightblue" points="439.178,-85.7512 435.32,-75.8837 432.183,-86.0033 439.178,-85.7512"/>
</g>
<!-- Node19&#45;&gt;Node16 -->
<g id="edge23" class="edge"><title>Node19&#45;&gt;Node16</title>
<path fill="none" stroke="midnightblue" d="M393.601,-285.469C349.128,-280.711 282.965,-269.634 231,-244 136.018,-197.147 93.106,-177.238 62,-76 59.3893,-67.5031 56.3311,-62.8466 62,-56 87.5847,-25.1003 207.602,-15.247 266.387,-12.2446"/>
<polygon fill="midnightblue" stroke="midnightblue" points="266.791,-15.7294 276.615,-11.7601 266.46,-8.73727 266.791,-15.7294"/>
</g>
<!-- Node20 -->
<g id="node20" class="node"><title>Node20</title>
<polygon fill="white" stroke="#bfbfbf" points="336.5,-224.5 336.5,-243.5 395.5,-243.5 395.5,-224.5 336.5,-224.5"/>
<text text-anchor="middle" x="366" y="-231.5" font-family="Helvetica,sans-Serif" font-size="10.00">functional</text>
</g>
<!-- Node19&#45;&gt;Node20 -->
<g id="edge25" class="edge"><title>Node19&#45;&gt;Node20</title>
<path fill="none" stroke="midnightblue" d="M430.629,-280.324C418.842,-272.058 400.868,-259.453 386.864,-249.632"/>
<polygon fill="midnightblue" stroke="midnightblue" points="388.538,-246.531 378.341,-243.655 384.518,-252.262 388.538,-246.531"/>
</g>
<!-- Node21 -->
<g id="node21" class="node"><title>Node21</title>
<polygon fill="white" stroke="#bfbfbf" points="578,-168.5 578,-187.5 634,-187.5 634,-168.5 578,-168.5"/>
<text text-anchor="middle" x="606" y="-175.5" font-family="Helvetica,sans-Serif" font-size="10.00">algorithm</text>
</g>
<!-- Node19&#45;&gt;Node21 -->
<g id="edge26" class="edge"><title>Node19&#45;&gt;Node21</title>
<path fill="none" stroke="midnightblue" d="M455.79,-280.368C483.761,-261.492 550.602,-216.385 584.904,-193.237"/>
<polygon fill="midnightblue" stroke="midnightblue" points="586.938,-196.087 593.269,-187.591 583.022,-190.284 586.938,-196.087"/>
</g>
<!-- Node22 -->
<g id="node22" class="node"><title>Node22</title>
<polygon fill="white" stroke="#bfbfbf" points="210.5,-56.5 210.5,-75.5 259.5,-75.5 259.5,-56.5 210.5,-56.5"/>
<text text-anchor="middle" x="235" y="-63.5" font-family="Helvetica,sans-Serif" font-size="10.00">ptrlist.h</text>
</g>
<!-- Node19&#45;&gt;Node22 -->
<g id="edge28" class="edge"><title>Node19&#45;&gt;Node22</title>
<path fill="none" stroke="midnightblue" d="M393.865,-284.344C342.176,-278.346 265.753,-265.977 247,-244 208.395,-198.758 221.202,-121.06 229.826,-85.6109"/>
<polygon fill="midnightblue" stroke="midnightblue" points="233.279,-86.2397 232.408,-75.6807 226.504,-84.4778 233.279,-86.2397"/>
</g>
<!-- Node23 -->
<g id="node23" class="node"><title>Node23</title>
<polygon fill="white" stroke="#bfbfbf" points="256,-224.5 256,-243.5 318,-243.5 318,-224.5 256,-224.5"/>
<text text-anchor="middle" x="287" y="-231.5" font-family="Helvetica,sans-Serif" font-size="10.00">nanosvg.h</text>
</g>
<!-- Node19&#45;&gt;Node23 -->
<g id="edge29" class="edge"><title>Node19&#45;&gt;Node23</title>
<path fill="none" stroke="midnightblue" d="M418.281,-280.444C392.152,-271.399 350.741,-257.064 321.424,-246.916"/>
<polygon fill="midnightblue" stroke="midnightblue" points="322.198,-243.48 311.603,-243.516 319.908,-250.095 322.198,-243.48"/>
</g>
<!-- Node25&#45;&gt;Node6 -->
<g id="edge36" class="edge"><title>Node25&#45;&gt;Node6</title>
<path fill="none" stroke="midnightblue" d="M334.997,-112.116C345.242,-97.7198 367.586,-69.5438 394,-56 436.017,-34.4556 573.854,-19.6024 636.95,-13.7629"/>
<polygon fill="midnightblue" stroke="midnightblue" points="637.474,-17.2298 647.117,-12.8404 636.841,-10.2585 637.474,-17.2298"/>
</g>
<!-- Node25&#45;&gt;Node10 -->
<g id="edge35" class="edge"><title>Node25&#45;&gt;Node10</title>
<path fill="none" stroke="midnightblue" d="M330.855,-112.457C334.319,-98.5523 343.102,-71.0661 361,-56 395.118,-27.2812 446.87,-16.887 480.561,-13.1272"/>
<polygon fill="midnightblue" stroke="midnightblue" points="481.207,-16.5808 490.819,-12.1248 480.526,-9.61399 481.207,-16.5808"/>
</g>
<!-- Node25&#45;&gt;Node12 -->
<g id="edge37" class="edge"><title>Node25&#45;&gt;Node12</title>
<path fill="none" stroke="midnightblue" d="M369.156,-112.562C419.162,-102.056 503.762,-84.2796 551.157,-74.3211"/>
<polygon fill="midnightblue" stroke="midnightblue" points="552.175,-77.6838 561.241,-72.2023 550.735,-70.8334 552.175,-77.6838"/>
</g>
<!-- Node25&#45;&gt;Node13 -->
<g id="edge38" class="edge"><title>Node25&#45;&gt;Node13</title>
<path fill="none" stroke="midnightblue" d="M346.031,-112.324C363.03,-103.664 389.376,-90.2424 408.993,-80.249"/>
<polygon fill="midnightblue" stroke="midnightblue" points="410.69,-83.3125 418.012,-75.6545 407.512,-77.0752 410.69,-83.3125"/>
</g>
<!-- Node25&#45;&gt;Node16 -->
<g id="edge34" class="edge"><title>Node25&#45;&gt;Node16</title>
<path fill="none" stroke="midnightblue" d="M326.646,-112.368C321.783,-94.5366 310.535,-53.2953 303.983,-29.2717"/>
<polygon fill="midnightblue" stroke="midnightblue" points="307.351,-28.3181 301.343,-19.5914 300.598,-30.16 307.351,-28.3181"/>
</g>
<!-- Node25&#45;&gt;Node22 -->
<g id="edge39" class="edge"><title>Node25&#45;&gt;Node22</title>
<path fill="none" stroke="midnightblue" d="M313.897,-112.324C299.097,-103.822 276.306,-90.7288 259.018,-80.7975"/>
<polygon fill="midnightblue" stroke="midnightblue" points="260.48,-77.6009 250.065,-75.6545 256.993,-83.6707 260.48,-77.6009"/>
</g>
<!-- Node26&#45;&gt;Node1 -->
<g id="edge69" class="edge"><title>Node26&#45;&gt;Node1</title>
<path fill="none" stroke="midnightblue" d="M218.682,-410.304C251.721,-419.331 304.714,-434.799 339.274,-445.443"/>
<polygon fill="midnightblue" stroke="midnightblue" points="338.345,-448.82 348.933,-448.444 340.422,-442.135 338.345,-448.82"/>
</g>
<!-- Node26&#45;&gt;Node10 -->
<g id="edge41" class="edge"><title>Node26&#45;&gt;Node10</title>
<path fill="none" stroke="midnightblue" d="M176.786,-392.236C166.646,-384.143 152.957,-371.112 147,-356 143.74,-347.73 146.422,-344.87 147,-336 155.246,-209.531 105.521,-139.344 201,-56 242.109,-20.1153 408.117,-12.8268 480.256,-11.3613"/>
<polygon fill="midnightblue" stroke="midnightblue" points="480.657,-14.8548 490.594,-11.1785 480.533,-7.85589 480.657,-14.8548"/>
</g>
<!-- Node26&#45;&gt;Node13 -->
<g id="edge43" class="edge"><title>Node26&#45;&gt;Node13</title>
<path fill="none" stroke="midnightblue" d="M178.112,-392.21C164.567,-380.132 144.127,-357.454 152,-336 198.618,-208.971 277.31,-222.394 378,-132 394.674,-117.031 411.286,-97.4139 422.238,-83.6618"/>
<polygon fill="midnightblue" stroke="midnightblue" points="425.156,-85.6122 428.561,-75.5793 419.642,-81.2991 425.156,-85.6122"/>
</g>
<!-- Node26&#45;&gt;Node17 -->
<g id="edge42" class="edge"><title>Node26&#45;&gt;Node17</title>
<path fill="none" stroke="midnightblue" d="M164.292,-392.407C113.061,-373.834 0,-328.586 0,-291 0,-291 0,-291 0,-121 0,-73.5994 51.604,-40.6419 86.2692,-23.85"/>
<polygon fill="midnightblue" stroke="midnightblue" points="87.9452,-26.9307 95.5404,-19.5439 84.9965,-20.5821 87.9452,-26.9307"/>
</g>
<!-- Node26&#45;&gt;Node22 -->
<g id="edge45" class="edge"><title>Node26&#45;&gt;Node22</title>
<path fill="none" stroke="midnightblue" d="M164.531,-392.438C148.433,-385.378 128.623,-373.626 119,-356 114.741,-348.198 117.719,-344.796 119,-336 130.228,-258.91 136.239,-238.68 169,-168 183.677,-136.336 207.206,-103.106 221.848,-83.7609"/>
<polygon fill="midnightblue" stroke="midnightblue" points="224.743,-85.7365 228.065,-75.6758 219.194,-81.4694 224.743,-85.7365"/>
</g>
<!-- Node27 -->
<g id="node27" class="node"><title>Node27</title>
<polygon fill="white" stroke="#bfbfbf" points="161,-336.5 161,-355.5 217,-355.5 217,-336.5 161,-336.5"/>
<text text-anchor="middle" x="189" y="-343.5" font-family="Helvetica,sans-Serif" font-size="10.00">dirscan.h</text>
</g>
<!-- Node26&#45;&gt;Node27 -->
<g id="edge44" class="edge"><title>Node26&#45;&gt;Node27</title>
<path fill="none" stroke="midnightblue" d="M189,-392.083C189,-385.006 189,-374.861 189,-365.986"/>
<polygon fill="midnightblue" stroke="midnightblue" points="192.5,-365.751 189,-355.751 185.5,-365.751 192.5,-365.751"/>
</g>
<!-- Node28 -->
<g id="node28" class="node"><title>Node28</title>
<g id="a_node28"><a xlink:href="_i_plug_base_graphics_8h.html" target="_top" xlink:title="An IPlugBase class for an IPlug plug&#45;in that uses IGraphics for it&#39;s UI. ">
<polygon fill="white" stroke="black" points="235.5,-336.5 235.5,-355.5 344.5,-355.5 344.5,-336.5 235.5,-336.5"/>
<text text-anchor="middle" x="290" y="-343.5" font-family="Helvetica,sans-Serif" font-size="10.00">IPlugBaseGraphics.h</text>
</a>
</g>
</g>
<!-- Node26&#45;&gt;Node28 -->
<g id="edge46" class="edge"><title>Node26&#45;&gt;Node28</title>
<path fill="none" stroke="midnightblue" d="M205.227,-392.324C221.351,-383.703 246.3,-370.364 264.964,-360.386"/>
<polygon fill="midnightblue" stroke="midnightblue" points="266.644,-363.456 273.813,-355.655 263.344,-357.283 266.644,-363.456"/>
</g>
<!-- Node29 -->
<g id="node29" class="node"><title>Node29</title>
<g id="a_node29"><a xlink:href="_i_plug_base_8h.html" target="_top" xlink:title="The lowest level base class of an IPlug plug&#45;in. ">
<polygon fill="white" stroke="black" points="804,-280.5 804,-299.5 874,-299.5 874,-280.5 804,-280.5"/>
<text text-anchor="middle" x="839" y="-287.5" font-family="Helvetica,sans-Serif" font-size="10.00">IPlugBase.h</text>
</a>
</g>
</g>
<!-- Node28&#45;&gt;Node29 -->
<g id="edge47" class="edge"><title>Node28&#45;&gt;Node29</title>
<path fill="none" stroke="midnightblue" d="M344.647,-339.625C453.093,-328.958 693.658,-305.296 793.843,-295.442"/>
<polygon fill="midnightblue" stroke="midnightblue" points="794.331,-298.911 803.94,-294.448 793.646,-291.944 794.331,-298.911"/>
</g>
<!-- Node29&#45;&gt;Node4 -->
<g id="edge52" class="edge"><title>Node29&#45;&gt;Node4</title>
<path fill="none" stroke="midnightblue" d="M839.21,-280.45C839.325,-267.89 838.806,-243.798 834,-224 831.749,-214.729 827.808,-204.916 824.096,-196.828"/>
<polygon fill="midnightblue" stroke="midnightblue" points="827.172,-195.149 819.661,-187.676 820.872,-198.201 827.172,-195.149"/>
</g>
<!-- Node29&#45;&gt;Node9 -->
<g id="edge49" class="edge"><title>Node29&#45;&gt;Node9</title>
<path fill="none" stroke="midnightblue" d="M874.018,-287.535C905.403,-284.201 950.072,-274.055 974,-244 1011.13,-197.364 1001.92,-120.375 995.15,-85.3586"/>
<polygon fill="midnightblue" stroke="midnightblue" points="998.573,-84.6279 993.1,-75.556 991.721,-86.0607 998.573,-84.6279"/>
</g>
<!-- Node29&#45;&gt;Node10 -->
<g id="edge48" class="edge"><title>Node29&#45;&gt;Node10</title>
<path fill="none" stroke="midnightblue" d="M829.71,-280.238C815.964,-267.413 789.219,-242.995 765,-224 753.698,-215.136 562.8,-86.5013 553,-76 539.978,-62.0462 529.193,-43.0408 522.291,-29.1861"/>
<polygon fill="midnightblue" stroke="midnightblue" points="525.261,-27.2829 517.796,-19.7643 518.943,-30.2969 525.261,-27.2829"/>
</g>
<!-- Node29&#45;&gt;Node14 -->
<g id="edge51" class="edge"><title>Node29&#45;&gt;Node14</title>
<path fill="none" stroke="midnightblue" d="M874.245,-287.698C908.923,-284.577 961.294,-274.665 994,-244 1040.03,-200.842 1053.03,-122.084 1056.64,-85.9885"/>
<polygon fill="midnightblue" stroke="midnightblue" points="1060.14,-86.1309 1057.52,-75.8673 1053.17,-85.5298 1060.14,-86.1309"/>
</g>
<!-- Node29&#45;&gt;Node15 -->
<g id="edge64" class="edge"><title>Node29&#45;&gt;Node15</title>
<path fill="none" stroke="midnightblue" d="M833.806,-280.32C826.074,-267.598 810.847,-243.307 796,-224 782.95,-207.03 777.727,-204.427 764,-188 733.61,-151.635 699.707,-107.548 681.761,-83.9153"/>
<polygon fill="midnightblue" stroke="midnightblue" points="684.331,-81.511 675.504,-75.6513 678.75,-85.7366 684.331,-81.511"/>
</g>
<!-- Node29&#45;&gt;Node18 -->
<g id="edge53" class="edge"><title>Node29&#45;&gt;Node18</title>
<path fill="none" stroke="midnightblue" d="M874.061,-285.503C962.563,-275.712 1188,-244.355 1188,-179 1188,-179 1188,-179 1188,-121 1188,-84.3005 1162.68,-47.6567 1145.79,-27.2973"/>
<polygon fill="midnightblue" stroke="midnightblue" points="1148.35,-24.9037 1139.17,-19.6161 1143.05,-29.475 1148.35,-24.9037"/>
</g>
<!-- Node29&#45;&gt;Node22 -->
<g id="edge50" class="edge"><title>Node29&#45;&gt;Node22</title>
<path fill="none" stroke="midnightblue" d="M803.953,-287.905C709.548,-283.269 445.879,-259.003 280,-132 263.708,-119.526 251.098,-99.4539 243.425,-84.912"/>
<polygon fill="midnightblue" stroke="midnightblue" points="246.518,-83.2711 238.918,-75.8894 240.256,-86.3995 246.518,-83.2711"/>
</g>
<!-- Node30 -->
<g id="node30" class="node"><title>Node30</title>
<g id="a_node30"><a xlink:href="_i_plug_structs_8h_source.html" target="_top" xlink:title="IPlugStructs.h">
<polygon fill="white" stroke="black" points="886.5,-224.5 886.5,-243.5 965.5,-243.5 965.5,-224.5 886.5,-224.5"/>
<text text-anchor="middle" x="926" y="-231.5" font-family="Helvetica,sans-Serif" font-size="10.00">IPlugStructs.h</text>
</a>
</g>
</g>
<!-- Node29&#45;&gt;Node30 -->
<g id="edge54" class="edge"><title>Node29&#45;&gt;Node30</title>
<path fill="none" stroke="midnightblue" d="M852.978,-280.324C866.55,-271.9 887.38,-258.971 903.325,-249.074"/>
<polygon fill="midnightblue" stroke="midnightblue" points="905.406,-251.902 912.057,-243.655 901.714,-245.954 905.406,-251.902"/>
</g>
<!-- Node32 -->
<g id="node32" class="node"><title>Node32</title>
<g id="a_node32"><a xlink:href="_i_plug_parameter_8h_source.html" target="_top" xlink:title="IPlugParameter.h">
<polygon fill="white" stroke="black" points="501,-112.5 501,-131.5 593,-131.5 593,-112.5 501,-112.5"/>
<text text-anchor="middle" x="547" y="-119.5" font-family="Helvetica,sans-Serif" font-size="10.00">IPlugParameter.h</text>
</a>
</g>
</g>
<!-- Node29&#45;&gt;Node32 -->
<g id="edge65" class="edge"><title>Node29&#45;&gt;Node32</title>
<path fill="none" stroke="midnightblue" d="M825.521,-280.456C787.362,-256.312 678.966,-188.031 642,-168 620.275,-156.227 594.956,-144.32 575.921,-135.713"/>
<polygon fill="midnightblue" stroke="midnightblue" points="577.15,-132.428 566.593,-131.532 574.287,-138.816 577.15,-132.428"/>
</g>
<!-- Node30&#45;&gt;Node4 -->
<g id="edge58" class="edge"><title>Node30&#45;&gt;Node4</title>
<path fill="none" stroke="midnightblue" d="M908.166,-224.324C890.284,-215.625 862.525,-202.12 841.954,-192.113"/>
<polygon fill="midnightblue" stroke="midnightblue" points="843.313,-188.882 832.79,-187.655 840.251,-195.177 843.313,-188.882"/>
</g>
<!-- Node30&#45;&gt;Node13 -->
<g id="edge56" class="edge"><title>Node30&#45;&gt;Node13</title>
<path fill="none" stroke="midnightblue" d="M920.902,-224.394C911.77,-209.871 891.113,-180.83 865,-168 715.519,-94.5579 640.221,-207.954 492,-132 471.204,-121.343 454.621,-99.6082 444.818,-84.2107"/>
<polygon fill="midnightblue" stroke="midnightblue" points="447.781,-82.3466 439.613,-75.5983 441.79,-85.9671 447.781,-82.3466"/>
</g>
<!-- Node30&#45;&gt;Node18 -->
<g id="edge57" class="edge"><title>Node30&#45;&gt;Node18</title>
<path fill="none" stroke="midnightblue" d="M942.121,-224.436C978.933,-204.01 1069.49,-148.667 1115,-76 1123.77,-61.9951 1127.73,-43.4955 1129.53,-29.8144"/>
<polygon fill="midnightblue" stroke="midnightblue" points="1133.03,-29.9674 1130.58,-19.6601 1126.07,-29.2465 1133.03,-29.9674"/>
</g>
<!-- Node30&#45;&gt;Node21 -->
<g id="edge55" class="edge"><title>Node30&#45;&gt;Node21</title>
<path fill="none" stroke="midnightblue" d="M886.441,-226.324C824.476,-215.868 705.305,-195.758 644.193,-185.445"/>
<polygon fill="midnightblue" stroke="midnightblue" points="644.635,-181.97 634.192,-183.757 643.47,-188.873 644.635,-181.97"/>
</g>
<!-- Node31 -->
<g id="node31" class="node"><title>Node31</title>
<g id="a_node31"><a xlink:href="_i_plug_midi_8h_source.html" target="_top" xlink:title="IPlugMidi.h">
<polygon fill="white" stroke="black" points="900.5,-112.5 900.5,-131.5 965.5,-131.5 965.5,-112.5 900.5,-112.5"/>
<text text-anchor="middle" x="933" y="-119.5" font-family="Helvetica,sans-Serif" font-size="10.00">IPlugMidi.h</text>
</a>
</g>
</g>
<!-- Node30&#45;&gt;Node31 -->
<g id="edge59" class="edge"><title>Node30&#45;&gt;Node31</title>
<path fill="none" stroke="midnightblue" d="M926.549,-224.368C927.679,-206.617 930.285,-165.666 931.817,-141.597"/>
<polygon fill="midnightblue" stroke="midnightblue" points="935.311,-141.794 932.453,-131.591 928.325,-141.349 935.311,-141.794"/>
</g>
<!-- Node31&#45;&gt;Node9 -->
<g id="edge61" class="edge"><title>Node31&#45;&gt;Node9</title>
<path fill="none" stroke="midnightblue" d="M942.319,-112.324C950.893,-104.341 963.812,-92.3128 974.188,-82.6529"/>
<polygon fill="midnightblue" stroke="midnightblue" points="976.578,-85.2098 981.512,-75.8339 971.808,-80.0865 976.578,-85.2098"/>
</g>
<!-- Node31&#45;&gt;Node12 -->
<g id="edge60" class="edge"><title>Node31&#45;&gt;Node12</title>
<path fill="none" stroke="midnightblue" d="M900.49,-113.768C897.29,-113.136 894.086,-112.535 891,-112 774.438,-91.8016 740.943,-99.1736 620.756,-75.911"/>
<polygon fill="midnightblue" stroke="midnightblue" points="621.285,-72.4481 610.798,-73.9525 619.934,-79.3165 621.285,-72.4481"/>
</g>
<!-- Node31&#45;&gt;Node15 -->
<g id="edge63" class="edge"><title>Node31&#45;&gt;Node15</title>
<path fill="none" stroke="midnightblue" d="M900.448,-113.987C897.257,-113.311 894.066,-112.639 891,-112 832.069,-99.7137 764.238,-86.031 719.222,-77.0148"/>
<polygon fill="midnightblue" stroke="midnightblue" points="719.625,-73.5261 709.132,-74.9956 718.251,-80.39 719.625,-73.5261"/>
</g>
<!-- Node31&#45;&gt;Node18 -->
<g id="edge62" class="edge"><title>Node31&#45;&gt;Node18</title>
<path fill="none" stroke="midnightblue" d="M965.632,-118.954C1000.42,-115.268 1055.56,-104.938 1093,-76 1108.48,-64.0361 1118.85,-43.8432 1124.79,-29.1332"/>
<polygon fill="midnightblue" stroke="midnightblue" points="1128.14,-30.1799 1128.35,-19.5871 1121.58,-27.7372 1128.14,-30.1799"/>
</g>
<!-- Node32&#45;&gt;Node10 -->
<g id="edge66" class="edge"><title>Node32&#45;&gt;Node10</title>
<path fill="none" stroke="midnightblue" d="M539.822,-112.339C533.132,-103.719 523.527,-89.8153 519,-76 514.093,-61.0267 513.044,-43.1157 513.109,-29.8905"/>
<polygon fill="midnightblue" stroke="midnightblue" points="516.614,-29.7564 513.383,-19.6661 509.616,-29.5687 516.614,-29.7564"/>
</g>
<!-- Node32&#45;&gt;Node13 -->
<g id="edge67" class="edge"><title>Node32&#45;&gt;Node13</title>
<path fill="none" stroke="midnightblue" d="M529.005,-112.324C510.962,-103.625 482.953,-90.1202 462.197,-80.113"/>
<polygon fill="midnightblue" stroke="midnightblue" points="463.478,-76.8449 452.95,-75.6545 460.438,-83.1502 463.478,-76.8449"/>
</g>
<!-- Node32&#45;&gt;Node15 -->
<g id="edge68" class="edge"><title>Node32&#45;&gt;Node15</title>
<path fill="none" stroke="midnightblue" d="M566.331,-112.444C586.32,-103.596 617.743,-89.6875 640.564,-79.5865"/>
<polygon fill="midnightblue" stroke="midnightblue" points="642.032,-82.7645 649.759,-75.5164 639.198,-76.3635 642.032,-82.7645"/>
</g>
</g>
</svg>
