<?xml version="1.0" encoding="UTF-8" standalone="no"?>
<!DOCTYPE svg PUBLIC "-//W3C//DTD SVG 1.1//EN"
 "http://www.w3.org/Graphics/SVG/1.1/DTD/svg11.dtd">
<!-- Generated by graphviz version 2.36.0 (20140111.2315)
 -->
<!-- Title: IPlugAPP.h Pages: 1 -->
<!--zoomable 476 -->
<svg id="main" version="1.1" xmlns="http://www.w3.org/2000/svg" xmlns:xlink="http://www.w3.org/1999/xlink" xml:space="preserve" onload="init(evt)">
<style type="text/css"><![CDATA[
.edge:hover path { stroke: red; }
.edge:hover polygon { stroke: red; fill: red; }
]]></style>
<script type="text/javascript"><![CDATA[
var edges = document.getElementsByTagName('g');
if (edges && edges.length) {
  for (var i=0;i<edges.length;i++) {
    if (edges[i].id.substr(0,4)=='edge') {
      edges[i].setAttribute('class','edge');
    }
  }
}
]]></script>
        <defs>
                <circle id="rim" cx="0" cy="0" r="7"/>
                <circle id="rim2" cx="0" cy="0" r="3.5"/>
                <g id="zoomPlus">
                        <use xlink:href="#rim" fill="#404040">
                                <set attributeName="fill" to="#808080" begin="zoomplus.mouseover" end="zoomplus.mouseout"/>
                        </use>
                        <path d="M-4,0h8M0,-4v8" fill="none" stroke="white" stroke-width="1.5" pointer-events="none"/>
                </g>
                <g id="zoomMin">
                        <use xlink:href="#rim" fill="#404040">
                                <set attributeName="fill" to="#808080" begin="zoomminus.mouseover" end="zoomminus.mouseout"/>
                        </use>
                        <path d="M-4,0h8" fill="none" stroke="white" stroke-width="1.5" pointer-events="none"/>
                </g>
                <g id="dirArrow">
                        <path fill="none" stroke="white" stroke-width="1.5" d="M0,-3.0v7 M-2.5,-0.5L0,-3.0L2.5,-0.5"/>
                </g>
               <g id="resetDef">
                       <use xlink:href="#rim2" fill="#404040">
                               <set attributeName="fill" to="#808080" begin="reset.mouseover" end="reset.mouseout"/>
                       </use>
               </g>
        </defs>

<script type="text/javascript">
var viewWidth = 1437;
var viewHeight = 476;
var sectionId = 'dynsection-0';
</script>
<script xlink:href="svgpan.js"/>
<svg id="graph" class="graph">
<g id="viewport">
<title>IPlugAPP.h</title>
<polygon fill="white" stroke="none" points="-4,4 -4,-472 1433,-472 1433,4 -4,4"/>
<!-- Node1 -->
<g id="node1" class="node"><title>Node1</title>
<polygon fill="#bfbfbf" stroke="black" points="1113,-448.5 1113,-467.5 1181,-467.5 1181,-448.5 1113,-448.5"/>
<text text-anchor="middle" x="1147" y="-455.5" font-family="Helvetica,sans-Serif" font-size="10.00">IPlugAPP.h</text>
</g>
<!-- Node2 -->
<g id="node2" class="node"><title>Node2</title>
<g id="a_node2"><a xlink:href="_i_plug_platform_8h.html" target="_top" xlink:title="Include to get consistently named preprocessor macros for different platforms and logging functionali...">
<polygon fill="white" stroke="black" points="678,-168.5 678,-187.5 762,-187.5 762,-168.5 678,-168.5"/>
<text text-anchor="middle" x="720" y="-175.5" font-family="Helvetica,sans-Serif" font-size="10.00">IPlugPlatform.h</text>
</a>
</g>
</g>
<!-- Node1&#45;&gt;Node2 -->
<g id="edge1" class="edge"><title>Node1&#45;&gt;Node2</title>
<path fill="none" stroke="midnightblue" d="M1147,-448.442C1147,-429.936 1147,-384.812 1147,-347 1147,-347 1147,-347 1147,-289 1147,-212.445 886.364,-188.368 772.348,-181.498"/>
<polygon fill="midnightblue" stroke="midnightblue" points="772.297,-177.989 762.111,-180.904 771.891,-184.978 772.297,-177.989"/>
</g>
<!-- Node17 -->
<g id="node17" class="node"><title>Node17</title>
<g id="a_node17"><a xlink:href="_i_plug_base__select_8h_source.html" target="_top" xlink:title="IPlugBase_select.h">
<polygon fill="white" stroke="black" points="734.5,-392.5 734.5,-411.5 835.5,-411.5 835.5,-392.5 734.5,-392.5"/>
<text text-anchor="middle" x="785" y="-399.5" font-family="Helvetica,sans-Serif" font-size="10.00">IPlugBase_select.h</text>
</a>
</g>
</g>
<!-- Node1&#45;&gt;Node17 -->
<g id="edge20" class="edge"><title>Node1&#45;&gt;Node17</title>
<path fill="none" stroke="midnightblue" d="M1112.94,-451.92C1051.71,-442.786 922.292,-423.48 845.612,-412.042"/>
<polygon fill="midnightblue" stroke="midnightblue" points="846.021,-408.564 835.614,-410.55 844.988,-415.487 846.021,-408.564"/>
</g>
<!-- Node30 -->
<g id="node30" class="node"><title>Node30</title>
<g id="a_node30"><a xlink:href="_rt_midi_8h.html" target="_top" xlink:title="RtMidi.h">
<polygon fill="white" stroke="black" points="1240.5,-392.5 1240.5,-411.5 1293.5,-411.5 1293.5,-392.5 1240.5,-392.5"/>
<text text-anchor="middle" x="1267" y="-399.5" font-family="Helvetica,sans-Serif" font-size="10.00">RtMidi.h</text>
</a>
</g>
</g>
<!-- Node1&#45;&gt;Node30 -->
<g id="edge61" class="edge"><title>Node1&#45;&gt;Node30</title>
<path fill="none" stroke="midnightblue" d="M1166.01,-448.444C1185.59,-439.636 1216.31,-425.812 1238.73,-415.722"/>
<polygon fill="midnightblue" stroke="midnightblue" points="1240.39,-418.812 1248.07,-411.516 1237.52,-412.428 1240.39,-418.812"/>
</g>
<!-- Node3 -->
<g id="node3" class="node"><title>Node3</title>
<g id="a_node3"><a xlink:href="_i_plug_logger_8h.html" target="_top" xlink:title="IPlug Logging functionailty To trace some arbitrary data: Trace(TRACELOC, &quot;%s:%d&quot;, myStr, myInt); To simply create a trace entry in the log: TRACE; No need to wrap tracer calls in #ifdef TRACER_BUILD because Trace is a no&#45;op unless TRACER_BUILD is defined. ">
<polygon fill="white" stroke="black" points="698.5,-112.5 698.5,-131.5 775.5,-131.5 775.5,-112.5 698.5,-112.5"/>
<text text-anchor="middle" x="737" y="-119.5" font-family="Helvetica,sans-Serif" font-size="10.00">IPlugLogger.h</text>
</a>
</g>
</g>
<!-- Node2&#45;&gt;Node3 -->
<g id="edge2" class="edge"><title>Node2&#45;&gt;Node3</title>
<path fill="none" stroke="midnightblue" d="M722.807,-168.083C725.085,-160.849 728.371,-150.409 731.208,-141.397"/>
<polygon fill="midnightblue" stroke="midnightblue" points="734.581,-142.341 734.245,-131.751 727.904,-140.239 734.581,-142.341"/>
</g>
<!-- Node4 -->
<g id="node4" class="node"><title>Node4</title>
<polygon fill="white" stroke="#bfbfbf" points="557.5,-0.5 557.5,-19.5 600.5,-19.5 600.5,-0.5 557.5,-0.5"/>
<text text-anchor="middle" x="579" y="-7.5" font-family="Helvetica,sans-Serif" font-size="10.00">cstdio</text>
</g>
<!-- Node3&#45;&gt;Node4 -->
<g id="edge3" class="edge"><title>Node3&#45;&gt;Node4</title>
<path fill="none" stroke="midnightblue" d="M731.286,-112.355C721.952,-98.7939 702.233,-72.3818 680,-56 658.75,-40.3428 631.19,-28.523 610.229,-20.9352"/>
<polygon fill="midnightblue" stroke="midnightblue" points="611.12,-17.5394 600.525,-17.552 608.816,-24.1492 611.12,-17.5394"/>
</g>
<!-- Node5 -->
<g id="node5" class="node"><title>Node5</title>
<polygon fill="white" stroke="#bfbfbf" points="693,-0.5 693,-19.5 739,-19.5 739,-0.5 693,-0.5"/>
<text text-anchor="middle" x="716" y="-7.5" font-family="Helvetica,sans-Serif" font-size="10.00">cctype</text>
</g>
<!-- Node3&#45;&gt;Node5 -->
<g id="edge4" class="edge"><title>Node3&#45;&gt;Node5</title>
<path fill="none" stroke="midnightblue" d="M735.352,-112.368C731.963,-94.617 724.145,-53.6664 719.55,-29.5974"/>
<polygon fill="midnightblue" stroke="midnightblue" points="722.953,-28.7577 717.64,-19.5914 716.078,-30.0704 722.953,-28.7577"/>
</g>
<!-- Node6 -->
<g id="node6" class="node"><title>Node6</title>
<polygon fill="white" stroke="#bfbfbf" points="765.5,-56.5 765.5,-75.5 814.5,-75.5 814.5,-56.5 765.5,-56.5"/>
<text text-anchor="middle" x="790" y="-63.5" font-family="Helvetica,sans-Serif" font-size="10.00">cstdarg</text>
</g>
<!-- Node3&#45;&gt;Node6 -->
<g id="edge5" class="edge"><title>Node3&#45;&gt;Node6</title>
<path fill="none" stroke="midnightblue" d="M745.752,-112.083C753.47,-104.22 764.905,-92.5688 774.217,-83.0813"/>
<polygon fill="midnightblue" stroke="midnightblue" points="776.904,-85.3396 781.411,-75.7511 771.908,-80.4363 776.904,-85.3396"/>
</g>
<!-- Node7 -->
<g id="node7" class="node"><title>Node7</title>
<polygon fill="white" stroke="#bfbfbf" points="527,-56.5 527,-75.5 573,-75.5 573,-56.5 527,-56.5"/>
<text text-anchor="middle" x="550" y="-63.5" font-family="Helvetica,sans-Serif" font-size="10.00">cstdint</text>
</g>
<!-- Node3&#45;&gt;Node7 -->
<g id="edge6" class="edge"><title>Node3&#45;&gt;Node7</title>
<path fill="none" stroke="midnightblue" d="M707.369,-112.444C673.438,-102.645 618.01,-86.6391 582.802,-76.4723"/>
<polygon fill="midnightblue" stroke="midnightblue" points="583.586,-73.0557 573.007,-73.6439 581.644,-79.7809 583.586,-73.0557"/>
</g>
<!-- Node8 -->
<g id="node8" class="node"><title>Node8</title>
<polygon fill="white" stroke="#bfbfbf" points="1010,-0.5 1010,-19.5 1056,-19.5 1056,-0.5 1010,-0.5"/>
<text text-anchor="middle" x="1033" y="-7.5" font-family="Helvetica,sans-Serif" font-size="10.00">cstring</text>
</g>
<!-- Node3&#45;&gt;Node8 -->
<g id="edge7" class="edge"><title>Node3&#45;&gt;Node8</title>
<path fill="none" stroke="midnightblue" d="M753.41,-112.407C786.683,-94.9915 859.19,-57.0846 862,-56 908.457,-38.0655 964.7,-24.791 999.672,-17.472"/>
<polygon fill="midnightblue" stroke="midnightblue" points="1000.72,-20.8309 1009.81,-15.3932 999.309,-13.9736 1000.72,-20.8309"/>
</g>
<!-- Node9 -->
<g id="node9" class="node"><title>Node9</title>
<polygon fill="white" stroke="#bfbfbf" points="362.5,-56.5 362.5,-75.5 403.5,-75.5 403.5,-56.5 362.5,-56.5"/>
<text text-anchor="middle" x="383" y="-63.5" font-family="Helvetica,sans-Serif" font-size="10.00">ctime</text>
</g>
<!-- Node3&#45;&gt;Node9 -->
<g id="edge8" class="edge"><title>Node3&#45;&gt;Node9</title>
<path fill="none" stroke="midnightblue" d="M698.363,-117.71C638.96,-112.206 521.549,-99.5617 413.855,-76.1274"/>
<polygon fill="midnightblue" stroke="midnightblue" points="414.32,-72.6456 403.799,-73.901 412.806,-79.4801 414.32,-72.6456"/>
</g>
<!-- Node10 -->
<g id="node10" class="node"><title>Node10</title>
<polygon fill="white" stroke="#bfbfbf" points="421.5,-56.5 421.5,-75.5 470.5,-75.5 470.5,-56.5 421.5,-56.5"/>
<text text-anchor="middle" x="446" y="-63.5" font-family="Helvetica,sans-Serif" font-size="10.00">cassert</text>
</g>
<!-- Node3&#45;&gt;Node10 -->
<g id="edge9" class="edge"><title>Node3&#45;&gt;Node10</title>
<path fill="none" stroke="midnightblue" d="M698.357,-113.829C641.277,-103.237 535.295,-83.5701 480.619,-73.4241"/>
<polygon fill="midnightblue" stroke="midnightblue" points="481.184,-69.9693 470.713,-71.586 479.907,-76.8518 481.184,-69.9693"/>
</g>
<!-- Node11 -->
<g id="node11" class="node"><title>Node11</title>
<polygon fill="white" stroke="#bfbfbf" points="871,-56.5 871,-75.5 935,-75.5 935,-56.5 871,-56.5"/>
<text text-anchor="middle" x="903" y="-63.5" font-family="Helvetica,sans-Serif" font-size="10.00">wdlstring.h</text>
</g>
<!-- Node3&#45;&gt;Node11 -->
<g id="edge10" class="edge"><title>Node3&#45;&gt;Node11</title>
<path fill="none" stroke="midnightblue" d="M763.303,-112.444C791.351,-103.32 835.944,-88.8133 867.184,-78.6509"/>
<polygon fill="midnightblue" stroke="midnightblue" points="868.393,-81.9383 876.82,-75.5164 866.228,-75.2816 868.393,-81.9383"/>
</g>
<!-- Node12 -->
<g id="node12" class="node"><title>Node12</title>
<polygon fill="white" stroke="#bfbfbf" points="953,-56.5 953,-75.5 1005,-75.5 1005,-56.5 953,-56.5"/>
<text text-anchor="middle" x="979" y="-63.5" font-family="Helvetica,sans-Serif" font-size="10.00">mutex.h</text>
</g>
<!-- Node3&#45;&gt;Node12 -->
<g id="edge11" class="edge"><title>Node3&#45;&gt;Node12</title>
<path fill="none" stroke="midnightblue" d="M775.631,-113.055C815.25,-104.807 878.895,-91.2794 942.811,-76.2191"/>
<polygon fill="midnightblue" stroke="midnightblue" points="943.729,-79.5986 952.653,-73.8881 942.116,-72.787 943.729,-79.5986"/>
</g>
<!-- Node13 -->
<g id="node13" class="node"><title>Node13</title>
<g id="a_node13"><a xlink:href="_i_plug_utilities_8h.html" target="_top" xlink:title="Utility functions and macros. ">
<polygon fill="white" stroke="black" points="591,-56.5 591,-75.5 671,-75.5 671,-56.5 591,-56.5"/>
<text text-anchor="middle" x="631" y="-63.5" font-family="Helvetica,sans-Serif" font-size="10.00">IPlugUtilities.h</text>
</a>
</g>
</g>
<!-- Node3&#45;&gt;Node13 -->
<g id="edge12" class="edge"><title>Node3&#45;&gt;Node13</title>
<path fill="none" stroke="midnightblue" d="M719.969,-112.324C702.97,-103.664 676.624,-90.2424 657.007,-80.249"/>
<polygon fill="midnightblue" stroke="midnightblue" points="658.488,-77.0752 647.988,-75.6545 655.31,-83.3125 658.488,-77.0752"/>
</g>
<!-- Node13&#45;&gt;Node2 -->
<g id="edge19" class="edge"><title>Node13&#45;&gt;Node2</title>
<path fill="none" stroke="midnightblue" d="M632.666,-75.8048C635.539,-89.1171 642.464,-114.651 656,-132 666.018,-144.84 680.691,-155.523 693.461,-163.254"/>
<polygon fill="midnightblue" stroke="midnightblue" points="691.915,-166.402 702.329,-168.35 695.402,-160.333 691.915,-166.402"/>
</g>
<!-- Node13&#45;&gt;Node4 -->
<g id="edge14" class="edge"><title>Node13&#45;&gt;Node4</title>
<path fill="none" stroke="midnightblue" d="M622.413,-56.083C614.841,-48.2195 603.622,-36.5688 594.486,-27.0813"/>
<polygon fill="midnightblue" stroke="midnightblue" points="596.885,-24.5266 587.427,-19.7511 591.842,-29.3821 596.885,-24.5266"/>
</g>
<!-- Node13&#45;&gt;Node5 -->
<g id="edge17" class="edge"><title>Node13&#45;&gt;Node5</title>
<path fill="none" stroke="midnightblue" d="M644.657,-56.324C657.916,-47.9002 678.268,-34.9709 693.846,-25.0741"/>
<polygon fill="midnightblue" stroke="midnightblue" points="695.813,-27.9711 702.377,-19.6545 692.06,-22.0626 695.813,-27.9711"/>
</g>
<!-- Node13&#45;&gt;Node8 -->
<g id="edge16" class="edge"><title>Node13&#45;&gt;Node8</title>
<path fill="none" stroke="midnightblue" d="M671.015,-59.6249C750.326,-48.9711 926.143,-25.3539 999.664,-15.4779"/>
<polygon fill="midnightblue" stroke="midnightblue" points="1000.3,-18.924 1009.75,-14.1237 999.369,-11.9863 1000.3,-18.924"/>
</g>
<!-- Node14 -->
<g id="node14" class="node"><title>Node14</title>
<polygon fill="white" stroke="#bfbfbf" points="452,-0.5 452,-19.5 496,-19.5 496,-0.5 452,-0.5"/>
<text text-anchor="middle" x="474" y="-7.5" font-family="Helvetica,sans-Serif" font-size="10.00">cmath</text>
</g>
<!-- Node13&#45;&gt;Node14 -->
<g id="edge13" class="edge"><title>Node13&#45;&gt;Node14</title>
<path fill="none" stroke="midnightblue" d="M606.123,-56.4435C578.934,-47.0919 535.305,-32.0859 505.686,-21.8984"/>
<polygon fill="midnightblue" stroke="midnightblue" points="506.817,-18.5862 496.222,-18.6433 504.54,-25.2056 506.817,-18.5862"/>
</g>
<!-- Node15 -->
<g id="node15" class="node"><title>Node15</title>
<polygon fill="white" stroke="#bfbfbf" points="618.5,-0.5 618.5,-19.5 663.5,-19.5 663.5,-0.5 618.5,-0.5"/>
<text text-anchor="middle" x="641" y="-7.5" font-family="Helvetica,sans-Serif" font-size="10.00">cstdlib</text>
</g>
<!-- Node13&#45;&gt;Node15 -->
<g id="edge15" class="edge"><title>Node13&#45;&gt;Node15</title>
<path fill="none" stroke="midnightblue" d="M632.651,-56.083C633.976,-48.9272 635.882,-38.6353 637.539,-29.6911"/>
<polygon fill="midnightblue" stroke="midnightblue" points="641,-30.2212 639.379,-19.7511 634.117,-28.9466 641,-30.2212"/>
</g>
<!-- Node16 -->
<g id="node16" class="node"><title>Node16</title>
<g id="a_node16"><a xlink:href="_i_plug_constants_8h.html" target="_top" xlink:title="Constant definitions, magic numbers. ">
<polygon fill="white" stroke="black" points="288,-0.5 288,-19.5 380,-19.5 380,-0.5 288,-0.5"/>
<text text-anchor="middle" x="334" y="-7.5" font-family="Helvetica,sans-Serif" font-size="10.00">IPlugConstants.h</text>
</a>
</g>
</g>
<!-- Node13&#45;&gt;Node16 -->
<g id="edge18" class="edge"><title>Node13&#45;&gt;Node16</title>
<path fill="none" stroke="midnightblue" d="M590.89,-57.6256C587.882,-57.0747 584.893,-56.5281 582,-56 516.154,-43.9791 440.455,-30.2576 390.186,-21.1595"/>
<polygon fill="midnightblue" stroke="midnightblue" points="390.633,-17.6837 380.17,-19.347 389.387,-24.5718 390.633,-17.6837"/>
</g>
<!-- Node18 -->
<g id="node18" class="node"><title>Node18</title>
<g id="a_node18"><a xlink:href="_i_plug_base_graphics_8h.html" target="_top" xlink:title="An IPlugBase class for an IPlug plug&#45;in that uses IGraphics for it&#39;s UI. ">
<polygon fill="white" stroke="black" points="730.5,-336.5 730.5,-355.5 839.5,-355.5 839.5,-336.5 730.5,-336.5"/>
<text text-anchor="middle" x="785" y="-343.5" font-family="Helvetica,sans-Serif" font-size="10.00">IPlugBaseGraphics.h</text>
</a>
</g>
</g>
<!-- Node17&#45;&gt;Node18 -->
<g id="edge21" class="edge"><title>Node17&#45;&gt;Node18</title>
<path fill="none" stroke="midnightblue" d="M785,-392.083C785,-385.006 785,-374.861 785,-365.986"/>
<polygon fill="midnightblue" stroke="midnightblue" points="788.5,-365.751 785,-355.751 781.5,-365.751 788.5,-365.751"/>
</g>
<!-- Node25 -->
<g id="node25" class="node"><title>Node25</title>
<g id="a_node25"><a xlink:href="_i_plug_processor_8h.html" target="_top" xlink:title="The base class for IPlug Audio Processing. ">
<polygon fill="white" stroke="black" points="378,-280.5 378,-299.5 470,-299.5 470,-280.5 378,-280.5"/>
<text text-anchor="middle" x="424" y="-287.5" font-family="Helvetica,sans-Serif" font-size="10.00">IPlugProcessor.h</text>
</a>
</g>
</g>
<!-- Node17&#45;&gt;Node25 -->
<g id="edge44" class="edge"><title>Node17&#45;&gt;Node25</title>
<path fill="none" stroke="midnightblue" d="M756.973,-392.46C692.736,-372.886 534.814,-324.766 461.955,-302.565"/>
<polygon fill="midnightblue" stroke="midnightblue" points="462.844,-299.177 452.258,-299.61 460.803,-305.873 462.844,-299.177"/>
</g>
<!-- Node19 -->
<g id="node19" class="node"><title>Node19</title>
<g id="a_node19"><a xlink:href="_i_plug_base_8h.html" target="_top" xlink:title="The lowest level base class of an IPlug plug&#45;in. ">
<polygon fill="white" stroke="black" points="750,-280.5 750,-299.5 820,-299.5 820,-280.5 750,-280.5"/>
<text text-anchor="middle" x="785" y="-287.5" font-family="Helvetica,sans-Serif" font-size="10.00">IPlugBase.h</text>
</a>
</g>
</g>
<!-- Node18&#45;&gt;Node19 -->
<g id="edge22" class="edge"><title>Node18&#45;&gt;Node19</title>
<path fill="none" stroke="midnightblue" d="M785,-336.083C785,-329.006 785,-318.861 785,-309.986"/>
<polygon fill="midnightblue" stroke="midnightblue" points="788.5,-309.751 785,-299.751 781.5,-309.751 788.5,-309.751"/>
</g>
<!-- Node19&#45;&gt;Node2 -->
<g id="edge27" class="edge"><title>Node19&#45;&gt;Node2</title>
<path fill="none" stroke="midnightblue" d="M782.885,-280.107C779.545,-267.12 772.25,-242.501 761,-224 754.576,-213.434 745.459,-203.127 737.454,-195.048"/>
<polygon fill="midnightblue" stroke="midnightblue" points="739.577,-192.232 729.96,-187.786 734.705,-197.259 739.577,-192.232"/>
</g>
<!-- Node19&#45;&gt;Node7 -->
<g id="edge24" class="edge"><title>Node19&#45;&gt;Node7</title>
<path fill="none" stroke="midnightblue" d="M778.545,-280.285C768.498,-267.091 748.073,-241.709 727,-224 703.773,-204.481 692.694,-206.95 669,-188 627.217,-154.582 584.834,-107.691 563.727,-83.2556"/>
<polygon fill="midnightblue" stroke="midnightblue" points="566.344,-80.931 557.184,-75.6077 561.025,-85.4817 566.344,-80.931"/>
</g>
<!-- Node19&#45;&gt;Node8 -->
<g id="edge23" class="edge"><title>Node19&#45;&gt;Node8</title>
<path fill="none" stroke="midnightblue" d="M820.29,-284.645C904.264,-273.3 1109,-239.443 1109,-179 1109,-179 1109,-179 1109,-121 1109,-90.2048 1102.53,-81.3191 1085,-56 1076.82,-44.1903 1064.85,-33.5418 1054.45,-25.5714"/>
<polygon fill="midnightblue" stroke="midnightblue" points="1056.34,-22.6188 1046.2,-19.5395 1052.21,-28.2685 1056.34,-22.6188"/>
</g>
<!-- Node19&#45;&gt;Node12 -->
<g id="edge26" class="edge"><title>Node19&#45;&gt;Node12</title>
<path fill="none" stroke="midnightblue" d="M804.995,-280.454C821.594,-272.669 845.13,-259.963 862,-244 913.647,-195.128 953.929,-119.323 970.62,-84.9879"/>
<polygon fill="midnightblue" stroke="midnightblue" points="973.885,-86.2722 975.03,-75.7393 967.567,-83.2597 973.885,-86.2722"/>
</g>
<!-- Node19&#45;&gt;Node13 -->
<g id="edge39" class="edge"><title>Node19&#45;&gt;Node13</title>
<path fill="none" stroke="midnightblue" d="M786.691,-280.258C790.345,-258.645 796.634,-201.99 770,-168 745.702,-136.99 720.827,-155.217 689,-132 670.558,-118.547 653.7,-98.3617 642.97,-84.0598"/>
<polygon fill="midnightblue" stroke="midnightblue" points="645.56,-81.6704 636.848,-75.6408 639.898,-85.7871 645.56,-81.6704"/>
</g>
<!-- Node19&#45;&gt;Node16 -->
<g id="edge28" class="edge"><title>Node19&#45;&gt;Node16</title>
<path fill="none" stroke="midnightblue" d="M749.908,-286.551C681.159,-281.297 531.481,-267.475 486,-244 398.096,-198.629 373.374,-169.123 340,-76 334.677,-61.1478 333.369,-43.2262 333.284,-29.966"/>
<polygon fill="midnightblue" stroke="midnightblue" points="336.787,-29.7639 333.453,-19.7075 329.788,-29.6484 336.787,-29.7639"/>
</g>
<!-- Node20 -->
<g id="node20" class="node"><title>Node20</title>
<polygon fill="white" stroke="#bfbfbf" points="669.5,-224.5 669.5,-243.5 718.5,-243.5 718.5,-224.5 669.5,-224.5"/>
<text text-anchor="middle" x="694" y="-231.5" font-family="Helvetica,sans-Serif" font-size="10.00">ptrlist.h</text>
</g>
<!-- Node19&#45;&gt;Node20 -->
<g id="edge25" class="edge"><title>Node19&#45;&gt;Node20</title>
<path fill="none" stroke="midnightblue" d="M770.379,-280.324C756.051,-271.822 733.987,-258.729 717.251,-248.797"/>
<polygon fill="midnightblue" stroke="midnightblue" points="718.97,-245.748 708.584,-243.655 715.398,-251.768 718.97,-245.748"/>
</g>
<!-- Node21 -->
<g id="node21" class="node"><title>Node21</title>
<g id="a_node21"><a xlink:href="_i_plug_structs_8h_source.html" target="_top" xlink:title="IPlugStructs.h">
<polygon fill="white" stroke="black" points="495.5,-224.5 495.5,-243.5 574.5,-243.5 574.5,-224.5 495.5,-224.5"/>
<text text-anchor="middle" x="535" y="-231.5" font-family="Helvetica,sans-Serif" font-size="10.00">IPlugStructs.h</text>
</a>
</g>
</g>
<!-- Node19&#45;&gt;Node21 -->
<g id="edge29" class="edge"><title>Node19&#45;&gt;Node21</title>
<path fill="none" stroke="midnightblue" d="M749.975,-281.435C706.943,-272.14 633.647,-256.308 584.776,-245.752"/>
<polygon fill="midnightblue" stroke="midnightblue" points="585.251,-242.274 574.738,-243.583 583.773,-249.116 585.251,-242.274"/>
</g>
<!-- Node24 -->
<g id="node24" class="node"><title>Node24</title>
<g id="a_node24"><a xlink:href="_i_plug_parameter_8h_source.html" target="_top" xlink:title="IPlugParameter.h">
<polygon fill="white" stroke="black" points="832,-112.5 832,-131.5 924,-131.5 924,-112.5 832,-112.5"/>
<text text-anchor="middle" x="878" y="-119.5" font-family="Helvetica,sans-Serif" font-size="10.00">IPlugParameter.h</text>
</a>
</g>
</g>
<!-- Node19&#45;&gt;Node24 -->
<g id="edge40" class="edge"><title>Node19&#45;&gt;Node24</title>
<path fill="none" stroke="midnightblue" d="M800.509,-280.452C813.404,-272.582 831.316,-259.757 842,-244 863.653,-212.066 872.55,-166.834 875.995,-141.694"/>
<polygon fill="midnightblue" stroke="midnightblue" points="879.48,-142.027 877.22,-131.676 872.532,-141.177 879.48,-142.027"/>
</g>
<!-- Node21&#45;&gt;Node2 -->
<g id="edge33" class="edge"><title>Node21&#45;&gt;Node2</title>
<path fill="none" stroke="midnightblue" d="M564.314,-224.444C595.842,-215.241 646.131,-200.562 680.986,-190.388"/>
<polygon fill="midnightblue" stroke="midnightblue" points="682.205,-193.678 690.823,-187.516 680.243,-186.959 682.205,-193.678"/>
</g>
<!-- Node21&#45;&gt;Node11 -->
<g id="edge31" class="edge"><title>Node21&#45;&gt;Node11</title>
<path fill="none" stroke="midnightblue" d="M550.744,-224.413C575.44,-211.162 625.015,-185.441 669,-168 718.786,-148.259 734.705,-152.938 784,-132 793.614,-127.917 847.094,-98.2534 878.996,-80.4411"/>
<polygon fill="midnightblue" stroke="midnightblue" points="880.728,-83.4827 887.749,-75.5487 877.313,-77.3723 880.728,-83.4827"/>
</g>
<!-- Node21&#45;&gt;Node16 -->
<g id="edge32" class="edge"><title>Node21&#45;&gt;Node16</title>
<path fill="none" stroke="midnightblue" d="M520.21,-224.453C485.557,-203.658 398.608,-146.889 353,-76 343.955,-61.9414 339.096,-43.4477 336.564,-29.7826"/>
<polygon fill="midnightblue" stroke="midnightblue" points="339.978,-28.9649 334.943,-19.6429 333.065,-30.07 339.978,-28.9649"/>
</g>
<!-- Node22 -->
<g id="node22" class="node"><title>Node22</title>
<polygon fill="white" stroke="#bfbfbf" points="528,-168.5 528,-187.5 584,-187.5 584,-168.5 528,-168.5"/>
<text text-anchor="middle" x="556" y="-175.5" font-family="Helvetica,sans-Serif" font-size="10.00">algorithm</text>
</g>
<!-- Node21&#45;&gt;Node22 -->
<g id="edge30" class="edge"><title>Node21&#45;&gt;Node22</title>
<path fill="none" stroke="midnightblue" d="M538.468,-224.083C541.312,-216.77 545.429,-206.181 548.96,-197.103"/>
<polygon fill="midnightblue" stroke="midnightblue" points="552.234,-198.34 552.597,-187.751 545.71,-195.803 552.234,-198.34"/>
</g>
<!-- Node23 -->
<g id="node23" class="node"><title>Node23</title>
<g id="a_node23"><a xlink:href="_i_plug_midi_8h_source.html" target="_top" xlink:title="IPlugMidi.h">
<polygon fill="white" stroke="black" points="462.5,-112.5 462.5,-131.5 527.5,-131.5 527.5,-112.5 462.5,-112.5"/>
<text text-anchor="middle" x="495" y="-119.5" font-family="Helvetica,sans-Serif" font-size="10.00">IPlugMidi.h</text>
</a>
</g>
</g>
<!-- Node21&#45;&gt;Node23 -->
<g id="edge34" class="edge"><title>Node21&#45;&gt;Node23</title>
<path fill="none" stroke="midnightblue" d="M531.861,-224.368C525.377,-206.537 510.38,-165.295 501.644,-141.272"/>
<polygon fill="midnightblue" stroke="midnightblue" points="504.831,-139.793 498.124,-131.591 498.252,-142.185 504.831,-139.793"/>
</g>
<!-- Node23&#45;&gt;Node7 -->
<g id="edge36" class="edge"><title>Node23&#45;&gt;Node7</title>
<path fill="none" stroke="midnightblue" d="M504.082,-112.083C512.171,-104.141 524.195,-92.3354 533.91,-82.7973"/>
<polygon fill="midnightblue" stroke="midnightblue" points="536.403,-85.2545 541.087,-75.7511 531.499,-80.2595 536.403,-85.2545"/>
</g>
<!-- Node23&#45;&gt;Node10 -->
<g id="edge35" class="edge"><title>Node23&#45;&gt;Node10</title>
<path fill="none" stroke="midnightblue" d="M486.909,-112.083C479.845,-104.298 469.412,-92.8015 460.851,-83.3665"/>
<polygon fill="midnightblue" stroke="midnightblue" points="463.253,-80.8047 453.941,-75.7511 458.069,-85.5087 463.253,-80.8047"/>
</g>
<!-- Node23&#45;&gt;Node13 -->
<g id="edge38" class="edge"><title>Node23&#45;&gt;Node13</title>
<path fill="none" stroke="midnightblue" d="M516.55,-112.444C539.031,-103.517 574.488,-89.4387 599.98,-79.3168"/>
<polygon fill="midnightblue" stroke="midnightblue" points="601.549,-82.4598 609.551,-75.5164 598.965,-75.9539 601.549,-82.4598"/>
</g>
<!-- Node23&#45;&gt;Node16 -->
<g id="edge37" class="edge"><title>Node23&#45;&gt;Node16</title>
<path fill="none" stroke="midnightblue" d="M495.395,-112.161C495.514,-98.3339 493.664,-71.5641 479,-56 456.103,-31.6969 420.361,-20.4271 390.093,-15.2428"/>
<polygon fill="midnightblue" stroke="midnightblue" points="390.479,-11.7612 380.064,-13.7079 389.42,-18.6807 390.479,-11.7612"/>
</g>
<!-- Node24&#45;&gt;Node8 -->
<g id="edge41" class="edge"><title>Node24&#45;&gt;Node8</title>
<path fill="none" stroke="midnightblue" d="M916.532,-112.48C951.747,-103.963 1000.35,-90.1348 1014,-76 1025.86,-63.7197 1030.38,-44.4616 1032.07,-30.0905"/>
<polygon fill="midnightblue" stroke="midnightblue" points="1035.58,-30.0908 1032.9,-19.8394 1028.6,-29.5219 1035.58,-30.0908"/>
</g>
<!-- Node24&#45;&gt;Node11 -->
<g id="edge42" class="edge"><title>Node24&#45;&gt;Node11</title>
<path fill="none" stroke="midnightblue" d="M882.128,-112.083C885.514,-104.77 890.416,-94.1814 894.619,-85.1034"/>
<polygon fill="midnightblue" stroke="midnightblue" points="897.923,-86.2962 898.949,-75.7511 891.571,-83.3553 897.923,-86.2962"/>
</g>
<!-- Node24&#45;&gt;Node13 -->
<g id="edge43" class="edge"><title>Node24&#45;&gt;Node13</title>
<path fill="none" stroke="midnightblue" d="M838.862,-112.444C795.774,-103.023 726.441,-87.8656 679.829,-77.6752"/>
<polygon fill="midnightblue" stroke="midnightblue" points="680.472,-74.2331 669.955,-75.5164 678.976,-81.0715 680.472,-74.2331"/>
</g>
<!-- Node25&#45;&gt;Node2 -->
<g id="edge48" class="edge"><title>Node25&#45;&gt;Node2</title>
<path fill="none" stroke="midnightblue" d="M460.871,-280.427C493.461,-272.411 542.045,-259.388 583,-244 594.028,-239.856 656.617,-209.727 693.269,-191.978"/>
<polygon fill="midnightblue" stroke="midnightblue" points="694.945,-195.055 702.418,-187.544 691.892,-188.756 694.945,-195.055"/>
</g>
<!-- Node25&#45;&gt;Node7 -->
<g id="edge46" class="edge"><title>Node25&#45;&gt;Node7</title>
<path fill="none" stroke="midnightblue" d="M420.446,-280.218C412.757,-259.887 396.33,-208.248 410,-168 420.092,-138.287 428.505,-131.613 453,-112 472.091,-96.7138 497.222,-85.2433 517.12,-77.7095"/>
<polygon fill="midnightblue" stroke="midnightblue" points="518.498,-80.9325 526.703,-74.2287 516.108,-74.3531 518.498,-80.9325"/>
</g>
<!-- Node25&#45;&gt;Node8 -->
<g id="edge45" class="edge"><title>Node25&#45;&gt;Node8</title>
<path fill="none" stroke="midnightblue" d="M470.263,-281.191C510.075,-273.784 568.714,-261.222 618,-244 637.518,-237.18 640.803,-231.676 660,-224 707.764,-204.903 721.23,-204.357 770,-188 842.625,-163.642 863.013,-163.136 933,-132 979.896,-111.137 1007.95,-120.226 1034,-76 1042.23,-62.0344 1040.91,-43.2825 1038.17,-29.5091"/>
<polygon fill="midnightblue" stroke="midnightblue" points="1041.55,-28.6243 1035.82,-19.7171 1034.75,-30.2578 1041.55,-28.6243"/>
</g>
<!-- Node25&#45;&gt;Node13 -->
<g id="edge51" class="edge"><title>Node25&#45;&gt;Node13</title>
<path fill="none" stroke="midnightblue" d="M429.982,-280.383C444.315,-259.97 482.174,-207.427 519,-168 549.586,-135.254 589.331,-101.153 612.32,-82.1427"/>
<polygon fill="midnightblue" stroke="midnightblue" points="614.746,-84.6793 620.257,-75.6301 610.306,-79.268 614.746,-84.6793"/>
</g>
<!-- Node25&#45;&gt;Node16 -->
<g id="edge49" class="edge"><title>Node25&#45;&gt;Node16</title>
<path fill="none" stroke="midnightblue" d="M377.817,-286.782C267.926,-280.247 0,-256.379 0,-179 0,-179 0,-179 0,-121 0,-85.6087 15.9202,-74.648 46,-56 83.7158,-32.618 204.916,-20.1533 277.518,-14.6213"/>
<polygon fill="midnightblue" stroke="midnightblue" points="278.147,-18.0843 287.861,-13.8549 277.63,-11.1035 278.147,-18.0843"/>
</g>
<!-- Node25&#45;&gt;Node20 -->
<g id="edge47" class="edge"><title>Node25&#45;&gt;Node20</title>
<path fill="none" stroke="midnightblue" d="M470.114,-280.5C516.809,-271.78 591.058,-257.602 655,-244 656.444,-243.693 657.918,-243.375 659.405,-243.049"/>
<polygon fill="midnightblue" stroke="midnightblue" points="660.276,-246.441 669.271,-240.842 658.748,-239.61 660.276,-246.441"/>
</g>
<!-- Node25&#45;&gt;Node21 -->
<g id="edge50" class="edge"><title>Node25&#45;&gt;Node21</title>
<path fill="none" stroke="midnightblue" d="M441.834,-280.324C459.716,-271.625 487.475,-258.12 508.046,-248.113"/>
<polygon fill="midnightblue" stroke="midnightblue" points="509.749,-251.177 517.21,-243.655 506.687,-244.882 509.749,-251.177"/>
</g>
<!-- Node26 -->
<g id="node26" class="node"><title>Node26</title>
<g id="a_node26"><a xlink:href="_n_chan_delay_8h_source.html" target="_top" xlink:title="NChanDelay.h">
<polygon fill="white" stroke="black" points="249.5,-224.5 249.5,-243.5 330.5,-243.5 330.5,-224.5 249.5,-224.5"/>
<text text-anchor="middle" x="290" y="-231.5" font-family="Helvetica,sans-Serif" font-size="10.00">NChanDelay.h</text>
</a>
</g>
</g>
<!-- Node25&#45;&gt;Node26 -->
<g id="edge52" class="edge"><title>Node25&#45;&gt;Node26</title>
<path fill="none" stroke="midnightblue" d="M402.767,-280.444C380.616,-271.517 345.681,-257.439 320.564,-247.317"/>
<polygon fill="midnightblue" stroke="midnightblue" points="321.717,-244.008 311.133,-243.516 319.1,-250.501 321.717,-244.008"/>
</g>
<!-- Node27 -->
<g id="node27" class="node"><title>Node27</title>
<g id="a_node27"><a xlink:href="_i_plug_processor_8cpp_source.html" target="_top" xlink:title="IPlugProcessor.cpp">
<polygon fill="white" stroke="black" points="161,-112.5 161,-131.5 263,-131.5 263,-112.5 161,-112.5"/>
<text text-anchor="middle" x="212" y="-119.5" font-family="Helvetica,sans-Serif" font-size="10.00">IPlugProcessor.cpp</text>
</a>
</g>
</g>
<!-- Node25&#45;&gt;Node27 -->
<g id="edge53" class="edge"><title>Node25&#45;&gt;Node27</title>
<path fill="none" stroke="midnightblue" d="M377.718,-284.144C327.102,-277.519 250.873,-264.122 231,-244 203.822,-216.482 200.984,-168.121 204.815,-141.636"/>
<polygon fill="midnightblue" stroke="midnightblue" points="208.263,-142.244 206.814,-131.749 201.402,-140.857 208.263,-142.244"/>
</g>
<!-- Node27&#45;&gt;Node4 -->
<g id="edge55" class="edge"><title>Node27&#45;&gt;Node4</title>
<path fill="none" stroke="midnightblue" d="M227.577,-112.331C253.059,-98.4951 305.575,-71.4141 353,-56 420.486,-34.0656 502.95,-20.9234 547.238,-14.9198"/>
<polygon fill="midnightblue" stroke="midnightblue" points="547.929,-18.359 557.384,-13.5794 547.012,-11.4193 547.929,-18.359"/>
</g>
<!-- Node27&#45;&gt;Node9 -->
<g id="edge56" class="edge"><title>Node27&#45;&gt;Node9</title>
<path fill="none" stroke="midnightblue" d="M239.095,-112.444C270.027,-102.676 320.495,-86.7385 352.704,-76.5673"/>
<polygon fill="midnightblue" stroke="midnightblue" points="353.99,-79.8316 362.472,-73.4826 351.882,-73.1565 353.99,-79.8316"/>
</g>
<!-- Node27&#45;&gt;Node10 -->
<g id="edge57" class="edge"><title>Node27&#45;&gt;Node10</title>
<path fill="none" stroke="midnightblue" d="M251.947,-112.473C290.337,-104.176 350.22,-90.9657 411.33,-76.0946"/>
<polygon fill="midnightblue" stroke="midnightblue" points="412.263,-79.4697 421.145,-73.6941 410.6,-72.6701 412.263,-79.4697"/>
</g>
<!-- Node27&#45;&gt;Node14 -->
<g id="edge54" class="edge"><title>Node27&#45;&gt;Node14</title>
<path fill="none" stroke="midnightblue" d="M160.808,-116.51C103.786,-109.609 23.712,-93.0735 57,-56 57.8068,-55.1014 344.038,-24.7476 441.754,-14.4088"/>
<polygon fill="midnightblue" stroke="midnightblue" points="442.347,-17.8657 451.924,-13.3331 441.611,-10.9045 442.347,-17.8657"/>
</g>
<!-- Node27&#45;&gt;Node25 -->
<g id="edge60" class="edge"><title>Node27&#45;&gt;Node25</title>
<path fill="none" stroke="midnightblue" d="M215.571,-131.749C218.669,-153.878 217.94,-212.55 249,-244 265.865,-261.076 323.313,-273.309 367.917,-280.67"/>
<polygon fill="midnightblue" stroke="midnightblue" points="367.365,-284.126 377.793,-282.256 368.475,-277.215 367.365,-284.126"/>
</g>
<!-- Node28 -->
<g id="node28" class="node"><title>Node28</title>
<polygon fill="white" stroke="#bfbfbf" points="66,-56.5 66,-75.5 134,-75.5 134,-56.5 66,-56.5"/>
<text text-anchor="middle" x="100" y="-63.5" font-family="Helvetica,sans-Serif" font-size="10.00">wdlendian.h</text>
</g>
<!-- Node27&#45;&gt;Node28 -->
<g id="edge58" class="edge"><title>Node27&#45;&gt;Node28</title>
<path fill="none" stroke="midnightblue" d="M194.005,-112.324C175.962,-103.625 147.953,-90.1202 127.197,-80.113"/>
<polygon fill="midnightblue" stroke="midnightblue" points="128.478,-76.8449 117.95,-75.6545 125.438,-83.1502 128.478,-76.8449"/>
</g>
<!-- Node29 -->
<g id="node29" class="node"><title>Node29</title>
<polygon fill="white" stroke="#bfbfbf" points="152.5,-56.5 152.5,-75.5 229.5,-75.5 229.5,-56.5 152.5,-56.5"/>
<text text-anchor="middle" x="191" y="-63.5" font-family="Helvetica,sans-Serif" font-size="10.00">wdl_base64.h</text>
</g>
<!-- Node27&#45;&gt;Node29 -->
<g id="edge59" class="edge"><title>Node27&#45;&gt;Node29</title>
<path fill="none" stroke="midnightblue" d="M208.532,-112.083C205.688,-104.77 201.571,-94.1814 198.04,-85.1034"/>
<polygon fill="midnightblue" stroke="midnightblue" points="201.29,-83.8025 194.403,-75.7511 194.766,-86.3397 201.29,-83.8025"/>
</g>
<!-- Node31 -->
<g id="node31" class="node"><title>Node31</title>
<polygon fill="white" stroke="#bfbfbf" points="1237.5,-336.5 1237.5,-355.5 1296.5,-355.5 1296.5,-336.5 1237.5,-336.5"/>
<text text-anchor="middle" x="1267" y="-343.5" font-family="Helvetica,sans-Serif" font-size="10.00">exception</text>
</g>
<!-- Node30&#45;&gt;Node31 -->
<g id="edge62" class="edge"><title>Node30&#45;&gt;Node31</title>
<path fill="none" stroke="midnightblue" d="M1267,-392.083C1267,-385.006 1267,-374.861 1267,-365.986"/>
<polygon fill="midnightblue" stroke="midnightblue" points="1270.5,-365.751 1267,-355.751 1263.5,-365.751 1270.5,-365.751"/>
</g>
<!-- Node32 -->
<g id="node32" class="node"><title>Node32</title>
<polygon fill="white" stroke="#bfbfbf" points="1315,-336.5 1315,-355.5 1369,-355.5 1369,-336.5 1315,-336.5"/>
<text text-anchor="middle" x="1342" y="-343.5" font-family="Helvetica,sans-Serif" font-size="10.00">iostream</text>
</g>
<!-- Node30&#45;&gt;Node32 -->
<g id="edge63" class="edge"><title>Node30&#45;&gt;Node32</title>
<path fill="none" stroke="midnightblue" d="M1279.05,-392.324C1290.46,-384.107 1307.83,-371.602 1321.43,-361.807"/>
<polygon fill="midnightblue" stroke="midnightblue" points="1323.66,-364.517 1329.73,-355.834 1319.57,-358.837 1323.66,-364.517"/>
</g>
<!-- Node33 -->
<g id="node33" class="node"><title>Node33</title>
<polygon fill="white" stroke="#bfbfbf" points="1387.5,-336.5 1387.5,-355.5 1428.5,-355.5 1428.5,-336.5 1387.5,-336.5"/>
<text text-anchor="middle" x="1408" y="-343.5" font-family="Helvetica,sans-Serif" font-size="10.00">string</text>
</g>
<!-- Node30&#45;&gt;Node33 -->
<g id="edge64" class="edge"><title>Node30&#45;&gt;Node33</title>
<path fill="none" stroke="midnightblue" d="M1289.34,-392.444C1313.17,-383.319 1351.05,-368.813 1377.58,-358.65"/>
<polygon fill="midnightblue" stroke="midnightblue" points="1379.05,-361.833 1387.14,-354.988 1376.55,-355.296 1379.05,-361.833"/>
</g>
<!-- Node34 -->
<g id="node34" class="node"><title>Node34</title>
<polygon fill="white" stroke="#bfbfbf" points="1175,-336.5 1175,-355.5 1219,-355.5 1219,-336.5 1175,-336.5"/>
<text text-anchor="middle" x="1197" y="-343.5" font-family="Helvetica,sans-Serif" font-size="10.00">vector</text>
</g>
<!-- Node30&#45;&gt;Node34 -->
<g id="edge65" class="edge"><title>Node30&#45;&gt;Node34</title>
<path fill="none" stroke="midnightblue" d="M1255.75,-392.324C1245.2,-384.185 1229.2,-371.839 1216.56,-362.087"/>
<polygon fill="midnightblue" stroke="midnightblue" points="1218.51,-359.171 1208.45,-355.834 1214.23,-364.713 1218.51,-359.171"/>
</g>
</g>
</svg>
        <g id="navigator" transform="translate(0 0)" fill="#404254">
                <rect fill="#f2f5e9" fill-opacity="0.5" stroke="#606060" stroke-width=".5" x="0" y="0" width="60" height="60"/>
                <use id="zoomplus" xlink:href="#zoomPlus" x="17" y="9" onmousedown="handleZoom(evt,'in')"/>
                <use id="zoomminus" xlink:href="#zoomMin" x="42" y="9" onmousedown="handleZoom(evt,'out')"/>
                <use id="reset" xlink:href="#resetDef" x="30" y="36" onmousedown="handleReset()"/>
                <g id="arrowUp" xlink:href="#dirArrow" transform="translate(30 24)" onmousedown="handlePan(0,-1)">
                  <use xlink:href="#rim" fill="#404040">
                        <set attributeName="fill" to="#808080" begin="arrowUp.mouseover" end="arrowUp.mouseout"/>
                  </use>
                  <path fill="none" stroke="white" stroke-width="1.5" d="M0,-3.0v7 M-2.5,-0.5L0,-3.0L2.5,-0.5"/>
                </g>
                <g id="arrowRight" xlink:href="#dirArrow" transform="rotate(90) translate(36 -43)" onmousedown="handlePan(1,0)">
                  <use xlink:href="#rim" fill="#404040">
                        <set attributeName="fill" to="#808080" begin="arrowRight.mouseover" end="arrowRight.mouseout"/>
                  </use>
                  <path fill="none" stroke="white" stroke-width="1.5" d="M0,-3.0v7 M-2.5,-0.5L0,-3.0L2.5,-0.5"/>
                </g>
                <g id="arrowDown" xlink:href="#dirArrow" transform="rotate(180) translate(-30 -48)" onmousedown="handlePan(0,1)">
                  <use xlink:href="#rim" fill="#404040">
                        <set attributeName="fill" to="#808080" begin="arrowDown.mouseover" end="arrowDown.mouseout"/>
                  </use>
                  <path fill="none" stroke="white" stroke-width="1.5" d="M0,-3.0v7 M-2.5,-0.5L0,-3.0L2.5,-0.5"/>
                </g>
                <g id="arrowLeft" xlink:href="#dirArrow" transform="rotate(270) translate(-36 17)" onmousedown="handlePan(-1,0)">
                  <use xlink:href="#rim" fill="#404040">
                        <set attributeName="fill" to="#808080" begin="arrowLeft.mouseover" end="arrowLeft.mouseout"/>
                  </use>
                  <path fill="none" stroke="white" stroke-width="1.5" d="M0,-3.0v7 M-2.5,-0.5L0,-3.0L2.5,-0.5"/>
                </g>
        </g>
        <svg viewBox="0 0 15 15" width="100%" height="30px" preserveAspectRatio="xMaxYMin meet">
         <g id="arrow_out" transform="scale(0.3 0.3)">
          <a xlink:href="_i_plug_a_p_p_8h__incl_org.svg" target="_base">
           <rect id="button" ry="5" rx="5" y="6" x="6" height="38" width="38"
                fill="#f2f5e9" fill-opacity="0.5" stroke="#606060" stroke-width="1.0"/>
           <path id="arrow"
             d="M 11.500037,31.436501 C 11.940474,20.09759 22.043105,11.32322 32.158766,21.979434 L 37.068811,17.246167 C 37.068811,17.246167 37.088388,32 37.088388,32 L 22.160133,31.978069 C 22.160133,31.978069 26.997745,27.140456 26.997745,27.140456 C 18.528582,18.264221 13.291696,25.230495 11.500037,31.436501 z"
             style="fill:#404040;"/>
          </a>
         </g>
        </svg>
</svg>
