<?xml version="1.0" encoding="UTF-8" standalone="no"?>
<!DOCTYPE svg PUBLIC "-//W3C//DTD SVG 1.1//EN"
 "http://www.w3.org/Graphics/SVG/1.1/DTD/svg11.dtd">
<!-- Generated by graphviz version 2.36.0 (20140111.2315)
 -->
<!-- Title: IPlugUtilities.h Pages: 1 -->
<svg width="603pt" height="196pt"
 viewBox="0.00 0.00 603.00 196.00" xmlns="http://www.w3.org/2000/svg" xmlns:xlink="http://www.w3.org/1999/xlink">
<g id="graph0" class="graph" transform="scale(1 1) rotate(0) translate(4 192)">
<title>IPlugUtilities.h</title>
<polygon fill="white" stroke="none" points="-4,4 -4,-192 599,-192 599,4 -4,4"/>
<!-- Node1 -->
<g id="node1" class="node"><title>Node1</title>
<polygon fill="#bfbfbf" stroke="black" points="143,-168.5 143,-187.5 223,-187.5 223,-168.5 143,-168.5"/>
<text text-anchor="middle" x="183" y="-175.5" font-family="Helvetica,sans-Serif" font-size="10.00">IPlugUtilities.h</text>
</g>
<!-- Node2 -->
<g id="node2" class="node"><title>Node2</title>
<polygon fill="white" stroke="#bfbfbf" points="0,-112.5 0,-131.5 44,-131.5 44,-112.5 0,-112.5"/>
<text text-anchor="middle" x="22" y="-119.5" font-family="Helvetica,sans-Serif" font-size="10.00">cmath</text>
</g>
<!-- Node1&#45;&gt;Node2 -->
<g id="edge1" class="edge"><title>Node1&#45;&gt;Node2</title>
<path fill="none" stroke="midnightblue" d="M157.489,-168.444C129.448,-159.038 84.3553,-143.914 53.974,-133.724"/>
<polygon fill="midnightblue" stroke="midnightblue" points="54.8746,-130.335 44.2807,-130.473 52.6486,-136.971 54.8746,-130.335"/>
</g>
<!-- Node3 -->
<g id="node3" class="node"><title>Node3</title>
<polygon fill="white" stroke="#bfbfbf" points="12.5,-0.5 12.5,-19.5 55.5,-19.5 55.5,-0.5 12.5,-0.5"/>
<text text-anchor="middle" x="34" y="-7.5" font-family="Helvetica,sans-Serif" font-size="10.00">cstdio</text>
</g>
<!-- Node1&#45;&gt;Node3 -->
<g id="edge2" class="edge"><title>Node1&#45;&gt;Node3</title>
<path fill="none" stroke="midnightblue" d="M174.989,-168.075C151.028,-141.38 79.656,-61.865 48.6503,-27.3218"/>
<polygon fill="midnightblue" stroke="midnightblue" points="50.9751,-24.6721 41.6907,-19.5681 45.7658,-29.3479 50.9751,-24.6721"/>
</g>
<!-- Node4 -->
<g id="node4" class="node"><title>Node4</title>
<polygon fill="white" stroke="#bfbfbf" points="316.5,-112.5 316.5,-131.5 361.5,-131.5 361.5,-112.5 316.5,-112.5"/>
<text text-anchor="middle" x="339" y="-119.5" font-family="Helvetica,sans-Serif" font-size="10.00">cstdlib</text>
</g>
<!-- Node1&#45;&gt;Node4 -->
<g id="edge3" class="edge"><title>Node1&#45;&gt;Node4</title>
<path fill="none" stroke="midnightblue" d="M207.719,-168.444C234.463,-159.186 277.217,-144.387 306.625,-134.207"/>
<polygon fill="midnightblue" stroke="midnightblue" points="308.118,-137.394 316.423,-130.815 305.828,-130.779 308.118,-137.394"/>
</g>
<!-- Node5 -->
<g id="node5" class="node"><title>Node5</title>
<polygon fill="white" stroke="#bfbfbf" points="74,-0.5 74,-19.5 120,-19.5 120,-0.5 74,-0.5"/>
<text text-anchor="middle" x="97" y="-7.5" font-family="Helvetica,sans-Serif" font-size="10.00">cstring</text>
</g>
<!-- Node1&#45;&gt;Node5 -->
<g id="edge4" class="edge"><title>Node1&#45;&gt;Node5</title>
<path fill="none" stroke="midnightblue" d="M178.357,-168.395C173.491,-159.355 165.646,-144.711 159,-132 139.852,-95.3751 117.894,-52.2476 105.927,-28.6447"/>
<polygon fill="midnightblue" stroke="midnightblue" points="108.953,-26.8729 101.312,-19.5334 102.708,-30.0358 108.953,-26.8729"/>
</g>
<!-- Node6 -->
<g id="node6" class="node"><title>Node6</title>
<polygon fill="white" stroke="#bfbfbf" points="138,-0.5 138,-19.5 184,-19.5 184,-0.5 138,-0.5"/>
<text text-anchor="middle" x="161" y="-7.5" font-family="Helvetica,sans-Serif" font-size="10.00">cctype</text>
</g>
<!-- Node1&#45;&gt;Node6 -->
<g id="edge5" class="edge"><title>Node1&#45;&gt;Node6</title>
<path fill="none" stroke="midnightblue" d="M179.025,-168.252C175.184,-159.338 169.578,-145.014 167,-132 159.94,-96.3619 159.675,-53.7282 160.251,-29.7646"/>
<polygon fill="midnightblue" stroke="midnightblue" points="163.754,-29.7195 160.574,-19.613 156.757,-29.4963 163.754,-29.7195"/>
</g>
<!-- Node7 -->
<g id="node7" class="node"><title>Node7</title>
<g id="a_node7"><a xlink:href="_i_plug_constants_8h.html" target="_top" xlink:title="Constant definitions, magic numbers. ">
<polygon fill="white" stroke="black" points="380,-112.5 380,-131.5 472,-131.5 472,-112.5 380,-112.5"/>
<text text-anchor="middle" x="426" y="-119.5" font-family="Helvetica,sans-Serif" font-size="10.00">IPlugConstants.h</text>
</a>
</g>
</g>
<!-- Node1&#45;&gt;Node7 -->
<g id="edge6" class="edge"><title>Node1&#45;&gt;Node7</title>
<path fill="none" stroke="midnightblue" d="M221.504,-168.444C263.806,-159.043 331.819,-143.929 377.673,-133.739"/>
<polygon fill="midnightblue" stroke="midnightblue" points="378.673,-137.102 387.676,-131.516 377.155,-130.269 378.673,-137.102"/>
</g>
<!-- Node8 -->
<g id="node8" class="node"><title>Node8</title>
<g id="a_node8"><a xlink:href="_i_plug_platform_8h.html" target="_top" xlink:title="Include to get consistently named preprocessor macros for different platforms and logging functionali...">
<polygon fill="white" stroke="black" points="176,-112.5 176,-131.5 260,-131.5 260,-112.5 176,-112.5"/>
<text text-anchor="middle" x="218" y="-119.5" font-family="Helvetica,sans-Serif" font-size="10.00">IPlugPlatform.h</text>
</a>
</g>
</g>
<!-- Node1&#45;&gt;Node8 -->
<g id="edge7" class="edge"><title>Node1&#45;&gt;Node8</title>
<path fill="none" stroke="midnightblue" d="M188.78,-168.083C193.672,-160.534 200.827,-149.495 206.833,-140.23"/>
<polygon fill="midnightblue" stroke="midnightblue" points="209.826,-142.046 212.328,-131.751 203.952,-138.239 209.826,-142.046"/>
</g>
<!-- Node9 -->
<g id="node9" class="node"><title>Node9</title>
<g id="a_node9"><a xlink:href="_i_plug_logger_8h.html" target="_top" xlink:title="IPlug Logging functionailty To trace some arbitrary data: Trace(TRACELOC, &quot;%s:%d&quot;, myStr, myInt); To simply create a trace entry in the log: TRACE; No need to wrap tracer calls in #ifdef TRACER_BUILD because Trace is a no&#45;op unless TRACER_BUILD is defined. ">
<polygon fill="white" stroke="black" points="249.5,-56.5 249.5,-75.5 326.5,-75.5 326.5,-56.5 249.5,-56.5"/>
<text text-anchor="middle" x="288" y="-63.5" font-family="Helvetica,sans-Serif" font-size="10.00">IPlugLogger.h</text>
</a>
</g>
</g>
<!-- Node8&#45;&gt;Node9 -->
<g id="edge8" class="edge"><title>Node8&#45;&gt;Node9</title>
<path fill="none" stroke="midnightblue" d="M229.247,-112.324C239.797,-104.185 255.801,-91.8395 268.442,-82.0874"/>
<polygon fill="midnightblue" stroke="midnightblue" points="270.769,-84.7132 276.549,-75.8339 266.493,-79.1707 270.769,-84.7132"/>
</g>
<!-- Node9&#45;&gt;Node1 -->
<g id="edge18" class="edge"><title>Node9&#45;&gt;Node1</title>
<path fill="none" stroke="midnightblue" d="M287.43,-75.5606C286.122,-89.0055 281.849,-115.262 268,-132 255.721,-146.841 237.248,-157.444 220.657,-164.616"/>
<polygon fill="midnightblue" stroke="midnightblue" points="219.13,-161.458 211.167,-168.447 221.75,-167.949 219.13,-161.458"/>
</g>
<!-- Node9&#45;&gt;Node3 -->
<g id="edge9" class="edge"><title>Node9&#45;&gt;Node3</title>
<path fill="none" stroke="midnightblue" d="M249.108,-58.1693C206.443,-50.4515 135.765,-37.0092 65.5236,-19.9558"/>
<polygon fill="midnightblue" stroke="midnightblue" points="66.1641,-16.5093 55.6182,-17.5258 64.4963,-23.3077 66.1641,-16.5093"/>
</g>
<!-- Node9&#45;&gt;Node5 -->
<g id="edge13" class="edge"><title>Node9&#45;&gt;Node5</title>
<path fill="none" stroke="midnightblue" d="M257.735,-56.4435C222.982,-46.6181 166.151,-30.5506 130.206,-20.3882"/>
<polygon fill="midnightblue" stroke="midnightblue" points="130.789,-16.9157 120.214,-17.5631 128.884,-23.6517 130.789,-16.9157"/>
</g>
<!-- Node9&#45;&gt;Node6 -->
<g id="edge10" class="edge"><title>Node9&#45;&gt;Node6</title>
<path fill="none" stroke="midnightblue" d="M267.876,-56.4435C246.976,-47.5566 214.065,-33.5632 190.284,-23.4514"/>
<polygon fill="midnightblue" stroke="midnightblue" points="191.602,-20.2085 181.029,-19.5164 188.862,-26.6504 191.602,-20.2085"/>
</g>
<!-- Node10 -->
<g id="node10" class="node"><title>Node10</title>
<polygon fill="white" stroke="#bfbfbf" points="422.5,-0.5 422.5,-19.5 471.5,-19.5 471.5,-0.5 422.5,-0.5"/>
<text text-anchor="middle" x="447" y="-7.5" font-family="Helvetica,sans-Serif" font-size="10.00">cstdarg</text>
</g>
<!-- Node9&#45;&gt;Node10 -->
<g id="edge11" class="edge"><title>Node9&#45;&gt;Node10</title>
<path fill="none" stroke="midnightblue" d="M313.194,-56.4435C340.1,-47.3057 382.903,-32.7689 412.832,-22.6044"/>
<polygon fill="midnightblue" stroke="midnightblue" points="414.103,-25.869 422.446,-19.339 411.852,-19.2408 414.103,-25.869"/>
</g>
<!-- Node11 -->
<g id="node11" class="node"><title>Node11</title>
<polygon fill="white" stroke="#bfbfbf" points="490,-0.5 490,-19.5 536,-19.5 536,-0.5 490,-0.5"/>
<text text-anchor="middle" x="513" y="-7.5" font-family="Helvetica,sans-Serif" font-size="10.00">cstdint</text>
</g>
<!-- Node9&#45;&gt;Node11 -->
<g id="edge12" class="edge"><title>Node9&#45;&gt;Node11</title>
<path fill="none" stroke="midnightblue" d="M326.349,-56.4396C365.175,-47.6722 426.901,-33.4588 480,-20 480.101,-19.9745 480.202,-19.9489 480.303,-19.9232"/>
<polygon fill="midnightblue" stroke="midnightblue" points="481.16,-23.3168 489.949,-17.4003 479.389,-16.5446 481.16,-23.3168"/>
</g>
<!-- Node12 -->
<g id="node12" class="node"><title>Node12</title>
<polygon fill="white" stroke="#bfbfbf" points="554.5,-0.5 554.5,-19.5 595.5,-19.5 595.5,-0.5 554.5,-0.5"/>
<text text-anchor="middle" x="575" y="-7.5" font-family="Helvetica,sans-Serif" font-size="10.00">ctime</text>
</g>
<!-- Node9&#45;&gt;Node12 -->
<g id="edge14" class="edge"><title>Node9&#45;&gt;Node12</title>
<path fill="none" stroke="midnightblue" d="M326.605,-59.6941C375.213,-52.6949 461.417,-39.2289 544.57,-19.8495"/>
<polygon fill="midnightblue" stroke="midnightblue" points="545.503,-23.2256 554.43,-17.5199 543.893,-16.4131 545.503,-23.2256"/>
</g>
<!-- Node13 -->
<g id="node13" class="node"><title>Node13</title>
<polygon fill="white" stroke="#bfbfbf" points="202.5,-0.5 202.5,-19.5 251.5,-19.5 251.5,-0.5 202.5,-0.5"/>
<text text-anchor="middle" x="227" y="-7.5" font-family="Helvetica,sans-Serif" font-size="10.00">cassert</text>
</g>
<!-- Node9&#45;&gt;Node13 -->
<g id="edge15" class="edge"><title>Node9&#45;&gt;Node13</title>
<path fill="none" stroke="midnightblue" d="M278.199,-56.324C269.182,-48.3414 255.594,-36.3128 244.682,-26.6529"/>
<polygon fill="midnightblue" stroke="midnightblue" points="246.787,-23.8416 236.979,-19.8339 242.147,-29.083 246.787,-23.8416"/>
</g>
<!-- Node14 -->
<g id="node14" class="node"><title>Node14</title>
<polygon fill="white" stroke="#bfbfbf" points="270,-0.5 270,-19.5 334,-19.5 334,-0.5 270,-0.5"/>
<text text-anchor="middle" x="302" y="-7.5" font-family="Helvetica,sans-Serif" font-size="10.00">wdlstring.h</text>
</g>
<!-- Node9&#45;&gt;Node14 -->
<g id="edge16" class="edge"><title>Node9&#45;&gt;Node14</title>
<path fill="none" stroke="midnightblue" d="M290.312,-56.083C292.167,-48.9272 294.835,-38.6353 297.154,-29.6911"/>
<polygon fill="midnightblue" stroke="midnightblue" points="300.609,-30.3094 299.731,-19.7511 293.834,-28.5527 300.609,-30.3094"/>
</g>
<!-- Node15 -->
<g id="node15" class="node"><title>Node15</title>
<polygon fill="white" stroke="#bfbfbf" points="352,-0.5 352,-19.5 404,-19.5 404,-0.5 352,-0.5"/>
<text text-anchor="middle" x="378" y="-7.5" font-family="Helvetica,sans-Serif" font-size="10.00">mutex.h</text>
</g>
<!-- Node9&#45;&gt;Node15 -->
<g id="edge17" class="edge"><title>Node9&#45;&gt;Node15</title>
<path fill="none" stroke="midnightblue" d="M302.46,-56.324C316.5,-47.9002 338.048,-34.9709 354.543,-25.0741"/>
<polygon fill="midnightblue" stroke="midnightblue" points="356.802,-27.8007 363.576,-19.6545 353.2,-21.7983 356.802,-27.8007"/>
</g>
</g>
</svg>
