<?xml version="1.0" encoding="UTF-8" standalone="no"?>
<!DOCTYPE svg PUBLIC "-//W3C//DTD SVG 1.1//EN"
 "http://www.w3.org/Graphics/SVG/1.1/DTD/svg11.dtd">
<!-- Generated by graphviz version 2.36.0 (20140111.2315)
 -->
<!-- Title: IPlugBaseGraphics.h Pages: 1 -->
<svg width="1434pt" height="364pt"
 viewBox="0.00 0.00 1434.00 364.00" xmlns="http://www.w3.org/2000/svg" xmlns:xlink="http://www.w3.org/1999/xlink">
<g id="graph0" class="graph" transform="scale(1 1) rotate(0) translate(4 360)">
<title>IPlugBaseGraphics.h</title>
<polygon fill="white" stroke="none" points="-4,4 -4,-360 1430,-360 1430,4 -4,4"/>
<!-- Node1 -->
<g id="node1" class="node"><title>Node1</title>
<polygon fill="#bfbfbf" stroke="black" points="732.5,-336.5 732.5,-355.5 841.5,-355.5 841.5,-336.5 732.5,-336.5"/>
<text text-anchor="middle" x="787" y="-343.5" font-family="Helvetica,sans-Serif" font-size="10.00">IPlugBaseGraphics.h</text>
</g>
<!-- Node2 -->
<g id="node2" class="node"><title>Node2</title>
<g id="a_node2"><a xlink:href="_i_control_8h.html" target="_top" xlink:title="The lowest level base class of an IGraphics control. ">
<polygon fill="white" stroke="black" points="315.5,-280.5 315.5,-299.5 374.5,-299.5 374.5,-280.5 315.5,-280.5"/>
<text text-anchor="middle" x="345" y="-287.5" font-family="Helvetica,sans-Serif" font-size="10.00">IControl.h</text>
</a>
</g>
</g>
<!-- Node1&#45;&gt;Node2 -->
<g id="edge1" class="edge"><title>Node1&#45;&gt;Node2</title>
<path fill="none" stroke="midnightblue" d="M722.356,-337.102C625.13,-325.224 445.134,-303.234 374.521,-294.607"/>
<polygon fill="midnightblue" stroke="midnightblue" points="722.008,-340.586 732.359,-338.324 722.857,-333.637 722.008,-340.586"/>
</g>
<!-- Node20 -->
<g id="node20" class="node"><title>Node20</title>
<g id="a_node20"><a xlink:href="_i_plug_base_graphics_8cpp_source.html" target="_top" xlink:title="IPlugBaseGraphics.cpp">
<polygon fill="white" stroke="black" points="727.5,-168.5 727.5,-187.5 846.5,-187.5 846.5,-168.5 727.5,-168.5"/>
<text text-anchor="middle" x="787" y="-175.5" font-family="Helvetica,sans-Serif" font-size="10.00">IPlugBaseGraphics.cpp</text>
</a>
</g>
</g>
<!-- Node1&#45;&gt;Node20 -->
<g id="edge42" class="edge"><title>Node1&#45;&gt;Node20</title>
<path fill="none" stroke="midnightblue" d="M787,-325.93C787,-289.92 787,-213.231 787,-187.568"/>
<polygon fill="midnightblue" stroke="midnightblue" points="783.5,-326.075 787,-336.075 790.5,-326.075 783.5,-326.075"/>
</g>
<!-- Node24 -->
<g id="node24" class="node"><title>Node24</title>
<g id="a_node24"><a xlink:href="_i_plug_base__select_8h_source.html" target="_top" xlink:title="IPlugBase_select.h">
<polygon fill="white" stroke="black" points="1042.5,-280.5 1042.5,-299.5 1143.5,-299.5 1143.5,-280.5 1042.5,-280.5"/>
<text text-anchor="middle" x="1093" y="-287.5" font-family="Helvetica,sans-Serif" font-size="10.00">IPlugBase_select.h</text>
</a>
</g>
</g>
<!-- Node1&#45;&gt;Node24 -->
<g id="edge29" class="edge"><title>Node1&#45;&gt;Node24</title>
<path fill="none" stroke="midnightblue" d="M845.57,-334.664C903.398,-324.459 990.781,-309.039 1044.74,-299.516"/>
<polygon fill="midnightblue" stroke="midnightblue" points="844.726,-331.259 835.487,-336.444 845.943,-338.152 844.726,-331.259"/>
</g>
<!-- Node3 -->
<g id="node3" class="node"><title>Node3</title>
<g id="a_node3"><a xlink:href="_i_control_8cpp_source.html" target="_top" xlink:title="IControl.cpp">
<polygon fill="white" stroke="black" points="310,-224.5 310,-243.5 380,-243.5 380,-224.5 310,-224.5"/>
<text text-anchor="middle" x="345" y="-231.5" font-family="Helvetica,sans-Serif" font-size="10.00">IControl.cpp</text>
</a>
</g>
</g>
<!-- Node2&#45;&gt;Node3 -->
<g id="edge2" class="edge"><title>Node2&#45;&gt;Node3</title>
<path fill="none" stroke="midnightblue" d="M345,-269.805C345,-260.91 345,-250.78 345,-243.751"/>
<polygon fill="midnightblue" stroke="midnightblue" points="341.5,-270.083 345,-280.083 348.5,-270.083 341.5,-270.083"/>
</g>
<!-- Node4 -->
<g id="node4" class="node"><title>Node4</title>
<g id="a_node4"><a xlink:href="_i_graphics_8h.html" target="_top" xlink:title="The lowest level base class of an IGraphics context. ">
<polygon fill="white" stroke="black" points="404.5,-224.5 404.5,-243.5 471.5,-243.5 471.5,-224.5 404.5,-224.5"/>
<text text-anchor="middle" x="438" y="-231.5" font-family="Helvetica,sans-Serif" font-size="10.00">IGraphics.h</text>
</a>
</g>
</g>
<!-- Node2&#45;&gt;Node4 -->
<g id="edge3" class="edge"><title>Node2&#45;&gt;Node4</title>
<path fill="none" stroke="midnightblue" d="M363.27,-274.901C379.098,-264.999 401.664,-252.071 417.985,-243.655"/>
<polygon fill="midnightblue" stroke="midnightblue" points="361.349,-271.974 354.827,-280.324 365.133,-277.864 361.349,-271.974"/>
</g>
<!-- Node12 -->
<g id="node12" class="node"><title>Node12</title>
<g id="a_node12"><a xlink:href="_i_graphics_mac_8mm_source.html" target="_top" xlink:title="IGraphicsMac.mm">
<polygon fill="white" stroke="black" points="140.5,-0.5 140.5,-19.5 237.5,-19.5 237.5,-0.5 140.5,-0.5"/>
<text text-anchor="middle" x="189" y="-7.5" font-family="Helvetica,sans-Serif" font-size="10.00">IGraphicsMac.mm</text>
</a>
</g>
</g>
<!-- Node2&#45;&gt;Node12 -->
<g id="edge28" class="edge"><title>Node2&#45;&gt;Node12</title>
<path fill="none" stroke="midnightblue" d="M305.161,-288.455C253.862,-286.317 163.099,-277.587 94,-244 54.9291,-225.009 21,-222.442 21,-179 21,-179 21,-179 21,-121 21,-90.9022 18.8128,-77.377 40,-56 54.7421,-41.1258 106.255,-27.7667 144.607,-19.5407"/>
<polygon fill="midnightblue" stroke="midnightblue" points="305.064,-291.954 315.182,-288.81 305.312,-284.958 305.064,-291.954"/>
</g>
<!-- Node21 -->
<g id="node21" class="node"><title>Node21</title>
<g id="a_node21"><a xlink:href="_i_controls_8h.html" target="_top" xlink:title="A collection of IControls for common UI widgets, such as knobs, sliders, switches. ">
<polygon fill="white" stroke="black" points="103.5,-224.5 103.5,-243.5 168.5,-243.5 168.5,-224.5 103.5,-224.5"/>
<text text-anchor="middle" x="136" y="-231.5" font-family="Helvetica,sans-Serif" font-size="10.00">IControls.h</text>
</a>
</g>
</g>
<!-- Node2&#45;&gt;Node21 -->
<g id="edge24" class="edge"><title>Node2&#45;&gt;Node21</title>
<path fill="none" stroke="midnightblue" d="M305.671,-278.838C266.121,-268.62 205.843,-253.046 168.793,-243.473"/>
<polygon fill="midnightblue" stroke="midnightblue" points="304.941,-282.265 315.499,-281.378 306.692,-275.487 304.941,-282.265"/>
</g>
<!-- Node23 -->
<g id="node23" class="node"><title>Node23</title>
<g id="a_node23"><a xlink:href="_i_graphics_live_edit_8h_source.html" target="_top" xlink:title="IGraphicsLiveEdit.h">
<polygon fill="white" stroke="black" points="189,-224.5 189,-243.5 291,-243.5 291,-224.5 189,-224.5"/>
<text text-anchor="middle" x="240" y="-231.5" font-family="Helvetica,sans-Serif" font-size="10.00">IGraphicsLiveEdit.h</text>
</a>
</g>
</g>
<!-- Node2&#45;&gt;Node23 -->
<g id="edge26" class="edge"><title>Node2&#45;&gt;Node23</title>
<path fill="none" stroke="midnightblue" d="M319.19,-275.726C299.747,-265.727 273.652,-252.307 256.828,-243.655"/>
<polygon fill="midnightblue" stroke="midnightblue" points="317.636,-278.863 328.13,-280.324 320.838,-272.638 317.636,-278.863"/>
</g>
<!-- Node4&#45;&gt;Node2 -->
<g id="edge4" class="edge"><title>Node4&#45;&gt;Node2</title>
<path fill="none" stroke="midnightblue" d="M419.77,-249.074C403.954,-258.971 381.388,-271.9 365.057,-280.324"/>
<polygon fill="midnightblue" stroke="midnightblue" points="421.684,-252.005 428.205,-243.655 417.9,-246.116 421.684,-252.005"/>
</g>
<!-- Node5 -->
<g id="node5" class="node"><title>Node5</title>
<g id="a_node5"><a xlink:href="_i_graphics_8cpp_source.html" target="_top" xlink:title="IGraphics.cpp">
<polygon fill="white" stroke="black" points="190.5,-168.5 190.5,-187.5 267.5,-187.5 267.5,-168.5 190.5,-168.5"/>
<text text-anchor="middle" x="229" y="-175.5" font-family="Helvetica,sans-Serif" font-size="10.00">IGraphics.cpp</text>
</a>
</g>
</g>
<!-- Node4&#45;&gt;Node5 -->
<g id="edge5" class="edge"><title>Node4&#45;&gt;Node5</title>
<path fill="none" stroke="midnightblue" d="M395.016,-221.894C355.548,-211.697 297.9,-196.802 261.962,-187.516"/>
<polygon fill="midnightblue" stroke="midnightblue" points="394.326,-225.331 404.883,-224.444 396.077,-218.553 394.326,-225.331"/>
</g>
<!-- Node6 -->
<g id="node6" class="node"><title>Node6</title>
<g id="a_node6"><a xlink:href="_i_graphics_a_g_g_8h_source.html" target="_top" xlink:title="IGraphicsAGG.h">
<polygon fill="white" stroke="black" points="511.5,-168.5 511.5,-187.5 600.5,-187.5 600.5,-168.5 511.5,-168.5"/>
<text text-anchor="middle" x="556" y="-175.5" font-family="Helvetica,sans-Serif" font-size="10.00">IGraphicsAGG.h</text>
</a>
</g>
</g>
<!-- Node4&#45;&gt;Node6 -->
<g id="edge6" class="edge"><title>Node4&#45;&gt;Node6</title>
<path fill="none" stroke="midnightblue" d="M465.9,-220.232C487.973,-210.131 518.176,-196.309 537.39,-187.516"/>
<polygon fill="midnightblue" stroke="midnightblue" points="464.334,-217.1 456.697,-224.444 467.247,-223.465 464.334,-217.1"/>
</g>
<!-- Node8 -->
<g id="node8" class="node"><title>Node8</title>
<g id="a_node8"><a xlink:href="_i_graphics_cairo_8h_source.html" target="_top" xlink:title="IGraphicsCairo.h">
<polygon fill="white" stroke="black" points="619,-168.5 619,-187.5 709,-187.5 709,-168.5 619,-168.5"/>
<text text-anchor="middle" x="664" y="-175.5" font-family="Helvetica,sans-Serif" font-size="10.00">IGraphicsCairo.h</text>
</a>
</g>
</g>
<!-- Node4&#45;&gt;Node8 -->
<g id="edge8" class="edge"><title>Node4&#45;&gt;Node8</title>
<path fill="none" stroke="midnightblue" d="M481.645,-222.572C524.252,-212.391 588.31,-197.085 628.064,-187.587"/>
<polygon fill="midnightblue" stroke="midnightblue" points="480.747,-219.187 471.834,-224.916 482.374,-225.996 480.747,-219.187"/>
</g>
<!-- Node10 -->
<g id="node10" class="node"><title>Node10</title>
<g id="a_node10"><a xlink:href="_i_graphics_lice_8h_source.html" target="_top" xlink:title="IGraphicsLice.h">
<polygon fill="white" stroke="black" points="285.5,-168.5 285.5,-187.5 370.5,-187.5 370.5,-168.5 285.5,-168.5"/>
<text text-anchor="middle" x="328" y="-175.5" font-family="Helvetica,sans-Serif" font-size="10.00">IGraphicsLice.h</text>
</a>
</g>
</g>
<!-- Node4&#45;&gt;Node10 -->
<g id="edge10" class="edge"><title>Node4&#45;&gt;Node10</title>
<path fill="none" stroke="midnightblue" d="M411.238,-219.862C390.841,-209.849 363.334,-196.346 345.63,-187.655"/>
<polygon fill="midnightblue" stroke="midnightblue" points="409.808,-223.059 420.327,-224.324 412.892,-216.775 409.808,-223.059"/>
</g>
<!-- Node18 -->
<g id="node18" class="node"><title>Node18</title>
<g id="a_node18"><a xlink:href="_i_graphics_nano_v_g_8h_source.html" target="_top" xlink:title="IGraphicsNanoVG.h">
<polygon fill="white" stroke="black" points="389,-168.5 389,-187.5 493,-187.5 493,-168.5 389,-168.5"/>
<text text-anchor="middle" x="441" y="-175.5" font-family="Helvetica,sans-Serif" font-size="10.00">IGraphicsNanoVG.h</text>
</a>
</g>
</g>
<!-- Node4&#45;&gt;Node18 -->
<g id="edge21" class="edge"><title>Node4&#45;&gt;Node18</title>
<path fill="none" stroke="midnightblue" d="M439.066,-213.805C439.561,-204.91 440.123,-194.78 440.514,-187.751"/>
<polygon fill="midnightblue" stroke="midnightblue" points="435.556,-213.904 438.495,-224.083 442.545,-214.293 435.556,-213.904"/>
</g>
<!-- Node4&#45;&gt;Node20 -->
<g id="edge23" class="edge"><title>Node4&#45;&gt;Node20</title>
<path fill="none" stroke="midnightblue" d="M481.857,-226.214C545.293,-216.399 662.618,-198.245 731.842,-187.534"/>
<polygon fill="midnightblue" stroke="midnightblue" points="481.128,-222.785 471.781,-227.773 482.198,-229.703 481.128,-222.785"/>
</g>
<!-- Node7 -->
<g id="node7" class="node"><title>Node7</title>
<g id="a_node7"><a xlink:href="_i_graphics_a_g_g_8cpp_source.html" target="_top" xlink:title="IGraphicsAGG.cpp">
<polygon fill="white" stroke="black" points="520.5,-112.5 520.5,-131.5 619.5,-131.5 619.5,-112.5 520.5,-112.5"/>
<text text-anchor="middle" x="570" y="-119.5" font-family="Helvetica,sans-Serif" font-size="10.00">IGraphicsAGG.cpp</text>
</a>
</g>
</g>
<!-- Node6&#45;&gt;Node7 -->
<g id="edge7" class="edge"><title>Node6&#45;&gt;Node7</title>
<path fill="none" stroke="midnightblue" d="M560.823,-158.396C563.165,-149.362 565.868,-138.936 567.731,-131.751"/>
<polygon fill="midnightblue" stroke="midnightblue" points="557.434,-157.525 558.312,-168.083 564.21,-159.281 557.434,-157.525"/>
</g>
<!-- Node9 -->
<g id="node9" class="node"><title>Node9</title>
<g id="a_node9"><a xlink:href="_i_graphics_cairo_8cpp_source.html" target="_top" xlink:title="IGraphicsCairo.cpp">
<polygon fill="white" stroke="black" points="637.5,-112.5 637.5,-131.5 738.5,-131.5 738.5,-112.5 637.5,-112.5"/>
<text text-anchor="middle" x="688" y="-119.5" font-family="Helvetica,sans-Serif" font-size="10.00">IGraphicsCairo.cpp</text>
</a>
</g>
</g>
<!-- Node8&#45;&gt;Node9 -->
<g id="edge9" class="edge"><title>Node8&#45;&gt;Node9</title>
<path fill="none" stroke="midnightblue" d="M672.138,-158.69C676.183,-149.589 680.883,-139.014 684.111,-131.751"/>
<polygon fill="midnightblue" stroke="midnightblue" points="668.826,-157.523 667.963,-168.083 675.223,-160.366 668.826,-157.523"/>
</g>
<!-- Node11 -->
<g id="node11" class="node"><title>Node11</title>
<g id="a_node11"><a xlink:href="_i_graphics_lice_8cpp_source.html" target="_top" xlink:title="IGraphicsLice.cpp">
<polygon fill="white" stroke="black" points="172.5,-112.5 172.5,-131.5 267.5,-131.5 267.5,-112.5 172.5,-112.5"/>
<text text-anchor="middle" x="220" y="-119.5" font-family="Helvetica,sans-Serif" font-size="10.00">IGraphicsLice.cpp</text>
</a>
</g>
</g>
<!-- Node10&#45;&gt;Node11 -->
<g id="edge11" class="edge"><title>Node10&#45;&gt;Node11</title>
<path fill="none" stroke="midnightblue" d="M301.452,-163.726C281.454,-153.727 254.613,-140.307 237.309,-131.655"/>
<polygon fill="midnightblue" stroke="midnightblue" points="300.138,-166.982 310.648,-168.324 303.269,-160.721 300.138,-166.982"/>
</g>
<!-- Node14 -->
<g id="node14" class="node"><title>Node14</title>
<g id="a_node14"><a xlink:href="_i_graphics_mac_8h_source.html" target="_top" xlink:title="IGraphicsMac.h">
<polygon fill="white" stroke="black" points="68,-112.5 68,-131.5 154,-131.5 154,-112.5 68,-112.5"/>
<text text-anchor="middle" x="111" y="-119.5" font-family="Helvetica,sans-Serif" font-size="10.00">IGraphicsMac.h</text>
</a>
</g>
</g>
<!-- Node10&#45;&gt;Node14 -->
<g id="edge14" class="edge"><title>Node10&#45;&gt;Node14</title>
<path fill="none" stroke="midnightblue" d="M283.892,-166.024C242.9,-155.823 182.696,-140.841 145.223,-131.516"/>
<polygon fill="midnightblue" stroke="midnightblue" points="283.066,-169.425 293.616,-168.444 284.757,-162.632 283.066,-169.425"/>
</g>
<!-- Node17 -->
<g id="node17" class="node"><title>Node17</title>
<g id="a_node17"><a xlink:href="_i_graphics_win_8h_source.html" target="_top" xlink:title="IGraphicsWin.h">
<polygon fill="white" stroke="black" points="286,-112.5 286,-131.5 370,-131.5 370,-112.5 286,-112.5"/>
<text text-anchor="middle" x="328" y="-119.5" font-family="Helvetica,sans-Serif" font-size="10.00">IGraphicsWin.h</text>
</a>
</g>
</g>
<!-- Node10&#45;&gt;Node17 -->
<g id="edge19" class="edge"><title>Node10&#45;&gt;Node17</title>
<path fill="none" stroke="midnightblue" d="M328,-157.805C328,-148.91 328,-138.78 328,-131.751"/>
<polygon fill="midnightblue" stroke="midnightblue" points="324.5,-158.083 328,-168.083 331.5,-158.083 324.5,-158.083"/>
</g>
<!-- Node11&#45;&gt;Node12 -->
<g id="edge12" class="edge"><title>Node11&#45;&gt;Node12</title>
<path fill="none" stroke="midnightblue" d="M215.293,-102.072C212.001,-89.0707 207.418,-71.4388 203,-56 199.353,-43.2569 194.716,-28.6215 191.802,-19.5917"/>
<polygon fill="midnightblue" stroke="midnightblue" points="211.989,-103.286 217.818,-112.134 218.779,-101.582 211.989,-103.286"/>
</g>
<!-- Node13 -->
<g id="node13" class="node"><title>Node13</title>
<g id="a_node13"><a xlink:href="_i_graphics_win_8cpp_source.html" target="_top" xlink:title="IGraphicsWin.cpp">
<polygon fill="white" stroke="black" points="267.5,-56.5 267.5,-75.5 362.5,-75.5 362.5,-56.5 267.5,-56.5"/>
<text text-anchor="middle" x="315" y="-63.5" font-family="Helvetica,sans-Serif" font-size="10.00">IGraphicsWin.cpp</text>
</a>
</g>
</g>
<!-- Node11&#45;&gt;Node13 -->
<g id="edge13" class="edge"><title>Node11&#45;&gt;Node13</title>
<path fill="none" stroke="midnightblue" d="M244.318,-107.177C261.799,-97.2407 284.83,-84.1492 299.774,-75.6545"/>
<polygon fill="midnightblue" stroke="midnightblue" points="242.227,-104.339 235.263,-112.324 245.687,-110.425 242.227,-104.339"/>
</g>
<!-- Node14&#45;&gt;Node12 -->
<g id="edge15" class="edge"><title>Node14&#45;&gt;Node12</title>
<path fill="none" stroke="midnightblue" d="M135.258,-107.11C146.945,-99.3139 160.281,-88.6159 169,-76 181.217,-58.3223 186.172,-32.927 188.015,-19.7224"/>
<polygon fill="midnightblue" stroke="midnightblue" points="133.329,-104.188 126.746,-112.489 137.069,-110.105 133.329,-104.188"/>
</g>
<!-- Node15 -->
<g id="node15" class="node"><title>Node15</title>
<g id="a_node15"><a xlink:href="_i_graphics_mac__view_8h_source.html" target="_top" xlink:title="IGraphicsMac_view.h">
<polygon fill="white" stroke="black" points="49.5,-56.5 49.5,-75.5 160.5,-75.5 160.5,-56.5 49.5,-56.5"/>
<text text-anchor="middle" x="105" y="-63.5" font-family="Helvetica,sans-Serif" font-size="10.00">IGraphicsMac_view.h</text>
</a>
</g>
</g>
<!-- Node14&#45;&gt;Node15 -->
<g id="edge16" class="edge"><title>Node14&#45;&gt;Node15</title>
<path fill="none" stroke="midnightblue" d="M108.9,-102.101C107.904,-93.1357 106.762,-82.8579 105.972,-75.7511"/>
<polygon fill="midnightblue" stroke="midnightblue" points="105.426,-102.531 110.009,-112.083 112.383,-101.758 105.426,-102.531"/>
</g>
<!-- Node15&#45;&gt;Node12 -->
<g id="edge17" class="edge"><title>Node15&#45;&gt;Node12</title>
<path fill="none" stroke="midnightblue" d="M126.932,-50.9005C142.335,-40.9986 162.446,-28.0705 175.537,-19.6545"/>
<polygon fill="midnightblue" stroke="midnightblue" points="125.015,-47.9722 118.496,-56.324 128.801,-53.8605 125.015,-47.9722"/>
</g>
<!-- Node16 -->
<g id="node16" class="node"><title>Node16</title>
<g id="a_node16"><a xlink:href="_i_graphics_mac__view_8mm_source.html" target="_top" xlink:title="IGraphicsMac_view.mm">
<polygon fill="white" stroke="black" points="0,-0.5 0,-19.5 122,-19.5 122,-0.5 0,-0.5"/>
<text text-anchor="middle" x="61" y="-7.5" font-family="Helvetica,sans-Serif" font-size="10.00">IGraphicsMac_view.mm</text>
</a>
</g>
</g>
<!-- Node15&#45;&gt;Node16 -->
<g id="edge18" class="edge"><title>Node15&#45;&gt;Node16</title>
<path fill="none" stroke="midnightblue" d="M91.2655,-48.144C83.5995,-38.7357 74.3667,-27.4046 68.1305,-19.7511"/>
<polygon fill="midnightblue" stroke="midnightblue" points="88.7042,-50.5415 97.7343,-56.083 94.1309,-46.1198 88.7042,-50.5415"/>
</g>
<!-- Node17&#45;&gt;Node13 -->
<g id="edge20" class="edge"><title>Node17&#45;&gt;Node13</title>
<path fill="none" stroke="midnightblue" d="M323.45,-102.101C321.292,-93.1357 318.818,-82.8579 317.107,-75.7511"/>
<polygon fill="midnightblue" stroke="midnightblue" points="320.11,-103.18 325.853,-112.083 326.915,-101.542 320.11,-103.18"/>
</g>
<!-- Node19 -->
<g id="node19" class="node"><title>Node19</title>
<g id="a_node19"><a xlink:href="_i_graphics_nano_v_g_8cpp_source.html" target="_top" xlink:title="IGraphicsNanoVG.cpp">
<polygon fill="white" stroke="black" points="387.5,-112.5 387.5,-131.5 502.5,-131.5 502.5,-112.5 387.5,-112.5"/>
<text text-anchor="middle" x="445" y="-119.5" font-family="Helvetica,sans-Serif" font-size="10.00">IGraphicsNanoVG.cpp</text>
</a>
</g>
</g>
<!-- Node18&#45;&gt;Node19 -->
<g id="edge22" class="edge"><title>Node18&#45;&gt;Node19</title>
<path fill="none" stroke="midnightblue" d="M442.4,-158.101C443.064,-149.136 443.825,-138.858 444.352,-131.751"/>
<polygon fill="midnightblue" stroke="midnightblue" points="438.909,-157.852 441.661,-168.083 445.89,-158.369 438.909,-157.852"/>
</g>
<!-- Node22 -->
<g id="node22" class="node"><title>Node22</title>
<g id="a_node22"><a xlink:href="_i_controls_8cpp_source.html" target="_top" xlink:title="IControls.cpp">
<polygon fill="white" stroke="black" points="97.5,-168.5 97.5,-187.5 172.5,-187.5 172.5,-168.5 97.5,-168.5"/>
<text text-anchor="middle" x="135" y="-175.5" font-family="Helvetica,sans-Serif" font-size="10.00">IControls.cpp</text>
</a>
</g>
</g>
<!-- Node21&#45;&gt;Node22 -->
<g id="edge25" class="edge"><title>Node21&#45;&gt;Node22</title>
<path fill="none" stroke="midnightblue" d="M135.645,-213.805C135.48,-204.91 135.292,-194.78 135.162,-187.751"/>
<polygon fill="midnightblue" stroke="midnightblue" points="132.15,-214.15 135.835,-224.083 139.149,-214.02 132.15,-214.15"/>
</g>
<!-- Node23&#45;&gt;Node5 -->
<g id="edge27" class="edge"><title>Node23&#45;&gt;Node5</title>
<path fill="none" stroke="midnightblue" d="M236.15,-214.101C234.324,-205.136 232.23,-194.858 230.783,-187.751"/>
<polygon fill="midnightblue" stroke="midnightblue" points="232.758,-214.983 238.184,-224.083 239.617,-213.586 232.758,-214.983"/>
</g>
<!-- Node25 -->
<g id="node25" class="node"><title>Node25</title>
<g id="a_node25"><a xlink:href="_i_plug_a_a_x_8h.html" target="_top" xlink:title="AAX API base class for an IPlug plug&#45;in, inherits from IPlugBase or IPlugBaseGraphics. ">
<polygon fill="white" stroke="black" points="875,-224.5 875,-243.5 943,-243.5 943,-224.5 875,-224.5"/>
<text text-anchor="middle" x="909" y="-231.5" font-family="Helvetica,sans-Serif" font-size="10.00">IPlugAAX.h</text>
</a>
</g>
</g>
<!-- Node24&#45;&gt;Node25 -->
<g id="edge30" class="edge"><title>Node24&#45;&gt;Node25</title>
<path fill="none" stroke="midnightblue" d="M1054.05,-277.568C1019.34,-267.381 969.323,-252.703 938.019,-243.516"/>
<polygon fill="midnightblue" stroke="midnightblue" points="1053.26,-280.986 1063.84,-280.444 1055.23,-274.269 1053.26,-280.986"/>
</g>
<!-- Node27 -->
<g id="node27" class="node"><title>Node27</title>
<g id="a_node27"><a xlink:href="_i_plug_a_p_p_8h.html" target="_top" xlink:title="Standalone application base class for an IPlug plug&#45;in, inherits from IPlugBase or IPlugBaseGraphics...">
<polygon fill="white" stroke="black" points="971,-224.5 971,-243.5 1039,-243.5 1039,-224.5 971,-224.5"/>
<text text-anchor="middle" x="1005" y="-231.5" font-family="Helvetica,sans-Serif" font-size="10.00">IPlugAPP.h</text>
</a>
</g>
</g>
<!-- Node24&#45;&gt;Node27 -->
<g id="edge32" class="edge"><title>Node24&#45;&gt;Node27</title>
<path fill="none" stroke="midnightblue" d="M1070.02,-274.901C1053.89,-264.999 1032.82,-252.071 1019.1,-243.655"/>
<polygon fill="midnightblue" stroke="midnightblue" points="1068.51,-278.077 1078.86,-280.324 1072.17,-272.111 1068.51,-278.077"/>
</g>
<!-- Node29 -->
<g id="node29" class="node"><title>Node29</title>
<g id="a_node29"><a xlink:href="_i_plug_a_u_8h.html" target="_top" xlink:title="AudioUnit v2 API base class for an IPlug plug&#45;in, inherits from IPlugBase or IPlugBaseGraphics. ">
<polygon fill="white" stroke="black" points="1062,-224.5 1062,-243.5 1124,-243.5 1124,-224.5 1062,-224.5"/>
<text text-anchor="middle" x="1093" y="-231.5" font-family="Helvetica,sans-Serif" font-size="10.00">IPlugAU.h</text>
</a>
</g>
</g>
<!-- Node24&#45;&gt;Node29 -->
<g id="edge34" class="edge"><title>Node24&#45;&gt;Node29</title>
<path fill="none" stroke="midnightblue" d="M1093,-269.805C1093,-260.91 1093,-250.78 1093,-243.751"/>
<polygon fill="midnightblue" stroke="midnightblue" points="1089.5,-270.083 1093,-280.083 1096.5,-270.083 1089.5,-270.083"/>
</g>
<!-- Node31 -->
<g id="node31" class="node"><title>Node31</title>
<g id="a_node31"><a xlink:href="_i_plug_a_uv3_8h_source.html" target="_top" xlink:title="IPlugAUv3.h">
<polygon fill="white" stroke="black" points="1146,-224.5 1146,-243.5 1218,-243.5 1218,-224.5 1146,-224.5"/>
<text text-anchor="middle" x="1182" y="-231.5" font-family="Helvetica,sans-Serif" font-size="10.00">IPlugAUv3.h</text>
</a>
</g>
</g>
<!-- Node24&#45;&gt;Node31 -->
<g id="edge36" class="edge"><title>Node24&#45;&gt;Node31</title>
<path fill="none" stroke="midnightblue" d="M1116.24,-274.901C1132.56,-264.999 1153.87,-252.071 1167.74,-243.655"/>
<polygon fill="midnightblue" stroke="midnightblue" points="1114.03,-272.144 1107.3,-280.324 1117.66,-278.129 1114.03,-272.144"/>
</g>
<!-- Node33 -->
<g id="node33" class="node"><title>Node33</title>
<g id="a_node33"><a xlink:href="_i_plug_v_s_t_8h.html" target="_top" xlink:title="VST2.4 API base class for an IPlug plug&#45;in, inherits from IPlugBase or IPlugBaseGraphics. ">
<polygon fill="white" stroke="black" points="1244.5,-224.5 1244.5,-243.5 1311.5,-243.5 1311.5,-224.5 1244.5,-224.5"/>
<text text-anchor="middle" x="1278" y="-231.5" font-family="Helvetica,sans-Serif" font-size="10.00">IPlugVST.h</text>
</a>
</g>
</g>
<!-- Node24&#45;&gt;Node33 -->
<g id="edge38" class="edge"><title>Node24&#45;&gt;Node33</title>
<path fill="none" stroke="midnightblue" d="M1132.17,-277.568C1167.07,-267.381 1217.35,-252.703 1248.82,-243.516"/>
<polygon fill="midnightblue" stroke="midnightblue" points="1130.93,-274.282 1122.31,-280.444 1132.89,-281.001 1130.93,-274.282"/>
</g>
<!-- Node35 -->
<g id="node35" class="node"><title>Node35</title>
<g id="a_node35"><a xlink:href="_i_plug_v_s_t3_8h.html" target="_top" xlink:title="VST3 base class for an IPlug plug&#45;in, inherits from IPlugBase or IPlugBaseGraphics. ">
<polygon fill="white" stroke="black" points="1345,-224.5 1345,-243.5 1417,-243.5 1417,-224.5 1345,-224.5"/>
<text text-anchor="middle" x="1381" y="-231.5" font-family="Helvetica,sans-Serif" font-size="10.00">IPlugVST3.h</text>
</a>
</g>
</g>
<!-- Node24&#45;&gt;Node35 -->
<g id="edge40" class="edge"><title>Node24&#45;&gt;Node35</title>
<path fill="none" stroke="midnightblue" d="M1148.7,-278.556C1206.54,-267.712 1295.32,-251.064 1344.7,-241.807"/>
<polygon fill="midnightblue" stroke="midnightblue" points="1147.82,-275.161 1138.63,-280.444 1149.11,-282.041 1147.82,-275.161"/>
</g>
<!-- Node26 -->
<g id="node26" class="node"><title>Node26</title>
<g id="a_node26"><a xlink:href="_i_plug_a_a_x_8cpp_source.html" target="_top" xlink:title="IPlugAAX.cpp">
<polygon fill="white" stroke="black" points="865,-168.5 865,-187.5 943,-187.5 943,-168.5 865,-168.5"/>
<text text-anchor="middle" x="904" y="-175.5" font-family="Helvetica,sans-Serif" font-size="10.00">IPlugAAX.cpp</text>
</a>
</g>
</g>
<!-- Node25&#45;&gt;Node26 -->
<g id="edge31" class="edge"><title>Node25&#45;&gt;Node26</title>
<path fill="none" stroke="midnightblue" d="M907.25,-214.101C906.42,-205.136 905.468,-194.858 904.81,-187.751"/>
<polygon fill="midnightblue" stroke="midnightblue" points="903.767,-214.448 908.174,-224.083 910.737,-213.803 903.767,-214.448"/>
</g>
<!-- Node28 -->
<g id="node28" class="node"><title>Node28</title>
<g id="a_node28"><a xlink:href="_i_plug_a_p_p_8cpp_source.html" target="_top" xlink:title="IPlugAPP.cpp">
<polygon fill="white" stroke="black" points="961,-168.5 961,-187.5 1039,-187.5 1039,-168.5 961,-168.5"/>
<text text-anchor="middle" x="1000" y="-175.5" font-family="Helvetica,sans-Serif" font-size="10.00">IPlugAPP.cpp</text>
</a>
</g>
</g>
<!-- Node27&#45;&gt;Node28 -->
<g id="edge33" class="edge"><title>Node27&#45;&gt;Node28</title>
<path fill="none" stroke="midnightblue" d="M1003.25,-214.101C1002.42,-205.136 1001.47,-194.858 1000.81,-187.751"/>
<polygon fill="midnightblue" stroke="midnightblue" points="999.767,-214.448 1004.17,-224.083 1006.74,-213.803 999.767,-214.448"/>
</g>
<!-- Node30 -->
<g id="node30" class="node"><title>Node30</title>
<g id="a_node30"><a xlink:href="_i_plug_a_u_8cpp_source.html" target="_top" xlink:title="IPlugAU.cpp">
<polygon fill="white" stroke="black" points="1057,-168.5 1057,-187.5 1129,-187.5 1129,-168.5 1057,-168.5"/>
<text text-anchor="middle" x="1093" y="-175.5" font-family="Helvetica,sans-Serif" font-size="10.00">IPlugAU.cpp</text>
</a>
</g>
</g>
<!-- Node29&#45;&gt;Node30 -->
<g id="edge35" class="edge"><title>Node29&#45;&gt;Node30</title>
<path fill="none" stroke="midnightblue" d="M1093,-213.805C1093,-204.91 1093,-194.78 1093,-187.751"/>
<polygon fill="midnightblue" stroke="midnightblue" points="1089.5,-214.083 1093,-224.083 1096.5,-214.083 1089.5,-214.083"/>
</g>
<!-- Node32 -->
<g id="node32" class="node"><title>Node32</title>
<g id="a_node32"><a xlink:href="_i_plug_a_uv3_8mm_source.html" target="_top" xlink:title="IPlugAUv3.mm">
<polygon fill="white" stroke="black" points="1147.5,-168.5 1147.5,-187.5 1230.5,-187.5 1230.5,-168.5 1147.5,-168.5"/>
<text text-anchor="middle" x="1189" y="-175.5" font-family="Helvetica,sans-Serif" font-size="10.00">IPlugAUv3.mm</text>
</a>
</g>
</g>
<!-- Node31&#45;&gt;Node32 -->
<g id="edge37" class="edge"><title>Node31&#45;&gt;Node32</title>
<path fill="none" stroke="midnightblue" d="M1184.45,-214.101C1185.61,-205.136 1186.94,-194.858 1187.87,-187.751"/>
<polygon fill="midnightblue" stroke="midnightblue" points="1180.97,-213.716 1183.16,-224.083 1187.91,-214.616 1180.97,-213.716"/>
</g>
<!-- Node34 -->
<g id="node34" class="node"><title>Node34</title>
<g id="a_node34"><a xlink:href="_i_plug_v_s_t_8cpp_source.html" target="_top" xlink:title="IPlugVST.cpp">
<polygon fill="white" stroke="black" points="1248.5,-168.5 1248.5,-187.5 1325.5,-187.5 1325.5,-168.5 1248.5,-168.5"/>
<text text-anchor="middle" x="1287" y="-175.5" font-family="Helvetica,sans-Serif" font-size="10.00">IPlugVST.cpp</text>
</a>
</g>
</g>
<!-- Node33&#45;&gt;Node34 -->
<g id="edge39" class="edge"><title>Node33&#45;&gt;Node34</title>
<path fill="none" stroke="midnightblue" d="M1281.15,-214.101C1282.64,-205.136 1284.36,-194.858 1285.54,-187.751"/>
<polygon fill="midnightblue" stroke="midnightblue" points="1277.68,-213.644 1279.49,-224.083 1284.58,-214.794 1277.68,-213.644"/>
</g>
<!-- Node36 -->
<g id="node36" class="node"><title>Node36</title>
<g id="a_node36"><a xlink:href="_i_plug_v_s_t3_8cpp_source.html" target="_top" xlink:title="IPlugVST3.cpp">
<polygon fill="white" stroke="black" points="1343.5,-168.5 1343.5,-187.5 1426.5,-187.5 1426.5,-168.5 1343.5,-168.5"/>
<text text-anchor="middle" x="1385" y="-175.5" font-family="Helvetica,sans-Serif" font-size="10.00">IPlugVST3.cpp</text>
</a>
</g>
</g>
<!-- Node35&#45;&gt;Node36 -->
<g id="edge41" class="edge"><title>Node35&#45;&gt;Node36</title>
<path fill="none" stroke="midnightblue" d="M1382.4,-214.101C1383.06,-205.136 1383.83,-194.858 1384.35,-187.751"/>
<polygon fill="midnightblue" stroke="midnightblue" points="1378.91,-213.852 1381.66,-224.083 1385.89,-214.369 1378.91,-213.852"/>
</g>
</g>
</svg>
