<?xml version="1.0" encoding="UTF-8" standalone="no"?>
<!DOCTYPE svg PUBLIC "-//W3C//DTD SVG 1.1//EN"
 "http://www.w3.org/Graphics/SVG/1.1/DTD/svg11.dtd">
<!-- Generated by graphviz version 2.36.0 (20140111.2315)
 -->
<!-- Title: IPlugPlatform.h Pages: 1 -->
<svg width="1611pt" height="488pt"
 viewBox="0.00 0.00 1611.00 488.00" xmlns="http://www.w3.org/2000/svg" xmlns:xlink="http://www.w3.org/1999/xlink">
<g id="graph0" class="graph" transform="scale(1 1) rotate(0) translate(4 484)">
<title>IPlugPlatform.h</title>
<polygon fill="white" stroke="none" points="-4,4 -4,-484 1607,-484 1607,4 -4,4"/>
<!-- Node1 -->
<g id="node1" class="node"><title>Node1</title>
<polygon fill="#bfbfbf" stroke="black" points="884,-460.5 884,-479.5 968,-479.5 968,-460.5 884,-460.5"/>
<text text-anchor="middle" x="926" y="-467.5" font-family="Helvetica,sans-Serif" font-size="10.00">IPlugPlatform.h</text>
</g>
<!-- Node2 -->
<g id="node2" class="node"><title>Node2</title>
<g id="a_node2"><a xlink:href="_i_graphics_constants_8h_source.html" target="_top" xlink:title="IGraphicsConstants.h">
<polygon fill="white" stroke="black" points="516,-398.5 516,-417.5 628,-417.5 628,-398.5 516,-398.5"/>
<text text-anchor="middle" x="572" y="-405.5" font-family="Helvetica,sans-Serif" font-size="10.00">IGraphicsConstants.h</text>
</a>
</g>
</g>
<!-- Node1&#45;&gt;Node2 -->
<g id="edge1" class="edge"><title>Node1&#45;&gt;Node2</title>
<path fill="none" stroke="midnightblue" d="M873.922,-460.282C820.101,-451.259 733.66,-436.728 659,-424 646.762,-421.914 633.558,-419.646 621.225,-417.52"/>
<polygon fill="midnightblue" stroke="midnightblue" points="873.469,-463.755 883.91,-461.956 874.626,-456.851 873.469,-463.755"/>
</g>
<!-- Node12 -->
<g id="node12" class="node"><title>Node12</title>
<g id="a_node12"><a xlink:href="_i_graphics_cairo_8h_source.html" target="_top" xlink:title="IGraphicsCairo.h">
<polygon fill="white" stroke="black" points="603,-224.5 603,-243.5 693,-243.5 693,-224.5 603,-224.5"/>
<text text-anchor="middle" x="648" y="-231.5" font-family="Helvetica,sans-Serif" font-size="10.00">IGraphicsCairo.h</text>
</a>
</g>
</g>
<!-- Node1&#45;&gt;Node12 -->
<g id="edge34" class="edge"><title>Node1&#45;&gt;Node12</title>
<path fill="none" stroke="midnightblue" d="M873.568,-465.668C837.358,-461.015 789.821,-449.99 756,-424 739.444,-411.277 670.985,-279.668 652.576,-243.919"/>
<polygon fill="midnightblue" stroke="midnightblue" points="873.6,-469.195 883.936,-466.868 874.405,-462.242 873.6,-469.195"/>
</g>
<!-- Node14 -->
<g id="node14" class="node"><title>Node14</title>
<g id="a_node14"><a xlink:href="_i_graphics_lice_8h_source.html" target="_top" xlink:title="IGraphicsLice.h">
<polygon fill="white" stroke="black" points="246.5,-224.5 246.5,-243.5 331.5,-243.5 331.5,-224.5 246.5,-224.5"/>
<text text-anchor="middle" x="289" y="-231.5" font-family="Helvetica,sans-Serif" font-size="10.00">IGraphicsLice.h</text>
</a>
</g>
</g>
<!-- Node1&#45;&gt;Node14 -->
<g id="edge35" class="edge"><title>Node1&#45;&gt;Node14</title>
<path fill="none" stroke="midnightblue" d="M873.783,-467.104C776.621,-462.969 572.026,-451.239 507,-424 406.744,-382.003 319.816,-275.404 295.656,-243.899"/>
<polygon fill="midnightblue" stroke="midnightblue" points="873.827,-470.609 883.964,-467.526 874.117,-463.615 873.827,-470.609"/>
</g>
<!-- Node21 -->
<g id="node21" class="node"><title>Node21</title>
<g id="a_node21"><a xlink:href="_i_graphics_nano_v_g_8h_source.html" target="_top" xlink:title="IGraphicsNanoVG.h">
<polygon fill="white" stroke="black" points="711,-224.5 711,-243.5 815,-243.5 815,-224.5 711,-224.5"/>
<text text-anchor="middle" x="763" y="-231.5" font-family="Helvetica,sans-Serif" font-size="10.00">IGraphicsNanoVG.h</text>
</a>
</g>
</g>
<!-- Node1&#45;&gt;Node21 -->
<g id="edge36" class="edge"><title>Node1&#45;&gt;Node21</title>
<path fill="none" stroke="midnightblue" d="M873.911,-467.542C840.834,-463.645 800.052,-452.757 777,-424 732.755,-368.804 752.953,-273.011 760.558,-243.743"/>
<polygon fill="midnightblue" stroke="midnightblue" points="873.603,-471.028 883.901,-468.539 874.298,-464.063 873.603,-471.028"/>
</g>
<!-- Node24 -->
<g id="node24" class="node"><title>Node24</title>
<g id="a_node24"><a xlink:href="_i_graphics_structs_8h_source.html" target="_top" xlink:title="IGraphicsStructs.h">
<polygon fill="white" stroke="black" points="591,-336.5 591,-355.5 689,-355.5 689,-336.5 591,-336.5"/>
<text text-anchor="middle" x="640" y="-343.5" font-family="Helvetica,sans-Serif" font-size="10.00">IGraphicsStructs.h</text>
</a>
</g>
</g>
<!-- Node1&#45;&gt;Node24 -->
<g id="edge33" class="edge"><title>Node1&#45;&gt;Node24</title>
<path fill="none" stroke="midnightblue" d="M874.003,-467.949C826.893,-464.879 757.084,-454.888 705,-424 676.109,-406.867 653.992,-372.121 644.739,-355.819"/>
<polygon fill="midnightblue" stroke="midnightblue" points="873.808,-471.444 883.991,-468.519 874.206,-464.455 873.808,-471.444"/>
</g>
<!-- Node27 -->
<g id="node27" class="node"><title>Node27</title>
<g id="a_node27"><a xlink:href="_i_plug__include__in__plug__hdr_8h.html" target="_top" xlink:title="IPlug header include. ">
<polygon fill="white" stroke="black" points="786.5,-393 786.5,-423 897.5,-423 897.5,-393 786.5,-393"/>
<text text-anchor="start" x="794.5" y="-411" font-family="Helvetica,sans-Serif" font-size="10.00">IPlug_include_in_plug</text>
<text text-anchor="middle" x="842" y="-400" font-family="Helvetica,sans-Serif" font-size="10.00">_hdr.h</text>
</a>
</g>
</g>
<!-- Node1&#45;&gt;Node27 -->
<g id="edge37" class="edge"><title>Node1&#45;&gt;Node27</title>
<path fill="none" stroke="midnightblue" d="M905.484,-454.346C892.185,-444.846 874.952,-432.537 861.797,-423.141"/>
<polygon fill="midnightblue" stroke="midnightblue" points="903.793,-457.439 913.965,-460.403 907.862,-451.743 903.793,-457.439"/>
</g>
<!-- Node28 -->
<g id="node28" class="node"><title>Node28</title>
<g id="a_node28"><a xlink:href="_i_plug_utilities_8h.html" target="_top" xlink:title="Utility functions and macros. ">
<polygon fill="white" stroke="black" points="1093,-398.5 1093,-417.5 1173,-417.5 1173,-398.5 1093,-398.5"/>
<text text-anchor="middle" x="1133" y="-405.5" font-family="Helvetica,sans-Serif" font-size="10.00">IPlugUtilities.h</text>
</a>
</g>
</g>
<!-- Node1&#45;&gt;Node28 -->
<g id="edge38" class="edge"><title>Node1&#45;&gt;Node28</title>
<path fill="none" stroke="midnightblue" d="M965.397,-457.581C1005.62,-445.922 1067.15,-428.088 1103.4,-417.581"/>
<polygon fill="midnightblue" stroke="midnightblue" points="964.288,-454.258 955.658,-460.403 966.237,-460.981 964.288,-454.258"/>
</g>
<!-- Node31 -->
<g id="node31" class="node"><title>Node31</title>
<g id="a_node31"><a xlink:href="_i_plug_structs_8h_source.html" target="_top" xlink:title="IPlugStructs.h">
<polygon fill="white" stroke="black" points="1198.5,-280.5 1198.5,-299.5 1277.5,-299.5 1277.5,-280.5 1198.5,-280.5"/>
<text text-anchor="middle" x="1238" y="-287.5" font-family="Helvetica,sans-Serif" font-size="10.00">IPlugStructs.h</text>
</a>
</g>
</g>
<!-- Node1&#45;&gt;Node31 -->
<g id="edge71" class="edge"><title>Node1&#45;&gt;Node31</title>
<path fill="none" stroke="midnightblue" d="M978.293,-466.972C1031.53,-463.29 1115.47,-452.956 1182,-424 1227.97,-403.992 1249.66,-400.881 1272,-356 1282.1,-335.706 1261.72,-312.209 1248.36,-299.774"/>
<polygon fill="midnightblue" stroke="midnightblue" points="977.825,-463.495 968.068,-467.623 978.27,-470.481 977.825,-463.495"/>
</g>
<!-- Node32 -->
<g id="node32" class="node"><title>Node32</title>
<g id="a_node32"><a xlink:href="_i_plug_base_8h.html" target="_top" xlink:title="The lowest level base class of an IPlug plug&#45;in. ">
<polygon fill="white" stroke="black" points="1073,-224.5 1073,-243.5 1143,-243.5 1143,-224.5 1073,-224.5"/>
<text text-anchor="middle" x="1108" y="-231.5" font-family="Helvetica,sans-Serif" font-size="10.00">IPlugBase.h</text>
</a>
</g>
</g>
<!-- Node1&#45;&gt;Node32 -->
<g id="edge70" class="edge"><title>Node1&#45;&gt;Node32</title>
<path fill="none" stroke="midnightblue" d="M924.31,-450.417C922.747,-423.251 923.314,-372.018 945,-336 975.308,-285.661 1041.31,-256.725 1079.37,-243.608"/>
<polygon fill="midnightblue" stroke="midnightblue" points="920.826,-450.758 925.055,-460.472 927.806,-450.241 920.826,-450.758"/>
</g>
<!-- Node35 -->
<g id="node35" class="node"><title>Node35</title>
<g id="a_node35"><a xlink:href="_i_plug_a_a_x_8h.html" target="_top" xlink:title="AAX API base class for an IPlug plug&#45;in, inherits from IPlugBase or IPlugBaseGraphics. ">
<polygon fill="white" stroke="black" points="1439,-56.5 1439,-75.5 1507,-75.5 1507,-56.5 1439,-56.5"/>
<text text-anchor="middle" x="1473" y="-63.5" font-family="Helvetica,sans-Serif" font-size="10.00">IPlugAAX.h</text>
</a>
</g>
</g>
<!-- Node1&#45;&gt;Node35 -->
<g id="edge69" class="edge"><title>Node1&#45;&gt;Node35</title>
<path fill="none" stroke="midnightblue" d="M978.174,-468.667C1117.36,-466.381 1487,-450.559 1487,-347 1487,-347 1487,-347 1487,-177 1487,-138.882 1478.63,-93.9254 1474.83,-75.5108"/>
<polygon fill="midnightblue" stroke="midnightblue" points="978.114,-465.168 968.166,-468.815 978.217,-472.167 978.114,-465.168"/>
</g>
<!-- Node37 -->
<g id="node37" class="node"><title>Node37</title>
<g id="a_node37"><a xlink:href="_i_plug_a_p_p_8h.html" target="_top" xlink:title="Standalone application base class for an IPlug plug&#45;in, inherits from IPlugBase or IPlugBaseGraphics...">
<polygon fill="white" stroke="black" points="1525,-56.5 1525,-75.5 1593,-75.5 1593,-56.5 1525,-56.5"/>
<text text-anchor="middle" x="1559" y="-63.5" font-family="Helvetica,sans-Serif" font-size="10.00">IPlugAPP.h</text>
</a>
</g>
</g>
<!-- Node1&#45;&gt;Node37 -->
<g id="edge73" class="edge"><title>Node1&#45;&gt;Node37</title>
<path fill="none" stroke="midnightblue" d="M978.52,-469.566C1126.3,-469.758 1535,-460.069 1535,-347 1535,-347 1535,-347 1535,-177 1535,-138.493 1549.21,-94.1113 1555.76,-75.6992"/>
<polygon fill="midnightblue" stroke="midnightblue" points="978.35,-466.066 968.34,-469.536 978.33,-473.066 978.35,-466.066"/>
</g>
<!-- Node47 -->
<g id="node47" class="node"><title>Node47</title>
<g id="a_node47"><a xlink:href="_i_plug_processor_8h.html" target="_top" xlink:title="The base class for IPlug Audio Processing. ">
<polygon fill="white" stroke="black" points="1302,-224.5 1302,-243.5 1394,-243.5 1394,-224.5 1302,-224.5"/>
<text text-anchor="middle" x="1348" y="-231.5" font-family="Helvetica,sans-Serif" font-size="10.00">IPlugProcessor.h</text>
</a>
</g>
</g>
<!-- Node1&#45;&gt;Node47 -->
<g id="edge72" class="edge"><title>Node1&#45;&gt;Node47</title>
<path fill="none" stroke="midnightblue" d="M978.148,-465.498C1052.62,-459.778 1185.08,-446.728 1227,-424 1291.77,-388.889 1305.18,-366.444 1337,-300 1345.9,-281.42 1347.72,-256.833 1348.02,-243.872"/>
<polygon fill="midnightblue" stroke="midnightblue" points="977.75,-462.018 968.04,-466.256 978.274,-468.998 977.75,-462.018"/>
</g>
<!-- Node3 -->
<g id="node3" class="node"><title>Node3</title>
<g id="a_node3"><a xlink:href="_i_graphics_8h.html" target="_top" xlink:title="The lowest level base class of an IGraphics context. ">
<polygon fill="white" stroke="black" points="529.5,-280.5 529.5,-299.5 596.5,-299.5 596.5,-280.5 529.5,-280.5"/>
<text text-anchor="middle" x="563" y="-287.5" font-family="Helvetica,sans-Serif" font-size="10.00">IGraphics.h</text>
</a>
</g>
</g>
<!-- Node2&#45;&gt;Node3 -->
<g id="edge2" class="edge"><title>Node2&#45;&gt;Node3</title>
<path fill="none" stroke="midnightblue" d="M570.528,-388.025C568.545,-362.464 565.098,-318.041 563.66,-299.505"/>
<polygon fill="midnightblue" stroke="midnightblue" points="567.06,-388.582 571.324,-398.281 574.039,-388.04 567.06,-388.582"/>
</g>
<!-- Node2&#45;&gt;Node24 -->
<g id="edge29" class="edge"><title>Node2&#45;&gt;Node24</title>
<path fill="none" stroke="midnightblue" d="M589.543,-391.521C602.508,-380.082 619.679,-364.93 630.275,-355.581"/>
<polygon fill="midnightblue" stroke="midnightblue" points="586.925,-389.163 581.743,-398.403 591.557,-394.412 586.925,-389.163"/>
</g>
<!-- Node25 -->
<g id="node25" class="node"><title>Node25</title>
<g id="a_node25"><a xlink:href="_i_graphics_web_8h_source.html" target="_top" xlink:title="IGraphicsWeb.h">
<polygon fill="white" stroke="black" points="433.5,-336.5 433.5,-355.5 520.5,-355.5 520.5,-336.5 433.5,-336.5"/>
<text text-anchor="middle" x="477" y="-343.5" font-family="Helvetica,sans-Serif" font-size="10.00">IGraphicsWeb.h</text>
</a>
</g>
</g>
<!-- Node2&#45;&gt;Node25 -->
<g id="edge31" class="edge"><title>Node2&#45;&gt;Node25</title>
<path fill="none" stroke="midnightblue" d="M549.786,-392.97C531.452,-381.391 506.024,-365.331 490.586,-355.581"/>
<polygon fill="midnightblue" stroke="midnightblue" points="548.065,-396.023 558.389,-398.403 551.803,-390.104 548.065,-396.023"/>
</g>
<!-- Node4 -->
<g id="node4" class="node"><title>Node4</title>
<g id="a_node4"><a xlink:href="_i_control_8h.html" target="_top" xlink:title="The lowest level base class of an IGraphics control. ">
<polygon fill="white" stroke="black" points="533.5,-112.5 533.5,-131.5 592.5,-131.5 592.5,-112.5 533.5,-112.5"/>
<text text-anchor="middle" x="563" y="-119.5" font-family="Helvetica,sans-Serif" font-size="10.00">IControl.h</text>
</a>
</g>
</g>
<!-- Node3&#45;&gt;Node4 -->
<g id="edge3" class="edge"><title>Node3&#45;&gt;Node4</title>
<path fill="none" stroke="midnightblue" d="M558.503,-269.93C555.117,-233.92 555.547,-157.231 559.795,-131.568"/>
<polygon fill="midnightblue" stroke="midnightblue" points="555.055,-270.571 559.737,-280.075 562.004,-269.726 555.055,-270.571"/>
</g>
<!-- Node8 -->
<g id="node8" class="node"><title>Node8</title>
<g id="a_node8"><a xlink:href="_i_graphics_8cpp_source.html" target="_top" xlink:title="IGraphics.cpp">
<polygon fill="white" stroke="black" points="460.5,-0.5 460.5,-19.5 537.5,-19.5 537.5,-0.5 460.5,-0.5"/>
<text text-anchor="middle" x="499" y="-7.5" font-family="Helvetica,sans-Serif" font-size="10.00">IGraphics.cpp</text>
</a>
</g>
</g>
<!-- Node3&#45;&gt;Node8 -->
<g id="edge10" class="edge"><title>Node3&#45;&gt;Node8</title>
<path fill="none" stroke="midnightblue" d="M519.369,-279.632C480.15,-270.625 426.029,-256.564 408,-244 378.537,-223.467 360,-214.912 360,-179 360,-179 360,-179 360,-121 360,-65.4525 429.102,-33.5508 469.861,-19.5652"/>
<polygon fill="midnightblue" stroke="midnightblue" points="518.713,-283.072 529.238,-281.865 520.257,-276.244 518.713,-283.072"/>
</g>
<!-- Node10 -->
<g id="node10" class="node"><title>Node10</title>
<g id="a_node10"><a xlink:href="_i_graphics_a_g_g_8h_source.html" target="_top" xlink:title="IGraphicsAGG.h">
<polygon fill="white" stroke="black" points="433.5,-224.5 433.5,-243.5 522.5,-243.5 522.5,-224.5 433.5,-224.5"/>
<text text-anchor="middle" x="478" y="-231.5" font-family="Helvetica,sans-Serif" font-size="10.00">IGraphicsAGG.h</text>
</a>
</g>
</g>
<!-- Node3&#45;&gt;Node10 -->
<g id="edge11" class="edge"><title>Node3&#45;&gt;Node10</title>
<path fill="none" stroke="midnightblue" d="M540.806,-274.901C525.22,-264.999 504.87,-252.071 491.623,-243.655"/>
<polygon fill="midnightblue" stroke="midnightblue" points="539.026,-277.916 549.343,-280.324 542.779,-272.007 539.026,-277.916"/>
</g>
<!-- Node3&#45;&gt;Node12 -->
<g id="edge13" class="edge"><title>Node3&#45;&gt;Node12</title>
<path fill="none" stroke="midnightblue" d="M585.194,-274.901C600.78,-264.999 621.13,-252.071 634.377,-243.655"/>
<polygon fill="midnightblue" stroke="midnightblue" points="583.221,-272.007 576.657,-280.324 586.974,-277.916 583.221,-272.007"/>
</g>
<!-- Node3&#45;&gt;Node14 -->
<g id="edge15" class="edge"><title>Node3&#45;&gt;Node14</title>
<path fill="none" stroke="midnightblue" d="M519.316,-280.063C519.21,-280.042 519.105,-280.021 519,-280 453.769,-266.948 378.043,-252.212 331.835,-243.267"/>
<polygon fill="midnightblue" stroke="midnightblue" points="518.879,-283.546 529.374,-282.091 520.263,-276.684 518.879,-283.546"/>
</g>
<!-- Node3&#45;&gt;Node21 -->
<g id="edge26" class="edge"><title>Node3&#45;&gt;Node21</title>
<path fill="none" stroke="midnightblue" d="M604.374,-277.829C642.136,-267.633 697.14,-252.782 731.458,-243.516"/>
<polygon fill="midnightblue" stroke="midnightblue" points="603.433,-274.458 594.691,-280.444 605.257,-281.216 603.433,-274.458"/>
</g>
<!-- Node23 -->
<g id="node23" class="node"><title>Node23</title>
<g id="a_node23"><a xlink:href="_i_plug_base_graphics_8cpp_source.html" target="_top" xlink:title="IPlugBaseGraphics.cpp">
<polygon fill="white" stroke="black" points="392.5,-112.5 392.5,-131.5 511.5,-131.5 511.5,-112.5 392.5,-112.5"/>
<text text-anchor="middle" x="452" y="-119.5" font-family="Helvetica,sans-Serif" font-size="10.00">IPlugBaseGraphics.cpp</text>
</a>
</g>
</g>
<!-- Node3&#45;&gt;Node23 -->
<g id="edge28" class="edge"><title>Node3&#45;&gt;Node23</title>
<path fill="none" stroke="midnightblue" d="M520.549,-277.73C482.065,-267.12 430.4,-251.738 424,-244 402.381,-217.861 405.991,-200.085 417,-168 422.011,-153.396 433.912,-139.88 442.444,-131.55"/>
<polygon fill="midnightblue" stroke="midnightblue" points="519.939,-281.192 530.508,-280.451 521.784,-274.439 519.939,-281.192"/>
</g>
<!-- Node4&#45;&gt;Node3 -->
<g id="edge5" class="edge"><title>Node4&#45;&gt;Node3</title>
<path fill="none" stroke="midnightblue" d="M567.45,-141.577C570.871,-177.211 570.476,-253.945 566.263,-280.075"/>
<polygon fill="midnightblue" stroke="midnightblue" points="570.912,-141.06 566.205,-131.568 563.966,-141.924 570.912,-141.06"/>
</g>
<!-- Node5 -->
<g id="node5" class="node"><title>Node5</title>
<g id="a_node5"><a xlink:href="_i_control_8cpp_source.html" target="_top" xlink:title="IControl.cpp">
<polygon fill="white" stroke="black" points="415,-56.5 415,-75.5 485,-75.5 485,-56.5 415,-56.5"/>
<text text-anchor="middle" x="450" y="-63.5" font-family="Helvetica,sans-Serif" font-size="10.00">IControl.cpp</text>
</a>
</g>
</g>
<!-- Node4&#45;&gt;Node5 -->
<g id="edge4" class="edge"><title>Node4&#45;&gt;Node5</title>
<path fill="none" stroke="midnightblue" d="M535.997,-108.096C514.886,-98.0073 486.138,-84.2697 467.821,-75.5164"/>
<polygon fill="midnightblue" stroke="midnightblue" points="534.563,-111.29 545.095,-112.444 537.581,-104.974 534.563,-111.29"/>
</g>
<!-- Node6 -->
<g id="node6" class="node"><title>Node6</title>
<g id="a_node6"><a xlink:href="_i_controls_8h.html" target="_top" xlink:title="A collection of IControls for common UI widgets, such as knobs, sliders, switches. ">
<polygon fill="white" stroke="red" points="503.5,-56.5 503.5,-75.5 568.5,-75.5 568.5,-56.5 503.5,-56.5"/>
<text text-anchor="middle" x="536" y="-63.5" font-family="Helvetica,sans-Serif" font-size="10.00">IControls.h</text>
</a>
</g>
</g>
<!-- Node4&#45;&gt;Node6 -->
<g id="edge6" class="edge"><title>Node4&#45;&gt;Node6</title>
<path fill="none" stroke="midnightblue" d="M553.991,-102.983C549.408,-93.8168 544.046,-83.0922 540.376,-75.7511"/>
<polygon fill="midnightblue" stroke="midnightblue" points="550.939,-104.704 558.541,-112.083 557.2,-101.573 550.939,-104.704"/>
</g>
<!-- Node7 -->
<g id="node7" class="node"><title>Node7</title>
<g id="a_node7"><a xlink:href="_i_graphics_live_edit_8h_source.html" target="_top" xlink:title="IGraphicsLiveEdit.h">
<polygon fill="white" stroke="black" points="587,-56.5 587,-75.5 689,-75.5 689,-56.5 587,-56.5"/>
<text text-anchor="middle" x="638" y="-63.5" font-family="Helvetica,sans-Serif" font-size="10.00">IGraphicsLiveEdit.h</text>
</a>
</g>
</g>
<!-- Node4&#45;&gt;Node7 -->
<g id="edge7" class="edge"><title>Node4&#45;&gt;Node7</title>
<path fill="none" stroke="midnightblue" d="M583.305,-106.38C596.861,-96.6204 614.242,-84.1057 625.731,-75.8339"/>
<polygon fill="midnightblue" stroke="midnightblue" points="581.12,-103.641 575.05,-112.324 585.21,-109.321 581.12,-103.641"/>
</g>
<!-- Node9 -->
<g id="node9" class="node"><title>Node9</title>
<g id="a_node9"><a xlink:href="_i_graphics_mac_8mm_source.html" target="_top" xlink:title="IGraphicsMac.mm">
<polygon fill="white" stroke="black" points="140.5,-56.5 140.5,-75.5 237.5,-75.5 237.5,-56.5 140.5,-56.5"/>
<text text-anchor="middle" x="189" y="-63.5" font-family="Helvetica,sans-Serif" font-size="10.00">IGraphicsMac.mm</text>
</a>
</g>
</g>
<!-- Node4&#45;&gt;Node9 -->
<g id="edge9" class="edge"><title>Node4&#45;&gt;Node9</title>
<path fill="none" stroke="midnightblue" d="M523.308,-112.585C522.194,-112.383 521.09,-112.188 520,-112 420.129,-94.7821 302.37,-80.1022 237.682,-72.5183"/>
<polygon fill="midnightblue" stroke="midnightblue" points="522.965,-116.083 533.445,-114.525 524.281,-109.208 522.965,-116.083"/>
</g>
<!-- Node7&#45;&gt;Node8 -->
<g id="edge8" class="edge"><title>Node7&#45;&gt;Node8</title>
<path fill="none" stroke="midnightblue" d="M606.524,-52.772C580.415,-42.6287 543.961,-28.4669 520.922,-19.5164"/>
<polygon fill="midnightblue" stroke="midnightblue" points="605.386,-56.0847 615.975,-56.4435 607.921,-49.5598 605.386,-56.0847"/>
</g>
<!-- Node11 -->
<g id="node11" class="node"><title>Node11</title>
<g id="a_node11"><a xlink:href="_i_graphics_a_g_g_8cpp_source.html" target="_top" xlink:title="IGraphicsAGG.cpp">
<polygon fill="white" stroke="black" points="426.5,-168.5 426.5,-187.5 525.5,-187.5 525.5,-168.5 426.5,-168.5"/>
<text text-anchor="middle" x="476" y="-175.5" font-family="Helvetica,sans-Serif" font-size="10.00">IGraphicsAGG.cpp</text>
</a>
</g>
</g>
<!-- Node10&#45;&gt;Node11 -->
<g id="edge12" class="edge"><title>Node10&#45;&gt;Node11</title>
<path fill="none" stroke="midnightblue" d="M477.289,-213.805C476.96,-204.91 476.584,-194.78 476.324,-187.751"/>
<polygon fill="midnightblue" stroke="midnightblue" points="473.802,-214.219 477.67,-224.083 480.797,-213.96 473.802,-214.219"/>
</g>
<!-- Node13 -->
<g id="node13" class="node"><title>Node13</title>
<g id="a_node13"><a xlink:href="_i_graphics_cairo_8cpp_source.html" target="_top" xlink:title="IGraphicsCairo.cpp">
<polygon fill="white" stroke="black" points="600.5,-168.5 600.5,-187.5 701.5,-187.5 701.5,-168.5 600.5,-168.5"/>
<text text-anchor="middle" x="651" y="-175.5" font-family="Helvetica,sans-Serif" font-size="10.00">IGraphicsCairo.cpp</text>
</a>
</g>
</g>
<!-- Node12&#45;&gt;Node13 -->
<g id="edge14" class="edge"><title>Node12&#45;&gt;Node13</title>
<path fill="none" stroke="midnightblue" d="M649.066,-213.805C649.561,-204.91 650.123,-194.78 650.514,-187.751"/>
<polygon fill="midnightblue" stroke="midnightblue" points="645.556,-213.904 648.495,-224.083 652.545,-214.293 645.556,-213.904"/>
</g>
<!-- Node15 -->
<g id="node15" class="node"><title>Node15</title>
<g id="a_node15"><a xlink:href="_i_graphics_lice_8cpp_source.html" target="_top" xlink:title="IGraphicsLice.cpp">
<polygon fill="white" stroke="black" points="134.5,-168.5 134.5,-187.5 229.5,-187.5 229.5,-168.5 134.5,-168.5"/>
<text text-anchor="middle" x="182" y="-175.5" font-family="Helvetica,sans-Serif" font-size="10.00">IGraphicsLice.cpp</text>
</a>
</g>
</g>
<!-- Node14&#45;&gt;Node15 -->
<g id="edge16" class="edge"><title>Node14&#45;&gt;Node15</title>
<path fill="none" stroke="midnightblue" d="M262.698,-219.726C242.885,-209.727 216.293,-196.307 199.149,-187.655"/>
<polygon fill="midnightblue" stroke="midnightblue" points="261.304,-222.943 271.809,-224.324 264.458,-216.694 261.304,-222.943"/>
</g>
<!-- Node17 -->
<g id="node17" class="node"><title>Node17</title>
<g id="a_node17"><a xlink:href="_i_graphics_mac_8h_source.html" target="_top" xlink:title="IGraphicsMac.h">
<polygon fill="white" stroke="black" points="30,-168.5 30,-187.5 116,-187.5 116,-168.5 30,-168.5"/>
<text text-anchor="middle" x="73" y="-175.5" font-family="Helvetica,sans-Serif" font-size="10.00">IGraphicsMac.h</text>
</a>
</g>
</g>
<!-- Node14&#45;&gt;Node17 -->
<g id="edge19" class="edge"><title>Node14&#45;&gt;Node17</title>
<path fill="none" stroke="midnightblue" d="M244.836,-221.959C204.039,-211.76 144.287,-196.822 107.066,-187.516"/>
<polygon fill="midnightblue" stroke="midnightblue" points="244.224,-225.414 254.774,-224.444 245.922,-218.623 244.224,-225.414"/>
</g>
<!-- Node20 -->
<g id="node20" class="node"><title>Node20</title>
<g id="a_node20"><a xlink:href="_i_graphics_win_8h_source.html" target="_top" xlink:title="IGraphicsWin.h">
<polygon fill="white" stroke="black" points="248,-168.5 248,-187.5 332,-187.5 332,-168.5 248,-168.5"/>
<text text-anchor="middle" x="290" y="-175.5" font-family="Helvetica,sans-Serif" font-size="10.00">IGraphicsWin.h</text>
</a>
</g>
</g>
<!-- Node14&#45;&gt;Node20 -->
<g id="edge24" class="edge"><title>Node14&#45;&gt;Node20</title>
<path fill="none" stroke="midnightblue" d="M289.355,-213.805C289.52,-204.91 289.708,-194.78 289.838,-187.751"/>
<polygon fill="midnightblue" stroke="midnightblue" points="285.851,-214.02 289.165,-224.083 292.85,-214.15 285.851,-214.02"/>
</g>
<!-- Node15&#45;&gt;Node9 -->
<g id="edge17" class="edge"><title>Node15&#45;&gt;Node9</title>
<path fill="none" stroke="midnightblue" d="M183.187,-158.348C184.72,-134.254 187.326,-93.3079 188.453,-75.5914"/>
<polygon fill="midnightblue" stroke="midnightblue" points="179.692,-158.166 182.549,-168.368 186.677,-158.611 179.692,-158.166"/>
</g>
<!-- Node16 -->
<g id="node16" class="node"><title>Node16</title>
<g id="a_node16"><a xlink:href="_i_graphics_win_8cpp_source.html" target="_top" xlink:title="IGraphicsWin.cpp">
<polygon fill="white" stroke="black" points="227.5,-112.5 227.5,-131.5 322.5,-131.5 322.5,-112.5 227.5,-112.5"/>
<text text-anchor="middle" x="275" y="-119.5" font-family="Helvetica,sans-Serif" font-size="10.00">IGraphicsWin.cpp</text>
</a>
</g>
</g>
<!-- Node15&#45;&gt;Node16 -->
<g id="edge18" class="edge"><title>Node15&#45;&gt;Node16</title>
<path fill="none" stroke="midnightblue" d="M205.806,-163.177C222.919,-153.241 245.465,-140.149 260.095,-131.655"/>
<polygon fill="midnightblue" stroke="midnightblue" points="203.832,-160.276 196.942,-168.324 207.347,-166.329 203.832,-160.276"/>
</g>
<!-- Node17&#45;&gt;Node9 -->
<g id="edge20" class="edge"><title>Node17&#45;&gt;Node9</title>
<path fill="none" stroke="midnightblue" d="M93.6242,-162.431C105.049,-154.014 119.27,-142.95 131,-132 150.9,-113.423 171.49,-88.8347 181.961,-75.8729"/>
<polygon fill="midnightblue" stroke="midnightblue" points="91.5622,-159.603 85.5202,-168.307 95.6708,-165.271 91.5622,-159.603"/>
</g>
<!-- Node18 -->
<g id="node18" class="node"><title>Node18</title>
<g id="a_node18"><a xlink:href="_i_graphics_mac__view_8h_source.html" target="_top" xlink:title="IGraphicsMac_view.h">
<polygon fill="white" stroke="black" points="11.5,-112.5 11.5,-131.5 122.5,-131.5 122.5,-112.5 11.5,-112.5"/>
<text text-anchor="middle" x="67" y="-119.5" font-family="Helvetica,sans-Serif" font-size="10.00">IGraphicsMac_view.h</text>
</a>
</g>
</g>
<!-- Node17&#45;&gt;Node18 -->
<g id="edge21" class="edge"><title>Node17&#45;&gt;Node18</title>
<path fill="none" stroke="midnightblue" d="M70.9001,-158.101C69.904,-149.136 68.762,-138.858 67.9723,-131.751"/>
<polygon fill="midnightblue" stroke="midnightblue" points="67.4262,-158.531 72.0092,-168.083 74.3834,-157.758 67.4262,-158.531"/>
</g>
<!-- Node18&#45;&gt;Node9 -->
<g id="edge22" class="edge"><title>Node18&#45;&gt;Node9</title>
<path fill="none" stroke="midnightblue" d="M95.5395,-108.368C118.386,-98.2553 149.805,-84.3486 169.759,-75.5164"/>
<polygon fill="midnightblue" stroke="midnightblue" points="94.0589,-105.196 86.3313,-112.444 96.8922,-111.597 94.0589,-105.196"/>
</g>
<!-- Node19 -->
<g id="node19" class="node"><title>Node19</title>
<g id="a_node19"><a xlink:href="_i_graphics_mac__view_8mm_source.html" target="_top" xlink:title="IGraphicsMac_view.mm">
<polygon fill="white" stroke="black" points="0,-56.5 0,-75.5 122,-75.5 122,-56.5 0,-56.5"/>
<text text-anchor="middle" x="61" y="-63.5" font-family="Helvetica,sans-Serif" font-size="10.00">IGraphicsMac_view.mm</text>
</a>
</g>
</g>
<!-- Node18&#45;&gt;Node19 -->
<g id="edge23" class="edge"><title>Node18&#45;&gt;Node19</title>
<path fill="none" stroke="midnightblue" d="M64.9001,-102.101C63.904,-93.1357 62.762,-82.8579 61.9723,-75.7511"/>
<polygon fill="midnightblue" stroke="midnightblue" points="61.4262,-102.531 66.0092,-112.083 68.3834,-101.758 61.4262,-102.531"/>
</g>
<!-- Node20&#45;&gt;Node16 -->
<g id="edge25" class="edge"><title>Node20&#45;&gt;Node16</title>
<path fill="none" stroke="midnightblue" d="M284.832,-158.396C282.323,-149.362 279.427,-138.936 277.431,-131.751"/>
<polygon fill="midnightblue" stroke="midnightblue" points="281.474,-159.385 287.523,-168.083 288.219,-157.511 281.474,-159.385"/>
</g>
<!-- Node22 -->
<g id="node22" class="node"><title>Node22</title>
<g id="a_node22"><a xlink:href="_i_graphics_nano_v_g_8cpp_source.html" target="_top" xlink:title="IGraphicsNanoVG.cpp">
<polygon fill="white" stroke="black" points="719.5,-168.5 719.5,-187.5 834.5,-187.5 834.5,-168.5 719.5,-168.5"/>
<text text-anchor="middle" x="777" y="-175.5" font-family="Helvetica,sans-Serif" font-size="10.00">IGraphicsNanoVG.cpp</text>
</a>
</g>
</g>
<!-- Node21&#45;&gt;Node22 -->
<g id="edge27" class="edge"><title>Node21&#45;&gt;Node22</title>
<path fill="none" stroke="midnightblue" d="M767.823,-214.396C770.165,-205.362 772.868,-194.936 774.731,-187.751"/>
<polygon fill="midnightblue" stroke="midnightblue" points="764.434,-213.525 765.312,-224.083 771.21,-215.281 764.434,-213.525"/>
</g>
<!-- Node24&#45;&gt;Node3 -->
<g id="edge30" class="edge"><title>Node24&#45;&gt;Node3</title>
<path fill="none" stroke="midnightblue" d="M619.099,-330.342C605.089,-320.517 587.117,-307.913 575.341,-299.655"/>
<polygon fill="midnightblue" stroke="midnightblue" points="617.432,-333.448 627.629,-336.324 621.451,-327.717 617.432,-333.448"/>
</g>
<!-- Node26 -->
<g id="node26" class="node"><title>Node26</title>
<g id="a_node26"><a xlink:href="_i_graphics_web_8cpp_source.html" target="_top" xlink:title="IGraphicsWeb.cpp">
<polygon fill="white" stroke="black" points="413,-280.5 413,-299.5 511,-299.5 511,-280.5 413,-280.5"/>
<text text-anchor="middle" x="462" y="-287.5" font-family="Helvetica,sans-Serif" font-size="10.00">IGraphicsWeb.cpp</text>
</a>
</g>
</g>
<!-- Node25&#45;&gt;Node26 -->
<g id="edge32" class="edge"><title>Node25&#45;&gt;Node26</title>
<path fill="none" stroke="midnightblue" d="M471.832,-326.396C469.323,-317.362 466.427,-306.936 464.431,-299.751"/>
<polygon fill="midnightblue" stroke="midnightblue" points="468.474,-327.385 474.523,-336.083 475.219,-325.511 468.474,-327.385"/>
</g>
<!-- Node29 -->
<g id="node29" class="node"><title>Node29</title>
<g id="a_node29"><a xlink:href="_i_plug_logger_8h.html" target="_top" xlink:title="IPlug Logging functionailty To trace some arbitrary data: Trace(TRACELOC, &quot;%s:%d&quot;, myStr, myInt); To simply create a trace entry in the log: TRACE; No need to wrap tracer calls in #ifdef TRACER_BUILD because Trace is a no&#45;op unless TRACER_BUILD is defined. ">
<polygon fill="white" stroke="black" points="954.5,-336.5 954.5,-355.5 1031.5,-355.5 1031.5,-336.5 954.5,-336.5"/>
<text text-anchor="middle" x="993" y="-343.5" font-family="Helvetica,sans-Serif" font-size="10.00">IPlugLogger.h</text>
</a>
</g>
</g>
<!-- Node28&#45;&gt;Node29 -->
<g id="edge39" class="edge"><title>Node28&#45;&gt;Node29</title>
<path fill="none" stroke="midnightblue" d="M1103.54,-394.374C1076.35,-382.721 1036.71,-365.732 1013.02,-355.581"/>
<polygon fill="midnightblue" stroke="midnightblue" points="1102.37,-397.681 1112.94,-398.403 1105.13,-391.247 1102.37,-397.681"/>
</g>
<!-- Node30 -->
<g id="node30" class="node"><title>Node30</title>
<g id="a_node30"><a xlink:href="_i_plug_midi_8h_source.html" target="_top" xlink:title="IPlugMidi.h">
<polygon fill="white" stroke="black" points="1198.5,-336.5 1198.5,-355.5 1263.5,-355.5 1263.5,-336.5 1198.5,-336.5"/>
<text text-anchor="middle" x="1231" y="-343.5" font-family="Helvetica,sans-Serif" font-size="10.00">IPlugMidi.h</text>
</a>
</g>
</g>
<!-- Node28&#45;&gt;Node30 -->
<g id="edge41" class="edge"><title>Node28&#45;&gt;Node30</title>
<path fill="none" stroke="midnightblue" d="M1155.66,-393.129C1174.59,-381.538 1200.99,-365.376 1216.99,-355.581"/>
<polygon fill="midnightblue" stroke="midnightblue" points="1153.74,-390.197 1147.04,-398.403 1157.4,-396.167 1153.74,-390.197"/>
</g>
<!-- Node28&#45;&gt;Node32 -->
<g id="edge64" class="edge"><title>Node28&#45;&gt;Node32</title>
<path fill="none" stroke="midnightblue" d="M1140.97,-388.878C1150.89,-363.569 1164.82,-316.63 1150,-280 1143.91,-264.942 1130.24,-251.901 1120.15,-243.79"/>
<polygon fill="midnightblue" stroke="midnightblue" points="1137.66,-387.728 1137.06,-398.306 1144.12,-390.409 1137.66,-387.728"/>
</g>
<!-- Node28&#45;&gt;Node47 -->
<g id="edge68" class="edge"><title>Node28&#45;&gt;Node47</title>
<path fill="none" stroke="midnightblue" d="M1182.79,-397.176C1211.24,-389.621 1246.27,-376.841 1272,-356 1311.52,-323.991 1336.48,-265.655 1344.86,-243.682"/>
<polygon fill="midnightblue" stroke="midnightblue" points="1181.86,-393.799 1173.02,-399.635 1183.57,-400.587 1181.86,-393.799"/>
</g>
<!-- Node49 -->
<g id="node49" class="node"><title>Node49</title>
<g id="a_node49"><a xlink:href="_i_plug_parameter_8h_source.html" target="_top" xlink:title="IPlugParameter.h">
<polygon fill="white" stroke="black" points="1050,-336.5 1050,-355.5 1142,-355.5 1142,-336.5 1050,-336.5"/>
<text text-anchor="middle" x="1096" y="-343.5" font-family="Helvetica,sans-Serif" font-size="10.00">IPlugParameter.h</text>
</a>
</g>
</g>
<!-- Node28&#45;&gt;Node49 -->
<g id="edge65" class="edge"><title>Node28&#45;&gt;Node49</title>
<path fill="none" stroke="midnightblue" d="M1122.43,-389.862C1115.52,-378.652 1106.78,-364.485 1101.29,-355.581"/>
<polygon fill="midnightblue" stroke="midnightblue" points="1119.47,-391.729 1127.7,-398.403 1125.43,-388.055 1119.47,-391.729"/>
</g>
<!-- Node29&#45;&gt;Node1 -->
<g id="edge40" class="edge"><title>Node29&#45;&gt;Node1</title>
<path fill="none" stroke="midnightblue" d="M983.314,-364.638C968.757,-391.144 941.78,-440.266 930.818,-460.226"/>
<polygon fill="midnightblue" stroke="midnightblue" points="986.479,-366.144 988.225,-355.694 980.344,-362.775 986.479,-366.144"/>
</g>
<!-- Node30&#45;&gt;Node31 -->
<g id="edge42" class="edge"><title>Node30&#45;&gt;Node31</title>
<path fill="none" stroke="midnightblue" d="M1233.45,-326.101C1234.61,-317.136 1235.94,-306.858 1236.87,-299.751"/>
<polygon fill="midnightblue" stroke="midnightblue" points="1229.97,-325.716 1232.16,-336.083 1236.91,-326.616 1229.97,-325.716"/>
</g>
<!-- Node31&#45;&gt;Node32 -->
<g id="edge43" class="edge"><title>Node31&#45;&gt;Node32</title>
<path fill="none" stroke="midnightblue" d="M1207.91,-276.503C1183.54,-266.38 1149.86,-252.388 1128.5,-243.516"/>
<polygon fill="midnightblue" stroke="midnightblue" points="1206.82,-279.84 1217.4,-280.444 1209.51,-273.375 1206.82,-279.84"/>
</g>
<!-- Node31&#45;&gt;Node47 -->
<g id="edge60" class="edge"><title>Node31&#45;&gt;Node47</title>
<path fill="none" stroke="midnightblue" d="M1264.76,-275.862C1285.16,-265.849 1312.67,-252.346 1330.37,-243.655"/>
<polygon fill="midnightblue" stroke="midnightblue" points="1263.11,-272.775 1255.67,-280.324 1266.19,-279.059 1263.11,-272.775"/>
</g>
<!-- Node33 -->
<g id="node33" class="node"><title>Node33</title>
<g id="a_node33"><a xlink:href="_i_plug_base_graphics_8h.html" target="_top" xlink:title="An IPlugBase class for an IPlug plug&#45;in that uses IGraphics for it&#39;s UI. ">
<polygon fill="white" stroke="black" points="852.5,-168.5 852.5,-187.5 961.5,-187.5 961.5,-168.5 852.5,-168.5"/>
<text text-anchor="middle" x="907" y="-175.5" font-family="Helvetica,sans-Serif" font-size="10.00">IPlugBaseGraphics.h</text>
</a>
</g>
</g>
<!-- Node32&#45;&gt;Node33 -->
<g id="edge44" class="edge"><title>Node32&#45;&gt;Node33</title>
<path fill="none" stroke="midnightblue" d="M1066.42,-221.829C1028.47,-211.633 973.19,-196.782 938.7,-187.516"/>
<polygon fill="midnightblue" stroke="midnightblue" points="1065.59,-225.229 1076.15,-224.444 1067.4,-218.469 1065.59,-225.229"/>
</g>
<!-- Node44 -->
<g id="node44" class="node"><title>Node44</title>
<g id="a_node44"><a xlink:href="_i_plug_a_u___view_factory_8mm_source.html" target="_top" xlink:title="IPlugAU_ViewFactory.mm">
<polygon fill="white" stroke="black" points="979.5,-168.5 979.5,-187.5 1112.5,-187.5 1112.5,-168.5 979.5,-168.5"/>
<text text-anchor="middle" x="1046" y="-175.5" font-family="Helvetica,sans-Serif" font-size="10.00">IPlugAU_ViewFactory.mm</text>
</a>
</g>
</g>
<!-- Node32&#45;&gt;Node44 -->
<g id="edge57" class="edge"><title>Node32&#45;&gt;Node44</title>
<path fill="none" stroke="midnightblue" d="M1090.25,-217.537C1079.19,-207.909 1065.37,-195.869 1056.14,-187.834"/>
<polygon fill="midnightblue" stroke="midnightblue" points="1088.2,-220.395 1098.04,-224.324 1092.8,-215.117 1088.2,-220.395"/>
</g>
<!-- Node45 -->
<g id="node45" class="node"><title>Node45</title>
<g id="a_node45"><a xlink:href="_i_plug_base_8cpp_source.html" target="_top" xlink:title="IPlugBase.cpp">
<polygon fill="white" stroke="black" points="1131,-168.5 1131,-187.5 1211,-187.5 1211,-168.5 1131,-168.5"/>
<text text-anchor="middle" x="1171" y="-175.5" font-family="Helvetica,sans-Serif" font-size="10.00">IPlugBase.cpp</text>
</a>
</g>
</g>
<!-- Node32&#45;&gt;Node45 -->
<g id="edge58" class="edge"><title>Node32&#45;&gt;Node45</title>
<path fill="none" stroke="midnightblue" d="M1126.04,-217.537C1137.27,-207.909 1151.32,-195.869 1160.69,-187.834"/>
<polygon fill="midnightblue" stroke="midnightblue" points="1123.44,-215.159 1118.12,-224.324 1127.99,-220.473 1123.44,-215.159"/>
</g>
<!-- Node46 -->
<g id="node46" class="node"><title>Node46</title>
<g id="a_node46"><a xlink:href="_i_plug_w_a_m_8h_source.html" target="_top" xlink:title="IPlugWAM.h">
<polygon fill="white" stroke="black" points="1229,-168.5 1229,-187.5 1301,-187.5 1301,-168.5 1229,-168.5"/>
<text text-anchor="middle" x="1265" y="-175.5" font-family="Helvetica,sans-Serif" font-size="10.00">IPlugWAM.h</text>
</a>
</g>
</g>
<!-- Node32&#45;&gt;Node46 -->
<g id="edge59" class="edge"><title>Node32&#45;&gt;Node46</title>
<path fill="none" stroke="midnightblue" d="M1142.39,-221.172C1171.95,-211.004 1213.87,-196.585 1240.24,-187.516"/>
<polygon fill="midnightblue" stroke="midnightblue" points="1141.2,-217.881 1132.88,-224.444 1143.47,-224.501 1141.2,-217.881"/>
</g>
<!-- Node33&#45;&gt;Node4 -->
<g id="edge45" class="edge"><title>Node33&#45;&gt;Node4</title>
<path fill="none" stroke="midnightblue" d="M842.265,-166.838C767.596,-155.117 648.039,-136.349 592.781,-127.675"/>
<polygon fill="midnightblue" stroke="midnightblue" points="842.07,-170.35 852.492,-168.444 843.156,-163.435 842.07,-170.35"/>
</g>
<!-- Node33&#45;&gt;Node23 -->
<g id="edge56" class="edge"><title>Node33&#45;&gt;Node23</title>
<path fill="none" stroke="midnightblue" d="M842.214,-167.931C699.794,-150.002 662.497,-148.47 524,-132 519.997,-131.524 515.87,-131.026 511.712,-130.52"/>
<polygon fill="midnightblue" stroke="midnightblue" points="841.84,-171.412 852.2,-169.193 842.718,-164.467 841.84,-171.412"/>
</g>
<!-- Node34 -->
<g id="node34" class="node"><title>Node34</title>
<g id="a_node34"><a xlink:href="_i_plug_base__select_8h_source.html" target="_top" xlink:title="IPlugBase_select.h">
<polygon fill="white" stroke="black" points="1268.5,-112.5 1268.5,-131.5 1369.5,-131.5 1369.5,-112.5 1268.5,-112.5"/>
<text text-anchor="middle" x="1319" y="-119.5" font-family="Helvetica,sans-Serif" font-size="10.00">IPlugBase_select.h</text>
</a>
</g>
</g>
<!-- Node33&#45;&gt;Node34 -->
<g id="edge46" class="edge"><title>Node33&#45;&gt;Node34</title>
<path fill="none" stroke="midnightblue" d="M971.713,-167.781C1083.33,-152.666 1202.47,-137.567 1268.4,-129.304"/>
<polygon fill="midnightblue" stroke="midnightblue" points="971.068,-164.336 961.629,-169.149 972.009,-171.273 971.068,-164.336"/>
</g>
<!-- Node34&#45;&gt;Node35 -->
<g id="edge47" class="edge"><title>Node34&#45;&gt;Node35</title>
<path fill="none" stroke="midnightblue" d="M1353.11,-109.039C1382.09,-98.8786 1422.96,-84.5457 1448.71,-75.5164"/>
<polygon fill="midnightblue" stroke="midnightblue" points="1351.68,-105.832 1343.4,-112.444 1354,-112.437 1351.68,-105.832"/>
</g>
<!-- Node34&#45;&gt;Node37 -->
<g id="edge49" class="edge"><title>Node34&#45;&gt;Node37</title>
<path fill="none" stroke="midnightblue" d="M1366.9,-110.222C1413.54,-99.7276 1483.28,-84.0374 1524.65,-74.729"/>
<polygon fill="midnightblue" stroke="midnightblue" points="1366.02,-106.834 1357.03,-112.444 1367.55,-113.663 1366.02,-106.834"/>
</g>
<!-- Node39 -->
<g id="node39" class="node"><title>Node39</title>
<g id="a_node39"><a xlink:href="_i_plug_a_u_8h.html" target="_top" xlink:title="AudioUnit v2 API base class for an IPlug plug&#45;in, inherits from IPlugBase or IPlugBaseGraphics. ">
<polygon fill="white" stroke="black" points="1269,-56.5 1269,-75.5 1331,-75.5 1331,-56.5 1269,-56.5"/>
<text text-anchor="middle" x="1300" y="-63.5" font-family="Helvetica,sans-Serif" font-size="10.00">IPlugAU.h</text>
</a>
</g>
</g>
<!-- Node34&#45;&gt;Node39 -->
<g id="edge51" class="edge"><title>Node34&#45;&gt;Node39</title>
<path fill="none" stroke="midnightblue" d="M1312.45,-102.396C1309.28,-93.362 1305.61,-82.936 1303.08,-75.7511"/>
<polygon fill="midnightblue" stroke="midnightblue" points="1309.24,-103.812 1315.86,-112.083 1315.85,-101.488 1309.24,-103.812"/>
</g>
<!-- Node41 -->
<g id="node41" class="node"><title>Node41</title>
<g id="a_node41"><a xlink:href="_i_plug_a_uv3_8h_source.html" target="_top" xlink:title="IPlugAUv3.h">
<polygon fill="white" stroke="red" points="1349,-56.5 1349,-75.5 1421,-75.5 1421,-56.5 1349,-56.5"/>
<text text-anchor="middle" x="1385" y="-63.5" font-family="Helvetica,sans-Serif" font-size="10.00">IPlugAUv3.h</text>
</a>
</g>
</g>
<!-- Node34&#45;&gt;Node41 -->
<g id="edge53" class="edge"><title>Node34&#45;&gt;Node41</title>
<path fill="none" stroke="midnightblue" d="M1337.55,-105.82C1349.38,-96.1452 1364.29,-83.9481 1374.2,-75.8339"/>
<polygon fill="midnightblue" stroke="midnightblue" points="1335.13,-103.283 1329.6,-112.324 1339.56,-108.7 1335.13,-103.283"/>
</g>
<!-- Node42 -->
<g id="node42" class="node"><title>Node42</title>
<g id="a_node42"><a xlink:href="_i_plug_v_s_t_8h.html" target="_top" xlink:title="VST2.4 API base class for an IPlug plug&#45;in, inherits from IPlugBase or IPlugBaseGraphics. ">
<polygon fill="white" stroke="red" points="1093.5,-56.5 1093.5,-75.5 1160.5,-75.5 1160.5,-56.5 1093.5,-56.5"/>
<text text-anchor="middle" x="1127" y="-63.5" font-family="Helvetica,sans-Serif" font-size="10.00">IPlugVST.h</text>
</a>
</g>
</g>
<!-- Node34&#45;&gt;Node42 -->
<g id="edge54" class="edge"><title>Node34&#45;&gt;Node42</title>
<path fill="none" stroke="midnightblue" d="M1278.82,-109.699C1242.58,-99.507 1190.09,-84.7429 1157.28,-75.5164"/>
<polygon fill="midnightblue" stroke="midnightblue" points="1278,-113.105 1288.58,-112.444 1279.9,-106.367 1278,-113.105"/>
</g>
<!-- Node43 -->
<g id="node43" class="node"><title>Node43</title>
<g id="a_node43"><a xlink:href="_i_plug_v_s_t3_8h.html" target="_top" xlink:title="VST3 base class for an IPlug plug&#45;in, inherits from IPlugBase or IPlugBaseGraphics. ">
<polygon fill="white" stroke="red" points="1179,-56.5 1179,-75.5 1251,-75.5 1251,-56.5 1179,-56.5"/>
<text text-anchor="middle" x="1215" y="-63.5" font-family="Helvetica,sans-Serif" font-size="10.00">IPlugVST3.h</text>
</a>
</g>
</g>
<!-- Node34&#45;&gt;Node43 -->
<g id="edge55" class="edge"><title>Node34&#45;&gt;Node43</title>
<path fill="none" stroke="midnightblue" d="M1293.17,-107.59C1273.94,-97.6052 1248.26,-84.2672 1231.67,-75.6545"/>
<polygon fill="midnightblue" stroke="midnightblue" points="1291.8,-110.822 1302.29,-112.324 1295.03,-104.61 1291.8,-110.822"/>
</g>
<!-- Node36 -->
<g id="node36" class="node"><title>Node36</title>
<g id="a_node36"><a xlink:href="_i_plug_a_a_x_8cpp_source.html" target="_top" xlink:title="IPlugAAX.cpp">
<polygon fill="white" stroke="black" points="1429,-0.5 1429,-19.5 1507,-19.5 1507,-0.5 1429,-0.5"/>
<text text-anchor="middle" x="1468" y="-7.5" font-family="Helvetica,sans-Serif" font-size="10.00">IPlugAAX.cpp</text>
</a>
</g>
</g>
<!-- Node35&#45;&gt;Node36 -->
<g id="edge48" class="edge"><title>Node35&#45;&gt;Node36</title>
<path fill="none" stroke="midnightblue" d="M1471.25,-46.1005C1470.42,-37.1357 1469.47,-26.8579 1468.81,-19.7511"/>
<polygon fill="midnightblue" stroke="midnightblue" points="1467.77,-46.4483 1472.17,-56.083 1474.74,-45.8029 1467.77,-46.4483"/>
</g>
<!-- Node38 -->
<g id="node38" class="node"><title>Node38</title>
<g id="a_node38"><a xlink:href="_i_plug_a_p_p_8cpp_source.html" target="_top" xlink:title="IPlugAPP.cpp">
<polygon fill="white" stroke="black" points="1525,-0.5 1525,-19.5 1603,-19.5 1603,-0.5 1525,-0.5"/>
<text text-anchor="middle" x="1564" y="-7.5" font-family="Helvetica,sans-Serif" font-size="10.00">IPlugAPP.cpp</text>
</a>
</g>
</g>
<!-- Node37&#45;&gt;Node38 -->
<g id="edge50" class="edge"><title>Node37&#45;&gt;Node38</title>
<path fill="none" stroke="midnightblue" d="M1560.75,-46.1005C1561.58,-37.1357 1562.53,-26.8579 1563.19,-19.7511"/>
<polygon fill="midnightblue" stroke="midnightblue" points="1557.26,-45.8029 1559.83,-56.083 1564.23,-46.4483 1557.26,-45.8029"/>
</g>
<!-- Node40 -->
<g id="node40" class="node"><title>Node40</title>
<g id="a_node40"><a xlink:href="_i_plug_a_u_8cpp_source.html" target="_top" xlink:title="IPlugAU.cpp">
<polygon fill="white" stroke="black" points="1264,-0.5 1264,-19.5 1336,-19.5 1336,-0.5 1264,-0.5"/>
<text text-anchor="middle" x="1300" y="-7.5" font-family="Helvetica,sans-Serif" font-size="10.00">IPlugAU.cpp</text>
</a>
</g>
</g>
<!-- Node39&#45;&gt;Node40 -->
<g id="edge52" class="edge"><title>Node39&#45;&gt;Node40</title>
<path fill="none" stroke="midnightblue" d="M1300,-45.8045C1300,-36.9102 1300,-26.7798 1300,-19.7511"/>
<polygon fill="midnightblue" stroke="midnightblue" points="1296.5,-46.083 1300,-56.083 1303.5,-46.083 1296.5,-46.083"/>
</g>
<!-- Node47&#45;&gt;Node34 -->
<g id="edge61" class="edge"><title>Node47&#45;&gt;Node34</title>
<path fill="none" stroke="midnightblue" d="M1343.17,-214.674C1336.83,-190.625 1325.96,-149.388 1321.27,-131.591"/>
<polygon fill="midnightblue" stroke="midnightblue" points="1339.79,-215.591 1345.72,-224.368 1346.56,-213.807 1339.79,-215.591"/>
</g>
<!-- Node48 -->
<g id="node48" class="node"><title>Node48</title>
<g id="a_node48"><a xlink:href="_i_plug_processor_8cpp_source.html" target="_top" xlink:title="IPlugProcessor.cpp">
<polygon fill="white" stroke="black" points="1357,-168.5 1357,-187.5 1459,-187.5 1459,-168.5 1357,-168.5"/>
<text text-anchor="middle" x="1408" y="-175.5" font-family="Helvetica,sans-Serif" font-size="10.00">IPlugProcessor.cpp</text>
</a>
</g>
</g>
<!-- Node47&#45;&gt;Node48 -->
<g id="edge62" class="edge"><title>Node47&#45;&gt;Node48</title>
<path fill="none" stroke="midnightblue" d="M1359.84,-216.718C1369.48,-207.2 1382.79,-195.561 1393.15,-187.751"/>
<polygon fill="midnightblue" stroke="midnightblue" points="1357.16,-214.453 1352.74,-224.083 1362.2,-219.31 1357.16,-214.453"/>
</g>
<!-- Node48&#45;&gt;Node47 -->
<g id="edge63" class="edge"><title>Node48&#45;&gt;Node47</title>
<path fill="none" stroke="midnightblue" d="M1396.22,-195.224C1386.54,-204.783 1373.14,-216.498 1362.75,-224.324"/>
<polygon fill="midnightblue" stroke="midnightblue" points="1398.92,-197.466 1403.33,-187.834 1393.88,-192.612 1398.92,-197.466"/>
</g>
<!-- Node49&#45;&gt;Node32 -->
<g id="edge66" class="edge"><title>Node49&#45;&gt;Node32</title>
<path fill="none" stroke="midnightblue" d="M1065.3,-331.884C1042.28,-320.013 1016.69,-301.181 1029,-280 1039.55,-261.85 1060.46,-250.413 1078.12,-243.613"/>
<polygon fill="midnightblue" stroke="midnightblue" points="1064.04,-335.163 1074.57,-336.382 1067.1,-328.866 1064.04,-335.163"/>
</g>
<!-- Node50 -->
<g id="node50" class="node"><title>Node50</title>
<g id="a_node50"><a xlink:href="_i_plug_parameter_8cpp_source.html" target="_top" xlink:title="IPlugParameter.cpp">
<polygon fill="white" stroke="black" points="1038.5,-280.5 1038.5,-299.5 1141.5,-299.5 1141.5,-280.5 1038.5,-280.5"/>
<text text-anchor="middle" x="1090" y="-287.5" font-family="Helvetica,sans-Serif" font-size="10.00">IPlugParameter.cpp</text>
</a>
</g>
</g>
<!-- Node49&#45;&gt;Node50 -->
<g id="edge67" class="edge"><title>Node49&#45;&gt;Node50</title>
<path fill="none" stroke="midnightblue" d="M1093.9,-326.101C1092.9,-317.136 1091.76,-306.858 1090.97,-299.751"/>
<polygon fill="midnightblue" stroke="midnightblue" points="1090.43,-326.531 1095.01,-336.083 1097.38,-325.758 1090.43,-326.531"/>
</g>
</g>
</svg>
