<?xml version="1.0" encoding="UTF-8" standalone="no"?>
<!DOCTYPE svg PUBLIC "-//W3C//DTD SVG 1.1//EN"
 "http://www.w3.org/Graphics/SVG/1.1/DTD/svg11.dtd">
<!-- Generated by graphviz version 2.36.0 (20140111.2315)
 -->
<!-- Title: IPlugProcessor.h Pages: 1 -->
<!--zoomable 308 -->
<svg id="main" version="1.1" xmlns="http://www.w3.org/2000/svg" xmlns:xlink="http://www.w3.org/1999/xlink" xml:space="preserve" onload="init(evt)">
<style type="text/css"><![CDATA[
.edge:hover path { stroke: red; }
.edge:hover polygon { stroke: red; fill: red; }
]]></style>
<script type="text/javascript"><![CDATA[
var edges = document.getElementsByTagName('g');
if (edges && edges.length) {
  for (var i=0;i<edges.length;i++) {
    if (edges[i].id.substr(0,4)=='edge') {
      edges[i].setAttribute('class','edge');
    }
  }
}
]]></script>
        <defs>
                <circle id="rim" cx="0" cy="0" r="7"/>
                <circle id="rim2" cx="0" cy="0" r="3.5"/>
                <g id="zoomPlus">
                        <use xlink:href="#rim" fill="#404040">
                                <set attributeName="fill" to="#808080" begin="zoomplus.mouseover" end="zoomplus.mouseout"/>
                        </use>
                        <path d="M-4,0h8M0,-4v8" fill="none" stroke="white" stroke-width="1.5" pointer-events="none"/>
                </g>
                <g id="zoomMin">
                        <use xlink:href="#rim" fill="#404040">
                                <set attributeName="fill" to="#808080" begin="zoomminus.mouseover" end="zoomminus.mouseout"/>
                        </use>
                        <path d="M-4,0h8" fill="none" stroke="white" stroke-width="1.5" pointer-events="none"/>
                </g>
                <g id="dirArrow">
                        <path fill="none" stroke="white" stroke-width="1.5" d="M0,-3.0v7 M-2.5,-0.5L0,-3.0L2.5,-0.5"/>
                </g>
               <g id="resetDef">
                       <use xlink:href="#rim2" fill="#404040">
                               <set attributeName="fill" to="#808080" begin="reset.mouseover" end="reset.mouseout"/>
                       </use>
               </g>
        </defs>

<script type="text/javascript">
var viewWidth = 1003;
var viewHeight = 308;
var sectionId = 'dynsection-0';
</script>
<script xlink:href="svgpan.js"/>
<svg id="graph" class="graph">
<g id="viewport">
<title>IPlugProcessor.h</title>
<polygon fill="white" stroke="none" points="-4,4 -4,-304 999,-304 999,4 -4,4"/>
<!-- Node1 -->
<g id="node1" class="node"><title>Node1</title>
<polygon fill="#bfbfbf" stroke="black" points="459,-280.5 459,-299.5 551,-299.5 551,-280.5 459,-280.5"/>
<text text-anchor="middle" x="505" y="-287.5" font-family="Helvetica,sans-Serif" font-size="10.00">IPlugProcessor.h</text>
</g>
<!-- Node2 -->
<g id="node2" class="node"><title>Node2</title>
<polygon fill="white" stroke="#bfbfbf" points="4,-0.5 4,-19.5 50,-19.5 50,-0.5 4,-0.5"/>
<text text-anchor="middle" x="27" y="-7.5" font-family="Helvetica,sans-Serif" font-size="10.00">cstring</text>
</g>
<!-- Node1&#45;&gt;Node2 -->
<g id="edge1" class="edge"><title>Node1&#45;&gt;Node2</title>
<path fill="none" stroke="midnightblue" d="M458.846,-288.698C334.181,-286.646 0,-272.431 0,-179 0,-179 0,-179 0,-121 0,-87.8606 11.701,-50.6823 19.6973,-29.1445"/>
<polygon fill="midnightblue" stroke="midnightblue" points="23.0216,-30.2517 23.3587,-19.6622 16.4915,-27.7302 23.0216,-30.2517"/>
</g>
<!-- Node3 -->
<g id="node3" class="node"><title>Node3</title>
<polygon fill="white" stroke="#bfbfbf" points="460,-56.5 460,-75.5 506,-75.5 506,-56.5 460,-56.5"/>
<text text-anchor="middle" x="483" y="-63.5" font-family="Helvetica,sans-Serif" font-size="10.00">cstdint</text>
</g>
<!-- Node1&#45;&gt;Node3 -->
<g id="edge2" class="edge"><title>Node1&#45;&gt;Node3</title>
<path fill="none" stroke="midnightblue" d="M501.253,-280.23C497.635,-271.299 492.367,-256.962 490,-244 479.617,-187.148 480.706,-118.385 482.019,-85.8328"/>
<polygon fill="midnightblue" stroke="midnightblue" points="485.528,-85.7181 482.492,-75.5675 478.535,-85.3957 485.528,-85.7181"/>
</g>
<!-- Node4 -->
<g id="node4" class="node"><title>Node4</title>
<polygon fill="white" stroke="#bfbfbf" points="355.5,-224.5 355.5,-243.5 404.5,-243.5 404.5,-224.5 355.5,-224.5"/>
<text text-anchor="middle" x="380" y="-231.5" font-family="Helvetica,sans-Serif" font-size="10.00">ptrlist.h</text>
</g>
<!-- Node1&#45;&gt;Node4 -->
<g id="edge3" class="edge"><title>Node1&#45;&gt;Node4</title>
<path fill="none" stroke="midnightblue" d="M485.193,-280.444C464.713,-271.596 432.517,-257.687 409.135,-247.586"/>
<polygon fill="midnightblue" stroke="midnightblue" points="410.282,-244.269 399.714,-243.516 407.506,-250.695 410.282,-244.269"/>
</g>
<!-- Node5 -->
<g id="node5" class="node"><title>Node5</title>
<g id="a_node5"><a xlink:href="_i_plug_platform_8h.html" target="_top" xlink:title="Include to get consistently named preprocessor macros for different platforms and logging functionali...">
<polygon fill="white" stroke="black" points="312,-168.5 312,-187.5 396,-187.5 396,-168.5 312,-168.5"/>
<text text-anchor="middle" x="354" y="-175.5" font-family="Helvetica,sans-Serif" font-size="10.00">IPlugPlatform.h</text>
</a>
</g>
</g>
<!-- Node1&#45;&gt;Node5 -->
<g id="edge4" class="edge"><title>Node1&#45;&gt;Node5</title>
<path fill="none" stroke="midnightblue" d="M493.151,-280.368C467.35,-261.573 405.846,-216.768 373.95,-193.533"/>
<polygon fill="midnightblue" stroke="midnightblue" points="375.937,-190.651 365.794,-187.591 371.816,-196.309 375.937,-190.651"/>
</g>
<!-- Node14 -->
<g id="node14" class="node"><title>Node14</title>
<g id="a_node14"><a xlink:href="_i_plug_utilities_8h.html" target="_top" xlink:title="Utility functions and macros. ">
<polygon fill="white" stroke="black" points="104,-56.5 104,-75.5 184,-75.5 184,-56.5 104,-56.5"/>
<text text-anchor="middle" x="144" y="-63.5" font-family="Helvetica,sans-Serif" font-size="10.00">IPlugUtilities.h</text>
</a>
</g>
</g>
<!-- Node1&#45;&gt;Node14 -->
<g id="edge34" class="edge"><title>Node1&#45;&gt;Node14</title>
<path fill="none" stroke="midnightblue" d="M458.737,-281.536C425.852,-274.917 381.418,-263.242 346,-244 265.17,-200.087 188.958,-118.74 158.249,-83.7336"/>
<polygon fill="midnightblue" stroke="midnightblue" points="160.641,-81.1488 151.447,-75.8829 155.35,-85.7326 160.641,-81.1488"/>
</g>
<!-- Node17 -->
<g id="node17" class="node"><title>Node17</title>
<g id="a_node17"><a xlink:href="_i_plug_constants_8h.html" target="_top" xlink:title="Constant definitions, magic numbers. ">
<polygon fill="white" stroke="black" points="570,-0.5 570,-19.5 662,-19.5 662,-0.5 570,-0.5"/>
<text text-anchor="middle" x="616" y="-7.5" font-family="Helvetica,sans-Serif" font-size="10.00">IPlugConstants.h</text>
</a>
</g>
</g>
<!-- Node1&#45;&gt;Node17 -->
<g id="edge23" class="edge"><title>Node1&#45;&gt;Node17</title>
<path fill="none" stroke="midnightblue" d="M551.098,-288.392C673.077,-285.543 995,-269.456 995,-179 995,-179 995,-179 995,-121 995,-87.0792 983.456,-74.4631 955,-56 909.52,-26.4907 756.397,-16.183 672.365,-12.6985"/>
<polygon fill="midnightblue" stroke="midnightblue" points="672.354,-9.1954 662.224,-12.2972 672.077,-16.1899 672.354,-9.1954"/>
</g>
<!-- Node18 -->
<g id="node18" class="node"><title>Node18</title>
<g id="a_node18"><a xlink:href="_i_plug_structs_8h_source.html" target="_top" xlink:title="IPlugStructs.h">
<polygon fill="white" stroke="black" points="499.5,-224.5 499.5,-243.5 578.5,-243.5 578.5,-224.5 499.5,-224.5"/>
<text text-anchor="middle" x="539" y="-231.5" font-family="Helvetica,sans-Serif" font-size="10.00">IPlugStructs.h</text>
</a>
</g>
</g>
<!-- Node1&#45;&gt;Node18 -->
<g id="edge24" class="edge"><title>Node1&#45;&gt;Node18</title>
<path fill="none" stroke="midnightblue" d="M510.614,-280.083C515.367,-272.534 522.318,-261.495 528.152,-252.23"/>
<polygon fill="midnightblue" stroke="midnightblue" points="531.124,-254.078 533.49,-243.751 525.2,-250.349 531.124,-254.078"/>
</g>
<!-- Node21 -->
<g id="node21" class="node"><title>Node21</title>
<g id="a_node21"><a xlink:href="_n_chan_delay_8h_source.html" target="_top" xlink:title="NChanDelay.h">
<polygon fill="white" stroke="black" points="762.5,-224.5 762.5,-243.5 843.5,-243.5 843.5,-224.5 762.5,-224.5"/>
<text text-anchor="middle" x="803" y="-231.5" font-family="Helvetica,sans-Serif" font-size="10.00">NChanDelay.h</text>
</a>
</g>
</g>
<!-- Node1&#45;&gt;Node21 -->
<g id="edge35" class="edge"><title>Node1&#45;&gt;Node21</title>
<path fill="none" stroke="midnightblue" d="M551.236,-280.622C605.717,-270.749 695.939,-254.4 752.292,-244.189"/>
<polygon fill="midnightblue" stroke="midnightblue" points="753.189,-247.583 762.404,-242.356 751.941,-240.695 753.189,-247.583"/>
</g>
<!-- Node22 -->
<g id="node22" class="node"><title>Node22</title>
<g id="a_node22"><a xlink:href="_i_plug_processor_8cpp_source.html" target="_top" xlink:title="IPlugProcessor.cpp">
<polygon fill="white" stroke="black" points="706,-112.5 706,-131.5 808,-131.5 808,-112.5 706,-112.5"/>
<text text-anchor="middle" x="757" y="-119.5" font-family="Helvetica,sans-Serif" font-size="10.00">IPlugProcessor.cpp</text>
</a>
</g>
</g>
<!-- Node1&#45;&gt;Node22 -->
<g id="edge36" class="edge"><title>Node1&#45;&gt;Node22</title>
<path fill="none" stroke="midnightblue" d="M519.852,-280.428C551.802,-264.859 627.077,-229.664 683,-188 702.653,-173.358 722.116,-152.894 736.489,-138.861"/>
<polygon fill="midnightblue" stroke="midnightblue" points="739.078,-141.228 743.919,-131.804 734.258,-136.153 739.078,-141.228"/>
</g>
<!-- Node6 -->
<g id="node6" class="node"><title>Node6</title>
<g id="a_node6"><a xlink:href="_i_plug_logger_8h.html" target="_top" xlink:title="IPlug Logging functionailty To trace some arbitrary data: Trace(TRACELOC, &quot;%s:%d&quot;, myStr, myInt); To simply create a trace entry in the log: TRACE; No need to wrap tracer calls in #ifdef TRACER_BUILD because Trace is a no&#45;op unless TRACER_BUILD is defined. ">
<polygon fill="white" stroke="black" points="311.5,-112.5 311.5,-131.5 388.5,-131.5 388.5,-112.5 311.5,-112.5"/>
<text text-anchor="middle" x="350" y="-119.5" font-family="Helvetica,sans-Serif" font-size="10.00">IPlugLogger.h</text>
</a>
</g>
</g>
<!-- Node5&#45;&gt;Node6 -->
<g id="edge5" class="edge"><title>Node5&#45;&gt;Node6</title>
<path fill="none" stroke="midnightblue" d="M353.339,-168.083C352.815,-161.006 352.064,-150.861 351.406,-141.986"/>
<polygon fill="midnightblue" stroke="midnightblue" points="354.877,-141.465 350.648,-131.751 347.897,-141.982 354.877,-141.465"/>
</g>
<!-- Node6&#45;&gt;Node2 -->
<g id="edge10" class="edge"><title>Node6&#45;&gt;Node2</title>
<path fill="none" stroke="midnightblue" d="M311.383,-117.731C247.109,-111.759 121.442,-97.6698 83,-76 63.2021,-64.8398 47.111,-43.893 37.3408,-28.7899"/>
<polygon fill="midnightblue" stroke="midnightblue" points="40.0764,-26.5566 31.8578,-19.8704 34.113,-30.2224 40.0764,-26.5566"/>
</g>
<!-- Node6&#45;&gt;Node3 -->
<g id="edge9" class="edge"><title>Node6&#45;&gt;Node3</title>
<path fill="none" stroke="midnightblue" d="M371.074,-112.444C393.06,-103.517 427.734,-89.4387 452.664,-79.3168"/>
<polygon fill="midnightblue" stroke="midnightblue" points="454.076,-82.5213 462.024,-75.5164 451.442,-76.0355 454.076,-82.5213"/>
</g>
<!-- Node7 -->
<g id="node7" class="node"><title>Node7</title>
<polygon fill="white" stroke="#bfbfbf" points="328.5,-0.5 328.5,-19.5 371.5,-19.5 371.5,-0.5 328.5,-0.5"/>
<text text-anchor="middle" x="350" y="-7.5" font-family="Helvetica,sans-Serif" font-size="10.00">cstdio</text>
</g>
<!-- Node6&#45;&gt;Node7 -->
<g id="edge6" class="edge"><title>Node6&#45;&gt;Node7</title>
<path fill="none" stroke="midnightblue" d="M350,-112.368C350,-94.617 350,-53.6664 350,-29.5974"/>
<polygon fill="midnightblue" stroke="midnightblue" points="353.5,-29.5914 350,-19.5914 346.5,-29.5915 353.5,-29.5914"/>
</g>
<!-- Node8 -->
<g id="node8" class="node"><title>Node8</title>
<polygon fill="white" stroke="#bfbfbf" points="68,-0.5 68,-19.5 114,-19.5 114,-0.5 68,-0.5"/>
<text text-anchor="middle" x="91" y="-7.5" font-family="Helvetica,sans-Serif" font-size="10.00">cctype</text>
</g>
<!-- Node6&#45;&gt;Node8 -->
<g id="edge7" class="edge"><title>Node6&#45;&gt;Node8</title>
<path fill="none" stroke="midnightblue" d="M311.283,-119.823C247.143,-116.99 123.105,-107.481 95,-76 83.9599,-63.6335 84.2541,-44.1099 86.5208,-29.6845"/>
<polygon fill="midnightblue" stroke="midnightblue" points="89.9586,-30.3416 88.4836,-19.85 83.094,-28.9715 89.9586,-30.3416"/>
</g>
<!-- Node9 -->
<g id="node9" class="node"><title>Node9</title>
<polygon fill="white" stroke="#bfbfbf" points="202.5,-56.5 202.5,-75.5 251.5,-75.5 251.5,-56.5 202.5,-56.5"/>
<text text-anchor="middle" x="227" y="-63.5" font-family="Helvetica,sans-Serif" font-size="10.00">cstdarg</text>
</g>
<!-- Node6&#45;&gt;Node9 -->
<g id="edge8" class="edge"><title>Node6&#45;&gt;Node9</title>
<path fill="none" stroke="midnightblue" d="M330.51,-112.444C310.358,-103.596 278.677,-89.6875 255.669,-79.5865"/>
<polygon fill="midnightblue" stroke="midnightblue" points="256.962,-76.3316 246.399,-75.5164 254.148,-82.7411 256.962,-76.3316"/>
</g>
<!-- Node10 -->
<g id="node10" class="node"><title>Node10</title>
<polygon fill="white" stroke="#bfbfbf" points="629.5,-56.5 629.5,-75.5 670.5,-75.5 670.5,-56.5 629.5,-56.5"/>
<text text-anchor="middle" x="650" y="-63.5" font-family="Helvetica,sans-Serif" font-size="10.00">ctime</text>
</g>
<!-- Node6&#45;&gt;Node10 -->
<g id="edge11" class="edge"><title>Node6&#45;&gt;Node10</title>
<path fill="none" stroke="midnightblue" d="M388.755,-116.109C439.561,-109.354 531.576,-95.9441 619.56,-75.8325"/>
<polygon fill="midnightblue" stroke="midnightblue" points="620.484,-79.211 629.435,-73.5424 618.903,-72.392 620.484,-79.211"/>
</g>
<!-- Node11 -->
<g id="node11" class="node"><title>Node11</title>
<polygon fill="white" stroke="#bfbfbf" points="562.5,-56.5 562.5,-75.5 611.5,-75.5 611.5,-56.5 562.5,-56.5"/>
<text text-anchor="middle" x="587" y="-63.5" font-family="Helvetica,sans-Serif" font-size="10.00">cassert</text>
</g>
<!-- Node6&#45;&gt;Node11 -->
<g id="edge12" class="edge"><title>Node6&#45;&gt;Node11</title>
<path fill="none" stroke="midnightblue" d="M387.553,-112.444C432.867,-102.119 508.429,-84.9023 552.385,-74.887"/>
<polygon fill="midnightblue" stroke="midnightblue" points="553.343,-78.2585 562.315,-72.6243 551.788,-71.4334 553.343,-78.2585"/>
</g>
<!-- Node12 -->
<g id="node12" class="node"><title>Node12</title>
<polygon fill="white" stroke="#bfbfbf" points="378,-56.5 378,-75.5 442,-75.5 442,-56.5 378,-56.5"/>
<text text-anchor="middle" x="410" y="-63.5" font-family="Helvetica,sans-Serif" font-size="10.00">wdlstring.h</text>
</g>
<!-- Node6&#45;&gt;Node12 -->
<g id="edge13" class="edge"><title>Node6&#45;&gt;Node12</title>
<path fill="none" stroke="midnightblue" d="M359.64,-112.324C368.51,-104.341 381.875,-92.3128 392.608,-82.6529"/>
<polygon fill="midnightblue" stroke="midnightblue" points="395.093,-85.1251 400.185,-75.8339 390.41,-79.922 395.093,-85.1251"/>
</g>
<!-- Node13 -->
<g id="node13" class="node"><title>Node13</title>
<polygon fill="white" stroke="#bfbfbf" points="270,-56.5 270,-75.5 322,-75.5 322,-56.5 270,-56.5"/>
<text text-anchor="middle" x="296" y="-63.5" font-family="Helvetica,sans-Serif" font-size="10.00">mutex.h</text>
</g>
<!-- Node6&#45;&gt;Node13 -->
<g id="edge14" class="edge"><title>Node6&#45;&gt;Node13</title>
<path fill="none" stroke="midnightblue" d="M341.083,-112.083C333.22,-104.22 321.569,-92.5688 312.081,-83.0813"/>
<polygon fill="midnightblue" stroke="midnightblue" points="314.297,-80.3473 304.751,-75.7511 309.347,-85.2971 314.297,-80.3473"/>
</g>
<!-- Node6&#45;&gt;Node14 -->
<g id="edge15" class="edge"><title>Node6&#45;&gt;Node14</title>
<path fill="none" stroke="midnightblue" d="M317.359,-112.444C281.95,-103.162 225.291,-88.3093 186.447,-78.127"/>
<polygon fill="midnightblue" stroke="midnightblue" points="187.049,-74.6666 176.489,-75.5164 185.274,-81.4378 187.049,-74.6666"/>
</g>
<!-- Node14&#45;&gt;Node2 -->
<g id="edge19" class="edge"><title>Node14&#45;&gt;Node2</title>
<path fill="none" stroke="midnightblue" d="M125.461,-56.4435C106.377,-47.6356 76.4251,-33.8116 54.5643,-23.722"/>
<polygon fill="midnightblue" stroke="midnightblue" points="55.9986,-20.5292 45.4523,-19.5164 53.0651,-26.8849 55.9986,-20.5292"/>
</g>
<!-- Node14&#45;&gt;Node5 -->
<g id="edge22" class="edge"><title>Node14&#45;&gt;Node5</title>
<path fill="none" stroke="midnightblue" d="M160.402,-75.5914C196.826,-94.6708 284.682,-140.691 328.401,-163.591"/>
<polygon fill="midnightblue" stroke="midnightblue" points="327.039,-166.829 337.522,-168.368 330.287,-160.628 327.039,-166.829"/>
</g>
<!-- Node14&#45;&gt;Node7 -->
<g id="edge17" class="edge"><title>Node14&#45;&gt;Node7</title>
<path fill="none" stroke="midnightblue" d="M176.641,-56.4435C215.425,-46.2769 279.704,-29.4272 318.141,-19.3514"/>
<polygon fill="midnightblue" stroke="midnightblue" points="319.469,-22.6217 328.254,-16.7003 317.694,-15.8505 319.469,-22.6217"/>
</g>
<!-- Node14&#45;&gt;Node8 -->
<g id="edge20" class="edge"><title>Node14&#45;&gt;Node8</title>
<path fill="none" stroke="midnightblue" d="M135.248,-56.083C127.53,-48.2195 116.095,-36.5688 106.783,-27.0813"/>
<polygon fill="midnightblue" stroke="midnightblue" points="109.092,-24.4363 99.589,-19.7511 104.096,-29.3396 109.092,-24.4363"/>
</g>
<!-- Node15 -->
<g id="node15" class="node"><title>Node15</title>
<polygon fill="white" stroke="#bfbfbf" points="490,-0.5 490,-19.5 534,-19.5 534,-0.5 490,-0.5"/>
<text text-anchor="middle" x="512" y="-7.5" font-family="Helvetica,sans-Serif" font-size="10.00">cmath</text>
</g>
<!-- Node14&#45;&gt;Node15 -->
<g id="edge16" class="edge"><title>Node14&#45;&gt;Node15</title>
<path fill="none" stroke="midnightblue" d="M184.088,-57.4969C187.101,-56.9758 190.097,-56.4711 193,-56 297.726,-39.0032 422.402,-22.4874 479.961,-15.0721"/>
<polygon fill="midnightblue" stroke="midnightblue" points="480.435,-18.5401 489.908,-13.7953 479.544,-11.597 480.435,-18.5401"/>
</g>
<!-- Node16 -->
<g id="node16" class="node"><title>Node16</title>
<polygon fill="white" stroke="#bfbfbf" points="132.5,-0.5 132.5,-19.5 177.5,-19.5 177.5,-0.5 132.5,-0.5"/>
<text text-anchor="middle" x="155" y="-7.5" font-family="Helvetica,sans-Serif" font-size="10.00">cstdlib</text>
</g>
<!-- Node14&#45;&gt;Node16 -->
<g id="edge18" class="edge"><title>Node14&#45;&gt;Node16</title>
<path fill="none" stroke="midnightblue" d="M145.816,-56.083C147.274,-48.9272 149.371,-38.6353 151.193,-29.6911"/>
<polygon fill="midnightblue" stroke="midnightblue" points="154.651,-30.2485 153.217,-19.7511 147.792,-28.8512 154.651,-30.2485"/>
</g>
<!-- Node14&#45;&gt;Node17 -->
<g id="edge21" class="edge"><title>Node14&#45;&gt;Node17</title>
<path fill="none" stroke="midnightblue" d="M184.069,-57.3745C187.087,-56.8817 190.089,-56.4168 193,-56 347.36,-33.898 387.041,-37.4138 542,-20 547.767,-19.3519 553.785,-18.6547 559.788,-17.9454"/>
<polygon fill="midnightblue" stroke="midnightblue" points="560.315,-21.4074 569.83,-16.7471 559.486,-14.4567 560.315,-21.4074"/>
</g>
<!-- Node18&#45;&gt;Node5 -->
<g id="edge28" class="edge"><title>Node18&#45;&gt;Node5</title>
<path fill="none" stroke="midnightblue" d="M509.686,-224.444C478.158,-215.241 427.869,-200.562 393.014,-190.388"/>
<polygon fill="midnightblue" stroke="midnightblue" points="393.757,-186.959 383.177,-187.516 391.795,-193.678 393.757,-186.959"/>
</g>
<!-- Node18&#45;&gt;Node12 -->
<g id="edge26" class="edge"><title>Node18&#45;&gt;Node12</title>
<path fill="none" stroke="midnightblue" d="M528.161,-224.37C517.731,-215.773 501.841,-201.886 490,-188 460.991,-153.979 433.741,-108.95 419.763,-84.5439"/>
<polygon fill="midnightblue" stroke="midnightblue" points="422.739,-82.6963 414.771,-75.7133 416.645,-86.141 422.739,-82.6963"/>
</g>
<!-- Node18&#45;&gt;Node17 -->
<g id="edge27" class="edge"><title>Node18&#45;&gt;Node17</title>
<path fill="none" stroke="midnightblue" d="M551.553,-224.192C580.75,-202.833 652.729,-144.934 679,-76 682.165,-67.6939 683.067,-63.9037 679,-56 671.923,-42.2475 658.479,-31.7663 645.822,-24.3942"/>
<polygon fill="midnightblue" stroke="midnightblue" points="647.313,-21.2221 636.847,-19.5733 644.001,-27.3888 647.313,-21.2221"/>
</g>
<!-- Node19 -->
<g id="node19" class="node"><title>Node19</title>
<polygon fill="white" stroke="#bfbfbf" points="499,-168.5 499,-187.5 555,-187.5 555,-168.5 499,-168.5"/>
<text text-anchor="middle" x="527" y="-175.5" font-family="Helvetica,sans-Serif" font-size="10.00">algorithm</text>
</g>
<!-- Node18&#45;&gt;Node19 -->
<g id="edge25" class="edge"><title>Node18&#45;&gt;Node19</title>
<path fill="none" stroke="midnightblue" d="M537.018,-224.083C535.428,-216.927 533.141,-206.635 531.154,-197.691"/>
<polygon fill="midnightblue" stroke="midnightblue" points="534.531,-196.754 528.945,-187.751 527.697,-198.272 534.531,-196.754"/>
</g>
<!-- Node20 -->
<g id="node20" class="node"><title>Node20</title>
<g id="a_node20"><a xlink:href="_i_plug_midi_8h_source.html" target="_top" xlink:title="IPlugMidi.h">
<polygon fill="white" stroke="black" points="501.5,-112.5 501.5,-131.5 566.5,-131.5 566.5,-112.5 501.5,-112.5"/>
<text text-anchor="middle" x="534" y="-119.5" font-family="Helvetica,sans-Serif" font-size="10.00">IPlugMidi.h</text>
</a>
</g>
</g>
<!-- Node18&#45;&gt;Node20 -->
<g id="edge29" class="edge"><title>Node18&#45;&gt;Node20</title>
<path fill="none" stroke="midnightblue" d="M546.01,-224.295C555.081,-211.942 569.045,-188.541 563,-168 559.988,-157.765 553.845,-147.66 547.986,-139.627"/>
<polygon fill="midnightblue" stroke="midnightblue" points="550.586,-137.269 541.673,-131.541 545.068,-141.577 550.586,-137.269"/>
</g>
<!-- Node20&#45;&gt;Node3 -->
<g id="edge31" class="edge"><title>Node20&#45;&gt;Node3</title>
<path fill="none" stroke="midnightblue" d="M525.578,-112.083C518.152,-104.22 507.148,-92.5688 498.188,-83.0813"/>
<polygon fill="midnightblue" stroke="midnightblue" points="500.676,-80.618 491.265,-75.7511 495.587,-85.4244 500.676,-80.618"/>
</g>
<!-- Node20&#45;&gt;Node11 -->
<g id="edge30" class="edge"><title>Node20&#45;&gt;Node11</title>
<path fill="none" stroke="midnightblue" d="M542.752,-112.083C550.47,-104.22 561.905,-92.5688 571.217,-83.0813"/>
<polygon fill="midnightblue" stroke="midnightblue" points="573.904,-85.3396 578.411,-75.7511 568.908,-80.4363 573.904,-85.3396"/>
</g>
<!-- Node20&#45;&gt;Node14 -->
<g id="edge33" class="edge"><title>Node20&#45;&gt;Node14</title>
<path fill="none" stroke="midnightblue" d="M501.479,-117.262C442.396,-110.352 313.273,-94.702 194.108,-76.1074"/>
<polygon fill="midnightblue" stroke="midnightblue" points="194.505,-72.627 184.083,-74.5323 193.419,-79.5422 194.505,-72.627"/>
</g>
<!-- Node20&#45;&gt;Node17 -->
<g id="edge32" class="edge"><title>Node20&#45;&gt;Node17</title>
<path fill="none" stroke="midnightblue" d="M534.739,-112.22C536.235,-98.9394 540.611,-73.4465 553,-56 562.268,-42.9483 576.547,-32.3012 589.17,-24.6461"/>
<polygon fill="midnightblue" stroke="midnightblue" points="591.031,-27.6136 597.972,-19.6092 587.554,-21.5378 591.031,-27.6136"/>
</g>
<!-- Node22&#45;&gt;Node1 -->
<g id="edge43" class="edge"><title>Node22&#45;&gt;Node1</title>
<path fill="none" stroke="midnightblue" d="M755.451,-131.804C747.319,-145.115 724.292,-170.647 701,-188 649.227,-226.572 580.869,-259.599 539.909,-276.643"/>
<polygon fill="midnightblue" stroke="midnightblue" points="538.551,-273.416 530.609,-280.428 541.19,-279.9 538.551,-273.416"/>
</g>
<!-- Node22&#45;&gt;Node7 -->
<g id="edge38" class="edge"><title>Node22&#45;&gt;Node7</title>
<path fill="none" stroke="midnightblue" d="M749.423,-112.045C736.582,-97.5479 708.999,-69.2294 679,-56 626.068,-32.6573 453.922,-18.2571 382.016,-13.1247"/>
<polygon fill="midnightblue" stroke="midnightblue" points="381.985,-9.61406 371.765,-12.4077 381.496,-16.597 381.985,-9.61406"/>
</g>
<!-- Node22&#45;&gt;Node10 -->
<g id="edge39" class="edge"><title>Node22&#45;&gt;Node10</title>
<path fill="none" stroke="midnightblue" d="M739.809,-112.324C722.649,-103.664 696.054,-90.2424 676.253,-80.249"/>
<polygon fill="midnightblue" stroke="midnightblue" points="677.653,-77.0354 667.149,-75.6545 674.499,-83.2847 677.653,-77.0354"/>
</g>
<!-- Node22&#45;&gt;Node11 -->
<g id="edge40" class="edge"><title>Node22&#45;&gt;Node11</title>
<path fill="none" stroke="midnightblue" d="M730.063,-112.444C700.664,-103.105 653.513,-88.1276 621.444,-77.9409"/>
<polygon fill="midnightblue" stroke="midnightblue" points="622.193,-74.5068 611.603,-74.8151 620.074,-81.1783 622.193,-74.5068"/>
</g>
<!-- Node22&#45;&gt;Node15 -->
<g id="edge37" class="edge"><title>Node22&#45;&gt;Node15</title>
<path fill="none" stroke="midnightblue" d="M808.026,-118.763C874.216,-114.095 976.776,-99.7663 937,-56 908.773,-24.9415 602.567,-25.7962 561,-20 555.675,-19.2575 550.048,-18.345 544.578,-17.3889"/>
<polygon fill="midnightblue" stroke="midnightblue" points="544.842,-13.8793 534.376,-15.5295 543.587,-20.7658 544.842,-13.8793"/>
</g>
<!-- Node23 -->
<g id="node23" class="node"><title>Node23</title>
<polygon fill="white" stroke="#bfbfbf" points="765,-56.5 765,-75.5 833,-75.5 833,-56.5 765,-56.5"/>
<text text-anchor="middle" x="799" y="-63.5" font-family="Helvetica,sans-Serif" font-size="10.00">wdlendian.h</text>
</g>
<!-- Node22&#45;&gt;Node23 -->
<g id="edge41" class="edge"><title>Node22&#45;&gt;Node23</title>
<path fill="none" stroke="midnightblue" d="M763.935,-112.083C769.929,-104.377 778.752,-93.0333 786.048,-83.6531"/>
<polygon fill="midnightblue" stroke="midnightblue" points="788.817,-85.7934 792.194,-75.7511 783.291,-81.4958 788.817,-85.7934"/>
</g>
<!-- Node24 -->
<g id="node24" class="node"><title>Node24</title>
<polygon fill="white" stroke="#bfbfbf" points="851.5,-56.5 851.5,-75.5 928.5,-75.5 928.5,-56.5 851.5,-56.5"/>
<text text-anchor="middle" x="890" y="-63.5" font-family="Helvetica,sans-Serif" font-size="10.00">wdl_base64.h</text>
</g>
<!-- Node22&#45;&gt;Node24 -->
<g id="edge42" class="edge"><title>Node22&#45;&gt;Node24</title>
<path fill="none" stroke="midnightblue" d="M778.074,-112.444C800.06,-103.517 834.734,-89.4387 859.664,-79.3168"/>
<polygon fill="midnightblue" stroke="midnightblue" points="861.076,-82.5213 869.024,-75.5164 858.442,-76.0355 861.076,-82.5213"/>
</g>
</g>
</svg>
        <g id="navigator" transform="translate(0 0)" fill="#404254">
                <rect fill="#f2f5e9" fill-opacity="0.5" stroke="#606060" stroke-width=".5" x="0" y="0" width="60" height="60"/>
                <use id="zoomplus" xlink:href="#zoomPlus" x="17" y="9" onmousedown="handleZoom(evt,'in')"/>
                <use id="zoomminus" xlink:href="#zoomMin" x="42" y="9" onmousedown="handleZoom(evt,'out')"/>
                <use id="reset" xlink:href="#resetDef" x="30" y="36" onmousedown="handleReset()"/>
                <g id="arrowUp" xlink:href="#dirArrow" transform="translate(30 24)" onmousedown="handlePan(0,-1)">
                  <use xlink:href="#rim" fill="#404040">
                        <set attributeName="fill" to="#808080" begin="arrowUp.mouseover" end="arrowUp.mouseout"/>
                  </use>
                  <path fill="none" stroke="white" stroke-width="1.5" d="M0,-3.0v7 M-2.5,-0.5L0,-3.0L2.5,-0.5"/>
                </g>
                <g id="arrowRight" xlink:href="#dirArrow" transform="rotate(90) translate(36 -43)" onmousedown="handlePan(1,0)">
                  <use xlink:href="#rim" fill="#404040">
                        <set attributeName="fill" to="#808080" begin="arrowRight.mouseover" end="arrowRight.mouseout"/>
                  </use>
                  <path fill="none" stroke="white" stroke-width="1.5" d="M0,-3.0v7 M-2.5,-0.5L0,-3.0L2.5,-0.5"/>
                </g>
                <g id="arrowDown" xlink:href="#dirArrow" transform="rotate(180) translate(-30 -48)" onmousedown="handlePan(0,1)">
                  <use xlink:href="#rim" fill="#404040">
                        <set attributeName="fill" to="#808080" begin="arrowDown.mouseover" end="arrowDown.mouseout"/>
                  </use>
                  <path fill="none" stroke="white" stroke-width="1.5" d="M0,-3.0v7 M-2.5,-0.5L0,-3.0L2.5,-0.5"/>
                </g>
                <g id="arrowLeft" xlink:href="#dirArrow" transform="rotate(270) translate(-36 17)" onmousedown="handlePan(-1,0)">
                  <use xlink:href="#rim" fill="#404040">
                        <set attributeName="fill" to="#808080" begin="arrowLeft.mouseover" end="arrowLeft.mouseout"/>
                  </use>
                  <path fill="none" stroke="white" stroke-width="1.5" d="M0,-3.0v7 M-2.5,-0.5L0,-3.0L2.5,-0.5"/>
                </g>
        </g>
        <svg viewBox="0 0 15 15" width="100%" height="30px" preserveAspectRatio="xMaxYMin meet">
         <g id="arrow_out" transform="scale(0.3 0.3)">
          <a xlink:href="_i_plug_processor_8h__incl_org.svg" target="_base">
           <rect id="button" ry="5" rx="5" y="6" x="6" height="38" width="38"
                fill="#f2f5e9" fill-opacity="0.5" stroke="#606060" stroke-width="1.0"/>
           <path id="arrow"
             d="M 11.500037,31.436501 C 11.940474,20.09759 22.043105,11.32322 32.158766,21.979434 L 37.068811,17.246167 C 37.068811,17.246167 37.088388,32 37.088388,32 L 22.160133,31.978069 C 22.160133,31.978069 26.997745,27.140456 26.997745,27.140456 C 18.528582,18.264221 13.291696,25.230495 11.500037,31.436501 z"
             style="fill:#404040;"/>
          </a>
         </g>
        </svg>
</svg>
