<?xml version="1.0" encoding="UTF-8" standalone="no"?>
<!DOCTYPE svg PUBLIC "-//W3C//DTD SVG 1.1//EN"
 "http://www.w3.org/Graphics/SVG/1.1/DTD/svg11.dtd">
<!-- Generated by graphviz version 2.36.0 (20140111.2315)
 -->
<!-- Title: IPlugVST.h Pages: 1 -->
<svg width="1117pt" height="476pt"
 viewBox="0.00 0.00 1117.00 476.00" xmlns="http://www.w3.org/2000/svg" xmlns:xlink="http://www.w3.org/1999/xlink">
<g id="graph0" class="graph" transform="scale(1 1) rotate(0) translate(4 472)">
<title>IPlugVST.h</title>
<polygon fill="white" stroke="none" points="-4,4 -4,-472 1113,-472 1113,4 -4,4"/>
<!-- Node1 -->
<g id="node1" class="node"><title>Node1</title>
<polygon fill="#bfbfbf" stroke="black" points="407.5,-448.5 407.5,-467.5 474.5,-467.5 474.5,-448.5 407.5,-448.5"/>
<text text-anchor="middle" x="441" y="-455.5" font-family="Helvetica,sans-Serif" font-size="10.00">IPlugVST.h</text>
</g>
<!-- Node2 -->
<g id="node2" class="node"><title>Node2</title>
<polygon fill="white" stroke="#bfbfbf" points="362,-392.5 362,-411.5 422,-411.5 422,-392.5 362,-392.5"/>
<text text-anchor="middle" x="392" y="-399.5" font-family="Helvetica,sans-Serif" font-size="10.00">aeffectx.h</text>
</g>
<!-- Node1&#45;&gt;Node2 -->
<g id="edge1" class="edge"><title>Node1&#45;&gt;Node2</title>
<path fill="none" stroke="midnightblue" d="M432.909,-448.083C425.845,-440.298 415.412,-428.801 406.851,-419.367"/>
<polygon fill="midnightblue" stroke="midnightblue" points="409.253,-416.805 399.941,-411.751 404.069,-421.509 409.253,-416.805"/>
</g>
<!-- Node3 -->
<g id="node3" class="node"><title>Node3</title>
<g id="a_node3"><a xlink:href="_i_plug_base__select_8h_source.html" target="_top" xlink:title="IPlugBase_select.h">
<polygon fill="white" stroke="black" points="440.5,-392.5 440.5,-411.5 541.5,-411.5 541.5,-392.5 440.5,-392.5"/>
<text text-anchor="middle" x="491" y="-399.5" font-family="Helvetica,sans-Serif" font-size="10.00">IPlugBase_select.h</text>
</a>
</g>
</g>
<!-- Node1&#45;&gt;Node3 -->
<g id="edge2" class="edge"><title>Node1&#45;&gt;Node3</title>
<path fill="none" stroke="midnightblue" d="M449.256,-448.083C456.465,-440.298 467.11,-428.801 475.846,-419.367"/>
<polygon fill="midnightblue" stroke="midnightblue" points="478.671,-421.467 482.897,-411.751 473.535,-416.711 478.671,-421.467"/>
</g>
<!-- Node4 -->
<g id="node4" class="node"><title>Node4</title>
<g id="a_node4"><a xlink:href="_i_plug_base_graphics_8h.html" target="_top" xlink:title="An IPlugBase class for an IPlug plug&#45;in that uses IGraphics for it&#39;s UI. ">
<polygon fill="white" stroke="black" points="365.5,-336.5 365.5,-355.5 474.5,-355.5 474.5,-336.5 365.5,-336.5"/>
<text text-anchor="middle" x="420" y="-343.5" font-family="Helvetica,sans-Serif" font-size="10.00">IPlugBaseGraphics.h</text>
</a>
</g>
</g>
<!-- Node3&#45;&gt;Node4 -->
<g id="edge3" class="edge"><title>Node3&#45;&gt;Node4</title>
<path fill="none" stroke="midnightblue" d="M479.593,-392.324C468.891,-384.185 452.659,-371.839 439.837,-362.087"/>
<polygon fill="midnightblue" stroke="midnightblue" points="441.693,-359.102 431.615,-355.834 437.456,-364.673 441.693,-359.102"/>
</g>
<!-- Node26 -->
<g id="node26" class="node"><title>Node26</title>
<g id="a_node26"><a xlink:href="_i_plug_processor_8h.html" target="_top" xlink:title="The base class for IPlug Audio Processing. ">
<polygon fill="white" stroke="black" points="556,-280.5 556,-299.5 648,-299.5 648,-280.5 556,-280.5"/>
<text text-anchor="middle" x="602" y="-287.5" font-family="Helvetica,sans-Serif" font-size="10.00">IPlugProcessor.h</text>
</a>
</g>
</g>
<!-- Node3&#45;&gt;Node26 -->
<g id="edge44" class="edge"><title>Node3&#45;&gt;Node26</title>
<path fill="none" stroke="midnightblue" d="M499.71,-392.368C518.352,-373.894 562.35,-330.293 586.113,-306.744"/>
<polygon fill="midnightblue" stroke="midnightblue" points="588.691,-309.117 593.33,-299.591 583.764,-304.144 588.691,-309.117"/>
</g>
<!-- Node5 -->
<g id="node5" class="node"><title>Node5</title>
<g id="a_node5"><a xlink:href="_i_plug_base_8h.html" target="_top" xlink:title="The lowest level base class of an IPlug plug&#45;in. ">
<polygon fill="white" stroke="black" points="268,-280.5 268,-299.5 338,-299.5 338,-280.5 268,-280.5"/>
<text text-anchor="middle" x="303" y="-287.5" font-family="Helvetica,sans-Serif" font-size="10.00">IPlugBase.h</text>
</a>
</g>
</g>
<!-- Node4&#45;&gt;Node5 -->
<g id="edge4" class="edge"><title>Node4&#45;&gt;Node5</title>
<path fill="none" stroke="midnightblue" d="M401.461,-336.444C382.377,-327.636 352.425,-313.812 330.564,-303.722"/>
<polygon fill="midnightblue" stroke="midnightblue" points="331.999,-300.529 321.452,-299.516 329.065,-306.885 331.999,-300.529"/>
</g>
<!-- Node6 -->
<g id="node6" class="node"><title>Node6</title>
<polygon fill="white" stroke="#bfbfbf" points="123,-0.5 123,-19.5 169,-19.5 169,-0.5 123,-0.5"/>
<text text-anchor="middle" x="146" y="-7.5" font-family="Helvetica,sans-Serif" font-size="10.00">cstring</text>
</g>
<!-- Node5&#45;&gt;Node6 -->
<g id="edge5" class="edge"><title>Node5&#45;&gt;Node6</title>
<path fill="none" stroke="midnightblue" d="M267.946,-283.88C188.187,-271.245 0,-235.453 0,-179 0,-179 0,-179 0,-121 0,-90.2048 2.22086,-77.7719 24,-56 47.8204,-32.1875 85.3132,-20.8464 112.451,-15.528"/>
<polygon fill="midnightblue" stroke="midnightblue" points="113.422,-18.9103 122.655,-13.7134 112.197,-12.0185 113.422,-18.9103"/>
</g>
<!-- Node7 -->
<g id="node7" class="node"><title>Node7</title>
<polygon fill="white" stroke="#bfbfbf" points="536,-56.5 536,-75.5 582,-75.5 582,-56.5 536,-56.5"/>
<text text-anchor="middle" x="559" y="-63.5" font-family="Helvetica,sans-Serif" font-size="10.00">cstdint</text>
</g>
<!-- Node5&#45;&gt;Node7 -->
<g id="edge6" class="edge"><title>Node5&#45;&gt;Node7</title>
<path fill="none" stroke="midnightblue" d="M306.707,-280.151C312.635,-266.781 325.303,-241.173 342,-224 394.942,-169.548 425.449,-177.841 486,-132 506.358,-116.588 528.004,-96.8375 542.39,-83.1732"/>
<polygon fill="midnightblue" stroke="midnightblue" points="545.167,-85.3598 549.958,-75.91 540.32,-80.3096 545.167,-85.3598"/>
</g>
<!-- Node8 -->
<g id="node8" class="node"><title>Node8</title>
<polygon fill="white" stroke="#bfbfbf" points="350.5,-224.5 350.5,-243.5 399.5,-243.5 399.5,-224.5 350.5,-224.5"/>
<text text-anchor="middle" x="375" y="-231.5" font-family="Helvetica,sans-Serif" font-size="10.00">ptrlist.h</text>
</g>
<!-- Node5&#45;&gt;Node8 -->
<g id="edge7" class="edge"><title>Node5&#45;&gt;Node8</title>
<path fill="none" stroke="midnightblue" d="M314.568,-280.324C325.42,-272.185 341.881,-259.839 354.883,-250.087"/>
<polygon fill="midnightblue" stroke="midnightblue" points="357.321,-252.634 363.221,-243.834 353.121,-247.034 357.321,-252.634"/>
</g>
<!-- Node9 -->
<g id="node9" class="node"><title>Node9</title>
<polygon fill="white" stroke="#bfbfbf" points="66,-56.5 66,-75.5 118,-75.5 118,-56.5 66,-56.5"/>
<text text-anchor="middle" x="92" y="-63.5" font-family="Helvetica,sans-Serif" font-size="10.00">mutex.h</text>
</g>
<!-- Node5&#45;&gt;Node9 -->
<g id="edge8" class="edge"><title>Node5&#45;&gt;Node9</title>
<path fill="none" stroke="midnightblue" d="M279.727,-280.383C260.639,-272.635 233.516,-260.019 213,-244 161.324,-203.653 150.589,-188.303 117,-132 108.289,-117.399 101.605,-99.2251 97.3487,-85.8099"/>
<polygon fill="midnightblue" stroke="midnightblue" points="100.584,-84.4129 94.3538,-75.8431 93.8797,-86.4274 100.584,-84.4129"/>
</g>
<!-- Node10 -->
<g id="node10" class="node"><title>Node10</title>
<g id="a_node10"><a xlink:href="_i_plug_platform_8h.html" target="_top" xlink:title="Include to get consistently named preprocessor macros for different platforms and logging functionali...">
<polygon fill="white" stroke="black" points="280,-168.5 280,-187.5 364,-187.5 364,-168.5 280,-168.5"/>
<text text-anchor="middle" x="322" y="-175.5" font-family="Helvetica,sans-Serif" font-size="10.00">IPlugPlatform.h</text>
</a>
</g>
</g>
<!-- Node5&#45;&gt;Node10 -->
<g id="edge9" class="edge"><title>Node5&#45;&gt;Node10</title>
<path fill="none" stroke="midnightblue" d="M303.054,-280.085C303.274,-267.482 304.211,-243.787 308,-224 309.712,-215.06 312.58,-205.392 315.276,-197.317"/>
<polygon fill="midnightblue" stroke="midnightblue" points="318.602,-198.409 318.609,-187.814 311.996,-196.092 318.602,-198.409"/>
</g>
<!-- Node18 -->
<g id="node18" class="node"><title>Node18</title>
<g id="a_node18"><a xlink:href="_i_plug_utilities_8h.html" target="_top" xlink:title="Utility functions and macros. ">
<polygon fill="white" stroke="black" points="294,-56.5 294,-75.5 374,-75.5 374,-56.5 294,-56.5"/>
<text text-anchor="middle" x="334" y="-63.5" font-family="Helvetica,sans-Serif" font-size="10.00">IPlugUtilities.h</text>
</a>
</g>
</g>
<!-- Node5&#45;&gt;Node18 -->
<g id="edge39" class="edge"><title>Node5&#45;&gt;Node18</title>
<path fill="none" stroke="midnightblue" d="M297.539,-280.459C285.561,-260.635 258.978,-209.988 271,-168 280.471,-134.92 304.272,-102.146 319.756,-83.2731"/>
<polygon fill="midnightblue" stroke="midnightblue" points="322.432,-85.5294 326.204,-75.6288 317.081,-81.0161 322.432,-85.5294"/>
</g>
<!-- Node21 -->
<g id="node21" class="node"><title>Node21</title>
<g id="a_node21"><a xlink:href="_i_plug_constants_8h.html" target="_top" xlink:title="Constant definitions, magic numbers. ">
<polygon fill="white" stroke="black" points="987,-0.5 987,-19.5 1079,-19.5 1079,-0.5 987,-0.5"/>
<text text-anchor="middle" x="1033" y="-7.5" font-family="Helvetica,sans-Serif" font-size="10.00">IPlugConstants.h</text>
</a>
</g>
</g>
<!-- Node5&#45;&gt;Node21 -->
<g id="edge28" class="edge"><title>Node5&#45;&gt;Node21</title>
<path fill="none" stroke="midnightblue" d="M338.047,-285.801C438.125,-275.578 731.953,-237.915 949,-132 989.324,-112.323 1011.83,-115.56 1033,-76 1040.57,-61.8531 1039.73,-43.3692 1037.49,-29.7302"/>
<polygon fill="midnightblue" stroke="midnightblue" points="1040.85,-28.715 1035.43,-19.6146 1034,-30.1119 1040.85,-28.715"/>
</g>
<!-- Node22 -->
<g id="node22" class="node"><title>Node22</title>
<g id="a_node22"><a xlink:href="_i_plug_structs_8h_source.html" target="_top" xlink:title="IPlugStructs.h">
<polygon fill="white" stroke="black" points="494.5,-224.5 494.5,-243.5 573.5,-243.5 573.5,-224.5 494.5,-224.5"/>
<text text-anchor="middle" x="534" y="-231.5" font-family="Helvetica,sans-Serif" font-size="10.00">IPlugStructs.h</text>
</a>
</g>
</g>
<!-- Node5&#45;&gt;Node22 -->
<g id="edge29" class="edge"><title>Node5&#45;&gt;Node22</title>
<path fill="none" stroke="midnightblue" d="M338.084,-280.799C378.013,-271.465 443.396,-256.18 487.534,-245.862"/>
<polygon fill="midnightblue" stroke="midnightblue" points="488.498,-249.231 497.439,-243.547 486.905,-242.415 488.498,-249.231"/>
</g>
<!-- Node25 -->
<g id="node25" class="node"><title>Node25</title>
<g id="a_node25"><a xlink:href="_i_plug_parameter_8h_source.html" target="_top" xlink:title="IPlugParameter.h">
<polygon fill="white" stroke="black" points="126,-112.5 126,-131.5 218,-131.5 218,-112.5 126,-112.5"/>
<text text-anchor="middle" x="172" y="-119.5" font-family="Helvetica,sans-Serif" font-size="10.00">IPlugParameter.h</text>
</a>
</g>
</g>
<!-- Node5&#45;&gt;Node25 -->
<g id="edge40" class="edge"><title>Node5&#45;&gt;Node25</title>
<path fill="none" stroke="midnightblue" d="M283.784,-280.456C268.216,-272.752 246.551,-260.158 232,-244 204.117,-213.037 186.033,-166.757 177.58,-141.343"/>
<polygon fill="midnightblue" stroke="midnightblue" points="180.83,-140.015 174.459,-131.549 174.16,-142.14 180.83,-140.015"/>
</g>
<!-- Node11 -->
<g id="node11" class="node"><title>Node11</title>
<g id="a_node11"><a xlink:href="_i_plug_logger_8h.html" target="_top" xlink:title="IPlug Logging functionailty To trace some arbitrary data: Trace(TRACELOC, &quot;%s:%d&quot;, myStr, myInt); To simply create a trace entry in the log: TRACE; No need to wrap tracer calls in #ifdef TRACER_BUILD because Trace is a no&#45;op unless TRACER_BUILD is defined. ">
<polygon fill="white" stroke="black" points="400.5,-112.5 400.5,-131.5 477.5,-131.5 477.5,-112.5 400.5,-112.5"/>
<text text-anchor="middle" x="439" y="-119.5" font-family="Helvetica,sans-Serif" font-size="10.00">IPlugLogger.h</text>
</a>
</g>
</g>
<!-- Node10&#45;&gt;Node11 -->
<g id="edge10" class="edge"><title>Node10&#45;&gt;Node11</title>
<path fill="none" stroke="midnightblue" d="M340.539,-168.444C359.623,-159.636 389.575,-145.812 411.436,-135.722"/>
<polygon fill="midnightblue" stroke="midnightblue" points="412.935,-138.885 420.548,-131.516 410.001,-132.529 412.935,-138.885"/>
</g>
<!-- Node11&#45;&gt;Node6 -->
<g id="edge15" class="edge"><title>Node11&#45;&gt;Node6</title>
<path fill="none" stroke="midnightblue" d="M402.209,-112.459C370.564,-104.594 323.991,-91.772 285,-76 267.307,-68.8432 264.17,-64.3325 247,-56 223.253,-44.4761 195.879,-32.3495 175.624,-23.5921"/>
<polygon fill="midnightblue" stroke="midnightblue" points="176.869,-20.3176 166.3,-19.5811 174.103,-26.7479 176.869,-20.3176"/>
</g>
<!-- Node11&#45;&gt;Node7 -->
<g id="edge14" class="edge"><title>Node11&#45;&gt;Node7</title>
<path fill="none" stroke="midnightblue" d="M458.014,-112.444C477.588,-103.636 508.308,-89.8116 530.729,-79.722"/>
<polygon fill="midnightblue" stroke="midnightblue" points="532.392,-82.8119 540.075,-75.5164 529.519,-76.4284 532.392,-82.8119"/>
</g>
<!-- Node11&#45;&gt;Node9 -->
<g id="edge19" class="edge"><title>Node11&#45;&gt;Node9</title>
<path fill="none" stroke="midnightblue" d="M400.205,-114.963C332.552,-104.435 193.946,-82.8649 128.176,-72.6297"/>
<polygon fill="midnightblue" stroke="midnightblue" points="128.687,-69.1672 118.268,-71.0878 127.61,-76.0839 128.687,-69.1672"/>
</g>
<!-- Node12 -->
<g id="node12" class="node"><title>Node12</title>
<polygon fill="white" stroke="#bfbfbf" points="493.5,-0.5 493.5,-19.5 536.5,-19.5 536.5,-0.5 493.5,-0.5"/>
<text text-anchor="middle" x="515" y="-7.5" font-family="Helvetica,sans-Serif" font-size="10.00">cstdio</text>
</g>
<!-- Node11&#45;&gt;Node12 -->
<g id="edge11" class="edge"><title>Node11&#45;&gt;Node12</title>
<path fill="none" stroke="midnightblue" d="M451.279,-112.201C462.139,-103.896 477.799,-90.5708 488,-76 498.065,-61.6246 505.334,-42.9227 509.777,-29.2722"/>
<polygon fill="midnightblue" stroke="midnightblue" points="513.161,-30.1731 512.733,-19.5869 506.466,-28.1293 513.161,-30.1731"/>
</g>
<!-- Node13 -->
<g id="node13" class="node"><title>Node13</title>
<polygon fill="white" stroke="#bfbfbf" points="367,-0.5 367,-19.5 413,-19.5 413,-0.5 367,-0.5"/>
<text text-anchor="middle" x="390" y="-7.5" font-family="Helvetica,sans-Serif" font-size="10.00">cctype</text>
</g>
<!-- Node11&#45;&gt;Node13 -->
<g id="edge12" class="edge"><title>Node11&#45;&gt;Node13</title>
<path fill="none" stroke="midnightblue" d="M435.155,-112.368C427.176,-94.4563 408.675,-52.9233 397.995,-28.9482"/>
<polygon fill="midnightblue" stroke="midnightblue" points="401.093,-27.3019 393.827,-19.5914 394.699,-30.1503 401.093,-27.3019"/>
</g>
<!-- Node14 -->
<g id="node14" class="node"><title>Node14</title>
<polygon fill="white" stroke="#bfbfbf" points="430.5,-56.5 430.5,-75.5 479.5,-75.5 479.5,-56.5 430.5,-56.5"/>
<text text-anchor="middle" x="455" y="-63.5" font-family="Helvetica,sans-Serif" font-size="10.00">cstdarg</text>
</g>
<!-- Node11&#45;&gt;Node14 -->
<g id="edge13" class="edge"><title>Node11&#45;&gt;Node14</title>
<path fill="none" stroke="midnightblue" d="M441.642,-112.083C443.786,-104.849 446.879,-94.4087 449.549,-85.3968"/>
<polygon fill="midnightblue" stroke="midnightblue" points="452.922,-86.3334 452.407,-75.7511 446.21,-84.3447 452.922,-86.3334"/>
</g>
<!-- Node15 -->
<g id="node15" class="node"><title>Node15</title>
<polygon fill="white" stroke="#bfbfbf" points="600.5,-56.5 600.5,-75.5 641.5,-75.5 641.5,-56.5 600.5,-56.5"/>
<text text-anchor="middle" x="621" y="-63.5" font-family="Helvetica,sans-Serif" font-size="10.00">ctime</text>
</g>
<!-- Node11&#45;&gt;Node15 -->
<g id="edge16" class="edge"><title>Node11&#45;&gt;Node15</title>
<path fill="none" stroke="midnightblue" d="M467.866,-112.488C496.537,-104.026 542.004,-90.587 590.591,-76.1141"/>
<polygon fill="midnightblue" stroke="midnightblue" points="591.762,-79.4172 600.346,-73.2069 589.763,-72.7088 591.762,-79.4172"/>
</g>
<!-- Node16 -->
<g id="node16" class="node"><title>Node16</title>
<polygon fill="white" stroke="#bfbfbf" points="659.5,-56.5 659.5,-75.5 708.5,-75.5 708.5,-56.5 659.5,-56.5"/>
<text text-anchor="middle" x="684" y="-63.5" font-family="Helvetica,sans-Serif" font-size="10.00">cassert</text>
</g>
<!-- Node11&#45;&gt;Node16 -->
<g id="edge17" class="edge"><title>Node11&#45;&gt;Node16</title>
<path fill="none" stroke="midnightblue" d="M477.629,-113.349C517.966,-105.229 583.297,-91.7151 649.03,-76.1408"/>
<polygon fill="midnightblue" stroke="midnightblue" points="650.238,-79.451 659.153,-73.7264 648.614,-72.6419 650.238,-79.451"/>
</g>
<!-- Node17 -->
<g id="node17" class="node"><title>Node17</title>
<polygon fill="white" stroke="#bfbfbf" points="174,-56.5 174,-75.5 238,-75.5 238,-56.5 174,-56.5"/>
<text text-anchor="middle" x="206" y="-63.5" font-family="Helvetica,sans-Serif" font-size="10.00">wdlstring.h</text>
</g>
<!-- Node11&#45;&gt;Node17 -->
<g id="edge18" class="edge"><title>Node11&#45;&gt;Node17</title>
<path fill="none" stroke="midnightblue" d="M402.08,-112.444C360.176,-102.732 291.959,-86.9218 248.041,-76.7435"/>
<polygon fill="midnightblue" stroke="midnightblue" points="248.777,-73.3212 238.245,-74.473 247.196,-80.1405 248.777,-73.3212"/>
</g>
<!-- Node11&#45;&gt;Node18 -->
<g id="edge20" class="edge"><title>Node11&#45;&gt;Node18</title>
<path fill="none" stroke="midnightblue" d="M422.13,-112.324C405.291,-103.664 379.193,-90.2424 359.762,-80.249"/>
<polygon fill="midnightblue" stroke="midnightblue" points="361.322,-77.1155 350.828,-75.6545 358.12,-83.3405 361.322,-77.1155"/>
</g>
<!-- Node18&#45;&gt;Node6 -->
<g id="edge24" class="edge"><title>Node18&#45;&gt;Node6</title>
<path fill="none" stroke="midnightblue" d="M304.211,-56.4435C270.098,-46.6451 214.373,-30.6391 178.978,-20.4723"/>
<polygon fill="midnightblue" stroke="midnightblue" points="179.708,-17.0407 169.13,-17.6439 177.776,-23.7686 179.708,-17.0407"/>
</g>
<!-- Node18&#45;&gt;Node10 -->
<g id="edge27" class="edge"><title>Node18&#45;&gt;Node10</title>
<path fill="none" stroke="midnightblue" d="M333.063,-75.5914C331.13,-93.3079 326.663,-134.254 324.035,-158.348"/>
<polygon fill="midnightblue" stroke="midnightblue" points="320.547,-158.048 322.942,-168.368 327.506,-158.807 320.547,-158.048"/>
</g>
<!-- Node18&#45;&gt;Node12 -->
<g id="edge22" class="edge"><title>Node18&#45;&gt;Node12</title>
<path fill="none" stroke="midnightblue" d="M362.68,-56.4435C395.563,-46.6333 449.302,-30.6004 483.374,-20.4355"/>
<polygon fill="midnightblue" stroke="midnightblue" points="484.689,-23.6955 493.271,-17.4826 482.688,-16.9877 484.689,-23.6955"/>
</g>
<!-- Node18&#45;&gt;Node13 -->
<g id="edge25" class="edge"><title>Node18&#45;&gt;Node13</title>
<path fill="none" stroke="midnightblue" d="M342.997,-56.324C351.194,-48.4196 363.506,-36.5482 373.472,-26.9377"/>
<polygon fill="midnightblue" stroke="midnightblue" points="376.07,-29.2947 380.839,-19.8339 371.211,-24.2558 376.07,-29.2947"/>
</g>
<!-- Node19 -->
<g id="node19" class="node"><title>Node19</title>
<polygon fill="white" stroke="#bfbfbf" points="431,-0.5 431,-19.5 475,-19.5 475,-0.5 431,-0.5"/>
<text text-anchor="middle" x="453" y="-7.5" font-family="Helvetica,sans-Serif" font-size="10.00">cmath</text>
</g>
<!-- Node18&#45;&gt;Node19 -->
<g id="edge21" class="edge"><title>Node18&#45;&gt;Node19</title>
<path fill="none" stroke="midnightblue" d="M352.856,-56.4435C372.266,-47.6356 402.73,-33.8116 424.965,-23.722"/>
<polygon fill="midnightblue" stroke="midnightblue" points="426.572,-26.836 434.232,-19.5164 423.68,-20.4615 426.572,-26.836"/>
</g>
<!-- Node20 -->
<g id="node20" class="node"><title>Node20</title>
<polygon fill="white" stroke="#bfbfbf" points="303.5,-0.5 303.5,-19.5 348.5,-19.5 348.5,-0.5 303.5,-0.5"/>
<text text-anchor="middle" x="326" y="-7.5" font-family="Helvetica,sans-Serif" font-size="10.00">cstdlib</text>
</g>
<!-- Node18&#45;&gt;Node20 -->
<g id="edge23" class="edge"><title>Node18&#45;&gt;Node20</title>
<path fill="none" stroke="midnightblue" d="M332.679,-56.083C331.619,-48.9272 330.094,-38.6353 328.769,-29.6911"/>
<polygon fill="midnightblue" stroke="midnightblue" points="332.224,-29.1302 327.296,-19.7511 325.3,-30.1561 332.224,-29.1302"/>
</g>
<!-- Node18&#45;&gt;Node21 -->
<g id="edge26" class="edge"><title>Node18&#45;&gt;Node21</title>
<path fill="none" stroke="midnightblue" d="M374.281,-60.6376C389.256,-59.0798 406.396,-57.3723 422,-56 626.261,-38.0366 869.374,-21.609 976.99,-14.591"/>
<polygon fill="midnightblue" stroke="midnightblue" points="977.224,-18.0833 986.976,-13.9415 976.769,-11.098 977.224,-18.0833"/>
</g>
<!-- Node22&#45;&gt;Node10 -->
<g id="edge33" class="edge"><title>Node22&#45;&gt;Node10</title>
<path fill="none" stroke="midnightblue" d="M500.408,-224.444C463.813,-215.122 405.162,-200.183 365.174,-189.997"/>
<polygon fill="midnightblue" stroke="midnightblue" points="365.989,-186.593 355.435,-187.516 364.261,-193.377 365.989,-186.593"/>
</g>
<!-- Node22&#45;&gt;Node17 -->
<g id="edge31" class="edge"><title>Node22&#45;&gt;Node17</title>
<path fill="none" stroke="midnightblue" d="M516.827,-224.309C462.915,-197.024 296.786,-112.947 232.129,-80.2239"/>
<polygon fill="midnightblue" stroke="midnightblue" points="233.506,-76.9979 223.003,-75.6051 230.345,-83.2436 233.506,-76.9979"/>
</g>
<!-- Node22&#45;&gt;Node21 -->
<g id="edge32" class="edge"><title>Node22&#45;&gt;Node21</title>
<path fill="none" stroke="midnightblue" d="M573.7,-224.892C676.848,-203.087 949.693,-140.472 1013,-76 1025.01,-63.7687 1029.83,-44.5041 1031.75,-30.1181"/>
<polygon fill="midnightblue" stroke="midnightblue" points="1035.27,-30.1471 1032.76,-19.8542 1028.3,-29.4665 1035.27,-30.1471"/>
</g>
<!-- Node23 -->
<g id="node23" class="node"><title>Node23</title>
<polygon fill="white" stroke="#bfbfbf" points="480,-168.5 480,-187.5 536,-187.5 536,-168.5 480,-168.5"/>
<text text-anchor="middle" x="508" y="-175.5" font-family="Helvetica,sans-Serif" font-size="10.00">algorithm</text>
</g>
<!-- Node22&#45;&gt;Node23 -->
<g id="edge30" class="edge"><title>Node22&#45;&gt;Node23</title>
<path fill="none" stroke="midnightblue" d="M529.707,-224.083C526.148,-216.691 520.978,-205.953 516.576,-196.811"/>
<polygon fill="midnightblue" stroke="midnightblue" points="519.705,-195.243 512.213,-187.751 513.398,-198.279 519.705,-195.243"/>
</g>
<!-- Node24 -->
<g id="node24" class="node"><title>Node24</title>
<g id="a_node24"><a xlink:href="_i_plug_midi_8h_source.html" target="_top" xlink:title="IPlugMidi.h">
<polygon fill="white" stroke="black" points="534.5,-112.5 534.5,-131.5 599.5,-131.5 599.5,-112.5 534.5,-112.5"/>
<text text-anchor="middle" x="567" y="-119.5" font-family="Helvetica,sans-Serif" font-size="10.00">IPlugMidi.h</text>
</a>
</g>
</g>
<!-- Node22&#45;&gt;Node24 -->
<g id="edge34" class="edge"><title>Node22&#45;&gt;Node24</title>
<path fill="none" stroke="midnightblue" d="M536.589,-224.368C541.939,-206.537 554.311,-165.295 561.518,-141.272"/>
<polygon fill="midnightblue" stroke="midnightblue" points="564.901,-142.175 564.423,-131.591 558.197,-140.164 564.901,-142.175"/>
</g>
<!-- Node24&#45;&gt;Node7 -->
<g id="edge36" class="edge"><title>Node24&#45;&gt;Node7</title>
<path fill="none" stroke="midnightblue" d="M565.679,-112.083C564.619,-104.927 563.094,-94.6353 561.769,-85.6911"/>
<polygon fill="midnightblue" stroke="midnightblue" points="565.224,-85.1302 560.296,-75.7511 558.3,-86.1561 565.224,-85.1302"/>
</g>
<!-- Node24&#45;&gt;Node16 -->
<g id="edge35" class="edge"><title>Node24&#45;&gt;Node16</title>
<path fill="none" stroke="midnightblue" d="M585.539,-112.444C604.623,-103.636 634.575,-89.8116 656.436,-79.722"/>
<polygon fill="midnightblue" stroke="midnightblue" points="657.935,-82.8849 665.548,-75.5164 655.001,-76.5292 657.935,-82.8849"/>
</g>
<!-- Node24&#45;&gt;Node18 -->
<g id="edge38" class="edge"><title>Node24&#45;&gt;Node18</title>
<path fill="none" stroke="midnightblue" d="M534.111,-113.378C494.109,-104.107 426.312,-88.3942 380.859,-77.8599"/>
<polygon fill="midnightblue" stroke="midnightblue" points="381.483,-74.4119 370.951,-75.5637 379.902,-81.2311 381.483,-74.4119"/>
</g>
<!-- Node24&#45;&gt;Node21 -->
<g id="edge37" class="edge"><title>Node24&#45;&gt;Node21</title>
<path fill="none" stroke="midnightblue" d="M599.586,-112.781C649.535,-100.235 748.063,-75.6879 832,-56 883.673,-43.8798 942.992,-30.6874 983.722,-21.7401"/>
<polygon fill="midnightblue" stroke="midnightblue" points="984.643,-25.1214 993.661,-19.56 983.143,-18.284 984.643,-25.1214"/>
</g>
<!-- Node25&#45;&gt;Node6 -->
<g id="edge41" class="edge"><title>Node25&#45;&gt;Node6</title>
<path fill="none" stroke="midnightblue" d="M169.96,-112.368C165.764,-94.617 156.085,-53.6664 150.396,-29.5974"/>
<polygon fill="midnightblue" stroke="midnightblue" points="153.737,-28.5182 148.031,-19.5914 146.925,-30.1284 153.737,-28.5182"/>
</g>
<!-- Node25&#45;&gt;Node17 -->
<g id="edge42" class="edge"><title>Node25&#45;&gt;Node17</title>
<path fill="none" stroke="midnightblue" d="M177.614,-112.083C182.367,-104.534 189.318,-93.4948 195.152,-84.2298"/>
<polygon fill="midnightblue" stroke="midnightblue" points="198.124,-86.0783 200.49,-75.7511 192.2,-82.3486 198.124,-86.0783"/>
</g>
<!-- Node25&#45;&gt;Node18 -->
<g id="edge43" class="edge"><title>Node25&#45;&gt;Node18</title>
<path fill="none" stroke="midnightblue" d="M197.669,-112.444C224.923,-103.359 268.184,-88.9388 298.651,-78.7831"/>
<polygon fill="midnightblue" stroke="midnightblue" points="300.071,-81.9992 308.451,-75.5164 297.857,-75.3584 300.071,-81.9992"/>
</g>
<!-- Node26&#45;&gt;Node6 -->
<g id="edge45" class="edge"><title>Node26&#45;&gt;Node6</title>
<path fill="none" stroke="midnightblue" d="M560.567,-280.442C527.665,-272.918 480.888,-260.577 442,-244 425.872,-237.125 424.186,-230.736 408,-224 349.876,-199.812 331.091,-206.777 271,-188 201.486,-166.278 179.094,-170.058 117,-132 80.3079,-109.511 34.4571,-92.6588 57,-56 69.1812,-36.1912 93.0781,-24.7813 113.045,-18.4097"/>
<polygon fill="midnightblue" stroke="midnightblue" points="114.123,-21.7414 122.753,-15.5956 112.174,-15.0182 114.123,-21.7414"/>
</g>
<!-- Node26&#45;&gt;Node7 -->
<g id="edge46" class="edge"><title>Node26&#45;&gt;Node7</title>
<path fill="none" stroke="midnightblue" d="M605.6,-280.222C609.056,-271.285 614.033,-256.942 616,-244 624.83,-185.893 635.396,-163.999 608,-112 601.671,-99.9869 590.821,-89.5172 580.937,-81.7068"/>
<polygon fill="midnightblue" stroke="midnightblue" points="582.756,-78.6986 572.638,-75.5558 578.588,-84.3223 582.756,-78.6986"/>
</g>
<!-- Node26&#45;&gt;Node8 -->
<g id="edge47" class="edge"><title>Node26&#45;&gt;Node8</title>
<path fill="none" stroke="midnightblue" d="M566.031,-280.444C523.068,-270.223 451.714,-253.249 409.439,-243.192"/>
<polygon fill="midnightblue" stroke="midnightblue" points="410.145,-239.763 399.607,-240.854 408.525,-246.573 410.145,-239.763"/>
</g>
<!-- Node26&#45;&gt;Node10 -->
<g id="edge48" class="edge"><title>Node26&#45;&gt;Node10</title>
<path fill="none" stroke="midnightblue" d="M578.736,-280.417C555.204,-271.633 517.856,-257.406 486,-244 466.201,-235.668 461.846,-232.22 442,-224 413.273,-212.101 380.151,-199.783 355.992,-191.05"/>
<polygon fill="midnightblue" stroke="midnightblue" points="357.146,-187.746 346.552,-187.655 354.777,-194.333 357.146,-187.746"/>
</g>
<!-- Node26&#45;&gt;Node18 -->
<g id="edge51" class="edge"><title>Node26&#45;&gt;Node18</title>
<path fill="none" stroke="midnightblue" d="M600.802,-280.406C597.12,-257.59 583.702,-195.37 544,-168 486.842,-128.595 451.638,-167.539 392,-132 371.988,-120.075 355.06,-98.9684 344.75,-84.0464"/>
<polygon fill="midnightblue" stroke="midnightblue" points="347.657,-82.0969 339.218,-75.6919 341.821,-85.962 347.657,-82.0969"/>
</g>
<!-- Node26&#45;&gt;Node21 -->
<g id="edge49" class="edge"><title>Node26&#45;&gt;Node21</title>
<path fill="none" stroke="midnightblue" d="M648.337,-288.735C773.496,-286.778 1109,-272.784 1109,-179 1109,-179 1109,-179 1109,-121 1109,-90.2048 1102.53,-81.3191 1085,-56 1076.82,-44.1903 1064.85,-33.5418 1054.45,-25.5714"/>
<polygon fill="midnightblue" stroke="midnightblue" points="1056.34,-22.6188 1046.2,-19.5395 1052.21,-28.2685 1056.34,-22.6188"/>
</g>
<!-- Node26&#45;&gt;Node22 -->
<g id="edge50" class="edge"><title>Node26&#45;&gt;Node22</title>
<path fill="none" stroke="midnightblue" d="M591.075,-280.324C580.825,-272.185 565.279,-259.839 552.999,-250.087"/>
<polygon fill="midnightblue" stroke="midnightblue" points="555.132,-247.312 545.124,-243.834 550.779,-252.794 555.132,-247.312"/>
</g>
<!-- Node27 -->
<g id="node27" class="node"><title>Node27</title>
<g id="a_node27"><a xlink:href="_n_chan_delay_8h_source.html" target="_top" xlink:title="NChanDelay.h">
<polygon fill="white" stroke="black" points="762.5,-224.5 762.5,-243.5 843.5,-243.5 843.5,-224.5 762.5,-224.5"/>
<text text-anchor="middle" x="803" y="-231.5" font-family="Helvetica,sans-Serif" font-size="10.00">NChanDelay.h</text>
</a>
</g>
</g>
<!-- Node26&#45;&gt;Node27 -->
<g id="edge52" class="edge"><title>Node26&#45;&gt;Node27</title>
<path fill="none" stroke="midnightblue" d="M633.849,-280.444C668.398,-271.162 723.682,-256.309 761.583,-246.127"/>
<polygon fill="midnightblue" stroke="midnightblue" points="762.551,-249.491 771.3,-243.516 760.734,-242.731 762.551,-249.491"/>
</g>
<!-- Node28 -->
<g id="node28" class="node"><title>Node28</title>
<g id="a_node28"><a xlink:href="_i_plug_processor_8cpp_source.html" target="_top" xlink:title="IPlugProcessor.cpp">
<polygon fill="white" stroke="black" points="706,-112.5 706,-131.5 808,-131.5 808,-112.5 706,-112.5"/>
<text text-anchor="middle" x="757" y="-119.5" font-family="Helvetica,sans-Serif" font-size="10.00">IPlugProcessor.cpp</text>
</a>
</g>
</g>
<!-- Node26&#45;&gt;Node28 -->
<g id="edge53" class="edge"><title>Node26&#45;&gt;Node28</title>
<path fill="none" stroke="midnightblue" d="M621.596,-280.458C639.459,-273.237 665.204,-261.282 683,-244 713.672,-214.214 733.265,-166.797 745.344,-141.056"/>
<polygon fill="midnightblue" stroke="midnightblue" points="748.646,-142.272 749.918,-131.754 742.364,-139.184 748.646,-142.272"/>
</g>
<!-- Node28&#45;&gt;Node12 -->
<g id="edge55" class="edge"><title>Node28&#45;&gt;Node12</title>
<path fill="none" stroke="midnightblue" d="M759.17,-112.131C761.984,-98.2629 765.017,-71.4378 751,-56 724.076,-26.3479 604.733,-15.8599 546.786,-12.4704"/>
<polygon fill="midnightblue" stroke="midnightblue" points="546.893,-8.97107 536.716,-11.917 546.509,-15.9605 546.893,-8.97107"/>
</g>
<!-- Node28&#45;&gt;Node15 -->
<g id="edge56" class="edge"><title>Node28&#45;&gt;Node15</title>
<path fill="none" stroke="midnightblue" d="M735.45,-112.444C712.704,-103.412 676.676,-89.1067 651.125,-78.9612"/>
<polygon fill="midnightblue" stroke="midnightblue" points="652.144,-75.6004 641.559,-75.1629 649.561,-82.1063 652.144,-75.6004"/>
</g>
<!-- Node28&#45;&gt;Node16 -->
<g id="edge57" class="edge"><title>Node28&#45;&gt;Node16</title>
<path fill="none" stroke="midnightblue" d="M745.271,-112.324C734.163,-104.107 717.258,-91.6017 704.017,-81.8069"/>
<polygon fill="midnightblue" stroke="midnightblue" points="706.063,-78.9671 695.942,-75.8339 701.9,-84.5948 706.063,-78.9671"/>
</g>
<!-- Node28&#45;&gt;Node19 -->
<g id="edge54" class="edge"><title>Node28&#45;&gt;Node19</title>
<path fill="none" stroke="midnightblue" d="M754.268,-112.138C749.341,-97.7729 737.526,-69.6409 717,-56 632.726,0.00507049 589.615,-39.5995 485.25,-19.6834"/>
<polygon fill="midnightblue" stroke="midnightblue" points="485.793,-16.2219 475.294,-17.6394 484.385,-23.0789 485.793,-16.2219"/>
</g>
<!-- Node28&#45;&gt;Node26 -->
<g id="edge60" class="edge"><title>Node28&#45;&gt;Node26</title>
<path fill="none" stroke="midnightblue" d="M758.809,-131.754C756.453,-153.396 735.898,-210.11 701,-244 685.846,-258.717 664.927,-269.571 646.123,-276.927"/>
<polygon fill="midnightblue" stroke="midnightblue" points="644.701,-273.721 636.524,-280.458 647.117,-280.291 644.701,-273.721"/>
</g>
<!-- Node29 -->
<g id="node29" class="node"><title>Node29</title>
<polygon fill="white" stroke="#bfbfbf" points="841,-56.5 841,-75.5 909,-75.5 909,-56.5 841,-56.5"/>
<text text-anchor="middle" x="875" y="-63.5" font-family="Helvetica,sans-Serif" font-size="10.00">wdlendian.h</text>
</g>
<!-- Node28&#45;&gt;Node29 -->
<g id="edge58" class="edge"><title>Node28&#45;&gt;Node29</title>
<path fill="none" stroke="midnightblue" d="M775.697,-112.444C794.944,-103.636 825.152,-89.8116 847.2,-79.722"/>
<polygon fill="midnightblue" stroke="midnightblue" points="848.753,-82.8603 856.39,-75.5164 845.84,-76.4951 848.753,-82.8603"/>
</g>
<!-- Node30 -->
<g id="node30" class="node"><title>Node30</title>
<polygon fill="white" stroke="#bfbfbf" points="927.5,-56.5 927.5,-75.5 1004.5,-75.5 1004.5,-56.5 927.5,-56.5"/>
<text text-anchor="middle" x="966" y="-63.5" font-family="Helvetica,sans-Serif" font-size="10.00">wdl_base64.h</text>
</g>
<!-- Node28&#45;&gt;Node30 -->
<g id="edge59" class="edge"><title>Node28&#45;&gt;Node30</title>
<path fill="none" stroke="midnightblue" d="M790.117,-112.444C826.118,-103.142 883.77,-88.246 923.186,-78.062"/>
<polygon fill="midnightblue" stroke="midnightblue" points="924.232,-81.4068 933.038,-75.5164 922.481,-74.6294 924.232,-81.4068"/>
</g>
</g>
</svg>
