<?xml version="1.0" encoding="UTF-8" standalone="no"?>
<!DOCTYPE svg PUBLIC "-//W3C//DTD SVG 1.1//EN"
 "http://www.w3.org/Graphics/SVG/1.1/DTD/svg11.dtd">
<!-- Generated by graphviz version 2.36.0 (20140111.2315)
 -->
<!-- Title: IPlugAU.h Pages: 1 -->
<svg width="1475pt" height="476pt"
 viewBox="0.00 0.00 1475.00 476.00" xmlns="http://www.w3.org/2000/svg" xmlns:xlink="http://www.w3.org/1999/xlink">
<g id="graph0" class="graph" transform="scale(1 1) rotate(0) translate(4 472)">
<title>IPlugAU.h</title>
<polygon fill="white" stroke="none" points="-4,4 -4,-472 1471,-472 1471,4 -4,4"/>
<!-- Node1 -->
<g id="node1" class="node"><title>Node1</title>
<polygon fill="#bfbfbf" stroke="black" points="455,-448.5 455,-467.5 517,-467.5 517,-448.5 455,-448.5"/>
<text text-anchor="middle" x="486" y="-455.5" font-family="Helvetica,sans-Serif" font-size="10.00">IPlugAU.h</text>
</g>
<!-- Node2 -->
<g id="node2" class="node"><title>Node2</title>
<polygon fill="white" stroke="#bfbfbf" points="0,-392.5 0,-411.5 146,-411.5 146,-392.5 0,-392.5"/>
<text text-anchor="middle" x="73" y="-399.5" font-family="Helvetica,sans-Serif" font-size="10.00">CoreServices/CoreServices.h</text>
</g>
<!-- Node1&#45;&gt;Node2 -->
<g id="edge1" class="edge"><title>Node1&#45;&gt;Node2</title>
<path fill="none" stroke="midnightblue" d="M454.958,-452.941C390.316,-444.489 239.678,-424.793 148.075,-412.816"/>
<polygon fill="midnightblue" stroke="midnightblue" points="148.399,-409.329 138.03,-411.503 147.492,-416.27 148.399,-409.329"/>
</g>
<!-- Node3 -->
<g id="node3" class="node"><title>Node3</title>
<polygon fill="white" stroke="#bfbfbf" points="164.5,-392.5 164.5,-411.5 299.5,-411.5 299.5,-392.5 164.5,-392.5"/>
<text text-anchor="middle" x="232" y="-399.5" font-family="Helvetica,sans-Serif" font-size="10.00">AudioUnit/AUComponent.h</text>
</g>
<!-- Node1&#45;&gt;Node3 -->
<g id="edge2" class="edge"><title>Node1&#45;&gt;Node3</title>
<path fill="none" stroke="midnightblue" d="M454.855,-450.379C411.76,-441.217 333.461,-424.57 282.091,-413.649"/>
<polygon fill="midnightblue" stroke="midnightblue" points="282.704,-410.201 272.194,-411.545 281.248,-417.048 282.704,-410.201"/>
</g>
<!-- Node4 -->
<g id="node4" class="node"><title>Node4</title>
<polygon fill="white" stroke="#bfbfbf" points="318,-392.5 318,-411.5 476,-411.5 476,-392.5 318,-392.5"/>
<text text-anchor="middle" x="397" y="-399.5" font-family="Helvetica,sans-Serif" font-size="10.00">AudioUnit/AudioUnitProperties.h</text>
</g>
<!-- Node1&#45;&gt;Node4 -->
<g id="edge3" class="edge"><title>Node1&#45;&gt;Node4</title>
<path fill="none" stroke="midnightblue" d="M471.701,-448.324C457.817,-439.9 436.508,-426.971 420.196,-417.074"/>
<polygon fill="midnightblue" stroke="midnightblue" points="421.629,-413.85 411.264,-411.655 417.998,-419.834 421.629,-413.85"/>
</g>
<!-- Node5 -->
<g id="node5" class="node"><title>Node5</title>
<polygon fill="white" stroke="#bfbfbf" points="494.5,-392.5 494.5,-411.5 657.5,-411.5 657.5,-392.5 494.5,-392.5"/>
<text text-anchor="middle" x="576" y="-399.5" font-family="Helvetica,sans-Serif" font-size="10.00">AudioToolbox/AudioUnitUtilities.h</text>
</g>
<!-- Node1&#45;&gt;Node5 -->
<g id="edge4" class="edge"><title>Node1&#45;&gt;Node5</title>
<path fill="none" stroke="midnightblue" d="M500.46,-448.324C514.5,-439.9 536.048,-426.971 552.543,-417.074"/>
<polygon fill="midnightblue" stroke="midnightblue" points="554.802,-419.801 561.576,-411.655 551.2,-413.798 554.802,-419.801"/>
</g>
<!-- Node6 -->
<g id="node6" class="node"><title>Node6</title>
<polygon fill="white" stroke="#bfbfbf" points="676,-392.5 676,-411.5 780,-411.5 780,-392.5 676,-392.5"/>
<text text-anchor="middle" x="728" y="-399.5" font-family="Helvetica,sans-Serif" font-size="10.00">AvailabilityMacros.h</text>
</g>
<!-- Node1&#45;&gt;Node6 -->
<g id="edge5" class="edge"><title>Node1&#45;&gt;Node6</title>
<path fill="none" stroke="midnightblue" d="M517.142,-450.051C558.378,-440.85 631.512,-424.53 679.881,-413.737"/>
<polygon fill="midnightblue" stroke="midnightblue" points="680.809,-417.116 689.807,-411.522 679.284,-410.284 680.809,-417.116"/>
</g>
<!-- Node7 -->
<g id="node7" class="node"><title>Node7</title>
<g id="a_node7"><a xlink:href="_i_plug_base__select_8h_source.html" target="_top" xlink:title="IPlugBase_select.h">
<polygon fill="white" stroke="black" points="798.5,-392.5 798.5,-411.5 899.5,-411.5 899.5,-392.5 798.5,-392.5"/>
<text text-anchor="middle" x="849" y="-399.5" font-family="Helvetica,sans-Serif" font-size="10.00">IPlugBase_select.h</text>
</a>
</g>
</g>
<!-- Node1&#45;&gt;Node7 -->
<g id="edge6" class="edge"><title>Node1&#45;&gt;Node7</title>
<path fill="none" stroke="midnightblue" d="M517.408,-452.351C570.715,-444.457 682.574,-427.877 788.074,-412.136"/>
<polygon fill="midnightblue" stroke="midnightblue" points="788.888,-415.554 798.262,-410.616 787.855,-408.63 788.888,-415.554"/>
</g>
<!-- Node8 -->
<g id="node8" class="node"><title>Node8</title>
<g id="a_node8"><a xlink:href="_i_plug_base_graphics_8h.html" target="_top" xlink:title="An IPlugBase class for an IPlug plug&#45;in that uses IGraphics for it&#39;s UI. ">
<polygon fill="white" stroke="black" points="723.5,-336.5 723.5,-355.5 832.5,-355.5 832.5,-336.5 723.5,-336.5"/>
<text text-anchor="middle" x="778" y="-343.5" font-family="Helvetica,sans-Serif" font-size="10.00">IPlugBaseGraphics.h</text>
</a>
</g>
</g>
<!-- Node7&#45;&gt;Node8 -->
<g id="edge7" class="edge"><title>Node7&#45;&gt;Node8</title>
<path fill="none" stroke="midnightblue" d="M837.593,-392.324C826.891,-384.185 810.659,-371.839 797.837,-362.087"/>
<polygon fill="midnightblue" stroke="midnightblue" points="799.693,-359.102 789.615,-355.834 795.456,-364.673 799.693,-359.102"/>
</g>
<!-- Node30 -->
<g id="node30" class="node"><title>Node30</title>
<g id="a_node30"><a xlink:href="_i_plug_processor_8h.html" target="_top" xlink:title="The base class for IPlug Audio Processing. ">
<polygon fill="white" stroke="black" points="914,-280.5 914,-299.5 1006,-299.5 1006,-280.5 914,-280.5"/>
<text text-anchor="middle" x="960" y="-287.5" font-family="Helvetica,sans-Serif" font-size="10.00">IPlugProcessor.h</text>
</a>
</g>
</g>
<!-- Node7&#45;&gt;Node30 -->
<g id="edge48" class="edge"><title>Node7&#45;&gt;Node30</title>
<path fill="none" stroke="midnightblue" d="M857.71,-392.368C876.352,-373.894 920.35,-330.293 944.113,-306.744"/>
<polygon fill="midnightblue" stroke="midnightblue" points="946.691,-309.117 951.33,-299.591 941.764,-304.144 946.691,-309.117"/>
</g>
<!-- Node9 -->
<g id="node9" class="node"><title>Node9</title>
<g id="a_node9"><a xlink:href="_i_plug_base_8h.html" target="_top" xlink:title="The lowest level base class of an IPlug plug&#45;in. ">
<polygon fill="white" stroke="black" points="626,-280.5 626,-299.5 696,-299.5 696,-280.5 626,-280.5"/>
<text text-anchor="middle" x="661" y="-287.5" font-family="Helvetica,sans-Serif" font-size="10.00">IPlugBase.h</text>
</a>
</g>
</g>
<!-- Node8&#45;&gt;Node9 -->
<g id="edge8" class="edge"><title>Node8&#45;&gt;Node9</title>
<path fill="none" stroke="midnightblue" d="M759.461,-336.444C740.377,-327.636 710.425,-313.812 688.564,-303.722"/>
<polygon fill="midnightblue" stroke="midnightblue" points="689.999,-300.529 679.452,-299.516 687.065,-306.885 689.999,-300.529"/>
</g>
<!-- Node10 -->
<g id="node10" class="node"><title>Node10</title>
<polygon fill="white" stroke="#bfbfbf" points="481,-0.5 481,-19.5 527,-19.5 527,-0.5 481,-0.5"/>
<text text-anchor="middle" x="504" y="-7.5" font-family="Helvetica,sans-Serif" font-size="10.00">cstring</text>
</g>
<!-- Node9&#45;&gt;Node10 -->
<g id="edge9" class="edge"><title>Node9&#45;&gt;Node10</title>
<path fill="none" stroke="midnightblue" d="M625.946,-283.88C546.187,-271.245 358,-235.453 358,-179 358,-179 358,-179 358,-121 358,-90.2048 360.221,-77.7719 382,-56 405.82,-32.1875 443.313,-20.8464 470.451,-15.528"/>
<polygon fill="midnightblue" stroke="midnightblue" points="471.422,-18.9103 480.655,-13.7134 470.197,-12.0185 471.422,-18.9103"/>
</g>
<!-- Node11 -->
<g id="node11" class="node"><title>Node11</title>
<polygon fill="white" stroke="#bfbfbf" points="894,-56.5 894,-75.5 940,-75.5 940,-56.5 894,-56.5"/>
<text text-anchor="middle" x="917" y="-63.5" font-family="Helvetica,sans-Serif" font-size="10.00">cstdint</text>
</g>
<!-- Node9&#45;&gt;Node11 -->
<g id="edge10" class="edge"><title>Node9&#45;&gt;Node11</title>
<path fill="none" stroke="midnightblue" d="M664.707,-280.151C670.635,-266.781 683.303,-241.173 700,-224 752.942,-169.548 783.449,-177.841 844,-132 864.358,-116.588 886.004,-96.8375 900.39,-83.1732"/>
<polygon fill="midnightblue" stroke="midnightblue" points="903.167,-85.3598 907.958,-75.91 898.32,-80.3096 903.167,-85.3598"/>
</g>
<!-- Node12 -->
<g id="node12" class="node"><title>Node12</title>
<polygon fill="white" stroke="#bfbfbf" points="708.5,-224.5 708.5,-243.5 757.5,-243.5 757.5,-224.5 708.5,-224.5"/>
<text text-anchor="middle" x="733" y="-231.5" font-family="Helvetica,sans-Serif" font-size="10.00">ptrlist.h</text>
</g>
<!-- Node9&#45;&gt;Node12 -->
<g id="edge11" class="edge"><title>Node9&#45;&gt;Node12</title>
<path fill="none" stroke="midnightblue" d="M672.568,-280.324C683.42,-272.185 699.881,-259.839 712.883,-250.087"/>
<polygon fill="midnightblue" stroke="midnightblue" points="715.321,-252.634 721.221,-243.834 711.121,-247.034 715.321,-252.634"/>
</g>
<!-- Node13 -->
<g id="node13" class="node"><title>Node13</title>
<polygon fill="white" stroke="#bfbfbf" points="424,-56.5 424,-75.5 476,-75.5 476,-56.5 424,-56.5"/>
<text text-anchor="middle" x="450" y="-63.5" font-family="Helvetica,sans-Serif" font-size="10.00">mutex.h</text>
</g>
<!-- Node9&#45;&gt;Node13 -->
<g id="edge12" class="edge"><title>Node9&#45;&gt;Node13</title>
<path fill="none" stroke="midnightblue" d="M637.727,-280.383C618.639,-272.635 591.516,-260.019 571,-244 519.324,-203.653 508.589,-188.303 475,-132 466.289,-117.399 459.605,-99.2251 455.349,-85.8099"/>
<polygon fill="midnightblue" stroke="midnightblue" points="458.584,-84.4129 452.354,-75.8431 451.88,-86.4274 458.584,-84.4129"/>
</g>
<!-- Node14 -->
<g id="node14" class="node"><title>Node14</title>
<g id="a_node14"><a xlink:href="_i_plug_platform_8h.html" target="_top" xlink:title="Include to get consistently named preprocessor macros for different platforms and logging functionali...">
<polygon fill="white" stroke="black" points="638,-168.5 638,-187.5 722,-187.5 722,-168.5 638,-168.5"/>
<text text-anchor="middle" x="680" y="-175.5" font-family="Helvetica,sans-Serif" font-size="10.00">IPlugPlatform.h</text>
</a>
</g>
</g>
<!-- Node9&#45;&gt;Node14 -->
<g id="edge13" class="edge"><title>Node9&#45;&gt;Node14</title>
<path fill="none" stroke="midnightblue" d="M661.054,-280.085C661.274,-267.482 662.211,-243.787 666,-224 667.712,-215.06 670.58,-205.392 673.276,-197.317"/>
<polygon fill="midnightblue" stroke="midnightblue" points="676.602,-198.409 676.609,-187.814 669.996,-196.092 676.602,-198.409"/>
</g>
<!-- Node22 -->
<g id="node22" class="node"><title>Node22</title>
<g id="a_node22"><a xlink:href="_i_plug_utilities_8h.html" target="_top" xlink:title="Utility functions and macros. ">
<polygon fill="white" stroke="black" points="652,-56.5 652,-75.5 732,-75.5 732,-56.5 652,-56.5"/>
<text text-anchor="middle" x="692" y="-63.5" font-family="Helvetica,sans-Serif" font-size="10.00">IPlugUtilities.h</text>
</a>
</g>
</g>
<!-- Node9&#45;&gt;Node22 -->
<g id="edge43" class="edge"><title>Node9&#45;&gt;Node22</title>
<path fill="none" stroke="midnightblue" d="M655.539,-280.459C643.561,-260.635 616.978,-209.988 629,-168 638.471,-134.92 662.272,-102.146 677.756,-83.2731"/>
<polygon fill="midnightblue" stroke="midnightblue" points="680.432,-85.5294 684.204,-75.6288 675.081,-81.0161 680.432,-85.5294"/>
</g>
<!-- Node25 -->
<g id="node25" class="node"><title>Node25</title>
<g id="a_node25"><a xlink:href="_i_plug_constants_8h.html" target="_top" xlink:title="Constant definitions, magic numbers. ">
<polygon fill="white" stroke="black" points="1345,-0.5 1345,-19.5 1437,-19.5 1437,-0.5 1345,-0.5"/>
<text text-anchor="middle" x="1391" y="-7.5" font-family="Helvetica,sans-Serif" font-size="10.00">IPlugConstants.h</text>
</a>
</g>
</g>
<!-- Node9&#45;&gt;Node25 -->
<g id="edge32" class="edge"><title>Node9&#45;&gt;Node25</title>
<path fill="none" stroke="midnightblue" d="M696.047,-285.801C796.125,-275.578 1089.95,-237.915 1307,-132 1347.32,-112.323 1369.83,-115.56 1391,-76 1398.57,-61.8531 1397.73,-43.3692 1395.49,-29.7302"/>
<polygon fill="midnightblue" stroke="midnightblue" points="1398.85,-28.715 1393.43,-19.6146 1392,-30.1119 1398.85,-28.715"/>
</g>
<!-- Node26 -->
<g id="node26" class="node"><title>Node26</title>
<g id="a_node26"><a xlink:href="_i_plug_structs_8h_source.html" target="_top" xlink:title="IPlugStructs.h">
<polygon fill="white" stroke="black" points="852.5,-224.5 852.5,-243.5 931.5,-243.5 931.5,-224.5 852.5,-224.5"/>
<text text-anchor="middle" x="892" y="-231.5" font-family="Helvetica,sans-Serif" font-size="10.00">IPlugStructs.h</text>
</a>
</g>
</g>
<!-- Node9&#45;&gt;Node26 -->
<g id="edge33" class="edge"><title>Node9&#45;&gt;Node26</title>
<path fill="none" stroke="midnightblue" d="M696.084,-280.799C736.013,-271.465 801.396,-256.18 845.534,-245.862"/>
<polygon fill="midnightblue" stroke="midnightblue" points="846.498,-249.231 855.439,-243.547 844.905,-242.415 846.498,-249.231"/>
</g>
<!-- Node29 -->
<g id="node29" class="node"><title>Node29</title>
<g id="a_node29"><a xlink:href="_i_plug_parameter_8h_source.html" target="_top" xlink:title="IPlugParameter.h">
<polygon fill="white" stroke="black" points="484,-112.5 484,-131.5 576,-131.5 576,-112.5 484,-112.5"/>
<text text-anchor="middle" x="530" y="-119.5" font-family="Helvetica,sans-Serif" font-size="10.00">IPlugParameter.h</text>
</a>
</g>
</g>
<!-- Node9&#45;&gt;Node29 -->
<g id="edge44" class="edge"><title>Node9&#45;&gt;Node29</title>
<path fill="none" stroke="midnightblue" d="M641.784,-280.456C626.216,-272.752 604.551,-260.158 590,-244 562.117,-213.037 544.033,-166.757 535.58,-141.343"/>
<polygon fill="midnightblue" stroke="midnightblue" points="538.83,-140.015 532.459,-131.549 532.16,-142.14 538.83,-140.015"/>
</g>
<!-- Node15 -->
<g id="node15" class="node"><title>Node15</title>
<g id="a_node15"><a xlink:href="_i_plug_logger_8h.html" target="_top" xlink:title="IPlug Logging functionailty To trace some arbitrary data: Trace(TRACELOC, &quot;%s:%d&quot;, myStr, myInt); To simply create a trace entry in the log: TRACE; No need to wrap tracer calls in #ifdef TRACER_BUILD because Trace is a no&#45;op unless TRACER_BUILD is defined. ">
<polygon fill="white" stroke="black" points="758.5,-112.5 758.5,-131.5 835.5,-131.5 835.5,-112.5 758.5,-112.5"/>
<text text-anchor="middle" x="797" y="-119.5" font-family="Helvetica,sans-Serif" font-size="10.00">IPlugLogger.h</text>
</a>
</g>
</g>
<!-- Node14&#45;&gt;Node15 -->
<g id="edge14" class="edge"><title>Node14&#45;&gt;Node15</title>
<path fill="none" stroke="midnightblue" d="M698.539,-168.444C717.623,-159.636 747.575,-145.812 769.436,-135.722"/>
<polygon fill="midnightblue" stroke="midnightblue" points="770.935,-138.885 778.548,-131.516 768.001,-132.529 770.935,-138.885"/>
</g>
<!-- Node15&#45;&gt;Node10 -->
<g id="edge19" class="edge"><title>Node15&#45;&gt;Node10</title>
<path fill="none" stroke="midnightblue" d="M760.209,-112.459C728.564,-104.594 681.991,-91.772 643,-76 625.307,-68.8432 622.17,-64.3325 605,-56 581.253,-44.4761 553.879,-32.3495 533.624,-23.5921"/>
<polygon fill="midnightblue" stroke="midnightblue" points="534.869,-20.3176 524.3,-19.5811 532.103,-26.7479 534.869,-20.3176"/>
</g>
<!-- Node15&#45;&gt;Node11 -->
<g id="edge18" class="edge"><title>Node15&#45;&gt;Node11</title>
<path fill="none" stroke="midnightblue" d="M816.014,-112.444C835.588,-103.636 866.308,-89.8116 888.729,-79.722"/>
<polygon fill="midnightblue" stroke="midnightblue" points="890.392,-82.8119 898.075,-75.5164 887.519,-76.4284 890.392,-82.8119"/>
</g>
<!-- Node15&#45;&gt;Node13 -->
<g id="edge23" class="edge"><title>Node15&#45;&gt;Node13</title>
<path fill="none" stroke="midnightblue" d="M758.205,-114.963C690.552,-104.435 551.946,-82.8649 486.176,-72.6297"/>
<polygon fill="midnightblue" stroke="midnightblue" points="486.687,-69.1672 476.268,-71.0878 485.61,-76.0839 486.687,-69.1672"/>
</g>
<!-- Node16 -->
<g id="node16" class="node"><title>Node16</title>
<polygon fill="white" stroke="#bfbfbf" points="851.5,-0.5 851.5,-19.5 894.5,-19.5 894.5,-0.5 851.5,-0.5"/>
<text text-anchor="middle" x="873" y="-7.5" font-family="Helvetica,sans-Serif" font-size="10.00">cstdio</text>
</g>
<!-- Node15&#45;&gt;Node16 -->
<g id="edge15" class="edge"><title>Node15&#45;&gt;Node16</title>
<path fill="none" stroke="midnightblue" d="M809.279,-112.201C820.139,-103.896 835.799,-90.5708 846,-76 856.065,-61.6246 863.334,-42.9227 867.777,-29.2722"/>
<polygon fill="midnightblue" stroke="midnightblue" points="871.161,-30.1731 870.733,-19.5869 864.466,-28.1293 871.161,-30.1731"/>
</g>
<!-- Node17 -->
<g id="node17" class="node"><title>Node17</title>
<polygon fill="white" stroke="#bfbfbf" points="725,-0.5 725,-19.5 771,-19.5 771,-0.5 725,-0.5"/>
<text text-anchor="middle" x="748" y="-7.5" font-family="Helvetica,sans-Serif" font-size="10.00">cctype</text>
</g>
<!-- Node15&#45;&gt;Node17 -->
<g id="edge16" class="edge"><title>Node15&#45;&gt;Node17</title>
<path fill="none" stroke="midnightblue" d="M793.155,-112.368C785.176,-94.4563 766.675,-52.9233 755.995,-28.9482"/>
<polygon fill="midnightblue" stroke="midnightblue" points="759.093,-27.3019 751.827,-19.5914 752.699,-30.1503 759.093,-27.3019"/>
</g>
<!-- Node18 -->
<g id="node18" class="node"><title>Node18</title>
<polygon fill="white" stroke="#bfbfbf" points="788.5,-56.5 788.5,-75.5 837.5,-75.5 837.5,-56.5 788.5,-56.5"/>
<text text-anchor="middle" x="813" y="-63.5" font-family="Helvetica,sans-Serif" font-size="10.00">cstdarg</text>
</g>
<!-- Node15&#45;&gt;Node18 -->
<g id="edge17" class="edge"><title>Node15&#45;&gt;Node18</title>
<path fill="none" stroke="midnightblue" d="M799.642,-112.083C801.786,-104.849 804.879,-94.4087 807.549,-85.3968"/>
<polygon fill="midnightblue" stroke="midnightblue" points="810.922,-86.3334 810.407,-75.7511 804.21,-84.3447 810.922,-86.3334"/>
</g>
<!-- Node19 -->
<g id="node19" class="node"><title>Node19</title>
<polygon fill="white" stroke="#bfbfbf" points="958.5,-56.5 958.5,-75.5 999.5,-75.5 999.5,-56.5 958.5,-56.5"/>
<text text-anchor="middle" x="979" y="-63.5" font-family="Helvetica,sans-Serif" font-size="10.00">ctime</text>
</g>
<!-- Node15&#45;&gt;Node19 -->
<g id="edge20" class="edge"><title>Node15&#45;&gt;Node19</title>
<path fill="none" stroke="midnightblue" d="M825.866,-112.488C854.537,-104.026 900.004,-90.587 948.591,-76.1141"/>
<polygon fill="midnightblue" stroke="midnightblue" points="949.762,-79.4172 958.346,-73.2069 947.763,-72.7088 949.762,-79.4172"/>
</g>
<!-- Node20 -->
<g id="node20" class="node"><title>Node20</title>
<polygon fill="white" stroke="#bfbfbf" points="1017.5,-56.5 1017.5,-75.5 1066.5,-75.5 1066.5,-56.5 1017.5,-56.5"/>
<text text-anchor="middle" x="1042" y="-63.5" font-family="Helvetica,sans-Serif" font-size="10.00">cassert</text>
</g>
<!-- Node15&#45;&gt;Node20 -->
<g id="edge21" class="edge"><title>Node15&#45;&gt;Node20</title>
<path fill="none" stroke="midnightblue" d="M835.629,-113.349C875.966,-105.229 941.297,-91.7151 1007.03,-76.1408"/>
<polygon fill="midnightblue" stroke="midnightblue" points="1008.24,-79.451 1017.15,-73.7264 1006.61,-72.6419 1008.24,-79.451"/>
</g>
<!-- Node21 -->
<g id="node21" class="node"><title>Node21</title>
<polygon fill="white" stroke="#bfbfbf" points="532,-56.5 532,-75.5 596,-75.5 596,-56.5 532,-56.5"/>
<text text-anchor="middle" x="564" y="-63.5" font-family="Helvetica,sans-Serif" font-size="10.00">wdlstring.h</text>
</g>
<!-- Node15&#45;&gt;Node21 -->
<g id="edge22" class="edge"><title>Node15&#45;&gt;Node21</title>
<path fill="none" stroke="midnightblue" d="M760.08,-112.444C718.176,-102.732 649.959,-86.9218 606.041,-76.7435"/>
<polygon fill="midnightblue" stroke="midnightblue" points="606.777,-73.3212 596.245,-74.473 605.196,-80.1405 606.777,-73.3212"/>
</g>
<!-- Node15&#45;&gt;Node22 -->
<g id="edge24" class="edge"><title>Node15&#45;&gt;Node22</title>
<path fill="none" stroke="midnightblue" d="M780.13,-112.324C763.291,-103.664 737.193,-90.2424 717.762,-80.249"/>
<polygon fill="midnightblue" stroke="midnightblue" points="719.322,-77.1155 708.828,-75.6545 716.12,-83.3405 719.322,-77.1155"/>
</g>
<!-- Node22&#45;&gt;Node10 -->
<g id="edge28" class="edge"><title>Node22&#45;&gt;Node10</title>
<path fill="none" stroke="midnightblue" d="M662.211,-56.4435C628.098,-46.6451 572.373,-30.6391 536.978,-20.4723"/>
<polygon fill="midnightblue" stroke="midnightblue" points="537.708,-17.0407 527.13,-17.6439 535.776,-23.7686 537.708,-17.0407"/>
</g>
<!-- Node22&#45;&gt;Node14 -->
<g id="edge31" class="edge"><title>Node22&#45;&gt;Node14</title>
<path fill="none" stroke="midnightblue" d="M691.063,-75.5914C689.13,-93.3079 684.663,-134.254 682.035,-158.348"/>
<polygon fill="midnightblue" stroke="midnightblue" points="678.547,-158.048 680.942,-168.368 685.506,-158.807 678.547,-158.048"/>
</g>
<!-- Node22&#45;&gt;Node16 -->
<g id="edge26" class="edge"><title>Node22&#45;&gt;Node16</title>
<path fill="none" stroke="midnightblue" d="M720.68,-56.4435C753.563,-46.6333 807.302,-30.6004 841.374,-20.4355"/>
<polygon fill="midnightblue" stroke="midnightblue" points="842.689,-23.6955 851.271,-17.4826 840.688,-16.9877 842.689,-23.6955"/>
</g>
<!-- Node22&#45;&gt;Node17 -->
<g id="edge29" class="edge"><title>Node22&#45;&gt;Node17</title>
<path fill="none" stroke="midnightblue" d="M700.997,-56.324C709.194,-48.4196 721.506,-36.5482 731.472,-26.9377"/>
<polygon fill="midnightblue" stroke="midnightblue" points="734.07,-29.2947 738.839,-19.8339 729.211,-24.2558 734.07,-29.2947"/>
</g>
<!-- Node23 -->
<g id="node23" class="node"><title>Node23</title>
<polygon fill="white" stroke="#bfbfbf" points="789,-0.5 789,-19.5 833,-19.5 833,-0.5 789,-0.5"/>
<text text-anchor="middle" x="811" y="-7.5" font-family="Helvetica,sans-Serif" font-size="10.00">cmath</text>
</g>
<!-- Node22&#45;&gt;Node23 -->
<g id="edge25" class="edge"><title>Node22&#45;&gt;Node23</title>
<path fill="none" stroke="midnightblue" d="M710.856,-56.4435C730.266,-47.6356 760.73,-33.8116 782.965,-23.722"/>
<polygon fill="midnightblue" stroke="midnightblue" points="784.572,-26.836 792.232,-19.5164 781.68,-20.4615 784.572,-26.836"/>
</g>
<!-- Node24 -->
<g id="node24" class="node"><title>Node24</title>
<polygon fill="white" stroke="#bfbfbf" points="661.5,-0.5 661.5,-19.5 706.5,-19.5 706.5,-0.5 661.5,-0.5"/>
<text text-anchor="middle" x="684" y="-7.5" font-family="Helvetica,sans-Serif" font-size="10.00">cstdlib</text>
</g>
<!-- Node22&#45;&gt;Node24 -->
<g id="edge27" class="edge"><title>Node22&#45;&gt;Node24</title>
<path fill="none" stroke="midnightblue" d="M690.679,-56.083C689.619,-48.9272 688.094,-38.6353 686.769,-29.6911"/>
<polygon fill="midnightblue" stroke="midnightblue" points="690.224,-29.1302 685.296,-19.7511 683.3,-30.1561 690.224,-29.1302"/>
</g>
<!-- Node22&#45;&gt;Node25 -->
<g id="edge30" class="edge"><title>Node22&#45;&gt;Node25</title>
<path fill="none" stroke="midnightblue" d="M732.281,-60.6376C747.256,-59.0798 764.396,-57.3723 780,-56 984.261,-38.0366 1227.37,-21.609 1334.99,-14.591"/>
<polygon fill="midnightblue" stroke="midnightblue" points="1335.22,-18.0833 1344.98,-13.9415 1334.77,-11.098 1335.22,-18.0833"/>
</g>
<!-- Node26&#45;&gt;Node14 -->
<g id="edge37" class="edge"><title>Node26&#45;&gt;Node14</title>
<path fill="none" stroke="midnightblue" d="M858.408,-224.444C821.813,-215.122 763.162,-200.183 723.174,-189.997"/>
<polygon fill="midnightblue" stroke="midnightblue" points="723.989,-186.593 713.435,-187.516 722.261,-193.377 723.989,-186.593"/>
</g>
<!-- Node26&#45;&gt;Node21 -->
<g id="edge35" class="edge"><title>Node26&#45;&gt;Node21</title>
<path fill="none" stroke="midnightblue" d="M874.827,-224.309C820.915,-197.024 654.786,-112.947 590.129,-80.2239"/>
<polygon fill="midnightblue" stroke="midnightblue" points="591.506,-76.9979 581.003,-75.6051 588.345,-83.2436 591.506,-76.9979"/>
</g>
<!-- Node26&#45;&gt;Node25 -->
<g id="edge36" class="edge"><title>Node26&#45;&gt;Node25</title>
<path fill="none" stroke="midnightblue" d="M931.7,-224.892C1034.85,-203.087 1307.69,-140.472 1371,-76 1383.01,-63.7687 1387.83,-44.5041 1389.75,-30.1181"/>
<polygon fill="midnightblue" stroke="midnightblue" points="1393.27,-30.1471 1390.76,-19.8542 1386.3,-29.4665 1393.27,-30.1471"/>
</g>
<!-- Node27 -->
<g id="node27" class="node"><title>Node27</title>
<polygon fill="white" stroke="#bfbfbf" points="838,-168.5 838,-187.5 894,-187.5 894,-168.5 838,-168.5"/>
<text text-anchor="middle" x="866" y="-175.5" font-family="Helvetica,sans-Serif" font-size="10.00">algorithm</text>
</g>
<!-- Node26&#45;&gt;Node27 -->
<g id="edge34" class="edge"><title>Node26&#45;&gt;Node27</title>
<path fill="none" stroke="midnightblue" d="M887.707,-224.083C884.148,-216.691 878.978,-205.953 874.576,-196.811"/>
<polygon fill="midnightblue" stroke="midnightblue" points="877.705,-195.243 870.213,-187.751 871.398,-198.279 877.705,-195.243"/>
</g>
<!-- Node28 -->
<g id="node28" class="node"><title>Node28</title>
<g id="a_node28"><a xlink:href="_i_plug_midi_8h_source.html" target="_top" xlink:title="IPlugMidi.h">
<polygon fill="white" stroke="black" points="892.5,-112.5 892.5,-131.5 957.5,-131.5 957.5,-112.5 892.5,-112.5"/>
<text text-anchor="middle" x="925" y="-119.5" font-family="Helvetica,sans-Serif" font-size="10.00">IPlugMidi.h</text>
</a>
</g>
</g>
<!-- Node26&#45;&gt;Node28 -->
<g id="edge38" class="edge"><title>Node26&#45;&gt;Node28</title>
<path fill="none" stroke="midnightblue" d="M894.589,-224.368C899.939,-206.537 912.311,-165.295 919.518,-141.272"/>
<polygon fill="midnightblue" stroke="midnightblue" points="922.901,-142.175 922.423,-131.591 916.197,-140.164 922.901,-142.175"/>
</g>
<!-- Node28&#45;&gt;Node11 -->
<g id="edge40" class="edge"><title>Node28&#45;&gt;Node11</title>
<path fill="none" stroke="midnightblue" d="M923.679,-112.083C922.619,-104.927 921.094,-94.6353 919.769,-85.6911"/>
<polygon fill="midnightblue" stroke="midnightblue" points="923.224,-85.1302 918.296,-75.7511 916.3,-86.1561 923.224,-85.1302"/>
</g>
<!-- Node28&#45;&gt;Node20 -->
<g id="edge39" class="edge"><title>Node28&#45;&gt;Node20</title>
<path fill="none" stroke="midnightblue" d="M943.539,-112.444C962.623,-103.636 992.575,-89.8116 1014.44,-79.722"/>
<polygon fill="midnightblue" stroke="midnightblue" points="1015.93,-82.8849 1023.55,-75.5164 1013,-76.5292 1015.93,-82.8849"/>
</g>
<!-- Node28&#45;&gt;Node22 -->
<g id="edge42" class="edge"><title>Node28&#45;&gt;Node22</title>
<path fill="none" stroke="midnightblue" d="M892.111,-113.378C852.109,-104.107 784.312,-88.3942 738.859,-77.8599"/>
<polygon fill="midnightblue" stroke="midnightblue" points="739.483,-74.4119 728.951,-75.5637 737.902,-81.2311 739.483,-74.4119"/>
</g>
<!-- Node28&#45;&gt;Node25 -->
<g id="edge41" class="edge"><title>Node28&#45;&gt;Node25</title>
<path fill="none" stroke="midnightblue" d="M957.586,-112.781C1007.53,-100.235 1106.06,-75.6879 1190,-56 1241.67,-43.8798 1300.99,-30.6874 1341.72,-21.7401"/>
<polygon fill="midnightblue" stroke="midnightblue" points="1342.64,-25.1214 1351.66,-19.56 1341.14,-18.284 1342.64,-25.1214"/>
</g>
<!-- Node29&#45;&gt;Node10 -->
<g id="edge45" class="edge"><title>Node29&#45;&gt;Node10</title>
<path fill="none" stroke="midnightblue" d="M527.96,-112.368C523.764,-94.617 514.085,-53.6664 508.396,-29.5974"/>
<polygon fill="midnightblue" stroke="midnightblue" points="511.737,-28.5182 506.031,-19.5914 504.925,-30.1284 511.737,-28.5182"/>
</g>
<!-- Node29&#45;&gt;Node21 -->
<g id="edge46" class="edge"><title>Node29&#45;&gt;Node21</title>
<path fill="none" stroke="midnightblue" d="M535.614,-112.083C540.367,-104.534 547.318,-93.4948 553.152,-84.2298"/>
<polygon fill="midnightblue" stroke="midnightblue" points="556.124,-86.0783 558.49,-75.7511 550.2,-82.3486 556.124,-86.0783"/>
</g>
<!-- Node29&#45;&gt;Node22 -->
<g id="edge47" class="edge"><title>Node29&#45;&gt;Node22</title>
<path fill="none" stroke="midnightblue" d="M555.669,-112.444C582.923,-103.359 626.184,-88.9388 656.651,-78.7831"/>
<polygon fill="midnightblue" stroke="midnightblue" points="658.071,-81.9992 666.451,-75.5164 655.857,-75.3584 658.071,-81.9992"/>
</g>
<!-- Node30&#45;&gt;Node10 -->
<g id="edge49" class="edge"><title>Node30&#45;&gt;Node10</title>
<path fill="none" stroke="midnightblue" d="M918.567,-280.442C885.665,-272.918 838.888,-260.577 800,-244 783.872,-237.125 782.186,-230.736 766,-224 707.876,-199.812 689.091,-206.777 629,-188 559.486,-166.278 537.094,-170.058 475,-132 438.308,-109.511 392.457,-92.6588 415,-56 427.181,-36.1912 451.078,-24.7813 471.045,-18.4097"/>
<polygon fill="midnightblue" stroke="midnightblue" points="472.123,-21.7414 480.753,-15.5956 470.174,-15.0182 472.123,-21.7414"/>
</g>
<!-- Node30&#45;&gt;Node11 -->
<g id="edge50" class="edge"><title>Node30&#45;&gt;Node11</title>
<path fill="none" stroke="midnightblue" d="M963.6,-280.222C967.056,-271.285 972.033,-256.942 974,-244 982.83,-185.893 993.396,-163.999 966,-112 959.671,-99.9869 948.821,-89.5172 938.937,-81.7068"/>
<polygon fill="midnightblue" stroke="midnightblue" points="940.756,-78.6986 930.638,-75.5558 936.588,-84.3223 940.756,-78.6986"/>
</g>
<!-- Node30&#45;&gt;Node12 -->
<g id="edge51" class="edge"><title>Node30&#45;&gt;Node12</title>
<path fill="none" stroke="midnightblue" d="M924.031,-280.444C881.068,-270.223 809.714,-253.249 767.439,-243.192"/>
<polygon fill="midnightblue" stroke="midnightblue" points="768.145,-239.763 757.607,-240.854 766.525,-246.573 768.145,-239.763"/>
</g>
<!-- Node30&#45;&gt;Node14 -->
<g id="edge52" class="edge"><title>Node30&#45;&gt;Node14</title>
<path fill="none" stroke="midnightblue" d="M936.736,-280.417C913.204,-271.633 875.856,-257.406 844,-244 824.201,-235.668 819.846,-232.22 800,-224 771.273,-212.101 738.151,-199.783 713.992,-191.05"/>
<polygon fill="midnightblue" stroke="midnightblue" points="715.146,-187.746 704.552,-187.655 712.777,-194.333 715.146,-187.746"/>
</g>
<!-- Node30&#45;&gt;Node22 -->
<g id="edge55" class="edge"><title>Node30&#45;&gt;Node22</title>
<path fill="none" stroke="midnightblue" d="M958.802,-280.406C955.12,-257.59 941.702,-195.37 902,-168 844.842,-128.595 809.638,-167.539 750,-132 729.988,-120.075 713.06,-98.9684 702.75,-84.0464"/>
<polygon fill="midnightblue" stroke="midnightblue" points="705.657,-82.0969 697.218,-75.6919 699.821,-85.962 705.657,-82.0969"/>
</g>
<!-- Node30&#45;&gt;Node25 -->
<g id="edge53" class="edge"><title>Node30&#45;&gt;Node25</title>
<path fill="none" stroke="midnightblue" d="M1006.34,-288.735C1131.5,-286.778 1467,-272.784 1467,-179 1467,-179 1467,-179 1467,-121 1467,-90.2048 1460.53,-81.3191 1443,-56 1434.82,-44.1903 1422.85,-33.5418 1412.45,-25.5714"/>
<polygon fill="midnightblue" stroke="midnightblue" points="1414.34,-22.6188 1404.2,-19.5395 1410.21,-28.2685 1414.34,-22.6188"/>
</g>
<!-- Node30&#45;&gt;Node26 -->
<g id="edge54" class="edge"><title>Node30&#45;&gt;Node26</title>
<path fill="none" stroke="midnightblue" d="M949.075,-280.324C938.825,-272.185 923.279,-259.839 910.999,-250.087"/>
<polygon fill="midnightblue" stroke="midnightblue" points="913.132,-247.312 903.124,-243.834 908.779,-252.794 913.132,-247.312"/>
</g>
<!-- Node31 -->
<g id="node31" class="node"><title>Node31</title>
<g id="a_node31"><a xlink:href="_n_chan_delay_8h_source.html" target="_top" xlink:title="NChanDelay.h">
<polygon fill="white" stroke="black" points="1120.5,-224.5 1120.5,-243.5 1201.5,-243.5 1201.5,-224.5 1120.5,-224.5"/>
<text text-anchor="middle" x="1161" y="-231.5" font-family="Helvetica,sans-Serif" font-size="10.00">NChanDelay.h</text>
</a>
</g>
</g>
<!-- Node30&#45;&gt;Node31 -->
<g id="edge56" class="edge"><title>Node30&#45;&gt;Node31</title>
<path fill="none" stroke="midnightblue" d="M991.849,-280.444C1026.4,-271.162 1081.68,-256.309 1119.58,-246.127"/>
<polygon fill="midnightblue" stroke="midnightblue" points="1120.55,-249.491 1129.3,-243.516 1118.73,-242.731 1120.55,-249.491"/>
</g>
<!-- Node32 -->
<g id="node32" class="node"><title>Node32</title>
<g id="a_node32"><a xlink:href="_i_plug_processor_8cpp_source.html" target="_top" xlink:title="IPlugProcessor.cpp">
<polygon fill="white" stroke="black" points="1064,-112.5 1064,-131.5 1166,-131.5 1166,-112.5 1064,-112.5"/>
<text text-anchor="middle" x="1115" y="-119.5" font-family="Helvetica,sans-Serif" font-size="10.00">IPlugProcessor.cpp</text>
</a>
</g>
</g>
<!-- Node30&#45;&gt;Node32 -->
<g id="edge57" class="edge"><title>Node30&#45;&gt;Node32</title>
<path fill="none" stroke="midnightblue" d="M979.596,-280.458C997.459,-273.237 1023.2,-261.282 1041,-244 1071.67,-214.214 1091.26,-166.797 1103.34,-141.056"/>
<polygon fill="midnightblue" stroke="midnightblue" points="1106.65,-142.272 1107.92,-131.754 1100.36,-139.184 1106.65,-142.272"/>
</g>
<!-- Node32&#45;&gt;Node16 -->
<g id="edge59" class="edge"><title>Node32&#45;&gt;Node16</title>
<path fill="none" stroke="midnightblue" d="M1117.17,-112.131C1119.98,-98.2629 1123.02,-71.4378 1109,-56 1082.08,-26.3479 962.733,-15.8599 904.786,-12.4704"/>
<polygon fill="midnightblue" stroke="midnightblue" points="904.893,-8.97107 894.716,-11.917 904.509,-15.9605 904.893,-8.97107"/>
</g>
<!-- Node32&#45;&gt;Node19 -->
<g id="edge60" class="edge"><title>Node32&#45;&gt;Node19</title>
<path fill="none" stroke="midnightblue" d="M1093.45,-112.444C1070.7,-103.412 1034.68,-89.1067 1009.12,-78.9612"/>
<polygon fill="midnightblue" stroke="midnightblue" points="1010.14,-75.6004 999.559,-75.1629 1007.56,-82.1063 1010.14,-75.6004"/>
</g>
<!-- Node32&#45;&gt;Node20 -->
<g id="edge61" class="edge"><title>Node32&#45;&gt;Node20</title>
<path fill="none" stroke="midnightblue" d="M1103.27,-112.324C1092.16,-104.107 1075.26,-91.6017 1062.02,-81.8069"/>
<polygon fill="midnightblue" stroke="midnightblue" points="1064.06,-78.9671 1053.94,-75.8339 1059.9,-84.5948 1064.06,-78.9671"/>
</g>
<!-- Node32&#45;&gt;Node23 -->
<g id="edge58" class="edge"><title>Node32&#45;&gt;Node23</title>
<path fill="none" stroke="midnightblue" d="M1112.27,-112.138C1107.34,-97.7729 1095.53,-69.6409 1075,-56 990.726,0.00507049 947.615,-39.5995 843.25,-19.6834"/>
<polygon fill="midnightblue" stroke="midnightblue" points="843.793,-16.2219 833.294,-17.6394 842.385,-23.0789 843.793,-16.2219"/>
</g>
<!-- Node32&#45;&gt;Node30 -->
<g id="edge64" class="edge"><title>Node32&#45;&gt;Node30</title>
<path fill="none" stroke="midnightblue" d="M1116.81,-131.754C1114.45,-153.396 1093.9,-210.11 1059,-244 1043.85,-258.717 1022.93,-269.571 1004.12,-276.927"/>
<polygon fill="midnightblue" stroke="midnightblue" points="1002.7,-273.721 994.524,-280.458 1005.12,-280.291 1002.7,-273.721"/>
</g>
<!-- Node33 -->
<g id="node33" class="node"><title>Node33</title>
<polygon fill="white" stroke="#bfbfbf" points="1199,-56.5 1199,-75.5 1267,-75.5 1267,-56.5 1199,-56.5"/>
<text text-anchor="middle" x="1233" y="-63.5" font-family="Helvetica,sans-Serif" font-size="10.00">wdlendian.h</text>
</g>
<!-- Node32&#45;&gt;Node33 -->
<g id="edge62" class="edge"><title>Node32&#45;&gt;Node33</title>
<path fill="none" stroke="midnightblue" d="M1133.7,-112.444C1152.94,-103.636 1183.15,-89.8116 1205.2,-79.722"/>
<polygon fill="midnightblue" stroke="midnightblue" points="1206.75,-82.8603 1214.39,-75.5164 1203.84,-76.4951 1206.75,-82.8603"/>
</g>
<!-- Node34 -->
<g id="node34" class="node"><title>Node34</title>
<polygon fill="white" stroke="#bfbfbf" points="1285.5,-56.5 1285.5,-75.5 1362.5,-75.5 1362.5,-56.5 1285.5,-56.5"/>
<text text-anchor="middle" x="1324" y="-63.5" font-family="Helvetica,sans-Serif" font-size="10.00">wdl_base64.h</text>
</g>
<!-- Node32&#45;&gt;Node34 -->
<g id="edge63" class="edge"><title>Node32&#45;&gt;Node34</title>
<path fill="none" stroke="midnightblue" d="M1148.12,-112.444C1184.12,-103.142 1241.77,-88.246 1281.19,-78.062"/>
<polygon fill="midnightblue" stroke="midnightblue" points="1282.23,-81.4068 1291.04,-75.5164 1280.48,-74.6294 1282.23,-81.4068"/>
</g>
</g>
</svg>
