<?xml version="1.0" encoding="UTF-8" standalone="no"?>
<!DOCTYPE svg PUBLIC "-//W3C//DTD SVG 1.1//EN"
 "http://www.w3.org/Graphics/SVG/1.1/DTD/svg11.dtd">
<!-- Generated by graphviz version 2.36.0 (20140111.2315)
 -->
<!-- Title: IPlugAAX.h Pages: 1 -->
<svg width="1146pt" height="476pt"
 viewBox="0.00 0.00 1146.00 476.00" xmlns="http://www.w3.org/2000/svg" xmlns:xlink="http://www.w3.org/1999/xlink">
<g id="graph0" class="graph" transform="scale(1 1) rotate(0) translate(4 472)">
<title>IPlugAAX.h</title>
<polygon fill="white" stroke="none" points="-4,4 -4,-472 1142,-472 1142,4 -4,4"/>
<!-- Node1 -->
<g id="node1" class="node"><title>Node1</title>
<polygon fill="#bfbfbf" stroke="black" points="646,-448.5 646,-467.5 714,-467.5 714,-448.5 646,-448.5"/>
<text text-anchor="middle" x="680" y="-455.5" font-family="Helvetica,sans-Serif" font-size="10.00">IPlugAAX.h</text>
</g>
<!-- Node2 -->
<g id="node2" class="node"><title>Node2</title>
<g id="a_node2"><a xlink:href="_i_plug_platform_8h.html" target="_top" xlink:title="Include to get consistently named preprocessor macros for different platforms and logging functionali...">
<polygon fill="white" stroke="black" points="333,-168.5 333,-187.5 417,-187.5 417,-168.5 333,-168.5"/>
<text text-anchor="middle" x="375" y="-175.5" font-family="Helvetica,sans-Serif" font-size="10.00">IPlugPlatform.h</text>
</a>
</g>
</g>
<!-- Node1&#45;&gt;Node2 -->
<g id="edge1" class="edge"><title>Node1&#45;&gt;Node2</title>
<path fill="none" stroke="midnightblue" d="M645.996,-454.503C615.269,-450.448 570.861,-439.822 544,-412 523.095,-390.347 525,-377.098 525,-347 525,-347 525,-347 525,-289 525,-235.709 462.672,-205.415 418.37,-190.613"/>
<polygon fill="midnightblue" stroke="midnightblue" points="419.254,-187.221 408.663,-187.517 417.127,-193.89 419.254,-187.221"/>
</g>
<!-- Node17 -->
<g id="node17" class="node"><title>Node17</title>
<g id="a_node17"><a xlink:href="_i_plug_base__select_8h_source.html" target="_top" xlink:title="IPlugBase_select.h">
<polygon fill="white" stroke="black" points="395.5,-392.5 395.5,-411.5 496.5,-411.5 496.5,-392.5 395.5,-392.5"/>
<text text-anchor="middle" x="446" y="-399.5" font-family="Helvetica,sans-Serif" font-size="10.00">IPlugBase_select.h</text>
</a>
</g>
</g>
<!-- Node1&#45;&gt;Node17 -->
<g id="edge20" class="edge"><title>Node1&#45;&gt;Node17</title>
<path fill="none" stroke="midnightblue" d="M645.974,-449.148C605.672,-439.847 538.306,-424.301 493.033,-413.854"/>
<polygon fill="midnightblue" stroke="midnightblue" points="493.692,-410.414 483.161,-411.576 492.118,-417.235 493.692,-410.414"/>
</g>
<!-- Node30 -->
<g id="node30" class="node"><title>Node30</title>
<polygon fill="white" stroke="#bfbfbf" points="553.5,-392.5 553.5,-411.5 676.5,-411.5 676.5,-392.5 553.5,-392.5"/>
<text text-anchor="middle" x="615" y="-399.5" font-family="Helvetica,sans-Serif" font-size="10.00">IPlugAAX_Parameters.h</text>
</g>
<!-- Node1&#45;&gt;Node30 -->
<g id="edge61" class="edge"><title>Node1&#45;&gt;Node30</title>
<path fill="none" stroke="midnightblue" d="M669.557,-448.324C659.854,-440.263 645.185,-428.077 633.5,-418.369"/>
<polygon fill="midnightblue" stroke="midnightblue" points="635.562,-415.532 625.633,-411.834 631.089,-420.916 635.562,-415.532"/>
</g>
<!-- Node31 -->
<g id="node31" class="node"><title>Node31</title>
<polygon fill="white" stroke="#bfbfbf" points="695,-392.5 695,-411.5 797,-411.5 797,-392.5 695,-392.5"/>
<text text-anchor="middle" x="746" y="-399.5" font-family="Helvetica,sans-Serif" font-size="10.00">AAX_CEffectGUI.h</text>
</g>
<!-- Node1&#45;&gt;Node31 -->
<g id="edge62" class="edge"><title>Node1&#45;&gt;Node31</title>
<path fill="none" stroke="midnightblue" d="M690.604,-448.324C700.456,-440.263 715.351,-428.077 727.215,-418.369"/>
<polygon fill="midnightblue" stroke="midnightblue" points="729.68,-420.875 735.203,-411.834 725.247,-415.457 729.68,-420.875"/>
</g>
<!-- Node32 -->
<g id="node32" class="node"><title>Node32</title>
<polygon fill="white" stroke="#bfbfbf" points="815,-392.5 815,-411.5 983,-411.5 983,-392.5 815,-392.5"/>
<text text-anchor="middle" x="899" y="-399.5" font-family="Helvetica,sans-Serif" font-size="10.00">AAX_Push8ByteStructAlignment.h</text>
</g>
<!-- Node1&#45;&gt;Node32 -->
<g id="edge63" class="edge"><title>Node1&#45;&gt;Node32</title>
<path fill="none" stroke="midnightblue" d="M714.219,-448.562C752.005,-439.245 812.973,-424.212 854.458,-413.983"/>
<polygon fill="midnightblue" stroke="midnightblue" points="855.428,-417.349 864.299,-411.556 853.752,-410.552 855.428,-417.349"/>
</g>
<!-- Node33 -->
<g id="node33" class="node"><title>Node33</title>
<polygon fill="white" stroke="#bfbfbf" points="1001.5,-392.5 1001.5,-411.5 1138.5,-411.5 1138.5,-392.5 1001.5,-392.5"/>
<text text-anchor="middle" x="1070" y="-399.5" font-family="Helvetica,sans-Serif" font-size="10.00">AAX_PopStructAlignment.h</text>
</g>
<!-- Node1&#45;&gt;Node33 -->
<g id="edge64" class="edge"><title>Node1&#45;&gt;Node33</title>
<path fill="none" stroke="midnightblue" d="M714.268,-452.255C777.586,-443.488 914.122,-424.583 998.417,-412.912"/>
<polygon fill="midnightblue" stroke="midnightblue" points="999.004,-416.364 1008.43,-411.525 998.043,-409.43 999.004,-416.364"/>
</g>
<!-- Node3 -->
<g id="node3" class="node"><title>Node3</title>
<g id="a_node3"><a xlink:href="_i_plug_logger_8h.html" target="_top" xlink:title="IPlug Logging functionailty To trace some arbitrary data: Trace(TRACELOC, &quot;%s:%d&quot;, myStr, myInt); To simply create a trace entry in the log: TRACE; No need to wrap tracer calls in #ifdef TRACER_BUILD because Trace is a no&#45;op unless TRACER_BUILD is defined. ">
<polygon fill="white" stroke="black" points="320.5,-112.5 320.5,-131.5 397.5,-131.5 397.5,-112.5 320.5,-112.5"/>
<text text-anchor="middle" x="359" y="-119.5" font-family="Helvetica,sans-Serif" font-size="10.00">IPlugLogger.h</text>
</a>
</g>
</g>
<!-- Node2&#45;&gt;Node3 -->
<g id="edge2" class="edge"><title>Node2&#45;&gt;Node3</title>
<path fill="none" stroke="midnightblue" d="M372.358,-168.083C370.214,-160.849 367.121,-150.409 364.451,-141.397"/>
<polygon fill="midnightblue" stroke="midnightblue" points="367.79,-140.345 361.593,-131.751 361.078,-142.333 367.79,-140.345"/>
</g>
<!-- Node4 -->
<g id="node4" class="node"><title>Node4</title>
<polygon fill="white" stroke="#bfbfbf" points="487.5,-0.5 487.5,-19.5 530.5,-19.5 530.5,-0.5 487.5,-0.5"/>
<text text-anchor="middle" x="509" y="-7.5" font-family="Helvetica,sans-Serif" font-size="10.00">cstdio</text>
</g>
<!-- Node3&#45;&gt;Node4 -->
<g id="edge3" class="edge"><title>Node3&#45;&gt;Node4</title>
<path fill="none" stroke="midnightblue" d="M367.054,-112.306C379.524,-99.1389 404.618,-73.7916 429,-56 445.63,-43.8652 465.848,-32.518 481.799,-24.2539"/>
<polygon fill="midnightblue" stroke="midnightblue" points="483.776,-27.1752 491.108,-19.5272 480.607,-20.9336 483.776,-27.1752"/>
</g>
<!-- Node5 -->
<g id="node5" class="node"><title>Node5</title>
<polygon fill="white" stroke="#bfbfbf" points="320,-0.5 320,-19.5 366,-19.5 366,-0.5 320,-0.5"/>
<text text-anchor="middle" x="343" y="-7.5" font-family="Helvetica,sans-Serif" font-size="10.00">cctype</text>
</g>
<!-- Node3&#45;&gt;Node5 -->
<g id="edge4" class="edge"><title>Node3&#45;&gt;Node5</title>
<path fill="none" stroke="midnightblue" d="M348.838,-112.185C340.092,-103.87 328.1,-90.539 323,-76 317.457,-60.1968 324.196,-41.9509 331.309,-28.8208"/>
<polygon fill="midnightblue" stroke="midnightblue" points="334.511,-30.2845 336.624,-19.9025 328.498,-26.7009 334.511,-30.2845"/>
</g>
<!-- Node6 -->
<g id="node6" class="node"><title>Node6</title>
<polygon fill="white" stroke="#bfbfbf" points="332.5,-56.5 332.5,-75.5 381.5,-75.5 381.5,-56.5 332.5,-56.5"/>
<text text-anchor="middle" x="357" y="-63.5" font-family="Helvetica,sans-Serif" font-size="10.00">cstdarg</text>
</g>
<!-- Node3&#45;&gt;Node6 -->
<g id="edge5" class="edge"><title>Node3&#45;&gt;Node6</title>
<path fill="none" stroke="midnightblue" d="M358.67,-112.083C358.408,-105.006 358.032,-94.8611 357.703,-85.9865"/>
<polygon fill="midnightblue" stroke="midnightblue" points="361.192,-85.6147 357.324,-75.7511 354.197,-85.8738 361.192,-85.6147"/>
</g>
<!-- Node7 -->
<g id="node7" class="node"><title>Node7</title>
<polygon fill="white" stroke="#bfbfbf" points="536,-56.5 536,-75.5 582,-75.5 582,-56.5 536,-56.5"/>
<text text-anchor="middle" x="559" y="-63.5" font-family="Helvetica,sans-Serif" font-size="10.00">cstdint</text>
</g>
<!-- Node3&#45;&gt;Node7 -->
<g id="edge6" class="edge"><title>Node3&#45;&gt;Node7</title>
<path fill="none" stroke="midnightblue" d="M391.239,-112.492C423.1,-104.056 473.486,-90.6396 526.093,-76.2254"/>
<polygon fill="midnightblue" stroke="midnightblue" points="527.221,-79.5454 535.938,-73.5233 525.368,-72.795 527.221,-79.5454"/>
</g>
<!-- Node8 -->
<g id="node8" class="node"><title>Node8</title>
<polygon fill="white" stroke="#bfbfbf" points="53,-0.5 53,-19.5 99,-19.5 99,-0.5 53,-0.5"/>
<text text-anchor="middle" x="76" y="-7.5" font-family="Helvetica,sans-Serif" font-size="10.00">cstring</text>
</g>
<!-- Node3&#45;&gt;Node8 -->
<g id="edge7" class="edge"><title>Node3&#45;&gt;Node8</title>
<path fill="none" stroke="midnightblue" d="M346.805,-112.437C326.814,-98.75 285.443,-71.8736 247,-56 200.843,-36.9411 144.299,-23.9335 109.206,-16.9824"/>
<polygon fill="midnightblue" stroke="midnightblue" points="109.521,-13.4787 99.0393,-15.0197 108.195,-20.3518 109.521,-13.4787"/>
</g>
<!-- Node9 -->
<g id="node9" class="node"><title>Node9</title>
<polygon fill="white" stroke="#bfbfbf" points="667.5,-56.5 667.5,-75.5 708.5,-75.5 708.5,-56.5 667.5,-56.5"/>
<text text-anchor="middle" x="688" y="-63.5" font-family="Helvetica,sans-Serif" font-size="10.00">ctime</text>
</g>
<!-- Node3&#45;&gt;Node9 -->
<g id="edge8" class="edge"><title>Node3&#45;&gt;Node9</title>
<path fill="none" stroke="midnightblue" d="M397.554,-116.972C452.974,-110.796 558.459,-97.6029 657.567,-75.7934"/>
<polygon fill="midnightblue" stroke="midnightblue" points="658.449,-79.1828 667.445,-73.5859 656.922,-72.3513 658.449,-79.1828"/>
</g>
<!-- Node10 -->
<g id="node10" class="node"><title>Node10</title>
<polygon fill="white" stroke="#bfbfbf" points="600.5,-56.5 600.5,-75.5 649.5,-75.5 649.5,-56.5 600.5,-56.5"/>
<text text-anchor="middle" x="625" y="-63.5" font-family="Helvetica,sans-Serif" font-size="10.00">cassert</text>
</g>
<!-- Node3&#45;&gt;Node10 -->
<g id="edge9" class="edge"><title>Node3&#45;&gt;Node10</title>
<path fill="none" stroke="midnightblue" d="M397.754,-114.305C441.969,-106.485 516.645,-92.7291 590.259,-76.0446"/>
<polygon fill="midnightblue" stroke="midnightblue" points="591.197,-79.4207 600.165,-73.7799 589.637,-72.5967 591.197,-79.4207"/>
</g>
<!-- Node11 -->
<g id="node11" class="node"><title>Node11</title>
<polygon fill="white" stroke="#bfbfbf" points="174,-56.5 174,-75.5 238,-75.5 238,-56.5 174,-56.5"/>
<text text-anchor="middle" x="206" y="-63.5" font-family="Helvetica,sans-Serif" font-size="10.00">wdlstring.h</text>
</g>
<!-- Node3&#45;&gt;Node11 -->
<g id="edge10" class="edge"><title>Node3&#45;&gt;Node11</title>
<path fill="none" stroke="midnightblue" d="M334.757,-112.444C309.129,-103.399 268.515,-89.064 239.762,-78.9158"/>
<polygon fill="midnightblue" stroke="midnightblue" points="240.725,-75.5442 230.13,-75.5164 238.395,-82.1452 240.725,-75.5442"/>
</g>
<!-- Node12 -->
<g id="node12" class="node"><title>Node12</title>
<polygon fill="white" stroke="#bfbfbf" points="104,-56.5 104,-75.5 156,-75.5 156,-56.5 104,-56.5"/>
<text text-anchor="middle" x="130" y="-63.5" font-family="Helvetica,sans-Serif" font-size="10.00">mutex.h</text>
</g>
<!-- Node3&#45;&gt;Node12 -->
<g id="edge11" class="edge"><title>Node3&#45;&gt;Node12</title>
<path fill="none" stroke="midnightblue" d="M321.02,-112.471C283.928,-104.079 225.629,-90.7238 166.275,-76.272"/>
<polygon fill="midnightblue" stroke="midnightblue" points="166.901,-72.822 156.356,-73.8488 165.24,-79.6221 166.901,-72.822"/>
</g>
<!-- Node13 -->
<g id="node13" class="node"><title>Node13</title>
<g id="a_node13"><a xlink:href="_i_plug_utilities_8h.html" target="_top" xlink:title="Utility functions and macros. ">
<polygon fill="white" stroke="black" points="438,-56.5 438,-75.5 518,-75.5 518,-56.5 438,-56.5"/>
<text text-anchor="middle" x="478" y="-63.5" font-family="Helvetica,sans-Serif" font-size="10.00">IPlugUtilities.h</text>
</a>
</g>
</g>
<!-- Node3&#45;&gt;Node13 -->
<g id="edge12" class="edge"><title>Node3&#45;&gt;Node13</title>
<path fill="none" stroke="midnightblue" d="M377.856,-112.444C397.266,-103.636 427.73,-89.8116 449.965,-79.722"/>
<polygon fill="midnightblue" stroke="midnightblue" points="451.572,-82.836 459.232,-75.5164 448.68,-76.4615 451.572,-82.836"/>
</g>
<!-- Node13&#45;&gt;Node2 -->
<g id="edge19" class="edge"><title>Node13&#45;&gt;Node2</title>
<path fill="none" stroke="midnightblue" d="M474.363,-75.7786C468.553,-89.0566 456.167,-114.547 440,-132 428.517,-144.397 413.045,-155.278 400.077,-163.234"/>
<polygon fill="midnightblue" stroke="midnightblue" points="398.003,-160.393 391.169,-168.49 401.561,-166.422 398.003,-160.393"/>
</g>
<!-- Node13&#45;&gt;Node4 -->
<g id="edge14" class="edge"><title>Node13&#45;&gt;Node4</title>
<path fill="none" stroke="midnightblue" d="M483.119,-56.083C487.408,-48.6127 493.658,-37.7244 498.942,-28.5199"/>
<polygon fill="midnightblue" stroke="midnightblue" points="502.033,-30.1662 503.976,-19.7511 495.962,-26.6811 502.033,-30.1662"/>
</g>
<!-- Node13&#45;&gt;Node5 -->
<g id="edge17" class="edge"><title>Node13&#45;&gt;Node5</title>
<path fill="none" stroke="midnightblue" d="M456.609,-56.4435C434.293,-47.5171 399.097,-33.4387 373.792,-23.3168"/>
<polygon fill="midnightblue" stroke="midnightblue" points="374.876,-19.9807 364.291,-19.5164 372.276,-26.4801 374.876,-19.9807"/>
</g>
<!-- Node13&#45;&gt;Node8 -->
<g id="edge16" class="edge"><title>Node13&#45;&gt;Node8</title>
<path fill="none" stroke="midnightblue" d="M437.985,-59.6249C358.674,-48.9711 182.857,-25.3539 109.336,-15.4779"/>
<polygon fill="midnightblue" stroke="midnightblue" points="109.631,-11.9863 99.2543,-14.1237 108.699,-18.924 109.631,-11.9863"/>
</g>
<!-- Node14 -->
<g id="node14" class="node"><title>Node14</title>
<polygon fill="white" stroke="#bfbfbf" points="612,-0.5 612,-19.5 656,-19.5 656,-0.5 612,-0.5"/>
<text text-anchor="middle" x="634" y="-7.5" font-family="Helvetica,sans-Serif" font-size="10.00">cmath</text>
</g>
<!-- Node13&#45;&gt;Node14 -->
<g id="edge13" class="edge"><title>Node13&#45;&gt;Node14</title>
<path fill="none" stroke="midnightblue" d="M502.719,-56.4435C529.617,-47.1326 572.709,-32.2163 602.131,-22.0315"/>
<polygon fill="midnightblue" stroke="midnightblue" points="603.614,-25.222 611.919,-18.6433 601.324,-18.607 603.614,-25.222"/>
</g>
<!-- Node15 -->
<g id="node15" class="node"><title>Node15</title>
<polygon fill="white" stroke="#bfbfbf" points="424.5,-0.5 424.5,-19.5 469.5,-19.5 469.5,-0.5 424.5,-0.5"/>
<text text-anchor="middle" x="447" y="-7.5" font-family="Helvetica,sans-Serif" font-size="10.00">cstdlib</text>
</g>
<!-- Node13&#45;&gt;Node15 -->
<g id="edge15" class="edge"><title>Node13&#45;&gt;Node15</title>
<path fill="none" stroke="midnightblue" d="M472.881,-56.083C468.592,-48.6127 462.342,-37.7244 457.058,-28.5199"/>
<polygon fill="midnightblue" stroke="midnightblue" points="460.038,-26.6811 452.024,-19.7511 453.967,-30.1662 460.038,-26.6811"/>
</g>
<!-- Node16 -->
<g id="node16" class="node"><title>Node16</title>
<g id="a_node16"><a xlink:href="_i_plug_constants_8h.html" target="_top" xlink:title="Constant definitions, magic numbers. ">
<polygon fill="white" stroke="black" points="767,-0.5 767,-19.5 859,-19.5 859,-0.5 767,-0.5"/>
<text text-anchor="middle" x="813" y="-7.5" font-family="Helvetica,sans-Serif" font-size="10.00">IPlugConstants.h</text>
</a>
</g>
</g>
<!-- Node13&#45;&gt;Node16 -->
<g id="edge18" class="edge"><title>Node13&#45;&gt;Node16</title>
<path fill="none" stroke="midnightblue" d="M518.097,-57.549C521.108,-57.0159 524.101,-56.4942 527,-56 606.696,-42.4135 699.146,-28.1358 756.863,-19.3987"/>
<polygon fill="midnightblue" stroke="midnightblue" points="757.509,-22.841 766.874,-17.8862 756.463,-15.9196 757.509,-22.841"/>
</g>
<!-- Node18 -->
<g id="node18" class="node"><title>Node18</title>
<g id="a_node18"><a xlink:href="_i_plug_base_graphics_8h.html" target="_top" xlink:title="An IPlugBase class for an IPlug plug&#45;in that uses IGraphics for it&#39;s UI. ">
<polygon fill="white" stroke="black" points="347.5,-336.5 347.5,-355.5 456.5,-355.5 456.5,-336.5 347.5,-336.5"/>
<text text-anchor="middle" x="402" y="-343.5" font-family="Helvetica,sans-Serif" font-size="10.00">IPlugBaseGraphics.h</text>
</a>
</g>
</g>
<!-- Node17&#45;&gt;Node18 -->
<g id="edge21" class="edge"><title>Node17&#45;&gt;Node18</title>
<path fill="none" stroke="midnightblue" d="M438.734,-392.083C432.455,-384.377 423.212,-373.033 415.569,-363.653"/>
<polygon fill="midnightblue" stroke="midnightblue" points="418.161,-361.293 409.131,-355.751 412.734,-365.714 418.161,-361.293"/>
</g>
<!-- Node25 -->
<g id="node25" class="node"><title>Node25</title>
<g id="a_node25"><a xlink:href="_i_plug_processor_8h.html" target="_top" xlink:title="The base class for IPlug Audio Processing. ">
<polygon fill="white" stroke="black" points="653,-280.5 653,-299.5 745,-299.5 745,-280.5 653,-280.5"/>
<text text-anchor="middle" x="699" y="-287.5" font-family="Helvetica,sans-Serif" font-size="10.00">IPlugProcessor.h</text>
</a>
</g>
</g>
<!-- Node17&#45;&gt;Node25 -->
<g id="edge44" class="edge"><title>Node17&#45;&gt;Node25</title>
<path fill="none" stroke="midnightblue" d="M465.852,-392.368C510.283,-373.051 617.904,-326.259 669.909,-303.648"/>
<polygon fill="midnightblue" stroke="midnightblue" points="671.465,-306.788 679.24,-299.591 668.673,-300.369 671.465,-306.788"/>
</g>
<!-- Node19 -->
<g id="node19" class="node"><title>Node19</title>
<g id="a_node19"><a xlink:href="_i_plug_base_8h.html" target="_top" xlink:title="The lowest level base class of an IPlug plug&#45;in. ">
<polygon fill="white" stroke="black" points="327,-280.5 327,-299.5 397,-299.5 397,-280.5 327,-280.5"/>
<text text-anchor="middle" x="362" y="-287.5" font-family="Helvetica,sans-Serif" font-size="10.00">IPlugBase.h</text>
</a>
</g>
</g>
<!-- Node18&#45;&gt;Node19 -->
<g id="edge22" class="edge"><title>Node18&#45;&gt;Node19</title>
<path fill="none" stroke="midnightblue" d="M395.395,-336.083C389.745,-328.455 381.455,-317.264 374.549,-307.941"/>
<polygon fill="midnightblue" stroke="midnightblue" points="377.247,-305.703 368.482,-299.751 371.622,-309.87 377.247,-305.703"/>
</g>
<!-- Node19&#45;&gt;Node2 -->
<g id="edge27" class="edge"><title>Node19&#45;&gt;Node2</title>
<path fill="none" stroke="midnightblue" d="M362.403,-280.14C363.036,-267.604 364.461,-243.986 367,-224 368.114,-215.233 369.773,-205.577 371.291,-197.465"/>
<polygon fill="midnightblue" stroke="midnightblue" points="374.739,-198.072 373.212,-187.588 367.867,-196.736 374.739,-198.072"/>
</g>
<!-- Node19&#45;&gt;Node7 -->
<g id="edge24" class="edge"><title>Node19&#45;&gt;Node7</title>
<path fill="none" stroke="midnightblue" d="M366.243,-280.128C372.644,-267.168 385.567,-242.582 400,-224 444.591,-166.591 509.091,-109.108 540.465,-82.4182"/>
<polygon fill="midnightblue" stroke="midnightblue" points="543.004,-84.8553 548.391,-75.7324 538.491,-79.5045 543.004,-84.8553"/>
</g>
<!-- Node19&#45;&gt;Node8 -->
<g id="edge23" class="edge"><title>Node19&#45;&gt;Node8</title>
<path fill="none" stroke="midnightblue" d="M326.961,-285.892C236.113,-276.873 0,-246.902 0,-179 0,-179 0,-179 0,-121 0,-90.2048 6.47039,-81.3191 24,-56 32.1764,-44.1903 44.1528,-33.5418 54.5515,-25.5714"/>
<polygon fill="midnightblue" stroke="midnightblue" points="56.7927,-28.2685 62.7973,-19.5395 52.6598,-22.6188 56.7927,-28.2685"/>
</g>
<!-- Node19&#45;&gt;Node12 -->
<g id="edge26" class="edge"><title>Node19&#45;&gt;Node12</title>
<path fill="none" stroke="midnightblue" d="M339.473,-280.427C320.282,-272.543 292.482,-259.709 271,-244 215.182,-203.181 203.095,-188.34 163,-132 152.578,-117.355 143.562,-98.9523 137.601,-85.4697"/>
<polygon fill="midnightblue" stroke="midnightblue" points="140.651,-83.7003 133.506,-75.8774 134.213,-86.4486 140.651,-83.7003"/>
</g>
<!-- Node19&#45;&gt;Node13 -->
<g id="edge39" class="edge"><title>Node19&#45;&gt;Node13</title>
<path fill="none" stroke="midnightblue" d="M354.645,-280.401C337.774,-259.58 299.559,-205.423 324,-168 345.764,-134.676 372.577,-153.613 406,-132 427.751,-117.935 449.356,-97.3063 463.139,-83.079"/>
<polygon fill="midnightblue" stroke="midnightblue" points="465.948,-85.2032 470.292,-75.5398 460.87,-80.3852 465.948,-85.2032"/>
</g>
<!-- Node19&#45;&gt;Node16 -->
<g id="edge28" class="edge"><title>Node19&#45;&gt;Node16</title>
<path fill="none" stroke="midnightblue" d="M397.093,-287.593C469.509,-284.122 632.607,-273.209 679,-244 759.623,-193.239 796.878,-75.2461 808.66,-29.5454"/>
<polygon fill="midnightblue" stroke="midnightblue" points="812.068,-30.3408 811.064,-19.7937 805.272,-28.6649 812.068,-30.3408"/>
</g>
<!-- Node20 -->
<g id="node20" class="node"><title>Node20</title>
<polygon fill="white" stroke="#bfbfbf" points="409.5,-224.5 409.5,-243.5 458.5,-243.5 458.5,-224.5 409.5,-224.5"/>
<text text-anchor="middle" x="434" y="-231.5" font-family="Helvetica,sans-Serif" font-size="10.00">ptrlist.h</text>
</g>
<!-- Node19&#45;&gt;Node20 -->
<g id="edge25" class="edge"><title>Node19&#45;&gt;Node20</title>
<path fill="none" stroke="midnightblue" d="M373.568,-280.324C384.42,-272.185 400.881,-259.839 413.883,-250.087"/>
<polygon fill="midnightblue" stroke="midnightblue" points="416.321,-252.634 422.221,-243.834 412.121,-247.034 416.321,-252.634"/>
</g>
<!-- Node21 -->
<g id="node21" class="node"><title>Node21</title>
<g id="a_node21"><a xlink:href="_i_plug_structs_8h_source.html" target="_top" xlink:title="IPlugStructs.h">
<polygon fill="white" stroke="black" points="591.5,-224.5 591.5,-243.5 670.5,-243.5 670.5,-224.5 591.5,-224.5"/>
<text text-anchor="middle" x="631" y="-231.5" font-family="Helvetica,sans-Serif" font-size="10.00">IPlugStructs.h</text>
</a>
</g>
</g>
<!-- Node19&#45;&gt;Node21 -->
<g id="edge29" class="edge"><title>Node19&#45;&gt;Node21</title>
<path fill="none" stroke="midnightblue" d="M397.167,-281.94C444.261,-272.487 528.066,-255.663 581.515,-244.934"/>
<polygon fill="midnightblue" stroke="midnightblue" points="582.337,-248.339 591.453,-242.939 580.959,-241.476 582.337,-248.339"/>
</g>
<!-- Node24 -->
<g id="node24" class="node"><title>Node24</title>
<g id="a_node24"><a xlink:href="_i_plug_parameter_8h_source.html" target="_top" xlink:title="IPlugParameter.h">
<polygon fill="white" stroke="black" points="172,-112.5 172,-131.5 264,-131.5 264,-112.5 172,-112.5"/>
<text text-anchor="middle" x="218" y="-119.5" font-family="Helvetica,sans-Serif" font-size="10.00">IPlugParameter.h</text>
</a>
</g>
</g>
<!-- Node19&#45;&gt;Node24 -->
<g id="edge40" class="edge"><title>Node19&#45;&gt;Node24</title>
<path fill="none" stroke="midnightblue" d="M343.742,-280.449C328.342,-272.579 306.409,-259.753 291,-244 260.377,-212.694 236.968,-166.218 225.601,-140.947"/>
<polygon fill="midnightblue" stroke="midnightblue" points="228.693,-139.282 221.48,-131.521 222.279,-142.085 228.693,-139.282"/>
</g>
<!-- Node21&#45;&gt;Node2 -->
<g id="edge33" class="edge"><title>Node21&#45;&gt;Node2</title>
<path fill="none" stroke="midnightblue" d="M591.281,-224.622C546.702,-215.218 474.269,-199.94 425.653,-189.685"/>
<polygon fill="midnightblue" stroke="midnightblue" points="426.166,-186.216 415.659,-187.577 424.721,-193.065 426.166,-186.216"/>
</g>
<!-- Node21&#45;&gt;Node11 -->
<g id="edge31" class="edge"><title>Node21&#45;&gt;Node11</title>
<path fill="none" stroke="midnightblue" d="M604.014,-224.485C526.923,-200.162 311.217,-132.1 311,-132 279.765,-117.674 246.483,-95.8073 225.96,-81.4578"/>
<polygon fill="midnightblue" stroke="midnightblue" points="227.919,-78.5559 217.736,-75.63 223.872,-84.2674 227.919,-78.5559"/>
</g>
<!-- Node21&#45;&gt;Node16 -->
<g id="edge32" class="edge"><title>Node21&#45;&gt;Node16</title>
<path fill="none" stroke="midnightblue" d="M640.314,-224.242C658.189,-207.235 698.176,-168.224 728,-132 756.97,-96.8131 786.639,-52.2353 802.105,-28.2154"/>
<polygon fill="midnightblue" stroke="midnightblue" points="805.215,-29.8477 807.649,-19.5362 799.316,-26.0792 805.215,-29.8477"/>
</g>
<!-- Node22 -->
<g id="node22" class="node"><title>Node22</title>
<polygon fill="white" stroke="#bfbfbf" points="577,-168.5 577,-187.5 633,-187.5 633,-168.5 577,-168.5"/>
<text text-anchor="middle" x="605" y="-175.5" font-family="Helvetica,sans-Serif" font-size="10.00">algorithm</text>
</g>
<!-- Node21&#45;&gt;Node22 -->
<g id="edge30" class="edge"><title>Node21&#45;&gt;Node22</title>
<path fill="none" stroke="midnightblue" d="M626.707,-224.083C623.148,-216.691 617.978,-205.953 613.576,-196.811"/>
<polygon fill="midnightblue" stroke="midnightblue" points="616.705,-195.243 609.213,-187.751 610.398,-198.279 616.705,-195.243"/>
</g>
<!-- Node23 -->
<g id="node23" class="node"><title>Node23</title>
<g id="a_node23"><a xlink:href="_i_plug_midi_8h_source.html" target="_top" xlink:title="IPlugMidi.h">
<polygon fill="white" stroke="black" points="654.5,-112.5 654.5,-131.5 719.5,-131.5 719.5,-112.5 654.5,-112.5"/>
<text text-anchor="middle" x="687" y="-119.5" font-family="Helvetica,sans-Serif" font-size="10.00">IPlugMidi.h</text>
</a>
</g>
</g>
<!-- Node21&#45;&gt;Node23 -->
<g id="edge34" class="edge"><title>Node21&#45;&gt;Node23</title>
<path fill="none" stroke="midnightblue" d="M635.394,-224.368C644.554,-206.376 665.847,-164.55 678.026,-140.627"/>
<polygon fill="midnightblue" stroke="midnightblue" points="681.208,-142.091 682.626,-131.591 674.97,-138.915 681.208,-142.091"/>
</g>
<!-- Node23&#45;&gt;Node7 -->
<g id="edge36" class="edge"><title>Node23&#45;&gt;Node7</title>
<path fill="none" stroke="midnightblue" d="M666.718,-112.444C645.653,-103.557 612.483,-89.5632 588.514,-79.4514"/>
<polygon fill="midnightblue" stroke="midnightblue" points="589.761,-76.1787 579.187,-75.5164 587.04,-82.6283 589.761,-76.1787"/>
</g>
<!-- Node23&#45;&gt;Node10 -->
<g id="edge35" class="edge"><title>Node23&#45;&gt;Node10</title>
<path fill="none" stroke="midnightblue" d="M677.039,-112.324C667.873,-104.341 654.063,-92.3128 642.972,-82.6529"/>
<polygon fill="midnightblue" stroke="midnightblue" points="644.982,-79.7624 635.143,-75.8339 640.385,-85.041 644.982,-79.7624"/>
</g>
<!-- Node23&#45;&gt;Node13 -->
<g id="edge38" class="edge"><title>Node23&#45;&gt;Node13</title>
<path fill="none" stroke="midnightblue" d="M654.344,-112.562C618.435,-103.285 560.59,-88.3392 521.011,-78.1129"/>
<polygon fill="midnightblue" stroke="midnightblue" points="521.674,-74.6694 511.117,-75.5565 519.923,-81.4468 521.674,-74.6694"/>
</g>
<!-- Node23&#45;&gt;Node16 -->
<g id="edge37" class="edge"><title>Node23&#45;&gt;Node16</title>
<path fill="none" stroke="midnightblue" d="M696.887,-112.368C718.141,-93.8137 768.427,-49.9129 795.317,-26.4376"/>
<polygon fill="midnightblue" stroke="midnightblue" points="797.928,-28.8046 803.159,-19.5914 793.324,-23.5314 797.928,-28.8046"/>
</g>
<!-- Node24&#45;&gt;Node8 -->
<g id="edge41" class="edge"><title>Node24&#45;&gt;Node8</title>
<path fill="none" stroke="midnightblue" d="M171.717,-114.508C145.877,-108.589 114.964,-97.3347 95,-76 83.3369,-63.5363 78.7917,-44.3029 77.0421,-29.9874"/>
<polygon fill="midnightblue" stroke="midnightblue" points="80.5082,-29.4438 76.1558,-19.7843 73.5345,-30.0497 80.5082,-29.4438"/>
</g>
<!-- Node24&#45;&gt;Node11 -->
<g id="edge42" class="edge"><title>Node24&#45;&gt;Node11</title>
<path fill="none" stroke="midnightblue" d="M216.018,-112.083C214.428,-104.927 212.141,-94.6353 210.154,-85.6911"/>
<polygon fill="midnightblue" stroke="midnightblue" points="213.531,-84.7537 207.945,-75.7511 206.697,-86.2722 213.531,-84.7537"/>
</g>
<!-- Node24&#45;&gt;Node13 -->
<g id="edge43" class="edge"><title>Node24&#45;&gt;Node13</title>
<path fill="none" stroke="midnightblue" d="M259.198,-112.444C304.917,-102.948 378.704,-87.623 427.773,-77.4318"/>
<polygon fill="midnightblue" stroke="midnightblue" points="428.77,-80.7995 437.849,-75.339 427.346,-73.9457 428.77,-80.7995"/>
</g>
<!-- Node25&#45;&gt;Node2 -->
<g id="edge48" class="edge"><title>Node25&#45;&gt;Node2</title>
<path fill="none" stroke="midnightblue" d="M675.504,-280.499C651.744,-271.778 614.055,-257.6 582,-244 562.597,-235.768 558.788,-231.259 539,-224 500.692,-209.948 455.949,-197.953 422.883,-189.89"/>
<polygon fill="midnightblue" stroke="midnightblue" points="423.558,-186.452 413.016,-187.515 421.92,-193.258 423.558,-186.452"/>
</g>
<!-- Node25&#45;&gt;Node7 -->
<g id="edge46" class="edge"><title>Node25&#45;&gt;Node7</title>
<path fill="none" stroke="midnightblue" d="M704.608,-280.142C721.531,-252.177 768.504,-164.522 728,-112 691.431,-64.5807 655.442,-89.7479 592.043,-75.9797"/>
<polygon fill="midnightblue" stroke="midnightblue" points="592.604,-72.5138 582.059,-73.5364 590.94,-79.3132 592.604,-72.5138"/>
</g>
<!-- Node25&#45;&gt;Node8 -->
<g id="edge45" class="edge"><title>Node25&#45;&gt;Node8</title>
<path fill="none" stroke="midnightblue" d="M667.206,-280.46C634.131,-271.534 580.866,-257.036 535,-244 504.698,-235.387 497.392,-232.291 467,-224 330.814,-186.846 289.229,-195.192 163,-132 123.208,-112.079 102.086,-114.632 80,-76 72.0212,-62.044 71.6716,-43.5389 72.9378,-29.8434"/>
<polygon fill="midnightblue" stroke="midnightblue" points="76.4412,-30.0414 74.2494,-19.6758 69.4987,-29.1458 76.4412,-30.0414"/>
</g>
<!-- Node25&#45;&gt;Node13 -->
<g id="edge51" class="edge"><title>Node25&#45;&gt;Node13</title>
<path fill="none" stroke="midnightblue" d="M697.189,-280.281C694.346,-267.512 688.193,-243.161 679,-224 665.989,-196.882 662.705,-188.823 641,-168 599.827,-128.5 540.726,-96.6207 506.156,-79.862"/>
<polygon fill="midnightblue" stroke="midnightblue" points="507.624,-76.6846 497.091,-75.5423 504.613,-83.0038 507.624,-76.6846"/>
</g>
<!-- Node25&#45;&gt;Node16 -->
<g id="edge49" class="edge"><title>Node25&#45;&gt;Node16</title>
<path fill="none" stroke="midnightblue" d="M745.235,-286.372C852.461,-279.016 1109,-253.619 1109,-179 1109,-179 1109,-179 1109,-121 1109,-86.8442 1096.36,-75.0417 1068,-56 1036.29,-34.7084 934.345,-21.8567 869.361,-15.6208"/>
<polygon fill="midnightblue" stroke="midnightblue" points="869.548,-12.1231 859.266,-14.6765 868.896,-19.0927 869.548,-12.1231"/>
</g>
<!-- Node25&#45;&gt;Node20 -->
<g id="edge47" class="edge"><title>Node25&#45;&gt;Node20</title>
<path fill="none" stroke="midnightblue" d="M653.894,-280.435C608.217,-271.664 535.582,-257.448 473,-244 471.556,-243.69 470.084,-243.369 468.597,-243.042"/>
<polygon fill="midnightblue" stroke="midnightblue" points="469.256,-239.603 458.732,-240.826 467.722,-246.433 469.256,-239.603"/>
</g>
<!-- Node25&#45;&gt;Node21 -->
<g id="edge50" class="edge"><title>Node25&#45;&gt;Node21</title>
<path fill="none" stroke="midnightblue" d="M688.075,-280.324C677.825,-272.185 662.279,-259.839 649.999,-250.087"/>
<polygon fill="midnightblue" stroke="midnightblue" points="652.132,-247.312 642.124,-243.834 647.779,-252.794 652.132,-247.312"/>
</g>
<!-- Node26 -->
<g id="node26" class="node"><title>Node26</title>
<g id="a_node26"><a xlink:href="_n_chan_delay_8h_source.html" target="_top" xlink:title="NChanDelay.h">
<polygon fill="white" stroke="black" points="803.5,-224.5 803.5,-243.5 884.5,-243.5 884.5,-224.5 803.5,-224.5"/>
<text text-anchor="middle" x="844" y="-231.5" font-family="Helvetica,sans-Serif" font-size="10.00">NChanDelay.h</text>
</a>
</g>
</g>
<!-- Node25&#45;&gt;Node26 -->
<g id="edge52" class="edge"><title>Node25&#45;&gt;Node26</title>
<path fill="none" stroke="midnightblue" d="M721.976,-280.444C746.157,-271.438 784.418,-257.189 811.646,-247.049"/>
<polygon fill="midnightblue" stroke="midnightblue" points="812.982,-250.286 821.132,-243.516 810.539,-243.727 812.982,-250.286"/>
</g>
<!-- Node27 -->
<g id="node27" class="node"><title>Node27</title>
<g id="a_node27"><a xlink:href="_i_plug_processor_8cpp_source.html" target="_top" xlink:title="IPlugProcessor.cpp">
<polygon fill="white" stroke="black" points="879,-112.5 879,-131.5 981,-131.5 981,-112.5 879,-112.5"/>
<text text-anchor="middle" x="930" y="-119.5" font-family="Helvetica,sans-Serif" font-size="10.00">IPlugProcessor.cpp</text>
</a>
</g>
</g>
<!-- Node25&#45;&gt;Node27 -->
<g id="edge53" class="edge"><title>Node25&#45;&gt;Node27</title>
<path fill="none" stroke="midnightblue" d="M745.05,-282.724C793.054,-275.734 863.78,-262.874 884,-244 912.945,-216.982 919.473,-168.024 923.943,-141.416"/>
<polygon fill="midnightblue" stroke="midnightblue" points="927.398,-141.983 925.792,-131.511 920.516,-140.698 927.398,-141.983"/>
</g>
<!-- Node27&#45;&gt;Node4 -->
<g id="edge55" class="edge"><title>Node27&#45;&gt;Node4</title>
<path fill="none" stroke="midnightblue" d="M904.295,-112.398C864.46,-99.2393 785.284,-73.7727 717,-56 654.998,-39.8626 581.557,-24.94 540.621,-16.9906"/>
<polygon fill="midnightblue" stroke="midnightblue" points="541.181,-13.5342 530.699,-15.077 539.855,-20.4075 541.181,-13.5342"/>
</g>
<!-- Node27&#45;&gt;Node9 -->
<g id="edge56" class="edge"><title>Node27&#45;&gt;Node9</title>
<path fill="none" stroke="midnightblue" d="M888.658,-112.491C846.8,-103.763 780.255,-89.5796 723,-76 721.55,-75.6561 720.068,-75.2986 718.572,-74.9329"/>
<polygon fill="midnightblue" stroke="midnightblue" points="719.247,-71.4938 708.696,-72.4593 717.546,-78.2841 719.247,-71.4938"/>
</g>
<!-- Node27&#45;&gt;Node10 -->
<g id="edge57" class="edge"><title>Node27&#45;&gt;Node10</title>
<path fill="none" stroke="midnightblue" d="M878.821,-114.127C826.069,-106.687 741.284,-93.7402 659.727,-76.2154"/>
<polygon fill="midnightblue" stroke="midnightblue" points="660.314,-72.7615 649.799,-74.0556 658.826,-79.6015 660.314,-72.7615"/>
</g>
<!-- Node27&#45;&gt;Node14 -->
<g id="edge54" class="edge"><title>Node27&#45;&gt;Node14</title>
<path fill="none" stroke="midnightblue" d="M979.039,-112.41C1022.85,-102.683 1076.49,-84.3892 1051,-56 1038.15,-41.6859 762.281,-20.3344 666.452,-13.3225"/>
<polygon fill="midnightblue" stroke="midnightblue" points="666.427,-9.81154 656.2,-12.5769 665.919,-16.7931 666.427,-9.81154"/>
</g>
<!-- Node27&#45;&gt;Node25 -->
<g id="edge60" class="edge"><title>Node27&#45;&gt;Node25</title>
<path fill="none" stroke="midnightblue" d="M934.413,-131.511C938.88,-153.588 935.08,-213.122 902,-244 881.385,-263.243 808.272,-276.234 755.607,-283.127"/>
<polygon fill="midnightblue" stroke="midnightblue" points="754.848,-279.695 745.368,-284.424 755.728,-286.64 754.848,-279.695"/>
</g>
<!-- Node28 -->
<g id="node28" class="node"><title>Node28</title>
<polygon fill="white" stroke="#bfbfbf" points="879,-56.5 879,-75.5 947,-75.5 947,-56.5 879,-56.5"/>
<text text-anchor="middle" x="913" y="-63.5" font-family="Helvetica,sans-Serif" font-size="10.00">wdlendian.h</text>
</g>
<!-- Node27&#45;&gt;Node28 -->
<g id="edge58" class="edge"><title>Node27&#45;&gt;Node28</title>
<path fill="none" stroke="midnightblue" d="M927.193,-112.083C924.915,-104.849 921.629,-94.4087 918.792,-85.3968"/>
<polygon fill="midnightblue" stroke="midnightblue" points="922.096,-84.2385 915.755,-75.7511 915.419,-86.3406 922.096,-84.2385"/>
</g>
<!-- Node29 -->
<g id="node29" class="node"><title>Node29</title>
<polygon fill="white" stroke="#bfbfbf" points="965.5,-56.5 965.5,-75.5 1042.5,-75.5 1042.5,-56.5 965.5,-56.5"/>
<text text-anchor="middle" x="1004" y="-63.5" font-family="Helvetica,sans-Serif" font-size="10.00">wdl_base64.h</text>
</g>
<!-- Node27&#45;&gt;Node29 -->
<g id="edge59" class="edge"><title>Node27&#45;&gt;Node29</title>
<path fill="none" stroke="midnightblue" d="M941.889,-112.324C953.15,-104.107 970.287,-91.6017 983.709,-81.8069"/>
<polygon fill="midnightblue" stroke="midnightblue" points="985.88,-84.5559 991.894,-75.8339 981.753,-78.9014 985.88,-84.5559"/>
</g>
</g>
</svg>
