<?xml version="1.0" encoding="UTF-8" standalone="no"?>
<!DOCTYPE svg PUBLIC "-//W3C//DTD SVG 1.1//EN"
 "http://www.w3.org/Graphics/SVG/1.1/DTD/svg11.dtd">
<!-- Generated by graphviz version 2.36.0 (20140111.2315)
 -->
<!-- Title: IPlugUtilities.h Pages: 1 -->
<svg width="1516pt" height="488pt"
 viewBox="0.00 0.00 1516.00 488.00" xmlns="http://www.w3.org/2000/svg" xmlns:xlink="http://www.w3.org/1999/xlink">
<g id="graph0" class="graph" transform="scale(1 1) rotate(0) translate(4 484)">
<title>IPlugUtilities.h</title>
<polygon fill="white" stroke="none" points="-4,4 -4,-484 1512,-484 1512,4 -4,4"/>
<!-- Node1 -->
<g id="node1" class="node"><title>Node1</title>
<polygon fill="#bfbfbf" stroke="black" points="461,-460.5 461,-479.5 541,-479.5 541,-460.5 461,-460.5"/>
<text text-anchor="middle" x="501" y="-467.5" font-family="Helvetica,sans-Serif" font-size="10.00">IPlugUtilities.h</text>
</g>
<!-- Node2 -->
<g id="node2" class="node"><title>Node2</title>
<g id="a_node2"><a xlink:href="_i_plug_logger_8h.html" target="_top" xlink:title="IPlug Logging functionailty To trace some arbitrary data: Trace(TRACELOC, &quot;%s:%d&quot;, myStr, myInt); To simply create a trace entry in the log: TRACE; No need to wrap tracer calls in #ifdef TRACER_BUILD because Trace is a no&#45;op unless TRACER_BUILD is defined. ">
<polygon fill="white" stroke="black" points="553.5,-404.5 553.5,-423.5 630.5,-423.5 630.5,-404.5 553.5,-404.5"/>
<text text-anchor="middle" x="592" y="-411.5" font-family="Helvetica,sans-Serif" font-size="10.00">IPlugLogger.h</text>
</a>
</g>
</g>
<!-- Node1&#45;&gt;Node2 -->
<g id="edge1" class="edge"><title>Node1&#45;&gt;Node2</title>
<path fill="none" stroke="midnightblue" d="M524.294,-455.177C541.039,-445.241 563.1,-432.149 577.416,-423.655"/>
<polygon fill="midnightblue" stroke="midnightblue" points="522.434,-452.211 515.621,-460.324 526.007,-458.231 522.434,-452.211"/>
</g>
<!-- Node29 -->
<g id="node29" class="node"><title>Node29</title>
<g id="a_node29"><a xlink:href="_i_plug_base_8h.html" target="_top" xlink:title="The lowest level base class of an IPlug plug&#45;in. ">
<polygon fill="white" stroke="black" points="246,-224.5 246,-243.5 316,-243.5 316,-224.5 246,-224.5"/>
<text text-anchor="middle" x="281" y="-231.5" font-family="Helvetica,sans-Serif" font-size="10.00">IPlugBase.h</text>
</a>
</g>
</g>
<!-- Node1&#45;&gt;Node29 -->
<g id="edge68" class="edge"><title>Node1&#45;&gt;Node29</title>
<path fill="none" stroke="midnightblue" d="M450.981,-463.315C399.636,-456.512 324.323,-443.534 303,-424 250.386,-375.801 270.896,-274.386 278.59,-243.871"/>
<polygon fill="midnightblue" stroke="midnightblue" points="450.543,-466.787 460.908,-464.593 451.437,-459.845 450.543,-466.787"/>
</g>
<!-- Node46 -->
<g id="node46" class="node"><title>Node46</title>
<g id="a_node46"><a xlink:href="_i_plug_processor_8h.html" target="_top" xlink:title="The base class for IPlug Audio Processing. ">
<polygon fill="white" stroke="black" points="493,-224.5 493,-243.5 585,-243.5 585,-224.5 493,-224.5"/>
<text text-anchor="middle" x="539" y="-231.5" font-family="Helvetica,sans-Serif" font-size="10.00">IPlugProcessor.h</text>
</a>
</g>
</g>
<!-- Node1&#45;&gt;Node46 -->
<g id="edge72" class="edge"><title>Node1&#45;&gt;Node46</title>
<path fill="none" stroke="midnightblue" d="M504.041,-450.277C511.772,-402.67 531.963,-278.334 537.549,-243.934"/>
<polygon fill="midnightblue" stroke="midnightblue" points="500.546,-449.963 502.398,-460.394 507.455,-451.085 500.546,-449.963"/>
</g>
<!-- Node48 -->
<g id="node48" class="node"><title>Node48</title>
<g id="a_node48"><a xlink:href="_i_plug_midi_8h_source.html" target="_top" xlink:title="IPlugMidi.h">
<polygon fill="white" stroke="black" points="427.5,-348.5 427.5,-367.5 492.5,-367.5 492.5,-348.5 427.5,-348.5"/>
<text text-anchor="middle" x="460" y="-355.5" font-family="Helvetica,sans-Serif" font-size="10.00">IPlugMidi.h</text>
</a>
</g>
</g>
<!-- Node1&#45;&gt;Node48 -->
<g id="edge66" class="edge"><title>Node1&#45;&gt;Node48</title>
<path fill="none" stroke="midnightblue" d="M494.29,-450.998C485.344,-426.997 469.865,-385.468 463.202,-367.591"/>
<polygon fill="midnightblue" stroke="midnightblue" points="491.011,-452.221 497.783,-460.368 497.57,-449.776 491.011,-452.221"/>
</g>
<!-- Node49 -->
<g id="node49" class="node"><title>Node49</title>
<g id="a_node49"><a xlink:href="_i_plug_parameter_8h_source.html" target="_top" xlink:title="IPlugParameter.h">
<polygon fill="white" stroke="black" points="312,-404.5 312,-423.5 404,-423.5 404,-404.5 312,-404.5"/>
<text text-anchor="middle" x="358" y="-411.5" font-family="Helvetica,sans-Serif" font-size="10.00">IPlugParameter.h</text>
</a>
</g>
</g>
<!-- Node1&#45;&gt;Node49 -->
<g id="edge69" class="edge"><title>Node1&#45;&gt;Node49</title>
<path fill="none" stroke="midnightblue" d="M468.973,-456.906C442.088,-446.754 404.359,-432.506 380.553,-423.516"/>
<polygon fill="midnightblue" stroke="midnightblue" points="467.75,-460.185 478.341,-460.444 470.222,-453.636 467.75,-460.185"/>
</g>
<!-- Node3 -->
<g id="node3" class="node"><title>Node3</title>
<g id="a_node3"><a xlink:href="_i_plug_platform_8h.html" target="_top" xlink:title="Include to get consistently named preprocessor macros for different platforms and logging functionali...">
<polygon fill="white" stroke="black" points="631,-348.5 631,-367.5 715,-367.5 715,-348.5 631,-348.5"/>
<text text-anchor="middle" x="673" y="-355.5" font-family="Helvetica,sans-Serif" font-size="10.00">IPlugPlatform.h</text>
</a>
</g>
</g>
<!-- Node2&#45;&gt;Node3 -->
<g id="edge2" class="edge"><title>Node2&#45;&gt;Node3</title>
<path fill="none" stroke="midnightblue" d="M613.567,-398.622C628.364,-388.757 647.512,-375.992 660.018,-367.655"/>
<polygon fill="midnightblue" stroke="midnightblue" points="611.393,-395.865 605.014,-404.324 615.276,-401.689 611.393,-395.865"/>
</g>
<!-- Node3&#45;&gt;Node1 -->
<g id="edge36" class="edge"><title>Node3&#45;&gt;Node1</title>
<path fill="none" stroke="midnightblue" d="M667.492,-377.853C662.336,-392.373 653.257,-411.941 639,-424 611.293,-447.434 571.092,-458.743 541.22,-464.153"/>
<polygon fill="midnightblue" stroke="midnightblue" points="670.95,-378.533 670.69,-367.942 664.288,-376.384 670.95,-378.533"/>
</g>
<!-- Node4 -->
<g id="node4" class="node"><title>Node4</title>
<g id="a_node4"><a xlink:href="_i_graphics_constants_8h_source.html" target="_top" xlink:title="IGraphicsConstants.h">
<polygon fill="white" stroke="black" points="715,-286.5 715,-305.5 827,-305.5 827,-286.5 715,-286.5"/>
<text text-anchor="middle" x="771" y="-293.5" font-family="Helvetica,sans-Serif" font-size="10.00">IGraphicsConstants.h</text>
</a>
</g>
</g>
<!-- Node3&#45;&gt;Node4 -->
<g id="edge3" class="edge"><title>Node3&#45;&gt;Node4</title>
<path fill="none" stroke="midnightblue" d="M695.657,-343.129C714.589,-331.538 740.986,-315.376 756.985,-305.581"/>
<polygon fill="midnightblue" stroke="midnightblue" points="693.742,-340.197 687.041,-348.403 697.397,-346.167 693.742,-340.197"/>
</g>
<!-- Node13 -->
<g id="node13" class="node"><title>Node13</title>
<g id="a_node13"><a xlink:href="_i_graphics_cairo_8h_source.html" target="_top" xlink:title="IGraphicsCairo.h">
<polygon fill="white" stroke="black" points="1165,-112.5 1165,-131.5 1255,-131.5 1255,-112.5 1165,-112.5"/>
<text text-anchor="middle" x="1210" y="-119.5" font-family="Helvetica,sans-Serif" font-size="10.00">IGraphicsCairo.h</text>
</a>
</g>
</g>
<!-- Node3&#45;&gt;Node13 -->
<g id="edge32" class="edge"><title>Node3&#45;&gt;Node13</title>
<path fill="none" stroke="midnightblue" d="M725.24,-352.496C773.697,-347.041 847.136,-335.485 907,-312 1031.96,-262.98 1162.27,-161.697 1199.51,-131.609"/>
<polygon fill="midnightblue" stroke="midnightblue" points="724.859,-349.016 715.292,-353.569 725.61,-355.976 724.859,-349.016"/>
</g>
<!-- Node15 -->
<g id="node15" class="node"><title>Node15</title>
<g id="a_node15"><a xlink:href="_i_graphics_lice_8h_source.html" target="_top" xlink:title="IGraphicsLice.h">
<polygon fill="white" stroke="black" points="1061.5,-112.5 1061.5,-131.5 1146.5,-131.5 1146.5,-112.5 1061.5,-112.5"/>
<text text-anchor="middle" x="1104" y="-119.5" font-family="Helvetica,sans-Serif" font-size="10.00">IGraphicsLice.h</text>
</a>
</g>
</g>
<!-- Node3&#45;&gt;Node15 -->
<g id="edge33" class="edge"><title>Node3&#45;&gt;Node15</title>
<path fill="none" stroke="midnightblue" d="M725.448,-350.958C765.446,-344.908 821.116,-333.322 866,-312 910.646,-290.792 921.451,-281.197 954,-244 979.702,-214.627 968.753,-193.845 998,-168 1018.37,-149.995 1047.02,-138.42 1069.39,-131.525"/>
<polygon fill="midnightblue" stroke="midnightblue" points="724.772,-347.519 715.376,-352.414 725.774,-354.447 724.772,-347.519"/>
</g>
<!-- Node20 -->
<g id="node20" class="node"><title>Node20</title>
<g id="a_node20"><a xlink:href="_i_graphics_nano_v_g_8h_source.html" target="_top" xlink:title="IGraphicsNanoVG.h">
<polygon fill="white" stroke="black" points="1273,-112.5 1273,-131.5 1377,-131.5 1377,-112.5 1273,-112.5"/>
<text text-anchor="middle" x="1325" y="-119.5" font-family="Helvetica,sans-Serif" font-size="10.00">IGraphicsNanoVG.h</text>
</a>
</g>
</g>
<!-- Node3&#45;&gt;Node20 -->
<g id="edge34" class="edge"><title>Node3&#45;&gt;Node20</title>
<path fill="none" stroke="midnightblue" d="M725.362,-357.008C835.096,-356.25 1085.21,-350.24 1160,-312 1244.16,-268.973 1304.2,-163.09 1320.54,-131.827"/>
<polygon fill="midnightblue" stroke="midnightblue" points="725.171,-353.509 715.191,-357.066 725.211,-360.509 725.171,-353.509"/>
</g>
<!-- Node23 -->
<g id="node23" class="node"><title>Node23</title>
<g id="a_node23"><a xlink:href="_i_graphics_structs_8h_source.html" target="_top" xlink:title="IGraphicsStructs.h">
<polygon fill="white" stroke="black" points="848,-224.5 848,-243.5 946,-243.5 946,-224.5 848,-224.5"/>
<text text-anchor="middle" x="897" y="-231.5" font-family="Helvetica,sans-Serif" font-size="10.00">IGraphicsStructs.h</text>
</a>
</g>
</g>
<!-- Node3&#45;&gt;Node23 -->
<g id="edge31" class="edge"><title>Node3&#45;&gt;Node23</title>
<path fill="none" stroke="midnightblue" d="M725.275,-350.864C758.809,-344.994 802.072,-333.664 835,-312 862.529,-293.888 883.64,-259.632 892.474,-243.635"/>
<polygon fill="midnightblue" stroke="midnightblue" points="724.504,-347.444 715.203,-352.516 725.637,-354.351 724.504,-347.444"/>
</g>
<!-- Node26 -->
<g id="node26" class="node"><title>Node26</title>
<g id="a_node26"><a xlink:href="_i_plug__include__in__plug__hdr_8h.html" target="_top" xlink:title="IPlug header include. ">
<polygon fill="white" stroke="black" points="1040.5,-281 1040.5,-311 1151.5,-311 1151.5,-281 1040.5,-281"/>
<text text-anchor="start" x="1048.5" y="-299" font-family="Helvetica,sans-Serif" font-size="10.00">IPlug_include_in_plug</text>
<text text-anchor="middle" x="1096" y="-288" font-family="Helvetica,sans-Serif" font-size="10.00">_hdr.h</text>
</a>
</g>
</g>
<!-- Node3&#45;&gt;Node26 -->
<g id="edge35" class="edge"><title>Node3&#45;&gt;Node26</title>
<path fill="none" stroke="midnightblue" d="M725.192,-351.738C794.261,-344.457 919.703,-330.131 1026,-312 1030.66,-311.206 1035.47,-310.317 1040.3,-309.379"/>
<polygon fill="midnightblue" stroke="midnightblue" points="724.592,-348.282 715.011,-352.803 725.321,-355.244 724.592,-348.282"/>
</g>
<!-- Node27 -->
<g id="node27" class="node"><title>Node27</title>
<g id="a_node27"><a xlink:href="_i_plug_a_a_x_8h.html" target="_top" xlink:title="AAX API base class for an IPlug plug&#45;in, inherits from IPlugBase or IPlugBaseGraphics. ">
<polygon fill="white" stroke="black" points="414,-56.5 414,-75.5 482,-75.5 482,-56.5 414,-56.5"/>
<text text-anchor="middle" x="448" y="-63.5" font-family="Helvetica,sans-Serif" font-size="10.00">IPlugAAX.h</text>
</a>
</g>
</g>
<!-- Node3&#45;&gt;Node27 -->
<g id="edge37" class="edge"><title>Node3&#45;&gt;Node27</title>
<path fill="none" stroke="midnightblue" d="M663.844,-339.436C652.599,-316.196 635,-273.649 635,-235 635,-235 635,-235 635,-177 635,-139.711 523.136,-94.3008 472.447,-75.6384"/>
<polygon fill="midnightblue" stroke="midnightblue" points="660.731,-341.037 668.34,-348.41 666.989,-337.901 660.731,-341.037"/>
</g>
<!-- Node3&#45;&gt;Node29 -->
<g id="edge39" class="edge"><title>Node3&#45;&gt;Node29</title>
<path fill="none" stroke="midnightblue" d="M647.953,-343.681C615.065,-326.69 555.141,-297.423 501,-280 437.355,-259.519 360.249,-246.283 316.282,-239.777"/>
<polygon fill="midnightblue" stroke="midnightblue" points="646.385,-346.811 656.87,-348.331 649.621,-340.604 646.385,-346.811"/>
</g>
<!-- Node32 -->
<g id="node32" class="node"><title>Node32</title>
<g id="a_node32"><a xlink:href="_i_plug_a_p_p_8h.html" target="_top" xlink:title="Standalone application base class for an IPlug plug&#45;in, inherits from IPlugBase or IPlugBaseGraphics...">
<polygon fill="white" stroke="black" points="500,-56.5 500,-75.5 568,-75.5 568,-56.5 500,-56.5"/>
<text text-anchor="middle" x="534" y="-63.5" font-family="Helvetica,sans-Serif" font-size="10.00">IPlugAPP.h</text>
</a>
</g>
</g>
<!-- Node3&#45;&gt;Node32 -->
<g id="edge65" class="edge"><title>Node3&#45;&gt;Node32</title>
<path fill="none" stroke="midnightblue" d="M673,-338.288C673,-314.344 673,-271.586 673,-235 673,-235 673,-235 673,-177 673,-146.205 670.565,-133.984 649,-112 636.764,-99.5261 593.488,-84.6934 563.659,-75.5628"/>
<polygon fill="midnightblue" stroke="midnightblue" points="669.5,-338.421 673,-348.421 676.5,-338.421 669.5,-338.421"/>
</g>
<!-- Node45 -->
<g id="node45" class="node"><title>Node45</title>
<g id="a_node45"><a xlink:href="_i_plug_structs_8h_source.html" target="_top" xlink:title="IPlugStructs.h">
<polygon fill="white" stroke="black" points="413.5,-286.5 413.5,-305.5 492.5,-305.5 492.5,-286.5 413.5,-286.5"/>
<text text-anchor="middle" x="453" y="-293.5" font-family="Helvetica,sans-Serif" font-size="10.00">IPlugStructs.h</text>
</a>
</g>
</g>
<!-- Node3&#45;&gt;Node45 -->
<g id="edge58" class="edge"><title>Node3&#45;&gt;Node45</title>
<path fill="none" stroke="midnightblue" d="M631.671,-345.729C588.936,-334.073 523.153,-316.133 484.462,-305.581"/>
<polygon fill="midnightblue" stroke="midnightblue" points="630.911,-349.149 641.479,-348.403 632.753,-342.396 630.911,-349.149"/>
</g>
<!-- Node3&#45;&gt;Node46 -->
<g id="edge64" class="edge"><title>Node3&#45;&gt;Node46</title>
<path fill="none" stroke="midnightblue" d="M655.169,-341.881C645.058,-333.23 632.223,-322.118 621,-312 594.022,-287.678 562.959,-258.051 547.989,-243.667"/>
<polygon fill="midnightblue" stroke="midnightblue" points="653.045,-344.669 662.926,-348.492 657.586,-339.342 653.045,-344.669"/>
</g>
<!-- Node5 -->
<g id="node5" class="node"><title>Node5</title>
<g id="a_node5"><a xlink:href="_i_graphics_8h.html" target="_top" xlink:title="The lowest level base class of an IGraphics context. ">
<polygon fill="white" stroke="black" points="871.5,-168.5 871.5,-187.5 938.5,-187.5 938.5,-168.5 871.5,-168.5"/>
<text text-anchor="middle" x="905" y="-175.5" font-family="Helvetica,sans-Serif" font-size="10.00">IGraphics.h</text>
</a>
</g>
</g>
<!-- Node4&#45;&gt;Node5 -->
<g id="edge4" class="edge"><title>Node4&#45;&gt;Node5</title>
<path fill="none" stroke="midnightblue" d="M785.279,-278.203C798.459,-263.176 818.967,-240.966 839,-224 855.721,-209.839 876.943,-196.016 890.74,-187.509"/>
<polygon fill="midnightblue" stroke="midnightblue" points="782.319,-276.274 778.424,-286.127 787.613,-280.854 782.319,-276.274"/>
</g>
<!-- Node4&#45;&gt;Node23 -->
<g id="edge27" class="edge"><title>Node4&#45;&gt;Node23</title>
<path fill="none" stroke="midnightblue" d="M798.16,-282.066C822.61,-270.424 857.85,-253.643 878.981,-243.581"/>
<polygon fill="midnightblue" stroke="midnightblue" points="796.577,-278.944 789.053,-286.403 799.586,-285.264 796.577,-278.944"/>
</g>
<!-- Node24 -->
<g id="node24" class="node"><title>Node24</title>
<g id="a_node24"><a xlink:href="_i_graphics_web_8h_source.html" target="_top" xlink:title="IGraphicsWeb.h">
<polygon fill="white" stroke="black" points="704.5,-224.5 704.5,-243.5 791.5,-243.5 791.5,-224.5 704.5,-224.5"/>
<text text-anchor="middle" x="748" y="-231.5" font-family="Helvetica,sans-Serif" font-size="10.00">IGraphicsWeb.h</text>
</a>
</g>
</g>
<!-- Node4&#45;&gt;Node24 -->
<g id="edge29" class="edge"><title>Node4&#45;&gt;Node24</title>
<path fill="none" stroke="midnightblue" d="M764.041,-276.846C759.809,-265.806 754.6,-252.218 751.289,-243.581"/>
<polygon fill="midnightblue" stroke="midnightblue" points="760.857,-278.319 767.705,-286.403 767.393,-275.813 760.857,-278.319"/>
</g>
<!-- Node6 -->
<g id="node6" class="node"><title>Node6</title>
<g id="a_node6"><a xlink:href="_i_control_8h.html" target="_top" xlink:title="The lowest level base class of an IGraphics control. ">
<polygon fill="white" stroke="black" points="838.5,-112.5 838.5,-131.5 897.5,-131.5 897.5,-112.5 838.5,-112.5"/>
<text text-anchor="middle" x="868" y="-119.5" font-family="Helvetica,sans-Serif" font-size="10.00">IControl.h</text>
</a>
</g>
</g>
<!-- Node5&#45;&gt;Node6 -->
<g id="edge5" class="edge"><title>Node5&#45;&gt;Node6</title>
<path fill="none" stroke="midnightblue" d="M887.143,-160.144C879.837,-150.736 872.466,-139.405 868.865,-131.751"/>
<polygon fill="midnightblue" stroke="midnightblue" points="884.647,-162.618 893.724,-168.083 890.037,-158.15 884.647,-162.618"/>
</g>
<!-- Node10 -->
<g id="node10" class="node"><title>Node10</title>
<g id="a_node10"><a xlink:href="_i_graphics_8cpp_source.html" target="_top" xlink:title="IGraphics.cpp">
<polygon fill="white" stroke="black" points="811.5,-0.5 811.5,-19.5 888.5,-19.5 888.5,-0.5 811.5,-0.5"/>
<text text-anchor="middle" x="850" y="-7.5" font-family="Helvetica,sans-Serif" font-size="10.00">IGraphics.cpp</text>
</a>
</g>
</g>
<!-- Node5&#45;&gt;Node10 -->
<g id="edge12" class="edge"><title>Node5&#45;&gt;Node10</title>
<path fill="none" stroke="midnightblue" d="M907.891,-158.258C909.294,-145.102 909.935,-127.212 906,-112 896.309,-74.5373 869.401,-36.1555 856.745,-19.5333"/>
<polygon fill="midnightblue" stroke="midnightblue" points="904.389,-158.045 906.557,-168.415 911.329,-158.956 904.389,-158.045"/>
</g>
<!-- Node12 -->
<g id="node12" class="node"><title>Node12</title>
<g id="a_node12"><a xlink:href="_i_graphics_a_g_g_8h_source.html" target="_top" xlink:title="IGraphicsAGG.h">
<polygon fill="white" stroke="red" points="954.5,-112.5 954.5,-131.5 1043.5,-131.5 1043.5,-112.5 954.5,-112.5"/>
<text text-anchor="middle" x="999" y="-119.5" font-family="Helvetica,sans-Serif" font-size="10.00">IGraphicsAGG.h</text>
</a>
</g>
</g>
<!-- Node5&#45;&gt;Node12 -->
<g id="edge13" class="edge"><title>Node5&#45;&gt;Node12</title>
<path fill="none" stroke="midnightblue" d="M929.062,-163.177C946.359,-153.241 969.148,-140.149 983.935,-131.655"/>
<polygon fill="midnightblue" stroke="midnightblue" points="927.03,-160.308 920.103,-168.324 930.517,-166.378 927.03,-160.308"/>
</g>
<!-- Node5&#45;&gt;Node13 -->
<g id="edge14" class="edge"><title>Node5&#45;&gt;Node13</title>
<path fill="none" stroke="midnightblue" d="M948.367,-169.322C1005.78,-159.157 1106.53,-141.319 1164.83,-130.997"/>
<polygon fill="midnightblue" stroke="midnightblue" points="947.749,-165.877 938.513,-171.067 948.97,-172.77 947.749,-165.877"/>
</g>
<!-- Node5&#45;&gt;Node15 -->
<g id="edge16" class="edge"><title>Node5&#45;&gt;Node15</title>
<path fill="none" stroke="midnightblue" d="M946.648,-165.699C984.206,-155.507 1038.61,-140.743 1072.62,-131.516"/>
<polygon fill="midnightblue" stroke="midnightblue" points="945.267,-162.447 936.532,-168.444 947.1,-169.202 945.267,-162.447"/>
</g>
<!-- Node5&#45;&gt;Node20 -->
<g id="edge24" class="edge"><title>Node5&#45;&gt;Node20</title>
<path fill="none" stroke="midnightblue" d="M948.976,-171.801C1016.7,-163.723 1150.57,-147.475 1264,-132 1266.86,-131.609 1269.8,-131.201 1272.77,-130.783"/>
<polygon fill="midnightblue" stroke="midnightblue" points="948.204,-168.368 938.688,-173.025 949.032,-175.319 948.204,-168.368"/>
</g>
<!-- Node22 -->
<g id="node22" class="node"><title>Node22</title>
<g id="a_node22"><a xlink:href="_i_plug_base_graphics_8cpp_source.html" target="_top" xlink:title="IPlugBaseGraphics.cpp">
<polygon fill="white" stroke="black" points="701.5,-112.5 701.5,-131.5 820.5,-131.5 820.5,-112.5 701.5,-112.5"/>
<text text-anchor="middle" x="761" y="-119.5" font-family="Helvetica,sans-Serif" font-size="10.00">IPlugBaseGraphics.cpp</text>
</a>
</g>
</g>
<!-- Node5&#45;&gt;Node22 -->
<g id="edge26" class="edge"><title>Node5&#45;&gt;Node22</title>
<path fill="none" stroke="midnightblue" d="M872.749,-164.906C845.676,-154.754 807.683,-140.506 783.71,-131.516"/>
<polygon fill="midnightblue" stroke="midnightblue" points="871.591,-168.209 882.183,-168.444 874.048,-161.655 871.591,-168.209"/>
</g>
<!-- Node6&#45;&gt;Node5 -->
<g id="edge7" class="edge"><title>Node6&#45;&gt;Node5</title>
<path fill="none" stroke="midnightblue" d="M885.699,-139.653C893.004,-149.033 900.402,-160.377 904.057,-168.083"/>
<polygon fill="midnightblue" stroke="midnightblue" points="888.212,-137.202 879.127,-131.751 882.831,-141.678 888.212,-137.202"/>
</g>
<!-- Node7 -->
<g id="node7" class="node"><title>Node7</title>
<g id="a_node7"><a xlink:href="_i_control_8cpp_source.html" target="_top" xlink:title="IControl.cpp">
<polygon fill="white" stroke="black" points="670,-56.5 670,-75.5 740,-75.5 740,-56.5 670,-56.5"/>
<text text-anchor="middle" x="705" y="-63.5" font-family="Helvetica,sans-Serif" font-size="10.00">IControl.cpp</text>
</a>
</g>
</g>
<!-- Node6&#45;&gt;Node7 -->
<g id="edge6" class="edge"><title>Node6&#45;&gt;Node7</title>
<path fill="none" stroke="midnightblue" d="M832.297,-109.172C801.604,-99.0039 758.081,-84.5852 730.707,-75.5164"/>
<polygon fill="midnightblue" stroke="midnightblue" points="831.579,-112.621 842.172,-112.444 833.78,-105.976 831.579,-112.621"/>
</g>
<!-- Node8 -->
<g id="node8" class="node"><title>Node8</title>
<g id="a_node8"><a xlink:href="_i_controls_8h.html" target="_top" xlink:title="A collection of IControls for common UI widgets, such as knobs, sliders, switches. ">
<polygon fill="white" stroke="red" points="586.5,-56.5 586.5,-75.5 651.5,-75.5 651.5,-56.5 586.5,-56.5"/>
<text text-anchor="middle" x="619" y="-63.5" font-family="Helvetica,sans-Serif" font-size="10.00">IControls.h</text>
</a>
</g>
</g>
<!-- Node6&#45;&gt;Node8 -->
<g id="edge8" class="edge"><title>Node6&#45;&gt;Node8</title>
<path fill="none" stroke="midnightblue" d="M828.059,-111.857C796.068,-104.928 702.39,-84.8609 651.86,-74.0381"/>
<polygon fill="midnightblue" stroke="midnightblue" points="827.684,-115.358 838.2,-114.072 829.178,-108.519 827.684,-115.358"/>
</g>
<!-- Node9 -->
<g id="node9" class="node"><title>Node9</title>
<g id="a_node9"><a xlink:href="_i_graphics_live_edit_8h_source.html" target="_top" xlink:title="IGraphicsLiveEdit.h">
<polygon fill="white" stroke="black" points="758,-56.5 758,-75.5 860,-75.5 860,-56.5 758,-56.5"/>
<text text-anchor="middle" x="809" y="-63.5" font-family="Helvetica,sans-Serif" font-size="10.00">IGraphicsLiveEdit.h</text>
</a>
</g>
</g>
<!-- Node6&#45;&gt;Node9 -->
<g id="edge9" class="edge"><title>Node6&#45;&gt;Node9</title>
<path fill="none" stroke="midnightblue" d="M851.105,-105.537C840.585,-95.9087 827.431,-83.8694 818.652,-75.8339"/>
<polygon fill="midnightblue" stroke="midnightblue" points="848.781,-108.154 858.521,-112.324 853.507,-102.99 848.781,-108.154"/>
</g>
<!-- Node11 -->
<g id="node11" class="node"><title>Node11</title>
<g id="a_node11"><a xlink:href="_i_graphics_mac_8mm_source.html" target="_top" xlink:title="IGraphicsMac.mm">
<polygon fill="white" stroke="black" points="948.5,-0.5 948.5,-19.5 1045.5,-19.5 1045.5,-0.5 948.5,-0.5"/>
<text text-anchor="middle" x="997" y="-7.5" font-family="Helvetica,sans-Serif" font-size="10.00">IGraphicsMac.mm</text>
</a>
</g>
</g>
<!-- Node6&#45;&gt;Node11 -->
<g id="edge11" class="edge"><title>Node6&#45;&gt;Node11</title>
<path fill="none" stroke="midnightblue" d="M885.807,-105.816C913.282,-82.3874 965.114,-38.1898 986.925,-19.5914"/>
<polygon fill="midnightblue" stroke="midnightblue" points="883.461,-103.217 878.122,-112.368 888.003,-108.543 883.461,-103.217"/>
</g>
<!-- Node9&#45;&gt;Node10 -->
<g id="edge10" class="edge"><title>Node9&#45;&gt;Node10</title>
<path fill="none" stroke="midnightblue" d="M822.017,-47.8554C829.117,-38.5048 837.604,-27.3265 843.356,-19.7511"/>
<polygon fill="midnightblue" stroke="midnightblue" points="819.03,-46.002 815.77,-56.083 824.605,-50.235 819.03,-46.002"/>
</g>
<!-- Node14 -->
<g id="node14" class="node"><title>Node14</title>
<g id="a_node14"><a xlink:href="_i_graphics_cairo_8cpp_source.html" target="_top" xlink:title="IGraphicsCairo.cpp">
<polygon fill="white" stroke="black" points="1274.5,-56.5 1274.5,-75.5 1375.5,-75.5 1375.5,-56.5 1274.5,-56.5"/>
<text text-anchor="middle" x="1325" y="-63.5" font-family="Helvetica,sans-Serif" font-size="10.00">IGraphicsCairo.cpp</text>
</a>
</g>
</g>
<!-- Node13&#45;&gt;Node14 -->
<g id="edge15" class="edge"><title>Node13&#45;&gt;Node14</title>
<path fill="none" stroke="midnightblue" d="M1237.48,-108.096C1258.97,-98.0073 1288.22,-84.2697 1306.86,-75.5164"/>
<polygon fill="midnightblue" stroke="midnightblue" points="1235.79,-105.025 1228.22,-112.444 1238.76,-111.361 1235.79,-105.025"/>
</g>
<!-- Node16 -->
<g id="node16" class="node"><title>Node16</title>
<g id="a_node16"><a xlink:href="_i_graphics_lice_8cpp_source.html" target="_top" xlink:title="IGraphicsLice.cpp">
<polygon fill="white" stroke="black" points="1058.5,-56.5 1058.5,-75.5 1153.5,-75.5 1153.5,-56.5 1058.5,-56.5"/>
<text text-anchor="middle" x="1106" y="-63.5" font-family="Helvetica,sans-Serif" font-size="10.00">IGraphicsLice.cpp</text>
</a>
</g>
</g>
<!-- Node15&#45;&gt;Node16 -->
<g id="edge17" class="edge"><title>Node15&#45;&gt;Node16</title>
<path fill="none" stroke="midnightblue" d="M1104.71,-101.805C1105.04,-92.9102 1105.42,-82.7798 1105.68,-75.7511"/>
<polygon fill="midnightblue" stroke="midnightblue" points="1101.2,-101.96 1104.33,-112.083 1108.2,-102.219 1101.2,-101.96"/>
</g>
<!-- Node18 -->
<g id="node18" class="node"><title>Node18</title>
<g id="a_node18"><a xlink:href="_i_graphics_mac_8h_source.html" target="_top" xlink:title="IGraphicsMac.h">
<polygon fill="white" stroke="red" points="954,-56.5 954,-75.5 1040,-75.5 1040,-56.5 954,-56.5"/>
<text text-anchor="middle" x="997" y="-63.5" font-family="Helvetica,sans-Serif" font-size="10.00">IGraphicsMac.h</text>
</a>
</g>
</g>
<!-- Node15&#45;&gt;Node18 -->
<g id="edge20" class="edge"><title>Node15&#45;&gt;Node18</title>
<path fill="none" stroke="midnightblue" d="M1077.7,-107.726C1057.89,-97.7271 1031.29,-84.3065 1014.15,-75.6545"/>
<polygon fill="midnightblue" stroke="midnightblue" points="1076.3,-110.943 1086.81,-112.324 1079.46,-104.694 1076.3,-110.943"/>
</g>
<!-- Node19 -->
<g id="node19" class="node"><title>Node19</title>
<g id="a_node19"><a xlink:href="_i_graphics_win_8h_source.html" target="_top" xlink:title="IGraphicsWin.h">
<polygon fill="white" stroke="black" points="1172,-56.5 1172,-75.5 1256,-75.5 1256,-56.5 1172,-56.5"/>
<text text-anchor="middle" x="1214" y="-63.5" font-family="Helvetica,sans-Serif" font-size="10.00">IGraphicsWin.h</text>
</a>
</g>
</g>
<!-- Node15&#45;&gt;Node19 -->
<g id="edge22" class="edge"><title>Node15&#45;&gt;Node19</title>
<path fill="none" stroke="midnightblue" d="M1130.76,-107.862C1151.16,-97.8492 1178.67,-84.3458 1196.37,-75.6545"/>
<polygon fill="midnightblue" stroke="midnightblue" points="1129.11,-104.775 1121.67,-112.324 1132.19,-111.059 1129.11,-104.775"/>
</g>
<!-- Node16&#45;&gt;Node11 -->
<g id="edge18" class="edge"><title>Node16&#45;&gt;Node11</title>
<path fill="none" stroke="midnightblue" d="M1079.48,-51.8622C1059.27,-41.8492 1032.01,-28.3458 1014.47,-19.6545"/>
<polygon fill="midnightblue" stroke="midnightblue" points="1077.97,-55.0209 1088.49,-56.324 1081.08,-48.7485 1077.97,-55.0209"/>
</g>
<!-- Node17 -->
<g id="node17" class="node"><title>Node17</title>
<g id="a_node17"><a xlink:href="_i_graphics_win_8cpp_source.html" target="_top" xlink:title="IGraphicsWin.cpp">
<polygon fill="white" stroke="black" points="1114.5,-0.5 1114.5,-19.5 1209.5,-19.5 1209.5,-0.5 1114.5,-0.5"/>
<text text-anchor="middle" x="1162" y="-7.5" font-family="Helvetica,sans-Serif" font-size="10.00">IGraphicsWin.cpp</text>
</a>
</g>
</g>
<!-- Node16&#45;&gt;Node17 -->
<g id="edge19" class="edge"><title>Node16&#45;&gt;Node17</title>
<path fill="none" stroke="midnightblue" d="M1122.33,-49.2533C1132.26,-39.6731 1144.59,-27.7906 1152.84,-19.8339"/>
<polygon fill="midnightblue" stroke="midnightblue" points="1119.77,-46.8631 1115,-56.324 1124.63,-51.902 1119.77,-46.8631"/>
</g>
<!-- Node18&#45;&gt;Node11 -->
<g id="edge21" class="edge"><title>Node18&#45;&gt;Node11</title>
<path fill="none" stroke="midnightblue" d="M997,-45.8045C997,-36.9102 997,-26.7798 997,-19.7511"/>
<polygon fill="midnightblue" stroke="midnightblue" points="993.5,-46.083 997,-56.083 1000.5,-46.083 993.5,-46.083"/>
</g>
<!-- Node19&#45;&gt;Node17 -->
<g id="edge23" class="edge"><title>Node19&#45;&gt;Node17</title>
<path fill="none" stroke="midnightblue" d="M1198.32,-48.7175C1189.16,-39.1997 1177.95,-27.5608 1170.43,-19.7511"/>
<polygon fill="midnightblue" stroke="midnightblue" points="1195.96,-51.3075 1205.41,-56.083 1201,-46.452 1195.96,-51.3075"/>
</g>
<!-- Node21 -->
<g id="node21" class="node"><title>Node21</title>
<g id="a_node21"><a xlink:href="_i_graphics_nano_v_g_8cpp_source.html" target="_top" xlink:title="IGraphicsNanoVG.cpp">
<polygon fill="white" stroke="black" points="1393.5,-56.5 1393.5,-75.5 1508.5,-75.5 1508.5,-56.5 1393.5,-56.5"/>
<text text-anchor="middle" x="1451" y="-63.5" font-family="Helvetica,sans-Serif" font-size="10.00">IGraphicsNanoVG.cpp</text>
</a>
</g>
</g>
<!-- Node20&#45;&gt;Node21 -->
<g id="edge25" class="edge"><title>Node20&#45;&gt;Node21</title>
<path fill="none" stroke="midnightblue" d="M1354.16,-108.503C1377.78,-98.3795 1410.43,-84.388 1431.13,-75.5164"/>
<polygon fill="midnightblue" stroke="midnightblue" points="1352.78,-105.287 1344.97,-112.444 1355.54,-111.721 1352.78,-105.287"/>
</g>
<!-- Node23&#45;&gt;Node5 -->
<g id="edge28" class="edge"><title>Node23&#45;&gt;Node5</title>
<path fill="none" stroke="midnightblue" d="M899.8,-214.101C901.128,-205.136 902.651,-194.858 903.704,-187.751"/>
<polygon fill="midnightblue" stroke="midnightblue" points="896.324,-213.678 898.321,-224.083 903.249,-214.704 896.324,-213.678"/>
</g>
<!-- Node25 -->
<g id="node25" class="node"><title>Node25</title>
<g id="a_node25"><a xlink:href="_i_graphics_web_8cpp_source.html" target="_top" xlink:title="IGraphicsWeb.cpp">
<polygon fill="white" stroke="black" points="701,-168.5 701,-187.5 799,-187.5 799,-168.5 701,-168.5"/>
<text text-anchor="middle" x="750" y="-175.5" font-family="Helvetica,sans-Serif" font-size="10.00">IGraphicsWeb.cpp</text>
</a>
</g>
</g>
<!-- Node24&#45;&gt;Node25 -->
<g id="edge30" class="edge"><title>Node24&#45;&gt;Node25</title>
<path fill="none" stroke="midnightblue" d="M748.711,-213.805C749.04,-204.91 749.416,-194.78 749.676,-187.751"/>
<polygon fill="midnightblue" stroke="midnightblue" points="745.203,-213.96 748.33,-224.083 752.198,-214.219 745.203,-213.96"/>
</g>
<!-- Node28 -->
<g id="node28" class="node"><title>Node28</title>
<g id="a_node28"><a xlink:href="_i_plug_a_a_x_8cpp_source.html" target="_top" xlink:title="IPlugAAX.cpp">
<polygon fill="white" stroke="black" points="419,-0.5 419,-19.5 497,-19.5 497,-0.5 419,-0.5"/>
<text text-anchor="middle" x="458" y="-7.5" font-family="Helvetica,sans-Serif" font-size="10.00">IPlugAAX.cpp</text>
</a>
</g>
</g>
<!-- Node27&#45;&gt;Node28 -->
<g id="edge38" class="edge"><title>Node27&#45;&gt;Node28</title>
<path fill="none" stroke="midnightblue" d="M451.5,-46.1005C453.16,-37.1357 455.063,-26.8579 456.379,-19.7511"/>
<polygon fill="midnightblue" stroke="midnightblue" points="448.031,-45.6128 449.651,-56.083 454.914,-46.8875 448.031,-45.6128"/>
</g>
<!-- Node30 -->
<g id="node30" class="node"><title>Node30</title>
<g id="a_node30"><a xlink:href="_i_plug_base_graphics_8h.html" target="_top" xlink:title="An IPlugBase class for an IPlug plug&#45;in that uses IGraphics for it&#39;s UI. ">
<polygon fill="white" stroke="black" points="377.5,-168.5 377.5,-187.5 486.5,-187.5 486.5,-168.5 377.5,-168.5"/>
<text text-anchor="middle" x="432" y="-175.5" font-family="Helvetica,sans-Serif" font-size="10.00">IPlugBaseGraphics.h</text>
</a>
</g>
</g>
<!-- Node29&#45;&gt;Node30 -->
<g id="edge40" class="edge"><title>Node29&#45;&gt;Node30</title>
<path fill="none" stroke="midnightblue" d="M314.446,-221.039C342.858,-210.879 382.937,-196.546 408.186,-187.516"/>
<polygon fill="midnightblue" stroke="midnightblue" points="313.164,-217.781 304.926,-224.444 315.521,-224.372 313.164,-217.781"/>
</g>
<!-- Node42 -->
<g id="node42" class="node"><title>Node42</title>
<g id="a_node42"><a xlink:href="_i_plug_a_u___view_factory_8mm_source.html" target="_top" xlink:title="IPlugAU_ViewFactory.mm">
<polygon fill="white" stroke="black" points="-0.5,-168.5 -0.5,-187.5 132.5,-187.5 132.5,-168.5 -0.5,-168.5"/>
<text text-anchor="middle" x="66" y="-175.5" font-family="Helvetica,sans-Serif" font-size="10.00">IPlugAU_ViewFactory.mm</text>
</a>
</g>
</g>
<!-- Node29&#45;&gt;Node42 -->
<g id="edge55" class="edge"><title>Node29&#45;&gt;Node42</title>
<path fill="none" stroke="midnightblue" d="M237.04,-221.959C196.433,-211.76 136.957,-196.822 99.908,-187.516"/>
<polygon fill="midnightblue" stroke="midnightblue" points="236.381,-225.402 246.933,-224.444 238.086,-218.613 236.381,-225.402"/>
</g>
<!-- Node43 -->
<g id="node43" class="node"><title>Node43</title>
<g id="a_node43"><a xlink:href="_i_plug_base_8cpp_source.html" target="_top" xlink:title="IPlugBase.cpp">
<polygon fill="white" stroke="black" points="151,-168.5 151,-187.5 231,-187.5 231,-168.5 151,-168.5"/>
<text text-anchor="middle" x="191" y="-175.5" font-family="Helvetica,sans-Serif" font-size="10.00">IPlugBase.cpp</text>
</a>
</g>
</g>
<!-- Node29&#45;&gt;Node43 -->
<g id="edge56" class="edge"><title>Node29&#45;&gt;Node43</title>
<path fill="none" stroke="midnightblue" d="M257.962,-219.177C241.401,-209.241 219.582,-196.149 205.424,-187.655"/>
<polygon fill="midnightblue" stroke="midnightblue" points="256.164,-222.18 266.54,-224.324 259.766,-216.178 256.164,-222.18"/>
</g>
<!-- Node44 -->
<g id="node44" class="node"><title>Node44</title>
<g id="a_node44"><a xlink:href="_i_plug_w_a_m_8h_source.html" target="_top" xlink:title="IPlugWAM.h">
<polygon fill="white" stroke="black" points="249,-168.5 249,-187.5 321,-187.5 321,-168.5 249,-168.5"/>
<text text-anchor="middle" x="285" y="-175.5" font-family="Helvetica,sans-Serif" font-size="10.00">IPlugWAM.h</text>
</a>
</g>
</g>
<!-- Node29&#45;&gt;Node44 -->
<g id="edge57" class="edge"><title>Node29&#45;&gt;Node44</title>
<path fill="none" stroke="midnightblue" d="M282.4,-214.101C283.064,-205.136 283.825,-194.858 284.352,-187.751"/>
<polygon fill="midnightblue" stroke="midnightblue" points="278.909,-213.852 281.661,-224.083 285.89,-214.369 278.909,-213.852"/>
</g>
<!-- Node30&#45;&gt;Node6 -->
<g id="edge41" class="edge"><title>Node30&#45;&gt;Node6</title>
<path fill="none" stroke="midnightblue" d="M496.75,-167.953C645.429,-149.925 685.368,-156.248 829,-132 832.015,-131.491 835.145,-130.891 838.263,-130.247"/>
<polygon fill="midnightblue" stroke="midnightblue" points="496.296,-164.483 486.797,-169.177 497.15,-171.43 496.296,-164.483"/>
</g>
<!-- Node30&#45;&gt;Node22 -->
<g id="edge54" class="edge"><title>Node30&#45;&gt;Node22</title>
<path fill="none" stroke="midnightblue" d="M494.201,-166.791C556.368,-156.587 650.858,-141.078 709.113,-131.516"/>
<polygon fill="midnightblue" stroke="midnightblue" points="493.432,-163.37 484.131,-168.444 494.566,-170.278 493.432,-163.37"/>
</g>
<!-- Node31 -->
<g id="node31" class="node"><title>Node31</title>
<g id="a_node31"><a xlink:href="_i_plug_base__select_8h_source.html" target="_top" xlink:title="IPlugBase_select.h">
<polygon fill="white" stroke="black" points="304.5,-112.5 304.5,-131.5 405.5,-131.5 405.5,-112.5 304.5,-112.5"/>
<text text-anchor="middle" x="355" y="-119.5" font-family="Helvetica,sans-Serif" font-size="10.00">IPlugBase_select.h</text>
</a>
</g>
</g>
<!-- Node30&#45;&gt;Node31 -->
<g id="edge42" class="edge"><title>Node30&#45;&gt;Node31</title>
<path fill="none" stroke="midnightblue" d="M411.099,-162.342C397.089,-152.517 379.117,-139.913 367.341,-131.655"/>
<polygon fill="midnightblue" stroke="midnightblue" points="409.432,-165.448 419.629,-168.324 413.451,-159.717 409.432,-165.448"/>
</g>
<!-- Node31&#45;&gt;Node27 -->
<g id="edge43" class="edge"><title>Node31&#45;&gt;Node27</title>
<path fill="none" stroke="midnightblue" d="M378.806,-107.177C395.919,-97.2407 418.465,-84.1492 433.095,-75.6545"/>
<polygon fill="midnightblue" stroke="midnightblue" points="376.832,-104.276 369.942,-112.324 380.347,-110.329 376.832,-104.276"/>
</g>
<!-- Node31&#45;&gt;Node32 -->
<g id="edge44" class="edge"><title>Node31&#45;&gt;Node32</title>
<path fill="none" stroke="midnightblue" d="M393.331,-109.436C427.08,-99.2551 475.447,-84.664 505.77,-75.5164"/>
<polygon fill="midnightblue" stroke="midnightblue" points="391.926,-106.204 383.363,-112.444 393.948,-112.906 391.926,-106.204"/>
</g>
<!-- Node34 -->
<g id="node34" class="node"><title>Node34</title>
<g id="a_node34"><a xlink:href="_i_plug_a_u_8h.html" target="_top" xlink:title="AudioUnit v2 API base class for an IPlug plug&#45;in, inherits from IPlugBase or IPlugBaseGraphics. ">
<polygon fill="white" stroke="black" points="143,-56.5 143,-75.5 205,-75.5 205,-56.5 143,-56.5"/>
<text text-anchor="middle" x="174" y="-63.5" font-family="Helvetica,sans-Serif" font-size="10.00">IPlugAU.h</text>
</a>
</g>
</g>
<!-- Node31&#45;&gt;Node34 -->
<g id="edge46" class="edge"><title>Node31&#45;&gt;Node34</title>
<path fill="none" stroke="midnightblue" d="M316.681,-109.568C282.536,-99.381 233.339,-84.7034 202.546,-75.5164"/>
<polygon fill="midnightblue" stroke="midnightblue" points="315.737,-112.938 326.32,-112.444 317.738,-106.231 315.737,-112.938"/>
</g>
<!-- Node36 -->
<g id="node36" class="node"><title>Node36</title>
<g id="a_node36"><a xlink:href="_i_plug_a_uv3_8h_source.html" target="_top" xlink:title="IPlugAUv3.h">
<polygon fill="white" stroke="black" points="230,-56.5 230,-75.5 302,-75.5 302,-56.5 230,-56.5"/>
<text text-anchor="middle" x="266" y="-63.5" font-family="Helvetica,sans-Serif" font-size="10.00">IPlugAUv3.h</text>
</a>
</g>
</g>
<!-- Node31&#45;&gt;Node36 -->
<g id="edge48" class="edge"><title>Node31&#45;&gt;Node36</title>
<path fill="none" stroke="midnightblue" d="M331.762,-106.901C315.442,-96.9986 294.135,-84.0705 280.264,-75.6545"/>
<polygon fill="midnightblue" stroke="midnightblue" points="330.336,-110.129 340.701,-112.324 333.967,-104.144 330.336,-110.129"/>
</g>
<!-- Node38 -->
<g id="node38" class="node"><title>Node38</title>
<g id="a_node38"><a xlink:href="_i_plug_v_s_t_8h.html" target="_top" xlink:title="VST2.4 API base class for an IPlug plug&#45;in, inherits from IPlugBase or IPlugBaseGraphics. ">
<polygon fill="white" stroke="black" points="325.5,-56.5 325.5,-75.5 392.5,-75.5 392.5,-56.5 325.5,-56.5"/>
<text text-anchor="middle" x="359" y="-63.5" font-family="Helvetica,sans-Serif" font-size="10.00">IPlugVST.h</text>
</a>
</g>
</g>
<!-- Node31&#45;&gt;Node38 -->
<g id="edge50" class="edge"><title>Node31&#45;&gt;Node38</title>
<path fill="none" stroke="midnightblue" d="M356.4,-102.101C357.064,-93.1357 357.825,-82.8579 358.352,-75.7511"/>
<polygon fill="midnightblue" stroke="midnightblue" points="352.909,-101.852 355.661,-112.083 359.89,-102.369 352.909,-101.852"/>
</g>
<!-- Node40 -->
<g id="node40" class="node"><title>Node40</title>
<g id="a_node40"><a xlink:href="_i_plug_v_s_t3_8h.html" target="_top" xlink:title="VST3 base class for an IPlug plug&#45;in, inherits from IPlugBase or IPlugBaseGraphics. ">
<polygon fill="white" stroke="black" points="44,-56.5 44,-75.5 116,-75.5 116,-56.5 44,-56.5"/>
<text text-anchor="middle" x="80" y="-63.5" font-family="Helvetica,sans-Serif" font-size="10.00">IPlugVST3.h</text>
</a>
</g>
</g>
<!-- Node31&#45;&gt;Node40 -->
<g id="edge52" class="edge"><title>Node31&#45;&gt;Node40</title>
<path fill="none" stroke="midnightblue" d="M301.583,-110.511C247.005,-99.7937 163.736,-83.4427 116.345,-74.1368"/>
<polygon fill="midnightblue" stroke="midnightblue" points="300.938,-113.951 311.425,-112.444 302.287,-107.082 300.938,-113.951"/>
</g>
<!-- Node33 -->
<g id="node33" class="node"><title>Node33</title>
<g id="a_node33"><a xlink:href="_i_plug_a_p_p_8cpp_source.html" target="_top" xlink:title="IPlugAPP.cpp">
<polygon fill="white" stroke="black" points="515,-0.5 515,-19.5 593,-19.5 593,-0.5 515,-0.5"/>
<text text-anchor="middle" x="554" y="-7.5" font-family="Helvetica,sans-Serif" font-size="10.00">IPlugAPP.cpp</text>
</a>
</g>
</g>
<!-- Node32&#45;&gt;Node33 -->
<g id="edge45" class="edge"><title>Node32&#45;&gt;Node33</title>
<path fill="none" stroke="midnightblue" d="M540.782,-46.6897C544.152,-37.589 548.069,-27.0141 550.759,-19.7511"/>
<polygon fill="midnightblue" stroke="midnightblue" points="537.494,-45.4899 537.303,-56.083 544.058,-47.9211 537.494,-45.4899"/>
</g>
<!-- Node35 -->
<g id="node35" class="node"><title>Node35</title>
<g id="a_node35"><a xlink:href="_i_plug_a_u_8cpp_source.html" target="_top" xlink:title="IPlugAU.cpp">
<polygon fill="white" stroke="black" points="132,-0.5 132,-19.5 204,-19.5 204,-0.5 132,-0.5"/>
<text text-anchor="middle" x="168" y="-7.5" font-family="Helvetica,sans-Serif" font-size="10.00">IPlugAU.cpp</text>
</a>
</g>
</g>
<!-- Node34&#45;&gt;Node35 -->
<g id="edge47" class="edge"><title>Node34&#45;&gt;Node35</title>
<path fill="none" stroke="midnightblue" d="M171.9,-46.1005C170.904,-37.1357 169.762,-26.8579 168.972,-19.7511"/>
<polygon fill="midnightblue" stroke="midnightblue" points="168.426,-46.5307 173.009,-56.083 175.383,-45.7576 168.426,-46.5307"/>
</g>
<!-- Node37 -->
<g id="node37" class="node"><title>Node37</title>
<g id="a_node37"><a xlink:href="_i_plug_a_uv3_8mm_source.html" target="_top" xlink:title="IPlugAUv3.mm">
<polygon fill="white" stroke="black" points="222.5,-0.5 222.5,-19.5 305.5,-19.5 305.5,-0.5 222.5,-0.5"/>
<text text-anchor="middle" x="264" y="-7.5" font-family="Helvetica,sans-Serif" font-size="10.00">IPlugAUv3.mm</text>
</a>
</g>
</g>
<!-- Node36&#45;&gt;Node37 -->
<g id="edge49" class="edge"><title>Node36&#45;&gt;Node37</title>
<path fill="none" stroke="midnightblue" d="M265.289,-45.8045C264.96,-36.9102 264.584,-26.7798 264.324,-19.7511"/>
<polygon fill="midnightblue" stroke="midnightblue" points="261.802,-46.2194 265.67,-56.083 268.797,-45.9603 261.802,-46.2194"/>
</g>
<!-- Node39 -->
<g id="node39" class="node"><title>Node39</title>
<g id="a_node39"><a xlink:href="_i_plug_v_s_t_8cpp_source.html" target="_top" xlink:title="IPlugVST.cpp">
<polygon fill="white" stroke="black" points="323.5,-0.5 323.5,-19.5 400.5,-19.5 400.5,-0.5 323.5,-0.5"/>
<text text-anchor="middle" x="362" y="-7.5" font-family="Helvetica,sans-Serif" font-size="10.00">IPlugVST.cpp</text>
</a>
</g>
</g>
<!-- Node38&#45;&gt;Node39 -->
<g id="edge51" class="edge"><title>Node38&#45;&gt;Node39</title>
<path fill="none" stroke="midnightblue" d="M360.066,-45.8045C360.561,-36.9102 361.123,-26.7798 361.514,-19.7511"/>
<polygon fill="midnightblue" stroke="midnightblue" points="356.556,-45.9042 359.495,-56.083 363.545,-46.2926 356.556,-45.9042"/>
</g>
<!-- Node41 -->
<g id="node41" class="node"><title>Node41</title>
<g id="a_node41"><a xlink:href="_i_plug_v_s_t3_8cpp_source.html" target="_top" xlink:title="IPlugVST3.cpp">
<polygon fill="white" stroke="black" points="30.5,-0.5 30.5,-19.5 113.5,-19.5 113.5,-0.5 30.5,-0.5"/>
<text text-anchor="middle" x="72" y="-7.5" font-family="Helvetica,sans-Serif" font-size="10.00">IPlugVST3.cpp</text>
</a>
</g>
</g>
<!-- Node40&#45;&gt;Node41 -->
<g id="edge53" class="edge"><title>Node40&#45;&gt;Node41</title>
<path fill="none" stroke="midnightblue" d="M77.2001,-46.1005C75.872,-37.1357 74.3493,-26.8579 73.2965,-19.7511"/>
<polygon fill="midnightblue" stroke="midnightblue" points="73.7512,-46.7039 78.679,-56.083 80.6756,-45.678 73.7512,-46.7039"/>
</g>
<!-- Node45&#45;&gt;Node29 -->
<g id="edge59" class="edge"><title>Node45&#45;&gt;Node29</title>
<path fill="none" stroke="midnightblue" d="M418.55,-282.983C385.116,-271.32 335.209,-253.91 305.598,-243.581"/>
<polygon fill="midnightblue" stroke="midnightblue" points="417.762,-286.414 428.357,-286.403 420.067,-279.805 417.762,-286.414"/>
</g>
<!-- Node45&#45;&gt;Node46 -->
<g id="edge60" class="edge"><title>Node45&#45;&gt;Node46</title>
<path fill="none" stroke="midnightblue" d="M473.795,-280.492C490.335,-268.952 512.917,-253.198 526.701,-243.581"/>
<polygon fill="midnightblue" stroke="midnightblue" points="471.52,-277.811 465.322,-286.403 475.526,-283.552 471.52,-277.811"/>
</g>
<!-- Node46&#45;&gt;Node31 -->
<g id="edge61" class="edge"><title>Node46&#45;&gt;Node31</title>
<path fill="none" stroke="midnightblue" d="M482.89,-224.768C439.307,-217.223 383.718,-204.69 368,-188 353.482,-172.585 353.118,-145.75 354.061,-131.875"/>
<polygon fill="midnightblue" stroke="midnightblue" points="482.389,-228.233 492.831,-226.441 483.551,-221.33 482.389,-228.233"/>
</g>
<!-- Node47 -->
<g id="node47" class="node"><title>Node47</title>
<g id="a_node47"><a xlink:href="_i_plug_processor_8cpp_source.html" target="_top" xlink:title="IPlugProcessor.cpp">
<polygon fill="white" stroke="black" points="505,-168.5 505,-187.5 607,-187.5 607,-168.5 505,-168.5"/>
<text text-anchor="middle" x="556" y="-175.5" font-family="Helvetica,sans-Serif" font-size="10.00">IPlugProcessor.cpp</text>
</a>
</g>
</g>
<!-- Node46&#45;&gt;Node47 -->
<g id="edge62" class="edge"><title>Node46&#45;&gt;Node47</title>
<path fill="none" stroke="midnightblue" d="M538.477,-214.101C540.668,-205.136 544.35,-194.858 548.114,-187.751"/>
<polygon fill="midnightblue" stroke="midnightblue" points="535.008,-213.615 536.641,-224.083 541.893,-214.881 535.008,-213.615"/>
</g>
<!-- Node47&#45;&gt;Node46 -->
<g id="edge63" class="edge"><title>Node47&#45;&gt;Node46</title>
<path fill="none" stroke="midnightblue" d="M556.573,-197.691C554.406,-206.635 550.736,-216.927 546.974,-224.083"/>
<polygon fill="midnightblue" stroke="midnightblue" points="560.035,-198.215 558.376,-187.751 553.148,-196.966 560.035,-198.215"/>
</g>
<!-- Node48&#45;&gt;Node45 -->
<g id="edge67" class="edge"><title>Node48&#45;&gt;Node45</title>
<path fill="none" stroke="midnightblue" d="M457.802,-338.16C456.529,-327.248 454.988,-314.04 454.001,-305.581"/>
<polygon fill="midnightblue" stroke="midnightblue" points="454.362,-338.876 458.997,-348.403 461.315,-338.065 454.362,-338.876"/>
</g>
<!-- Node49&#45;&gt;Node29 -->
<g id="edge70" class="edge"><title>Node49&#45;&gt;Node29</title>
<path fill="none" stroke="midnightblue" d="M330.226,-399.247C318.008,-391.729 304.707,-381.23 297,-368 272.885,-326.603 277.22,-265.709 279.833,-243.501"/>
<polygon fill="midnightblue" stroke="midnightblue" points="328.83,-402.481 339.248,-404.411 332.308,-396.406 328.83,-402.481"/>
</g>
<!-- Node50 -->
<g id="node50" class="node"><title>Node50</title>
<g id="a_node50"><a xlink:href="_i_plug_parameter_8cpp_source.html" target="_top" xlink:title="IPlugParameter.cpp">
<polygon fill="white" stroke="black" points="306.5,-348.5 306.5,-367.5 409.5,-367.5 409.5,-348.5 306.5,-348.5"/>
<text text-anchor="middle" x="358" y="-355.5" font-family="Helvetica,sans-Serif" font-size="10.00">IPlugParameter.cpp</text>
</a>
</g>
</g>
<!-- Node49&#45;&gt;Node50 -->
<g id="edge71" class="edge"><title>Node49&#45;&gt;Node50</title>
<path fill="none" stroke="midnightblue" d="M358,-393.805C358,-384.91 358,-374.78 358,-367.751"/>
<polygon fill="midnightblue" stroke="midnightblue" points="354.5,-394.083 358,-404.083 361.5,-394.083 354.5,-394.083"/>
</g>
</g>
</svg>
