<?xml version="1.0" encoding="UTF-8" standalone="no"?>
<!DOCTYPE svg PUBLIC "-//W3C//DTD SVG 1.1//EN"
 "http://www.w3.org/Graphics/SVG/1.1/DTD/svg11.dtd">
<!-- Generated by graphviz version 2.36.0 (20140111.2315)
 -->
<!-- Title: IPlug_include_in_plug_hdr.h Pages: 1 -->
<svg width="750pt" height="264pt"
 viewBox="0.00 0.00 749.56 264.00" xmlns="http://www.w3.org/2000/svg" xmlns:xlink="http://www.w3.org/1999/xlink">
<g id="graph0" class="graph" transform="scale(1 1) rotate(0) translate(4 260)">
<title>IPlug_include_in_plug_hdr.h</title>
<polygon fill="white" stroke="none" points="-4,4 -4,-260 745.562,-260 745.562,4 -4,4"/>
<!-- Node1 -->
<g id="node1" class="node"><title>Node1</title>
<polygon fill="#bfbfbf" stroke="black" points="606.062,-225 606.062,-255 717.062,-255 717.062,-225 606.062,-225"/>
<text text-anchor="start" x="614.062" y="-243" font-family="Helvetica,sans-Serif" font-size="10.00">IPlug_include_in_plug</text>
<text text-anchor="middle" x="661.562" y="-232" font-family="Helvetica,sans-Serif" font-size="10.00">_hdr.h</text>
</g>
<!-- Node2 -->
<g id="node2" class="node"><title>Node2</title>
<polygon fill="white" stroke="#bfbfbf" points="648.062,-0.5 648.062,-19.5 691.062,-19.5 691.062,-0.5 648.062,-0.5"/>
<text text-anchor="middle" x="669.562" y="-7.5" font-family="Helvetica,sans-Serif" font-size="10.00">cstdio</text>
</g>
<!-- Node1&#45;&gt;Node2 -->
<g id="edge1" class="edge"><title>Node1&#45;&gt;Node2</title>
<path fill="none" stroke="midnightblue" d="M662.062,-224.738C663.447,-185.277 667.33,-74.6261 668.895,-30.0071"/>
<polygon fill="midnightblue" stroke="midnightblue" points="672.395,-30.0632 669.248,-19.9466 665.4,-29.8177 672.395,-30.0632"/>
</g>
<!-- Node3 -->
<g id="node3" class="node"><title>Node3</title>
<g id="a_node3"><a xlink:href="_i_plug_platform_8h.html" target="_top" xlink:title="Include to get consistently named preprocessor macros for different platforms and logging functionali...">
<polygon fill="white" stroke="black" points="463.562,-168.5 463.562,-187.5 547.562,-187.5 547.562,-168.5 463.562,-168.5"/>
<text text-anchor="middle" x="505.562" y="-175.5" font-family="Helvetica,sans-Serif" font-size="10.00">IPlugPlatform.h</text>
</a>
</g>
</g>
<!-- Node1&#45;&gt;Node3 -->
<g id="edge2" class="edge"><title>Node1&#45;&gt;Node3</title>
<path fill="none" stroke="midnightblue" d="M624.987,-224.933C598.433,-214.72 562.856,-201.036 537.455,-191.266"/>
<polygon fill="midnightblue" stroke="midnightblue" points="538.512,-187.923 527.922,-187.6 535.999,-194.457 538.512,-187.923"/>
</g>
<!-- Node17 -->
<g id="node17" class="node"><title>Node17</title>
<polygon fill="white" stroke="#bfbfbf" points="690.062,-168.5 690.062,-187.5 741.062,-187.5 741.062,-168.5 690.062,-168.5"/>
<text text-anchor="middle" x="715.562" y="-175.5" font-family="Helvetica,sans-Serif" font-size="10.00">config.h</text>
</g>
<!-- Node1&#45;&gt;Node17 -->
<g id="edge21" class="edge"><title>Node1&#45;&gt;Node17</title>
<path fill="none" stroke="midnightblue" d="M674.359,-224.781C682.287,-215.972 692.498,-204.626 700.772,-195.433"/>
<polygon fill="midnightblue" stroke="midnightblue" points="703.616,-197.505 707.705,-187.731 698.413,-192.822 703.616,-197.505"/>
</g>
<!-- Node4 -->
<g id="node4" class="node"><title>Node4</title>
<g id="a_node4"><a xlink:href="_i_plug_logger_8h.html" target="_top" xlink:title="IPlug Logging functionailty To trace some arbitrary data: Trace(TRACELOC, &quot;%s:%d&quot;, myStr, myInt); To simply create a trace entry in the log: TRACE; No need to wrap tracer calls in #ifdef TRACER_BUILD because Trace is a no&#45;op unless TRACER_BUILD is defined. ">
<polygon fill="white" stroke="black" points="269.062,-112.5 269.062,-131.5 346.062,-131.5 346.062,-112.5 269.062,-112.5"/>
<text text-anchor="middle" x="307.562" y="-119.5" font-family="Helvetica,sans-Serif" font-size="10.00">IPlugLogger.h</text>
</a>
</g>
</g>
<!-- Node3&#45;&gt;Node4 -->
<g id="edge3" class="edge"><title>Node3&#45;&gt;Node4</title>
<path fill="none" stroke="midnightblue" d="M474.188,-168.444C440.299,-159.201 386.159,-144.436 348.838,-134.257"/>
<polygon fill="midnightblue" stroke="midnightblue" points="349.358,-130.771 338.789,-131.516 347.516,-137.524 349.358,-130.771"/>
</g>
<!-- Node4&#45;&gt;Node2 -->
<g id="edge4" class="edge"><title>Node4&#45;&gt;Node2</title>
<path fill="none" stroke="midnightblue" d="M346.258,-117.971C395.785,-113.194 483.658,-101.668 554.562,-76 589.815,-63.2384 626.939,-40.2694 649.17,-25.3335"/>
<polygon fill="midnightblue" stroke="midnightblue" points="651.184,-28.1964 657.466,-19.6651 647.235,-22.4165 651.184,-28.1964"/>
</g>
<!-- Node5 -->
<g id="node5" class="node"><title>Node5</title>
<polygon fill="white" stroke="#bfbfbf" points="347.562,-0.5 347.562,-19.5 393.562,-19.5 393.562,-0.5 347.562,-0.5"/>
<text text-anchor="middle" x="370.562" y="-7.5" font-family="Helvetica,sans-Serif" font-size="10.00">cctype</text>
</g>
<!-- Node4&#45;&gt;Node5 -->
<g id="edge5" class="edge"><title>Node4&#45;&gt;Node5</title>
<path fill="none" stroke="midnightblue" d="M346.079,-116.358C371.302,-111.098 402.471,-99.8858 418.562,-76 430.551,-58.2028 411.074,-38.4664 393.455,-25.4627"/>
<polygon fill="midnightblue" stroke="midnightblue" points="395.31,-22.4897 385.1,-19.658 391.315,-28.2383 395.31,-22.4897"/>
</g>
<!-- Node6 -->
<g id="node6" class="node"><title>Node6</title>
<polygon fill="white" stroke="#bfbfbf" points="17.062,-56.5 17.062,-75.5 66.062,-75.5 66.062,-56.5 17.062,-56.5"/>
<text text-anchor="middle" x="41.562" y="-63.5" font-family="Helvetica,sans-Serif" font-size="10.00">cstdarg</text>
</g>
<!-- Node4&#45;&gt;Node6 -->
<g id="edge6" class="edge"><title>Node4&#45;&gt;Node6</title>
<path fill="none" stroke="midnightblue" d="M268.808,-114.305C224.593,-106.485 149.917,-92.7291 76.3027,-76.0446"/>
<polygon fill="midnightblue" stroke="midnightblue" points="76.9252,-72.5967 66.3967,-73.7799 75.3651,-79.4207 76.9252,-72.5967"/>
</g>
<!-- Node7 -->
<g id="node7" class="node"><title>Node7</title>
<polygon fill="white" stroke="#bfbfbf" points="84.562,-56.5 84.562,-75.5 130.562,-75.5 130.562,-56.5 84.562,-56.5"/>
<text text-anchor="middle" x="107.562" y="-63.5" font-family="Helvetica,sans-Serif" font-size="10.00">cstdint</text>
</g>
<!-- Node4&#45;&gt;Node7 -->
<g id="edge7" class="edge"><title>Node4&#45;&gt;Node7</title>
<path fill="none" stroke="midnightblue" d="M275.323,-112.492C243.462,-104.056 193.076,-90.6396 140.469,-76.2254"/>
<polygon fill="midnightblue" stroke="midnightblue" points="141.194,-72.795 130.625,-73.5233 139.341,-79.5454 141.194,-72.795"/>
</g>
<!-- Node8 -->
<g id="node8" class="node"><title>Node8</title>
<polygon fill="white" stroke="#bfbfbf" points="128.562,-0.5 128.562,-19.5 174.562,-19.5 174.562,-0.5 128.562,-0.5"/>
<text text-anchor="middle" x="151.562" y="-7.5" font-family="Helvetica,sans-Serif" font-size="10.00">cstring</text>
</g>
<!-- Node4&#45;&gt;Node8 -->
<g id="edge8" class="edge"><title>Node4&#45;&gt;Node8</title>
<path fill="none" stroke="midnightblue" d="M268.879,-121.169C195.594,-120.578 40.8556,-114.66 7.56202,-76 -25.8448,-37.2084 66.0021,-20.4301 118.223,-14.186"/>
<polygon fill="midnightblue" stroke="midnightblue" points="118.851,-17.6375 128.397,-13.0417 118.069,-10.6813 118.851,-17.6375"/>
</g>
<!-- Node9 -->
<g id="node9" class="node"><title>Node9</title>
<polygon fill="white" stroke="#bfbfbf" points="149.062,-56.5 149.062,-75.5 190.062,-75.5 190.062,-56.5 149.062,-56.5"/>
<text text-anchor="middle" x="169.562" y="-63.5" font-family="Helvetica,sans-Serif" font-size="10.00">ctime</text>
</g>
<!-- Node4&#45;&gt;Node9 -->
<g id="edge9" class="edge"><title>Node4&#45;&gt;Node9</title>
<path fill="none" stroke="midnightblue" d="M285.696,-112.444C262.513,-103.372 225.733,-88.98 199.786,-78.8268"/>
<polygon fill="midnightblue" stroke="midnightblue" points="201.011,-75.5477 190.423,-75.1629 198.46,-82.0664 201.011,-75.5477"/>
</g>
<!-- Node10 -->
<g id="node10" class="node"><title>Node10</title>
<polygon fill="white" stroke="#bfbfbf" points="208.062,-56.5 208.062,-75.5 257.062,-75.5 257.062,-56.5 208.062,-56.5"/>
<text text-anchor="middle" x="232.562" y="-63.5" font-family="Helvetica,sans-Serif" font-size="10.00">cassert</text>
</g>
<!-- Node4&#45;&gt;Node10 -->
<g id="edge10" class="edge"><title>Node4&#45;&gt;Node10</title>
<path fill="none" stroke="midnightblue" d="M295.512,-112.324C284.099,-104.107 266.731,-91.6017 253.127,-81.8069"/>
<polygon fill="midnightblue" stroke="midnightblue" points="254.992,-78.8366 244.831,-75.8339 250.902,-84.5174 254.992,-78.8366"/>
</g>
<!-- Node11 -->
<g id="node11" class="node"><title>Node11</title>
<polygon fill="white" stroke="#bfbfbf" points="275.562,-56.5 275.562,-75.5 339.562,-75.5 339.562,-56.5 275.562,-56.5"/>
<text text-anchor="middle" x="307.562" y="-63.5" font-family="Helvetica,sans-Serif" font-size="10.00">wdlstring.h</text>
</g>
<!-- Node4&#45;&gt;Node11 -->
<g id="edge11" class="edge"><title>Node4&#45;&gt;Node11</title>
<path fill="none" stroke="midnightblue" d="M307.562,-112.083C307.562,-105.006 307.562,-94.8611 307.562,-85.9865"/>
<polygon fill="midnightblue" stroke="midnightblue" points="311.062,-85.751 307.562,-75.7511 304.062,-85.7511 311.062,-85.751"/>
</g>
<!-- Node12 -->
<g id="node12" class="node"><title>Node12</title>
<polygon fill="white" stroke="#bfbfbf" points="357.562,-56.5 357.562,-75.5 409.562,-75.5 409.562,-56.5 357.562,-56.5"/>
<text text-anchor="middle" x="383.562" y="-63.5" font-family="Helvetica,sans-Serif" font-size="10.00">mutex.h</text>
</g>
<!-- Node4&#45;&gt;Node12 -->
<g id="edge12" class="edge"><title>Node4&#45;&gt;Node12</title>
<path fill="none" stroke="midnightblue" d="M319.773,-112.324C331.338,-104.107 348.937,-91.6017 362.723,-81.8069"/>
<polygon fill="midnightblue" stroke="midnightblue" points="365.005,-84.4791 371.129,-75.8339 360.95,-78.7729 365.005,-84.4791"/>
</g>
<!-- Node13 -->
<g id="node13" class="node"><title>Node13</title>
<g id="a_node13"><a xlink:href="_i_plug_utilities_8h.html" target="_top" xlink:title="Utility functions and macros. ">
<polygon fill="white" stroke="black" points="465.562,-56.5 465.562,-75.5 545.562,-75.5 545.562,-56.5 465.562,-56.5"/>
<text text-anchor="middle" x="505.562" y="-63.5" font-family="Helvetica,sans-Serif" font-size="10.00">IPlugUtilities.h</text>
</a>
</g>
</g>
<!-- Node4&#45;&gt;Node13 -->
<g id="edge13" class="edge"><title>Node4&#45;&gt;Node13</title>
<path fill="none" stroke="midnightblue" d="M338.936,-112.444C372.825,-103.201 426.965,-88.4356 464.286,-78.2572"/>
<polygon fill="midnightblue" stroke="midnightblue" points="465.608,-81.5243 474.335,-75.5164 463.767,-74.771 465.608,-81.5243"/>
</g>
<!-- Node13&#45;&gt;Node2 -->
<g id="edge15" class="edge"><title>Node13&#45;&gt;Node2</title>
<path fill="none" stroke="midnightblue" d="M531.548,-56.4435C560.436,-46.9316 607.091,-31.5697 638.041,-21.3787"/>
<polygon fill="midnightblue" stroke="midnightblue" points="639.484,-24.5888 647.887,-18.1368 637.294,-17.94 639.484,-24.5888"/>
</g>
<!-- Node13&#45;&gt;Node3 -->
<g id="edge20" class="edge"><title>Node13&#45;&gt;Node3</title>
<path fill="none" stroke="midnightblue" d="M505.562,-75.5914C505.562,-93.3079 505.562,-134.254 505.562,-158.348"/>
<polygon fill="midnightblue" stroke="midnightblue" points="502.062,-158.368 505.562,-168.368 509.062,-158.369 502.062,-158.368"/>
</g>
<!-- Node13&#45;&gt;Node5 -->
<g id="edge18" class="edge"><title>Node13&#45;&gt;Node5</title>
<path fill="none" stroke="midnightblue" d="M484.171,-56.4435C461.855,-47.5171 426.659,-33.4387 401.354,-23.3168"/>
<polygon fill="midnightblue" stroke="midnightblue" points="402.438,-19.9807 391.853,-19.5164 399.838,-26.4801 402.438,-19.9807"/>
</g>
<!-- Node13&#45;&gt;Node8 -->
<g id="edge17" class="edge"><title>Node13&#45;&gt;Node8</title>
<path fill="none" stroke="midnightblue" d="M465.298,-58.8581C394.746,-48.0958 250.084,-26.0287 184.813,-16.0721"/>
<polygon fill="midnightblue" stroke="midnightblue" points="185.09,-12.574 174.676,-14.5259 184.034,-19.494 185.09,-12.574"/>
</g>
<!-- Node14 -->
<g id="node14" class="node"><title>Node14</title>
<polygon fill="white" stroke="#bfbfbf" points="411.562,-0.5 411.562,-19.5 455.562,-19.5 455.562,-0.5 411.562,-0.5"/>
<text text-anchor="middle" x="433.562" y="-7.5" font-family="Helvetica,sans-Serif" font-size="10.00">cmath</text>
</g>
<!-- Node13&#45;&gt;Node14 -->
<g id="edge14" class="edge"><title>Node13&#45;&gt;Node14</title>
<path fill="none" stroke="midnightblue" d="M493.994,-56.324C483.142,-48.1849 466.681,-35.8395 453.679,-26.0874"/>
<polygon fill="midnightblue" stroke="midnightblue" points="455.441,-23.0339 445.341,-19.8339 451.241,-28.6339 455.441,-23.0339"/>
</g>
<!-- Node15 -->
<g id="node15" class="node"><title>Node15</title>
<polygon fill="white" stroke="#bfbfbf" points="474.062,-0.5 474.062,-19.5 519.062,-19.5 519.062,-0.5 474.062,-0.5"/>
<text text-anchor="middle" x="496.562" y="-7.5" font-family="Helvetica,sans-Serif" font-size="10.00">cstdlib</text>
</g>
<!-- Node13&#45;&gt;Node15 -->
<g id="edge16" class="edge"><title>Node13&#45;&gt;Node15</title>
<path fill="none" stroke="midnightblue" d="M504.076,-56.083C502.883,-48.9272 501.168,-38.6353 499.677,-29.6911"/>
<polygon fill="midnightblue" stroke="midnightblue" points="503.117,-29.0396 498.021,-19.7511 496.212,-30.1904 503.117,-29.0396"/>
</g>
<!-- Node16 -->
<g id="node16" class="node"><title>Node16</title>
<g id="a_node16"><a xlink:href="_i_plug_constants_8h.html" target="_top" xlink:title="Constant definitions, magic numbers. ">
<polygon fill="white" stroke="black" points="537.562,-0.5 537.562,-19.5 629.562,-19.5 629.562,-0.5 537.562,-0.5"/>
<text text-anchor="middle" x="583.562" y="-7.5" font-family="Helvetica,sans-Serif" font-size="10.00">IPlugConstants.h</text>
</a>
</g>
</g>
<!-- Node13&#45;&gt;Node16 -->
<g id="edge19" class="edge"><title>Node13&#45;&gt;Node16</title>
<path fill="none" stroke="midnightblue" d="M518.094,-56.324C530.148,-47.979 548.589,-35.2122 562.831,-25.3524"/>
<polygon fill="midnightblue" stroke="midnightblue" points="564.831,-28.2243 571.061,-19.6545 560.847,-22.469 564.831,-28.2243"/>
</g>
</g>
</svg>
