<?xml version="1.0" encoding="UTF-8" standalone="no"?>
<!DOCTYPE svg PUBLIC "-//W3C//DTD SVG 1.1//EN"
 "http://www.w3.org/Graphics/SVG/1.1/DTD/svg11.dtd">
<!-- Generated by graphviz version 2.36.0 (20140111.2315)
 -->
<!-- Title: IPlugVST3.h Pages: 1 -->
<!--zoomable 488 -->
<svg id="main" version="1.1" xmlns="http://www.w3.org/2000/svg" xmlns:xlink="http://www.w3.org/1999/xlink" xml:space="preserve" onload="init(evt)">
<style type="text/css"><![CDATA[
.edge:hover path { stroke: red; }
.edge:hover polygon { stroke: red; fill: red; }
]]></style>
<script type="text/javascript"><![CDATA[
var edges = document.getElementsByTagName('g');
if (edges && edges.length) {
  for (var i=0;i<edges.length;i++) {
    if (edges[i].id.substr(0,4)=='edge') {
      edges[i].setAttribute('class','edge');
    }
  }
}
]]></script>
        <defs>
                <circle id="rim" cx="0" cy="0" r="7"/>
                <circle id="rim2" cx="0" cy="0" r="3.5"/>
                <g id="zoomPlus">
                        <use xlink:href="#rim" fill="#404040">
                                <set attributeName="fill" to="#808080" begin="zoomplus.mouseover" end="zoomplus.mouseout"/>
                        </use>
                        <path d="M-4,0h8M0,-4v8" fill="none" stroke="white" stroke-width="1.5" pointer-events="none"/>
                </g>
                <g id="zoomMin">
                        <use xlink:href="#rim" fill="#404040">
                                <set attributeName="fill" to="#808080" begin="zoomminus.mouseover" end="zoomminus.mouseout"/>
                        </use>
                        <path d="M-4,0h8" fill="none" stroke="white" stroke-width="1.5" pointer-events="none"/>
                </g>
                <g id="dirArrow">
                        <path fill="none" stroke="white" stroke-width="1.5" d="M0,-3.0v7 M-2.5,-0.5L0,-3.0L2.5,-0.5"/>
                </g>
               <g id="resetDef">
                       <use xlink:href="#rim2" fill="#404040">
                               <set attributeName="fill" to="#808080" begin="reset.mouseover" end="reset.mouseout"/>
                       </use>
               </g>
        </defs>

<script type="text/javascript">
var viewWidth = 1255;
var viewHeight = 488;
var sectionId = 'dynsection-0';
</script>
<script xlink:href="svgpan.js"/>
<svg id="graph" class="graph">
<g id="viewport">
<title>IPlugVST3.h</title>
<polygon fill="white" stroke="none" points="-4,4 -4,-484 1251,-484 1251,4 -4,4"/>
<!-- Node1 -->
<g id="node1" class="node"><title>Node1</title>
<polygon fill="#bfbfbf" stroke="black" points="299,-460.5 299,-479.5 371,-479.5 371,-460.5 299,-460.5"/>
<text text-anchor="middle" x="335" y="-467.5" font-family="Helvetica,sans-Serif" font-size="10.00">IPlugVST3.h</text>
</g>
<!-- Node2 -->
<g id="node2" class="node"><title>Node2</title>
<polygon fill="white" stroke="#bfbfbf" points="0,-398.5 0,-417.5 44,-417.5 44,-398.5 0,-398.5"/>
<text text-anchor="middle" x="22" y="-405.5" font-family="Helvetica,sans-Serif" font-size="10.00">vector</text>
</g>
<!-- Node1&#45;&gt;Node2 -->
<g id="edge1" class="edge"><title>Node1&#45;&gt;Node2</title>
<path fill="none" stroke="midnightblue" d="M298.613,-466.603C244.131,-462.257 138.609,-450.9 53,-424 50.8682,-423.33 48.698,-422.536 46.5463,-421.669"/>
<polygon fill="midnightblue" stroke="midnightblue" points="47.9609,-418.467 37.4058,-417.551 45.0855,-424.849 47.9609,-418.467"/>
</g>
<!-- Node3 -->
<g id="node3" class="node"><title>Node3</title>
<polygon fill="white" stroke="#bfbfbf" points="62,-393 62,-423 202,-423 202,-393 62,-393"/>
<text text-anchor="start" x="70" y="-411" font-family="Helvetica,sans-Serif" font-size="10.00">public.sdk/source/vst</text>
<text text-anchor="middle" x="132" y="-400" font-family="Helvetica,sans-Serif" font-size="10.00">/vstsinglecomponenteffect.h</text>
</g>
<!-- Node1&#45;&gt;Node3 -->
<g id="edge2" class="edge"><title>Node1&#45;&gt;Node3</title>
<path fill="none" stroke="midnightblue" d="M305.915,-460.403C275.623,-451.45 227.375,-437.19 189.374,-425.958"/>
<polygon fill="midnightblue" stroke="midnightblue" points="190.034,-422.503 179.452,-423.025 188.05,-429.216 190.034,-422.503"/>
</g>
<!-- Node4 -->
<g id="node4" class="node"><title>Node4</title>
<polygon fill="white" stroke="#bfbfbf" points="220,-393 220,-423 330,-423 330,-393 220,-393"/>
<text text-anchor="start" x="228" y="-411" font-family="Helvetica,sans-Serif" font-size="10.00">pluginterfaces/vst</text>
<text text-anchor="middle" x="275" y="-400" font-family="Helvetica,sans-Serif" font-size="10.00">/ivstprocesscontext.h</text>
</g>
<!-- Node1&#45;&gt;Node4 -->
<g id="edge3" class="edge"><title>Node1&#45;&gt;Node4</title>
<path fill="none" stroke="midnightblue" d="M326.403,-460.403C318.581,-452.581 306.708,-440.708 296.342,-430.342"/>
<polygon fill="midnightblue" stroke="midnightblue" points="298.687,-427.737 289.141,-423.141 293.737,-432.687 298.687,-427.737"/>
</g>
<!-- Node5 -->
<g id="node5" class="node"><title>Node5</title>
<polygon fill="white" stroke="#bfbfbf" points="348,-393 348,-423 442,-423 442,-393 348,-393"/>
<text text-anchor="start" x="356" y="-411" font-family="Helvetica,sans-Serif" font-size="10.00">pluginterfaces/vst</text>
<text text-anchor="middle" x="395" y="-400" font-family="Helvetica,sans-Serif" font-size="10.00">/vsttypes.h</text>
</g>
<!-- Node1&#45;&gt;Node5 -->
<g id="edge4" class="edge"><title>Node1&#45;&gt;Node5</title>
<path fill="none" stroke="midnightblue" d="M343.597,-460.403C351.419,-452.581 363.292,-440.708 373.658,-430.342"/>
<polygon fill="midnightblue" stroke="midnightblue" points="376.263,-432.687 380.859,-423.141 371.313,-427.737 376.263,-432.687"/>
</g>
<!-- Node6 -->
<g id="node6" class="node"><title>Node6</title>
<polygon fill="white" stroke="#bfbfbf" points="460,-393 460,-423 560,-423 560,-393 460,-393"/>
<text text-anchor="start" x="468" y="-411" font-family="Helvetica,sans-Serif" font-size="10.00">pluginterfaces/vst</text>
<text text-anchor="middle" x="510" y="-400" font-family="Helvetica,sans-Serif" font-size="10.00">/ivstcontextmenu.h</text>
</g>
<!-- Node1&#45;&gt;Node6 -->
<g id="edge5" class="edge"><title>Node1&#45;&gt;Node6</title>
<path fill="none" stroke="midnightblue" d="M360.073,-460.403C385.854,-451.564 426.721,-437.553 459.281,-426.39"/>
<polygon fill="midnightblue" stroke="midnightblue" points="460.769,-429.579 469.093,-423.025 458.498,-422.958 460.769,-429.579"/>
</g>
<!-- Node7 -->
<g id="node7" class="node"><title>Node7</title>
<g id="a_node7"><a xlink:href="_i_plug_base__select_8h_source.html" target="_top" xlink:title="IPlugBase_select.h">
<polygon fill="white" stroke="black" points="578.5,-398.5 578.5,-417.5 679.5,-417.5 679.5,-398.5 578.5,-398.5"/>
<text text-anchor="middle" x="629" y="-405.5" font-family="Helvetica,sans-Serif" font-size="10.00">IPlugBase_select.h</text>
</a>
</g>
</g>
<!-- Node1&#45;&gt;Node7 -->
<g id="edge6" class="edge"><title>Node1&#45;&gt;Node7</title>
<path fill="none" stroke="midnightblue" d="M371.205,-462.675C417.298,-454.477 499.319,-439.398 569,-424 574.709,-422.738 580.704,-421.335 586.605,-419.907"/>
<polygon fill="midnightblue" stroke="midnightblue" points="587.506,-423.29 596.38,-417.501 585.833,-416.492 587.506,-423.29"/>
</g>
<!-- Node8 -->
<g id="node8" class="node"><title>Node8</title>
<g id="a_node8"><a xlink:href="_i_plug_base_graphics_8h.html" target="_top" xlink:title="An IPlugBase class for an IPlug plug&#45;in that uses IGraphics for it&#39;s UI. ">
<polygon fill="white" stroke="black" points="503.5,-336.5 503.5,-355.5 612.5,-355.5 612.5,-336.5 503.5,-336.5"/>
<text text-anchor="middle" x="558" y="-343.5" font-family="Helvetica,sans-Serif" font-size="10.00">IPlugBaseGraphics.h</text>
</a>
</g>
</g>
<!-- Node7&#45;&gt;Node8 -->
<g id="edge7" class="edge"><title>Node7&#45;&gt;Node8</title>
<path fill="none" stroke="midnightblue" d="M618.827,-398.403C607.65,-388.958 589.483,-373.606 575.909,-362.134"/>
<polygon fill="midnightblue" stroke="midnightblue" points="578.051,-359.362 568.154,-355.581 573.533,-364.709 578.051,-359.362"/>
</g>
<!-- Node30 -->
<g id="node30" class="node"><title>Node30</title>
<g id="a_node30"><a xlink:href="_i_plug_processor_8h.html" target="_top" xlink:title="The base class for IPlug Audio Processing. ">
<polygon fill="white" stroke="black" points="694,-280.5 694,-299.5 786,-299.5 786,-280.5 694,-280.5"/>
<text text-anchor="middle" x="740" y="-287.5" font-family="Helvetica,sans-Serif" font-size="10.00">IPlugProcessor.h</text>
</a>
</g>
</g>
<!-- Node7&#45;&gt;Node30 -->
<g id="edge48" class="edge"><title>Node7&#45;&gt;Node30</title>
<path fill="none" stroke="midnightblue" d="M637.343,-398.281C655.915,-378.872 700.9,-331.861 724.679,-307.011"/>
<polygon fill="midnightblue" stroke="midnightblue" points="727.477,-309.15 731.862,-299.505 722.419,-304.31 727.477,-309.15"/>
</g>
<!-- Node9 -->
<g id="node9" class="node"><title>Node9</title>
<g id="a_node9"><a xlink:href="_i_plug_base_8h.html" target="_top" xlink:title="The lowest level base class of an IPlug plug&#45;in. ">
<polygon fill="white" stroke="black" points="406,-280.5 406,-299.5 476,-299.5 476,-280.5 406,-280.5"/>
<text text-anchor="middle" x="441" y="-287.5" font-family="Helvetica,sans-Serif" font-size="10.00">IPlugBase.h</text>
</a>
</g>
</g>
<!-- Node8&#45;&gt;Node9 -->
<g id="edge8" class="edge"><title>Node8&#45;&gt;Node9</title>
<path fill="none" stroke="midnightblue" d="M539.461,-336.444C520.377,-327.636 490.425,-313.812 468.564,-303.722"/>
<polygon fill="midnightblue" stroke="midnightblue" points="469.999,-300.529 459.452,-299.516 467.065,-306.885 469.999,-300.529"/>
</g>
<!-- Node10 -->
<g id="node10" class="node"><title>Node10</title>
<polygon fill="white" stroke="#bfbfbf" points="261,-0.5 261,-19.5 307,-19.5 307,-0.5 261,-0.5"/>
<text text-anchor="middle" x="284" y="-7.5" font-family="Helvetica,sans-Serif" font-size="10.00">cstring</text>
</g>
<!-- Node9&#45;&gt;Node10 -->
<g id="edge9" class="edge"><title>Node9&#45;&gt;Node10</title>
<path fill="none" stroke="midnightblue" d="M405.946,-283.88C326.187,-271.245 138,-235.453 138,-179 138,-179 138,-179 138,-121 138,-90.2048 140.221,-77.7719 162,-56 185.82,-32.1875 223.313,-20.8464 250.451,-15.528"/>
<polygon fill="midnightblue" stroke="midnightblue" points="251.422,-18.9103 260.655,-13.7134 250.197,-12.0185 251.422,-18.9103"/>
</g>
<!-- Node11 -->
<g id="node11" class="node"><title>Node11</title>
<polygon fill="white" stroke="#bfbfbf" points="674,-56.5 674,-75.5 720,-75.5 720,-56.5 674,-56.5"/>
<text text-anchor="middle" x="697" y="-63.5" font-family="Helvetica,sans-Serif" font-size="10.00">cstdint</text>
</g>
<!-- Node9&#45;&gt;Node11 -->
<g id="edge10" class="edge"><title>Node9&#45;&gt;Node11</title>
<path fill="none" stroke="midnightblue" d="M444.707,-280.151C450.635,-266.781 463.303,-241.173 480,-224 532.942,-169.548 563.449,-177.841 624,-132 644.358,-116.588 666.004,-96.8375 680.39,-83.1732"/>
<polygon fill="midnightblue" stroke="midnightblue" points="683.167,-85.3598 687.958,-75.91 678.32,-80.3096 683.167,-85.3598"/>
</g>
<!-- Node12 -->
<g id="node12" class="node"><title>Node12</title>
<polygon fill="white" stroke="#bfbfbf" points="488.5,-224.5 488.5,-243.5 537.5,-243.5 537.5,-224.5 488.5,-224.5"/>
<text text-anchor="middle" x="513" y="-231.5" font-family="Helvetica,sans-Serif" font-size="10.00">ptrlist.h</text>
</g>
<!-- Node9&#45;&gt;Node12 -->
<g id="edge11" class="edge"><title>Node9&#45;&gt;Node12</title>
<path fill="none" stroke="midnightblue" d="M452.568,-280.324C463.42,-272.185 479.881,-259.839 492.883,-250.087"/>
<polygon fill="midnightblue" stroke="midnightblue" points="495.321,-252.634 501.221,-243.834 491.121,-247.034 495.321,-252.634"/>
</g>
<!-- Node13 -->
<g id="node13" class="node"><title>Node13</title>
<polygon fill="white" stroke="#bfbfbf" points="204,-56.5 204,-75.5 256,-75.5 256,-56.5 204,-56.5"/>
<text text-anchor="middle" x="230" y="-63.5" font-family="Helvetica,sans-Serif" font-size="10.00">mutex.h</text>
</g>
<!-- Node9&#45;&gt;Node13 -->
<g id="edge12" class="edge"><title>Node9&#45;&gt;Node13</title>
<path fill="none" stroke="midnightblue" d="M417.727,-280.383C398.639,-272.635 371.516,-260.019 351,-244 299.324,-203.653 288.589,-188.303 255,-132 246.289,-117.399 239.605,-99.2251 235.349,-85.8099"/>
<polygon fill="midnightblue" stroke="midnightblue" points="238.584,-84.4129 232.354,-75.8431 231.88,-86.4274 238.584,-84.4129"/>
</g>
<!-- Node14 -->
<g id="node14" class="node"><title>Node14</title>
<g id="a_node14"><a xlink:href="_i_plug_platform_8h.html" target="_top" xlink:title="Include to get consistently named preprocessor macros for different platforms and logging functionali...">
<polygon fill="white" stroke="black" points="418,-168.5 418,-187.5 502,-187.5 502,-168.5 418,-168.5"/>
<text text-anchor="middle" x="460" y="-175.5" font-family="Helvetica,sans-Serif" font-size="10.00">IPlugPlatform.h</text>
</a>
</g>
</g>
<!-- Node9&#45;&gt;Node14 -->
<g id="edge13" class="edge"><title>Node9&#45;&gt;Node14</title>
<path fill="none" stroke="midnightblue" d="M441.054,-280.085C441.274,-267.482 442.211,-243.787 446,-224 447.712,-215.06 450.58,-205.392 453.276,-197.317"/>
<polygon fill="midnightblue" stroke="midnightblue" points="456.602,-198.409 456.609,-187.814 449.996,-196.092 456.602,-198.409"/>
</g>
<!-- Node22 -->
<g id="node22" class="node"><title>Node22</title>
<g id="a_node22"><a xlink:href="_i_plug_utilities_8h.html" target="_top" xlink:title="Utility functions and macros. ">
<polygon fill="white" stroke="black" points="432,-56.5 432,-75.5 512,-75.5 512,-56.5 432,-56.5"/>
<text text-anchor="middle" x="472" y="-63.5" font-family="Helvetica,sans-Serif" font-size="10.00">IPlugUtilities.h</text>
</a>
</g>
</g>
<!-- Node9&#45;&gt;Node22 -->
<g id="edge43" class="edge"><title>Node9&#45;&gt;Node22</title>
<path fill="none" stroke="midnightblue" d="M435.539,-280.459C423.561,-260.635 396.978,-209.988 409,-168 418.471,-134.92 442.272,-102.146 457.756,-83.2731"/>
<polygon fill="midnightblue" stroke="midnightblue" points="460.432,-85.5294 464.204,-75.6288 455.081,-81.0161 460.432,-85.5294"/>
</g>
<!-- Node25 -->
<g id="node25" class="node"><title>Node25</title>
<g id="a_node25"><a xlink:href="_i_plug_constants_8h.html" target="_top" xlink:title="Constant definitions, magic numbers. ">
<polygon fill="white" stroke="black" points="1125,-0.5 1125,-19.5 1217,-19.5 1217,-0.5 1125,-0.5"/>
<text text-anchor="middle" x="1171" y="-7.5" font-family="Helvetica,sans-Serif" font-size="10.00">IPlugConstants.h</text>
</a>
</g>
</g>
<!-- Node9&#45;&gt;Node25 -->
<g id="edge32" class="edge"><title>Node9&#45;&gt;Node25</title>
<path fill="none" stroke="midnightblue" d="M476.047,-285.801C576.125,-275.578 869.953,-237.915 1087,-132 1127.32,-112.323 1149.83,-115.56 1171,-76 1178.57,-61.8531 1177.73,-43.3692 1175.49,-29.7302"/>
<polygon fill="midnightblue" stroke="midnightblue" points="1178.85,-28.715 1173.43,-19.6146 1172,-30.1119 1178.85,-28.715"/>
</g>
<!-- Node26 -->
<g id="node26" class="node"><title>Node26</title>
<g id="a_node26"><a xlink:href="_i_plug_structs_8h_source.html" target="_top" xlink:title="IPlugStructs.h">
<polygon fill="white" stroke="black" points="632.5,-224.5 632.5,-243.5 711.5,-243.5 711.5,-224.5 632.5,-224.5"/>
<text text-anchor="middle" x="672" y="-231.5" font-family="Helvetica,sans-Serif" font-size="10.00">IPlugStructs.h</text>
</a>
</g>
</g>
<!-- Node9&#45;&gt;Node26 -->
<g id="edge33" class="edge"><title>Node9&#45;&gt;Node26</title>
<path fill="none" stroke="midnightblue" d="M476.084,-280.799C516.013,-271.465 581.396,-256.18 625.534,-245.862"/>
<polygon fill="midnightblue" stroke="midnightblue" points="626.498,-249.231 635.439,-243.547 624.905,-242.415 626.498,-249.231"/>
</g>
<!-- Node29 -->
<g id="node29" class="node"><title>Node29</title>
<g id="a_node29"><a xlink:href="_i_plug_parameter_8h_source.html" target="_top" xlink:title="IPlugParameter.h">
<polygon fill="white" stroke="black" points="264,-112.5 264,-131.5 356,-131.5 356,-112.5 264,-112.5"/>
<text text-anchor="middle" x="310" y="-119.5" font-family="Helvetica,sans-Serif" font-size="10.00">IPlugParameter.h</text>
</a>
</g>
</g>
<!-- Node9&#45;&gt;Node29 -->
<g id="edge44" class="edge"><title>Node9&#45;&gt;Node29</title>
<path fill="none" stroke="midnightblue" d="M421.784,-280.456C406.216,-272.752 384.551,-260.158 370,-244 342.117,-213.037 324.033,-166.757 315.58,-141.343"/>
<polygon fill="midnightblue" stroke="midnightblue" points="318.83,-140.015 312.459,-131.549 312.16,-142.14 318.83,-140.015"/>
</g>
<!-- Node15 -->
<g id="node15" class="node"><title>Node15</title>
<g id="a_node15"><a xlink:href="_i_plug_logger_8h.html" target="_top" xlink:title="IPlug Logging functionailty To trace some arbitrary data: Trace(TRACELOC, &quot;%s:%d&quot;, myStr, myInt); To simply create a trace entry in the log: TRACE; No need to wrap tracer calls in #ifdef TRACER_BUILD because Trace is a no&#45;op unless TRACER_BUILD is defined. ">
<polygon fill="white" stroke="black" points="538.5,-112.5 538.5,-131.5 615.5,-131.5 615.5,-112.5 538.5,-112.5"/>
<text text-anchor="middle" x="577" y="-119.5" font-family="Helvetica,sans-Serif" font-size="10.00">IPlugLogger.h</text>
</a>
</g>
</g>
<!-- Node14&#45;&gt;Node15 -->
<g id="edge14" class="edge"><title>Node14&#45;&gt;Node15</title>
<path fill="none" stroke="midnightblue" d="M478.539,-168.444C497.623,-159.636 527.575,-145.812 549.436,-135.722"/>
<polygon fill="midnightblue" stroke="midnightblue" points="550.935,-138.885 558.548,-131.516 548.001,-132.529 550.935,-138.885"/>
</g>
<!-- Node15&#45;&gt;Node10 -->
<g id="edge19" class="edge"><title>Node15&#45;&gt;Node10</title>
<path fill="none" stroke="midnightblue" d="M540.209,-112.459C508.564,-104.594 461.991,-91.772 423,-76 405.307,-68.8432 402.17,-64.3325 385,-56 361.253,-44.4761 333.879,-32.3495 313.624,-23.5921"/>
<polygon fill="midnightblue" stroke="midnightblue" points="314.869,-20.3176 304.3,-19.5811 312.103,-26.7479 314.869,-20.3176"/>
</g>
<!-- Node15&#45;&gt;Node11 -->
<g id="edge18" class="edge"><title>Node15&#45;&gt;Node11</title>
<path fill="none" stroke="midnightblue" d="M596.014,-112.444C615.588,-103.636 646.308,-89.8116 668.729,-79.722"/>
<polygon fill="midnightblue" stroke="midnightblue" points="670.392,-82.8119 678.075,-75.5164 667.519,-76.4284 670.392,-82.8119"/>
</g>
<!-- Node15&#45;&gt;Node13 -->
<g id="edge23" class="edge"><title>Node15&#45;&gt;Node13</title>
<path fill="none" stroke="midnightblue" d="M538.205,-114.963C470.552,-104.435 331.946,-82.8649 266.176,-72.6297"/>
<polygon fill="midnightblue" stroke="midnightblue" points="266.687,-69.1672 256.268,-71.0878 265.61,-76.0839 266.687,-69.1672"/>
</g>
<!-- Node16 -->
<g id="node16" class="node"><title>Node16</title>
<polygon fill="white" stroke="#bfbfbf" points="631.5,-0.5 631.5,-19.5 674.5,-19.5 674.5,-0.5 631.5,-0.5"/>
<text text-anchor="middle" x="653" y="-7.5" font-family="Helvetica,sans-Serif" font-size="10.00">cstdio</text>
</g>
<!-- Node15&#45;&gt;Node16 -->
<g id="edge15" class="edge"><title>Node15&#45;&gt;Node16</title>
<path fill="none" stroke="midnightblue" d="M589.279,-112.201C600.139,-103.896 615.799,-90.5708 626,-76 636.065,-61.6246 643.334,-42.9227 647.777,-29.2722"/>
<polygon fill="midnightblue" stroke="midnightblue" points="651.161,-30.1731 650.733,-19.5869 644.466,-28.1293 651.161,-30.1731"/>
</g>
<!-- Node17 -->
<g id="node17" class="node"><title>Node17</title>
<polygon fill="white" stroke="#bfbfbf" points="505,-0.5 505,-19.5 551,-19.5 551,-0.5 505,-0.5"/>
<text text-anchor="middle" x="528" y="-7.5" font-family="Helvetica,sans-Serif" font-size="10.00">cctype</text>
</g>
<!-- Node15&#45;&gt;Node17 -->
<g id="edge16" class="edge"><title>Node15&#45;&gt;Node17</title>
<path fill="none" stroke="midnightblue" d="M573.155,-112.368C565.176,-94.4563 546.675,-52.9233 535.995,-28.9482"/>
<polygon fill="midnightblue" stroke="midnightblue" points="539.093,-27.3019 531.827,-19.5914 532.699,-30.1503 539.093,-27.3019"/>
</g>
<!-- Node18 -->
<g id="node18" class="node"><title>Node18</title>
<polygon fill="white" stroke="#bfbfbf" points="568.5,-56.5 568.5,-75.5 617.5,-75.5 617.5,-56.5 568.5,-56.5"/>
<text text-anchor="middle" x="593" y="-63.5" font-family="Helvetica,sans-Serif" font-size="10.00">cstdarg</text>
</g>
<!-- Node15&#45;&gt;Node18 -->
<g id="edge17" class="edge"><title>Node15&#45;&gt;Node18</title>
<path fill="none" stroke="midnightblue" d="M579.642,-112.083C581.786,-104.849 584.879,-94.4087 587.549,-85.3968"/>
<polygon fill="midnightblue" stroke="midnightblue" points="590.922,-86.3334 590.407,-75.7511 584.21,-84.3447 590.922,-86.3334"/>
</g>
<!-- Node19 -->
<g id="node19" class="node"><title>Node19</title>
<polygon fill="white" stroke="#bfbfbf" points="738.5,-56.5 738.5,-75.5 779.5,-75.5 779.5,-56.5 738.5,-56.5"/>
<text text-anchor="middle" x="759" y="-63.5" font-family="Helvetica,sans-Serif" font-size="10.00">ctime</text>
</g>
<!-- Node15&#45;&gt;Node19 -->
<g id="edge20" class="edge"><title>Node15&#45;&gt;Node19</title>
<path fill="none" stroke="midnightblue" d="M605.866,-112.488C634.537,-104.026 680.004,-90.587 728.591,-76.1141"/>
<polygon fill="midnightblue" stroke="midnightblue" points="729.762,-79.4172 738.346,-73.2069 727.763,-72.7088 729.762,-79.4172"/>
</g>
<!-- Node20 -->
<g id="node20" class="node"><title>Node20</title>
<polygon fill="white" stroke="#bfbfbf" points="797.5,-56.5 797.5,-75.5 846.5,-75.5 846.5,-56.5 797.5,-56.5"/>
<text text-anchor="middle" x="822" y="-63.5" font-family="Helvetica,sans-Serif" font-size="10.00">cassert</text>
</g>
<!-- Node15&#45;&gt;Node20 -->
<g id="edge21" class="edge"><title>Node15&#45;&gt;Node20</title>
<path fill="none" stroke="midnightblue" d="M615.629,-113.349C655.966,-105.229 721.297,-91.7151 787.03,-76.1408"/>
<polygon fill="midnightblue" stroke="midnightblue" points="788.238,-79.451 797.153,-73.7264 786.614,-72.6419 788.238,-79.451"/>
</g>
<!-- Node21 -->
<g id="node21" class="node"><title>Node21</title>
<polygon fill="white" stroke="#bfbfbf" points="312,-56.5 312,-75.5 376,-75.5 376,-56.5 312,-56.5"/>
<text text-anchor="middle" x="344" y="-63.5" font-family="Helvetica,sans-Serif" font-size="10.00">wdlstring.h</text>
</g>
<!-- Node15&#45;&gt;Node21 -->
<g id="edge22" class="edge"><title>Node15&#45;&gt;Node21</title>
<path fill="none" stroke="midnightblue" d="M540.08,-112.444C498.176,-102.732 429.959,-86.9218 386.041,-76.7435"/>
<polygon fill="midnightblue" stroke="midnightblue" points="386.777,-73.3212 376.245,-74.473 385.196,-80.1405 386.777,-73.3212"/>
</g>
<!-- Node15&#45;&gt;Node22 -->
<g id="edge24" class="edge"><title>Node15&#45;&gt;Node22</title>
<path fill="none" stroke="midnightblue" d="M560.13,-112.324C543.291,-103.664 517.193,-90.2424 497.762,-80.249"/>
<polygon fill="midnightblue" stroke="midnightblue" points="499.322,-77.1155 488.828,-75.6545 496.12,-83.3405 499.322,-77.1155"/>
</g>
<!-- Node22&#45;&gt;Node10 -->
<g id="edge28" class="edge"><title>Node22&#45;&gt;Node10</title>
<path fill="none" stroke="midnightblue" d="M442.211,-56.4435C408.098,-46.6451 352.373,-30.6391 316.978,-20.4723"/>
<polygon fill="midnightblue" stroke="midnightblue" points="317.708,-17.0407 307.13,-17.6439 315.776,-23.7686 317.708,-17.0407"/>
</g>
<!-- Node22&#45;&gt;Node14 -->
<g id="edge31" class="edge"><title>Node22&#45;&gt;Node14</title>
<path fill="none" stroke="midnightblue" d="M471.063,-75.5914C469.13,-93.3079 464.663,-134.254 462.035,-158.348"/>
<polygon fill="midnightblue" stroke="midnightblue" points="458.547,-158.048 460.942,-168.368 465.506,-158.807 458.547,-158.048"/>
</g>
<!-- Node22&#45;&gt;Node16 -->
<g id="edge26" class="edge"><title>Node22&#45;&gt;Node16</title>
<path fill="none" stroke="midnightblue" d="M500.68,-56.4435C533.563,-46.6333 587.302,-30.6004 621.374,-20.4355"/>
<polygon fill="midnightblue" stroke="midnightblue" points="622.689,-23.6955 631.271,-17.4826 620.688,-16.9877 622.689,-23.6955"/>
</g>
<!-- Node22&#45;&gt;Node17 -->
<g id="edge29" class="edge"><title>Node22&#45;&gt;Node17</title>
<path fill="none" stroke="midnightblue" d="M480.997,-56.324C489.194,-48.4196 501.506,-36.5482 511.472,-26.9377"/>
<polygon fill="midnightblue" stroke="midnightblue" points="514.07,-29.2947 518.839,-19.8339 509.211,-24.2558 514.07,-29.2947"/>
</g>
<!-- Node23 -->
<g id="node23" class="node"><title>Node23</title>
<polygon fill="white" stroke="#bfbfbf" points="569,-0.5 569,-19.5 613,-19.5 613,-0.5 569,-0.5"/>
<text text-anchor="middle" x="591" y="-7.5" font-family="Helvetica,sans-Serif" font-size="10.00">cmath</text>
</g>
<!-- Node22&#45;&gt;Node23 -->
<g id="edge25" class="edge"><title>Node22&#45;&gt;Node23</title>
<path fill="none" stroke="midnightblue" d="M490.856,-56.4435C510.266,-47.6356 540.73,-33.8116 562.965,-23.722"/>
<polygon fill="midnightblue" stroke="midnightblue" points="564.572,-26.836 572.232,-19.5164 561.68,-20.4615 564.572,-26.836"/>
</g>
<!-- Node24 -->
<g id="node24" class="node"><title>Node24</title>
<polygon fill="white" stroke="#bfbfbf" points="441.5,-0.5 441.5,-19.5 486.5,-19.5 486.5,-0.5 441.5,-0.5"/>
<text text-anchor="middle" x="464" y="-7.5" font-family="Helvetica,sans-Serif" font-size="10.00">cstdlib</text>
</g>
<!-- Node22&#45;&gt;Node24 -->
<g id="edge27" class="edge"><title>Node22&#45;&gt;Node24</title>
<path fill="none" stroke="midnightblue" d="M470.679,-56.083C469.619,-48.9272 468.094,-38.6353 466.769,-29.6911"/>
<polygon fill="midnightblue" stroke="midnightblue" points="470.224,-29.1302 465.296,-19.7511 463.3,-30.1561 470.224,-29.1302"/>
</g>
<!-- Node22&#45;&gt;Node25 -->
<g id="edge30" class="edge"><title>Node22&#45;&gt;Node25</title>
<path fill="none" stroke="midnightblue" d="M512.281,-60.6376C527.256,-59.0798 544.396,-57.3723 560,-56 764.261,-38.0366 1007.37,-21.609 1114.99,-14.591"/>
<polygon fill="midnightblue" stroke="midnightblue" points="1115.22,-18.0833 1124.98,-13.9415 1114.77,-11.098 1115.22,-18.0833"/>
</g>
<!-- Node26&#45;&gt;Node14 -->
<g id="edge37" class="edge"><title>Node26&#45;&gt;Node14</title>
<path fill="none" stroke="midnightblue" d="M638.408,-224.444C601.813,-215.122 543.162,-200.183 503.174,-189.997"/>
<polygon fill="midnightblue" stroke="midnightblue" points="503.989,-186.593 493.435,-187.516 502.261,-193.377 503.989,-186.593"/>
</g>
<!-- Node26&#45;&gt;Node21 -->
<g id="edge35" class="edge"><title>Node26&#45;&gt;Node21</title>
<path fill="none" stroke="midnightblue" d="M654.827,-224.309C600.915,-197.024 434.786,-112.947 370.129,-80.2239"/>
<polygon fill="midnightblue" stroke="midnightblue" points="371.506,-76.9979 361.003,-75.6051 368.345,-83.2436 371.506,-76.9979"/>
</g>
<!-- Node26&#45;&gt;Node25 -->
<g id="edge36" class="edge"><title>Node26&#45;&gt;Node25</title>
<path fill="none" stroke="midnightblue" d="M711.7,-224.892C814.848,-203.087 1087.69,-140.472 1151,-76 1163.01,-63.7687 1167.83,-44.5041 1169.75,-30.1181"/>
<polygon fill="midnightblue" stroke="midnightblue" points="1173.27,-30.1471 1170.76,-19.8542 1166.3,-29.4665 1173.27,-30.1471"/>
</g>
<!-- Node27 -->
<g id="node27" class="node"><title>Node27</title>
<polygon fill="white" stroke="#bfbfbf" points="618,-168.5 618,-187.5 674,-187.5 674,-168.5 618,-168.5"/>
<text text-anchor="middle" x="646" y="-175.5" font-family="Helvetica,sans-Serif" font-size="10.00">algorithm</text>
</g>
<!-- Node26&#45;&gt;Node27 -->
<g id="edge34" class="edge"><title>Node26&#45;&gt;Node27</title>
<path fill="none" stroke="midnightblue" d="M667.707,-224.083C664.148,-216.691 658.978,-205.953 654.576,-196.811"/>
<polygon fill="midnightblue" stroke="midnightblue" points="657.705,-195.243 650.213,-187.751 651.398,-198.279 657.705,-195.243"/>
</g>
<!-- Node28 -->
<g id="node28" class="node"><title>Node28</title>
<g id="a_node28"><a xlink:href="_i_plug_midi_8h_source.html" target="_top" xlink:title="IPlugMidi.h">
<polygon fill="white" stroke="black" points="672.5,-112.5 672.5,-131.5 737.5,-131.5 737.5,-112.5 672.5,-112.5"/>
<text text-anchor="middle" x="705" y="-119.5" font-family="Helvetica,sans-Serif" font-size="10.00">IPlugMidi.h</text>
</a>
</g>
</g>
<!-- Node26&#45;&gt;Node28 -->
<g id="edge38" class="edge"><title>Node26&#45;&gt;Node28</title>
<path fill="none" stroke="midnightblue" d="M674.589,-224.368C679.939,-206.537 692.311,-165.295 699.518,-141.272"/>
<polygon fill="midnightblue" stroke="midnightblue" points="702.901,-142.175 702.423,-131.591 696.197,-140.164 702.901,-142.175"/>
</g>
<!-- Node28&#45;&gt;Node11 -->
<g id="edge40" class="edge"><title>Node28&#45;&gt;Node11</title>
<path fill="none" stroke="midnightblue" d="M703.679,-112.083C702.619,-104.927 701.094,-94.6353 699.769,-85.6911"/>
<polygon fill="midnightblue" stroke="midnightblue" points="703.224,-85.1302 698.296,-75.7511 696.3,-86.1561 703.224,-85.1302"/>
</g>
<!-- Node28&#45;&gt;Node20 -->
<g id="edge39" class="edge"><title>Node28&#45;&gt;Node20</title>
<path fill="none" stroke="midnightblue" d="M723.539,-112.444C742.623,-103.636 772.575,-89.8116 794.436,-79.722"/>
<polygon fill="midnightblue" stroke="midnightblue" points="795.935,-82.8849 803.548,-75.5164 793.001,-76.5292 795.935,-82.8849"/>
</g>
<!-- Node28&#45;&gt;Node22 -->
<g id="edge42" class="edge"><title>Node28&#45;&gt;Node22</title>
<path fill="none" stroke="midnightblue" d="M672.111,-113.378C632.109,-104.107 564.312,-88.3942 518.859,-77.8599"/>
<polygon fill="midnightblue" stroke="midnightblue" points="519.483,-74.4119 508.951,-75.5637 517.902,-81.2311 519.483,-74.4119"/>
</g>
<!-- Node28&#45;&gt;Node25 -->
<g id="edge41" class="edge"><title>Node28&#45;&gt;Node25</title>
<path fill="none" stroke="midnightblue" d="M737.586,-112.781C787.535,-100.235 886.063,-75.6879 970,-56 1021.67,-43.8798 1080.99,-30.6874 1121.72,-21.7401"/>
<polygon fill="midnightblue" stroke="midnightblue" points="1122.64,-25.1214 1131.66,-19.56 1121.14,-18.284 1122.64,-25.1214"/>
</g>
<!-- Node29&#45;&gt;Node10 -->
<g id="edge45" class="edge"><title>Node29&#45;&gt;Node10</title>
<path fill="none" stroke="midnightblue" d="M307.96,-112.368C303.764,-94.617 294.085,-53.6664 288.396,-29.5974"/>
<polygon fill="midnightblue" stroke="midnightblue" points="291.737,-28.5182 286.031,-19.5914 284.925,-30.1284 291.737,-28.5182"/>
</g>
<!-- Node29&#45;&gt;Node21 -->
<g id="edge46" class="edge"><title>Node29&#45;&gt;Node21</title>
<path fill="none" stroke="midnightblue" d="M315.614,-112.083C320.367,-104.534 327.318,-93.4948 333.152,-84.2298"/>
<polygon fill="midnightblue" stroke="midnightblue" points="336.124,-86.0783 338.49,-75.7511 330.2,-82.3486 336.124,-86.0783"/>
</g>
<!-- Node29&#45;&gt;Node22 -->
<g id="edge47" class="edge"><title>Node29&#45;&gt;Node22</title>
<path fill="none" stroke="midnightblue" d="M335.669,-112.444C362.923,-103.359 406.184,-88.9388 436.651,-78.7831"/>
<polygon fill="midnightblue" stroke="midnightblue" points="438.071,-81.9992 446.451,-75.5164 435.857,-75.3584 438.071,-81.9992"/>
</g>
<!-- Node30&#45;&gt;Node10 -->
<g id="edge49" class="edge"><title>Node30&#45;&gt;Node10</title>
<path fill="none" stroke="midnightblue" d="M698.567,-280.442C665.665,-272.918 618.888,-260.577 580,-244 563.872,-237.125 562.186,-230.736 546,-224 487.876,-199.812 469.091,-206.777 409,-188 339.486,-166.278 317.094,-170.058 255,-132 218.308,-109.511 172.457,-92.6588 195,-56 207.181,-36.1912 231.078,-24.7813 251.045,-18.4097"/>
<polygon fill="midnightblue" stroke="midnightblue" points="252.123,-21.7414 260.753,-15.5956 250.174,-15.0182 252.123,-21.7414"/>
</g>
<!-- Node30&#45;&gt;Node11 -->
<g id="edge50" class="edge"><title>Node30&#45;&gt;Node11</title>
<path fill="none" stroke="midnightblue" d="M743.6,-280.222C747.056,-271.285 752.033,-256.942 754,-244 762.83,-185.893 773.396,-163.999 746,-112 739.671,-99.9869 728.821,-89.5172 718.937,-81.7068"/>
<polygon fill="midnightblue" stroke="midnightblue" points="720.756,-78.6986 710.638,-75.5558 716.588,-84.3223 720.756,-78.6986"/>
</g>
<!-- Node30&#45;&gt;Node12 -->
<g id="edge51" class="edge"><title>Node30&#45;&gt;Node12</title>
<path fill="none" stroke="midnightblue" d="M704.031,-280.444C661.068,-270.223 589.714,-253.249 547.439,-243.192"/>
<polygon fill="midnightblue" stroke="midnightblue" points="548.145,-239.763 537.607,-240.854 546.525,-246.573 548.145,-239.763"/>
</g>
<!-- Node30&#45;&gt;Node14 -->
<g id="edge52" class="edge"><title>Node30&#45;&gt;Node14</title>
<path fill="none" stroke="midnightblue" d="M716.736,-280.417C693.204,-271.633 655.856,-257.406 624,-244 604.201,-235.668 599.846,-232.22 580,-224 551.273,-212.101 518.151,-199.783 493.992,-191.05"/>
<polygon fill="midnightblue" stroke="midnightblue" points="495.146,-187.746 484.552,-187.655 492.777,-194.333 495.146,-187.746"/>
</g>
<!-- Node30&#45;&gt;Node22 -->
<g id="edge55" class="edge"><title>Node30&#45;&gt;Node22</title>
<path fill="none" stroke="midnightblue" d="M738.802,-280.406C735.12,-257.59 721.702,-195.37 682,-168 624.842,-128.595 589.638,-167.539 530,-132 509.988,-120.075 493.06,-98.9684 482.75,-84.0464"/>
<polygon fill="midnightblue" stroke="midnightblue" points="485.657,-82.0969 477.218,-75.6919 479.821,-85.962 485.657,-82.0969"/>
</g>
<!-- Node30&#45;&gt;Node25 -->
<g id="edge53" class="edge"><title>Node30&#45;&gt;Node25</title>
<path fill="none" stroke="midnightblue" d="M786.337,-288.735C911.496,-286.778 1247,-272.784 1247,-179 1247,-179 1247,-179 1247,-121 1247,-90.2048 1240.53,-81.3191 1223,-56 1214.82,-44.1903 1202.85,-33.5418 1192.45,-25.5714"/>
<polygon fill="midnightblue" stroke="midnightblue" points="1194.34,-22.6188 1184.2,-19.5395 1190.21,-28.2685 1194.34,-22.6188"/>
</g>
<!-- Node30&#45;&gt;Node26 -->
<g id="edge54" class="edge"><title>Node30&#45;&gt;Node26</title>
<path fill="none" stroke="midnightblue" d="M729.075,-280.324C718.825,-272.185 703.279,-259.839 690.999,-250.087"/>
<polygon fill="midnightblue" stroke="midnightblue" points="693.132,-247.312 683.124,-243.834 688.779,-252.794 693.132,-247.312"/>
</g>
<!-- Node31 -->
<g id="node31" class="node"><title>Node31</title>
<g id="a_node31"><a xlink:href="_n_chan_delay_8h_source.html" target="_top" xlink:title="NChanDelay.h">
<polygon fill="white" stroke="black" points="900.5,-224.5 900.5,-243.5 981.5,-243.5 981.5,-224.5 900.5,-224.5"/>
<text text-anchor="middle" x="941" y="-231.5" font-family="Helvetica,sans-Serif" font-size="10.00">NChanDelay.h</text>
</a>
</g>
</g>
<!-- Node30&#45;&gt;Node31 -->
<g id="edge56" class="edge"><title>Node30&#45;&gt;Node31</title>
<path fill="none" stroke="midnightblue" d="M771.849,-280.444C806.398,-271.162 861.682,-256.309 899.583,-246.127"/>
<polygon fill="midnightblue" stroke="midnightblue" points="900.551,-249.491 909.3,-243.516 898.734,-242.731 900.551,-249.491"/>
</g>
<!-- Node32 -->
<g id="node32" class="node"><title>Node32</title>
<g id="a_node32"><a xlink:href="_i_plug_processor_8cpp_source.html" target="_top" xlink:title="IPlugProcessor.cpp">
<polygon fill="white" stroke="black" points="844,-112.5 844,-131.5 946,-131.5 946,-112.5 844,-112.5"/>
<text text-anchor="middle" x="895" y="-119.5" font-family="Helvetica,sans-Serif" font-size="10.00">IPlugProcessor.cpp</text>
</a>
</g>
</g>
<!-- Node30&#45;&gt;Node32 -->
<g id="edge57" class="edge"><title>Node30&#45;&gt;Node32</title>
<path fill="none" stroke="midnightblue" d="M759.596,-280.458C777.459,-273.237 803.204,-261.282 821,-244 851.672,-214.214 871.265,-166.797 883.344,-141.056"/>
<polygon fill="midnightblue" stroke="midnightblue" points="886.646,-142.272 887.918,-131.754 880.364,-139.184 886.646,-142.272"/>
</g>
<!-- Node32&#45;&gt;Node16 -->
<g id="edge59" class="edge"><title>Node32&#45;&gt;Node16</title>
<path fill="none" stroke="midnightblue" d="M897.17,-112.131C899.984,-98.2629 903.017,-71.4378 889,-56 862.076,-26.3479 742.733,-15.8599 684.786,-12.4704"/>
<polygon fill="midnightblue" stroke="midnightblue" points="684.893,-8.97107 674.716,-11.917 684.509,-15.9605 684.893,-8.97107"/>
</g>
<!-- Node32&#45;&gt;Node19 -->
<g id="edge60" class="edge"><title>Node32&#45;&gt;Node19</title>
<path fill="none" stroke="midnightblue" d="M873.45,-112.444C850.704,-103.412 814.676,-89.1067 789.125,-78.9612"/>
<polygon fill="midnightblue" stroke="midnightblue" points="790.144,-75.6004 779.559,-75.1629 787.561,-82.1063 790.144,-75.6004"/>
</g>
<!-- Node32&#45;&gt;Node20 -->
<g id="edge61" class="edge"><title>Node32&#45;&gt;Node20</title>
<path fill="none" stroke="midnightblue" d="M883.271,-112.324C872.163,-104.107 855.258,-91.6017 842.017,-81.8069"/>
<polygon fill="midnightblue" stroke="midnightblue" points="844.063,-78.9671 833.942,-75.8339 839.9,-84.5948 844.063,-78.9671"/>
</g>
<!-- Node32&#45;&gt;Node23 -->
<g id="edge58" class="edge"><title>Node32&#45;&gt;Node23</title>
<path fill="none" stroke="midnightblue" d="M892.268,-112.138C887.341,-97.7729 875.526,-69.6409 855,-56 770.726,0.00507049 727.615,-39.5995 623.25,-19.6834"/>
<polygon fill="midnightblue" stroke="midnightblue" points="623.793,-16.2219 613.294,-17.6394 622.385,-23.0789 623.793,-16.2219"/>
</g>
<!-- Node32&#45;&gt;Node30 -->
<g id="edge64" class="edge"><title>Node32&#45;&gt;Node30</title>
<path fill="none" stroke="midnightblue" d="M896.809,-131.754C894.453,-153.396 873.898,-210.11 839,-244 823.846,-258.717 802.927,-269.571 784.123,-276.927"/>
<polygon fill="midnightblue" stroke="midnightblue" points="782.701,-273.721 774.524,-280.458 785.117,-280.291 782.701,-273.721"/>
</g>
<!-- Node33 -->
<g id="node33" class="node"><title>Node33</title>
<polygon fill="white" stroke="#bfbfbf" points="979,-56.5 979,-75.5 1047,-75.5 1047,-56.5 979,-56.5"/>
<text text-anchor="middle" x="1013" y="-63.5" font-family="Helvetica,sans-Serif" font-size="10.00">wdlendian.h</text>
</g>
<!-- Node32&#45;&gt;Node33 -->
<g id="edge62" class="edge"><title>Node32&#45;&gt;Node33</title>
<path fill="none" stroke="midnightblue" d="M913.697,-112.444C932.944,-103.636 963.152,-89.8116 985.2,-79.722"/>
<polygon fill="midnightblue" stroke="midnightblue" points="986.753,-82.8603 994.39,-75.5164 983.84,-76.4951 986.753,-82.8603"/>
</g>
<!-- Node34 -->
<g id="node34" class="node"><title>Node34</title>
<polygon fill="white" stroke="#bfbfbf" points="1065.5,-56.5 1065.5,-75.5 1142.5,-75.5 1142.5,-56.5 1065.5,-56.5"/>
<text text-anchor="middle" x="1104" y="-63.5" font-family="Helvetica,sans-Serif" font-size="10.00">wdl_base64.h</text>
</g>
<!-- Node32&#45;&gt;Node34 -->
<g id="edge63" class="edge"><title>Node32&#45;&gt;Node34</title>
<path fill="none" stroke="midnightblue" d="M928.117,-112.444C964.118,-103.142 1021.77,-88.246 1061.19,-78.062"/>
<polygon fill="midnightblue" stroke="midnightblue" points="1062.23,-81.4068 1071.04,-75.5164 1060.48,-74.6294 1062.23,-81.4068"/>
</g>
</g>
</svg>
        <g id="navigator" transform="translate(0 0)" fill="#404254">
                <rect fill="#f2f5e9" fill-opacity="0.5" stroke="#606060" stroke-width=".5" x="0" y="0" width="60" height="60"/>
                <use id="zoomplus" xlink:href="#zoomPlus" x="17" y="9" onmousedown="handleZoom(evt,'in')"/>
                <use id="zoomminus" xlink:href="#zoomMin" x="42" y="9" onmousedown="handleZoom(evt,'out')"/>
                <use id="reset" xlink:href="#resetDef" x="30" y="36" onmousedown="handleReset()"/>
                <g id="arrowUp" xlink:href="#dirArrow" transform="translate(30 24)" onmousedown="handlePan(0,-1)">
                  <use xlink:href="#rim" fill="#404040">
                        <set attributeName="fill" to="#808080" begin="arrowUp.mouseover" end="arrowUp.mouseout"/>
                  </use>
                  <path fill="none" stroke="white" stroke-width="1.5" d="M0,-3.0v7 M-2.5,-0.5L0,-3.0L2.5,-0.5"/>
                </g>
                <g id="arrowRight" xlink:href="#dirArrow" transform="rotate(90) translate(36 -43)" onmousedown="handlePan(1,0)">
                  <use xlink:href="#rim" fill="#404040">
                        <set attributeName="fill" to="#808080" begin="arrowRight.mouseover" end="arrowRight.mouseout"/>
                  </use>
                  <path fill="none" stroke="white" stroke-width="1.5" d="M0,-3.0v7 M-2.5,-0.5L0,-3.0L2.5,-0.5"/>
                </g>
                <g id="arrowDown" xlink:href="#dirArrow" transform="rotate(180) translate(-30 -48)" onmousedown="handlePan(0,1)">
                  <use xlink:href="#rim" fill="#404040">
                        <set attributeName="fill" to="#808080" begin="arrowDown.mouseover" end="arrowDown.mouseout"/>
                  </use>
                  <path fill="none" stroke="white" stroke-width="1.5" d="M0,-3.0v7 M-2.5,-0.5L0,-3.0L2.5,-0.5"/>
                </g>
                <g id="arrowLeft" xlink:href="#dirArrow" transform="rotate(270) translate(-36 17)" onmousedown="handlePan(-1,0)">
                  <use xlink:href="#rim" fill="#404040">
                        <set attributeName="fill" to="#808080" begin="arrowLeft.mouseover" end="arrowLeft.mouseout"/>
                  </use>
                  <path fill="none" stroke="white" stroke-width="1.5" d="M0,-3.0v7 M-2.5,-0.5L0,-3.0L2.5,-0.5"/>
                </g>
        </g>
        <svg viewBox="0 0 15 15" width="100%" height="30px" preserveAspectRatio="xMaxYMin meet">
         <g id="arrow_out" transform="scale(0.3 0.3)">
          <a xlink:href="_i_plug_v_s_t3_8h__incl_org.svg" target="_base">
           <rect id="button" ry="5" rx="5" y="6" x="6" height="38" width="38"
                fill="#f2f5e9" fill-opacity="0.5" stroke="#606060" stroke-width="1.0"/>
           <path id="arrow"
             d="M 11.500037,31.436501 C 11.940474,20.09759 22.043105,11.32322 32.158766,21.979434 L 37.068811,17.246167 C 37.068811,17.246167 37.088388,32 37.088388,32 L 22.160133,31.978069 C 22.160133,31.978069 26.997745,27.140456 26.997745,27.140456 C 18.528582,18.264221 13.291696,25.230495 11.500037,31.436501 z"
             style="fill:#404040;"/>
          </a>
         </g>
        </svg>
</svg>
