<?xml version="1.0" encoding="UTF-8" standalone="no"?>
<!DOCTYPE svg PUBLIC "-//W3C//DTD SVG 1.1//EN"
 "http://www.w3.org/Graphics/SVG/1.1/DTD/svg11.dtd">
<!-- Generated by graphviz version 2.36.0 (20140111.2315)
 -->
<!-- Title: IPlugPlatform.h Pages: 1 -->
<svg width="660pt" height="196pt"
 viewBox="0.00 0.00 660.00 196.00" xmlns="http://www.w3.org/2000/svg" xmlns:xlink="http://www.w3.org/1999/xlink">
<g id="graph0" class="graph" transform="scale(1 1) rotate(0) translate(4 192)">
<title>IPlugPlatform.h</title>
<polygon fill="white" stroke="none" points="-4,4 -4,-192 656,-192 656,4 -4,4"/>
<!-- Node1 -->
<g id="node1" class="node"><title>Node1</title>
<polygon fill="#bfbfbf" stroke="black" points="256,-168.5 256,-187.5 340,-187.5 340,-168.5 256,-168.5"/>
<text text-anchor="middle" x="298" y="-175.5" font-family="Helvetica,sans-Serif" font-size="10.00">IPlugPlatform.h</text>
</g>
<!-- Node2 -->
<g id="node2" class="node"><title>Node2</title>
<g id="a_node2"><a xlink:href="_i_plug_logger_8h.html" target="_top" xlink:title="IPlug Logging functionailty To trace some arbitrary data: Trace(TRACELOC, &quot;%s:%d&quot;, myStr, myInt); To simply create a trace entry in the log: TRACE; No need to wrap tracer calls in #ifdef TRACER_BUILD because Trace is a no&#45;op unless TRACER_BUILD is defined. ">
<polygon fill="white" stroke="black" points="344.5,-112.5 344.5,-131.5 421.5,-131.5 421.5,-112.5 344.5,-112.5"/>
<text text-anchor="middle" x="383" y="-119.5" font-family="Helvetica,sans-Serif" font-size="10.00">IPlugLogger.h</text>
</a>
</g>
</g>
<!-- Node1&#45;&gt;Node2 -->
<g id="edge1" class="edge"><title>Node1&#45;&gt;Node2</title>
<path fill="none" stroke="midnightblue" d="M311.657,-168.324C324.916,-159.9 345.268,-146.971 360.846,-137.074"/>
<polygon fill="midnightblue" stroke="midnightblue" points="362.813,-139.971 369.377,-131.655 359.06,-134.063 362.813,-139.971"/>
</g>
<!-- Node3 -->
<g id="node3" class="node"><title>Node3</title>
<polygon fill="white" stroke="#bfbfbf" points="375.5,-0.5 375.5,-19.5 418.5,-19.5 418.5,-0.5 375.5,-0.5"/>
<text text-anchor="middle" x="397" y="-7.5" font-family="Helvetica,sans-Serif" font-size="10.00">cstdio</text>
</g>
<!-- Node2&#45;&gt;Node3 -->
<g id="edge2" class="edge"><title>Node2&#45;&gt;Node3</title>
<path fill="none" stroke="midnightblue" d="M421.68,-117.197C470.706,-111.485 551.023,-98.8452 569,-76 574.497,-69.0146 574.432,-63.036 569,-56 551.974,-33.9466 473.428,-20.6188 428.594,-14.6771"/>
<polygon fill="midnightblue" stroke="midnightblue" points="428.874,-11.1844 418.511,-13.3898 427.987,-18.1281 428.874,-11.1844"/>
</g>
<!-- Node4 -->
<g id="node4" class="node"><title>Node4</title>
<polygon fill="white" stroke="#bfbfbf" points="507,-0.5 507,-19.5 553,-19.5 553,-0.5 507,-0.5"/>
<text text-anchor="middle" x="530" y="-7.5" font-family="Helvetica,sans-Serif" font-size="10.00">cctype</text>
</g>
<!-- Node2&#45;&gt;Node4 -->
<g id="edge3" class="edge"><title>Node2&#45;&gt;Node4</title>
<path fill="none" stroke="midnightblue" d="M421.815,-118.003C474.647,-113.026 564.942,-101.019 585,-76 599.418,-58.0165 575.868,-37.826 555.253,-24.7885"/>
<polygon fill="midnightblue" stroke="midnightblue" points="556.804,-21.6374 546.426,-19.5009 553.206,-27.6424 556.804,-21.6374"/>
</g>
<!-- Node5 -->
<g id="node5" class="node"><title>Node5</title>
<polygon fill="white" stroke="#bfbfbf" points="167.5,-56.5 167.5,-75.5 216.5,-75.5 216.5,-56.5 167.5,-56.5"/>
<text text-anchor="middle" x="192" y="-63.5" font-family="Helvetica,sans-Serif" font-size="10.00">cstdarg</text>
</g>
<!-- Node2&#45;&gt;Node5 -->
<g id="edge4" class="edge"><title>Node2&#45;&gt;Node5</title>
<path fill="none" stroke="midnightblue" d="M352.735,-112.444C318.461,-102.753 262.713,-86.9921 226.704,-76.8115"/>
<polygon fill="midnightblue" stroke="midnightblue" points="227.232,-73.3236 216.657,-73.971 225.327,-80.0596 227.232,-73.3236"/>
</g>
<!-- Node6 -->
<g id="node6" class="node"><title>Node6</title>
<polygon fill="white" stroke="#bfbfbf" points="235,-56.5 235,-75.5 281,-75.5 281,-56.5 235,-56.5"/>
<text text-anchor="middle" x="258" y="-63.5" font-family="Helvetica,sans-Serif" font-size="10.00">cstdint</text>
</g>
<!-- Node2&#45;&gt;Node6 -->
<g id="edge5" class="edge"><title>Node2&#45;&gt;Node6</title>
<path fill="none" stroke="midnightblue" d="M363.193,-112.444C342.713,-103.596 310.517,-89.6875 287.135,-79.5865"/>
<polygon fill="midnightblue" stroke="midnightblue" points="288.282,-76.2692 277.714,-75.5164 285.506,-82.6953 288.282,-76.2692"/>
</g>
<!-- Node7 -->
<g id="node7" class="node"><title>Node7</title>
<polygon fill="white" stroke="#bfbfbf" points="606,-0.5 606,-19.5 652,-19.5 652,-0.5 606,-0.5"/>
<text text-anchor="middle" x="629" y="-7.5" font-family="Helvetica,sans-Serif" font-size="10.00">cstring</text>
</g>
<!-- Node2&#45;&gt;Node7 -->
<g id="edge6" class="edge"><title>Node2&#45;&gt;Node7</title>
<path fill="none" stroke="midnightblue" d="M421.645,-117.316C476.678,-111.367 573.964,-98.0336 601,-76 615.117,-64.4946 622.274,-44.5229 625.797,-29.7453"/>
<polygon fill="midnightblue" stroke="midnightblue" points="629.28,-30.1797 627.838,-19.6835 622.42,-28.7879 629.28,-30.1797"/>
</g>
<!-- Node8 -->
<g id="node8" class="node"><title>Node8</title>
<polygon fill="white" stroke="#bfbfbf" points="299.5,-56.5 299.5,-75.5 340.5,-75.5 340.5,-56.5 299.5,-56.5"/>
<text text-anchor="middle" x="320" y="-63.5" font-family="Helvetica,sans-Serif" font-size="10.00">ctime</text>
</g>
<!-- Node2&#45;&gt;Node8 -->
<g id="edge7" class="edge"><title>Node2&#45;&gt;Node8</title>
<path fill="none" stroke="midnightblue" d="M372.878,-112.324C363.474,-104.263 349.256,-92.0765 337.931,-82.3695"/>
<polygon fill="midnightblue" stroke="midnightblue" points="340.177,-79.6844 330.306,-75.8339 335.621,-84.9993 340.177,-79.6844"/>
</g>
<!-- Node9 -->
<g id="node9" class="node"><title>Node9</title>
<polygon fill="white" stroke="#bfbfbf" points="358.5,-56.5 358.5,-75.5 407.5,-75.5 407.5,-56.5 358.5,-56.5"/>
<text text-anchor="middle" x="383" y="-63.5" font-family="Helvetica,sans-Serif" font-size="10.00">cassert</text>
</g>
<!-- Node2&#45;&gt;Node9 -->
<g id="edge8" class="edge"><title>Node2&#45;&gt;Node9</title>
<path fill="none" stroke="midnightblue" d="M383,-112.083C383,-105.006 383,-94.8611 383,-85.9865"/>
<polygon fill="midnightblue" stroke="midnightblue" points="386.5,-85.751 383,-75.7511 379.5,-85.7511 386.5,-85.751"/>
</g>
<!-- Node10 -->
<g id="node10" class="node"><title>Node10</title>
<polygon fill="white" stroke="#bfbfbf" points="426,-56.5 426,-75.5 490,-75.5 490,-56.5 426,-56.5"/>
<text text-anchor="middle" x="458" y="-63.5" font-family="Helvetica,sans-Serif" font-size="10.00">wdlstring.h</text>
</g>
<!-- Node2&#45;&gt;Node10 -->
<g id="edge9" class="edge"><title>Node2&#45;&gt;Node10</title>
<path fill="none" stroke="midnightblue" d="M395.05,-112.324C406.463,-104.107 423.831,-91.6017 437.435,-81.8069"/>
<polygon fill="midnightblue" stroke="midnightblue" points="439.66,-84.5174 445.731,-75.8339 435.57,-78.8366 439.66,-84.5174"/>
</g>
<!-- Node11 -->
<g id="node11" class="node"><title>Node11</title>
<polygon fill="white" stroke="#bfbfbf" points="508,-56.5 508,-75.5 560,-75.5 560,-56.5 508,-56.5"/>
<text text-anchor="middle" x="534" y="-63.5" font-family="Helvetica,sans-Serif" font-size="10.00">mutex.h</text>
</g>
<!-- Node2&#45;&gt;Node11 -->
<g id="edge10" class="edge"><title>Node2&#45;&gt;Node11</title>
<path fill="none" stroke="midnightblue" d="M406.926,-112.444C432.219,-103.399 472.302,-89.064 500.68,-78.9158"/>
<polygon fill="midnightblue" stroke="midnightblue" points="501.948,-82.1794 510.186,-75.5164 499.591,-75.5882 501.948,-82.1794"/>
</g>
<!-- Node12 -->
<g id="node12" class="node"><title>Node12</title>
<g id="a_node12"><a xlink:href="_i_plug_utilities_8h.html" target="_top" xlink:title="Utility functions and macros. ">
<polygon fill="white" stroke="black" points="69,-56.5 69,-75.5 149,-75.5 149,-56.5 69,-56.5"/>
<text text-anchor="middle" x="109" y="-63.5" font-family="Helvetica,sans-Serif" font-size="10.00">IPlugUtilities.h</text>
</a>
</g>
</g>
<!-- Node2&#45;&gt;Node12 -->
<g id="edge11" class="edge"><title>Node2&#45;&gt;Node12</title>
<path fill="none" stroke="midnightblue" d="M344.324,-113.378C295.819,-103.818 212.561,-87.4097 159.191,-76.8916"/>
<polygon fill="midnightblue" stroke="midnightblue" points="159.75,-73.4345 149.262,-74.9348 158.396,-80.3024 159.75,-73.4345"/>
</g>
<!-- Node12&#45;&gt;Node1 -->
<g id="edge18" class="edge"><title>Node12&#45;&gt;Node1</title>
<path fill="none" stroke="midnightblue" d="M123.762,-75.5914C156.406,-94.5906 234.95,-140.304 274.463,-163.301"/>
<polygon fill="midnightblue" stroke="midnightblue" points="272.766,-166.363 283.169,-168.368 276.287,-160.313 272.766,-166.363"/>
</g>
<!-- Node12&#45;&gt;Node3 -->
<g id="edge13" class="edge"><title>Node12&#45;&gt;Node3</title>
<path fill="none" stroke="midnightblue" d="M149.045,-57.4915C206.884,-46.6467 312.634,-26.8186 365.361,-16.9323"/>
<polygon fill="midnightblue" stroke="midnightblue" points="366.287,-20.3197 375.471,-15.0367 364.997,-13.4396 366.287,-20.3197"/>
</g>
<!-- Node12&#45;&gt;Node4 -->
<g id="edge16" class="edge"><title>Node12&#45;&gt;Node4</title>
<path fill="none" stroke="midnightblue" d="M149.078,-57.4322C152.093,-56.9261 155.093,-56.4424 158,-56 282.586,-37.0412 431.63,-21.0078 496.779,-14.3283"/>
<polygon fill="midnightblue" stroke="midnightblue" points="497.267,-17.7967 506.861,-13.3008 496.557,-10.8328 497.267,-17.7967"/>
</g>
<!-- Node12&#45;&gt;Node7 -->
<g id="edge15" class="edge"><title>Node12&#45;&gt;Node7</title>
<path fill="none" stroke="midnightblue" d="M149.063,-57.3287C152.082,-56.8465 155.086,-56.3966 158,-56 336.62,-31.6911 382.846,-40.0047 562,-20 572.935,-18.779 584.846,-17.2453 595.552,-15.7916"/>
<polygon fill="midnightblue" stroke="midnightblue" points="596.349,-19.2149 605.776,-14.3792 595.391,-12.2808 596.349,-19.2149"/>
</g>
<!-- Node13 -->
<g id="node13" class="node"><title>Node13</title>
<polygon fill="white" stroke="#bfbfbf" points="173,-0.5 173,-19.5 217,-19.5 217,-0.5 173,-0.5"/>
<text text-anchor="middle" x="195" y="-7.5" font-family="Helvetica,sans-Serif" font-size="10.00">cmath</text>
</g>
<!-- Node12&#45;&gt;Node13 -->
<g id="edge12" class="edge"><title>Node12&#45;&gt;Node13</title>
<path fill="none" stroke="midnightblue" d="M122.817,-56.324C136.233,-47.9002 156.824,-34.9709 172.586,-25.0741"/>
<polygon fill="midnightblue" stroke="midnightblue" points="174.609,-27.9364 181.217,-19.6545 170.887,-22.0081 174.609,-27.9364"/>
</g>
<!-- Node14 -->
<g id="node14" class="node"><title>Node14</title>
<polygon fill="white" stroke="#bfbfbf" points="-0.5,-0.5 -0.5,-19.5 44.5,-19.5 44.5,-0.5 -0.5,-0.5"/>
<text text-anchor="middle" x="22" y="-7.5" font-family="Helvetica,sans-Serif" font-size="10.00">cstdlib</text>
</g>
<!-- Node12&#45;&gt;Node14 -->
<g id="edge14" class="edge"><title>Node12&#45;&gt;Node14</title>
<path fill="none" stroke="midnightblue" d="M95.0219,-56.324C81.4504,-47.9002 60.6198,-34.9709 44.675,-25.0741"/>
<polygon fill="midnightblue" stroke="midnightblue" points="46.2856,-21.9544 35.9434,-19.6545 42.594,-27.9019 46.2856,-21.9544"/>
</g>
<!-- Node15 -->
<g id="node15" class="node"><title>Node15</title>
<g id="a_node15"><a xlink:href="_i_plug_constants_8h.html" target="_top" xlink:title="Constant definitions, magic numbers. ">
<polygon fill="white" stroke="black" points="63,-0.5 63,-19.5 155,-19.5 155,-0.5 63,-0.5"/>
<text text-anchor="middle" x="109" y="-7.5" font-family="Helvetica,sans-Serif" font-size="10.00">IPlugConstants.h</text>
</a>
</g>
</g>
<!-- Node12&#45;&gt;Node15 -->
<g id="edge17" class="edge"><title>Node12&#45;&gt;Node15</title>
<path fill="none" stroke="midnightblue" d="M109,-56.083C109,-49.0059 109,-38.8611 109,-29.9865"/>
<polygon fill="midnightblue" stroke="midnightblue" points="112.5,-29.751 109,-19.7511 105.5,-29.7511 112.5,-29.751"/>
</g>
</g>
</svg>
