<?xml version="1.0" encoding="UTF-8" standalone="no"?>
<!DOCTYPE svg PUBLIC "-//W3C//DTD SVG 1.1//EN"
 "http://www.w3.org/Graphics/SVG/1.1/DTD/svg11.dtd">
<!-- Generated by graphviz version 2.36.0 (20140111.2315)
 -->
<!-- Title: IPlugConstants.h Pages: 1 -->
<svg width="1515pt" height="544pt"
 viewBox="0.00 0.00 1515.00 544.00" xmlns="http://www.w3.org/2000/svg" xmlns:xlink="http://www.w3.org/1999/xlink">
<g id="graph0" class="graph" transform="scale(1 1) rotate(0) translate(4 540)">
<title>IPlugConstants.h</title>
<polygon fill="white" stroke="none" points="-4,4 -4,-540 1511,-540 1511,4 -4,4"/>
<!-- Node1 -->
<g id="node1" class="node"><title>Node1</title>
<polygon fill="#bfbfbf" stroke="black" points="237,-516.5 237,-535.5 329,-535.5 329,-516.5 237,-516.5"/>
<text text-anchor="middle" x="283" y="-523.5" font-family="Helvetica,sans-Serif" font-size="10.00">IPlugConstants.h</text>
</g>
<!-- Node2 -->
<g id="node2" class="node"><title>Node2</title>
<g id="a_node2"><a xlink:href="_i_plug_utilities_8h.html" target="_top" xlink:title="Utility functions and macros. ">
<polygon fill="white" stroke="black" points="444,-460.5 444,-479.5 524,-479.5 524,-460.5 444,-460.5"/>
<text text-anchor="middle" x="484" y="-467.5" font-family="Helvetica,sans-Serif" font-size="10.00">IPlugUtilities.h</text>
</a>
</g>
</g>
<!-- Node1&#45;&gt;Node2 -->
<g id="edge1" class="edge"><title>Node1&#45;&gt;Node2</title>
<path fill="none" stroke="midnightblue" d="M324.581,-513.829C362.531,-503.633 417.81,-488.782 452.3,-479.516"/>
<polygon fill="midnightblue" stroke="midnightblue" points="323.598,-510.469 314.849,-516.444 325.415,-517.229 323.598,-510.469"/>
</g>
<!-- Node29 -->
<g id="node29" class="node"><title>Node29</title>
<g id="a_node29"><a xlink:href="_i_plug_base_8h.html" target="_top" xlink:title="The lowest level base class of an IPlug plug&#45;in. ">
<polygon fill="white" stroke="black" points="405,-224.5 405,-243.5 475,-243.5 475,-224.5 405,-224.5"/>
<text text-anchor="middle" x="440" y="-231.5" font-family="Helvetica,sans-Serif" font-size="10.00">IPlugBase.h</text>
</a>
</g>
</g>
<!-- Node1&#45;&gt;Node29 -->
<g id="edge72" class="edge"><title>Node1&#45;&gt;Node29</title>
<path fill="none" stroke="midnightblue" d="M308.73,-511.059C338.064,-493.072 382,-458.817 382,-415 382,-415 382,-415 382,-357 382,-310.33 417.047,-262.497 432.654,-243.51"/>
<polygon fill="midnightblue" stroke="midnightblue" points="306.637,-508.23 299.794,-516.318 310.187,-514.262 306.637,-508.23"/>
</g>
<!-- Node45 -->
<g id="node45" class="node"><title>Node45</title>
<g id="a_node45"><a xlink:href="_i_plug_structs_8h_source.html" target="_top" xlink:title="IPlugStructs.h">
<polygon fill="white" stroke="black" points="274.5,-286.5 274.5,-305.5 353.5,-305.5 353.5,-286.5 274.5,-286.5"/>
<text text-anchor="middle" x="314" y="-293.5" font-family="Helvetica,sans-Serif" font-size="10.00">IPlugStructs.h</text>
</a>
</g>
</g>
<!-- Node1&#45;&gt;Node45 -->
<g id="edge73" class="edge"><title>Node1&#45;&gt;Node45</title>
<path fill="none" stroke="midnightblue" d="M270.033,-508.115C253.793,-484.84 229.422,-441.515 241,-404 253.799,-362.529 288.791,-322.772 305.238,-305.716"/>
<polygon fill="midnightblue" stroke="midnightblue" points="267.251,-510.24 275.967,-516.263 272.91,-506.119 267.251,-510.24"/>
</g>
<!-- Node46 -->
<g id="node46" class="node"><title>Node46</title>
<g id="a_node46"><a xlink:href="_i_plug_processor_8h.html" target="_top" xlink:title="The base class for IPlug Audio Processing. ">
<polygon fill="white" stroke="black" points="138,-224.5 138,-243.5 230,-243.5 230,-224.5 138,-224.5"/>
<text text-anchor="middle" x="184" y="-231.5" font-family="Helvetica,sans-Serif" font-size="10.00">IPlugProcessor.h</text>
</a>
</g>
</g>
<!-- Node1&#45;&gt;Node46 -->
<g id="edge75" class="edge"><title>Node1&#45;&gt;Node46</title>
<path fill="none" stroke="midnightblue" d="M257.27,-511.059C227.936,-493.072 184,-458.817 184,-415 184,-415 184,-415 184,-357 184,-314.427 184,-263.498 184,-243.579"/>
<polygon fill="midnightblue" stroke="midnightblue" points="255.813,-514.262 266.206,-516.318 259.363,-508.23 255.813,-514.262"/>
</g>
<!-- Node48 -->
<g id="node48" class="node"><title>Node48</title>
<g id="a_node48"><a xlink:href="_i_plug_midi_8h_source.html" target="_top" xlink:title="IPlugMidi.h">
<polygon fill="white" stroke="black" points="250.5,-404.5 250.5,-423.5 315.5,-423.5 315.5,-404.5 250.5,-404.5"/>
<text text-anchor="middle" x="283" y="-411.5" font-family="Helvetica,sans-Serif" font-size="10.00">IPlugMidi.h</text>
</a>
</g>
</g>
<!-- Node1&#45;&gt;Node48 -->
<g id="edge74" class="edge"><title>Node1&#45;&gt;Node48</title>
<path fill="none" stroke="midnightblue" d="M283,-506.348C283,-482.254 283,-441.308 283,-423.591"/>
<polygon fill="midnightblue" stroke="midnightblue" points="279.5,-506.368 283,-516.368 286.5,-506.369 279.5,-506.368"/>
</g>
<!-- Node3 -->
<g id="node3" class="node"><title>Node3</title>
<g id="a_node3"><a xlink:href="_i_plug_logger_8h.html" target="_top" xlink:title="IPlug Logging functionailty To trace some arbitrary data: Trace(TRACELOC, &quot;%s:%d&quot;, myStr, myInt); To simply create a trace entry in the log: TRACE; No need to wrap tracer calls in #ifdef TRACER_BUILD because Trace is a no&#45;op unless TRACER_BUILD is defined. ">
<polygon fill="white" stroke="black" points="653.5,-404.5 653.5,-423.5 730.5,-423.5 730.5,-404.5 653.5,-404.5"/>
<text text-anchor="middle" x="692" y="-411.5" font-family="Helvetica,sans-Serif" font-size="10.00">IPlugLogger.h</text>
</a>
</g>
</g>
<!-- Node2&#45;&gt;Node3 -->
<g id="edge2" class="edge"><title>Node2&#45;&gt;Node3</title>
<path fill="none" stroke="midnightblue" d="M526.778,-457.894C566.058,-447.697 623.429,-432.802 659.196,-423.516"/>
<polygon fill="midnightblue" stroke="midnightblue" points="525.758,-454.543 516.958,-460.444 527.517,-461.318 525.758,-454.543"/>
</g>
<!-- Node2&#45;&gt;Node29 -->
<g id="edge67" class="edge"><title>Node2&#45;&gt;Node29</title>
<path fill="none" stroke="midnightblue" d="M509.859,-454.947C521.006,-447.383 532.872,-436.932 539,-424 542.629,-416.342 546.671,-387.39 538,-348 530.899,-315.74 529.302,-305.247 508,-280 494.398,-263.879 473.594,-251.279 458.579,-243.563"/>
<polygon fill="midnightblue" stroke="midnightblue" points="507.805,-452.104 501.198,-460.386 511.528,-458.032 507.805,-452.104"/>
</g>
<!-- Node2&#45;&gt;Node46 -->
<g id="edge71" class="edge"><title>Node2&#45;&gt;Node46</title>
<path fill="none" stroke="midnightblue" d="M462.202,-454.836C421.977,-428.384 333.895,-368.981 265,-312 237.19,-288.999 207.032,-258.774 192.619,-243.964"/>
<polygon fill="midnightblue" stroke="midnightblue" points="460.416,-457.85 470.699,-460.401 464.251,-451.994 460.416,-457.85"/>
</g>
<!-- Node2&#45;&gt;Node48 -->
<g id="edge65" class="edge"><title>Node2&#45;&gt;Node48</title>
<path fill="none" stroke="midnightblue" d="M442.419,-457.829C404.469,-447.633 349.19,-432.782 314.7,-423.516"/>
<polygon fill="midnightblue" stroke="midnightblue" points="441.585,-461.229 452.151,-460.444 443.402,-454.469 441.585,-461.229"/>
</g>
<!-- Node49 -->
<g id="node49" class="node"><title>Node49</title>
<g id="a_node49"><a xlink:href="_i_plug_parameter_8h_source.html" target="_top" xlink:title="IPlugParameter.h">
<polygon fill="white" stroke="black" points="438,-404.5 438,-423.5 530,-423.5 530,-404.5 438,-404.5"/>
<text text-anchor="middle" x="484" y="-411.5" font-family="Helvetica,sans-Serif" font-size="10.00">IPlugParameter.h</text>
</a>
</g>
</g>
<!-- Node2&#45;&gt;Node49 -->
<g id="edge68" class="edge"><title>Node2&#45;&gt;Node49</title>
<path fill="none" stroke="midnightblue" d="M484,-449.805C484,-440.91 484,-430.78 484,-423.751"/>
<polygon fill="midnightblue" stroke="midnightblue" points="480.5,-450.083 484,-460.083 487.5,-450.083 480.5,-450.083"/>
</g>
<!-- Node4 -->
<g id="node4" class="node"><title>Node4</title>
<g id="a_node4"><a xlink:href="_i_plug_platform_8h.html" target="_top" xlink:title="Include to get consistently named preprocessor macros for different platforms and logging functionali...">
<polygon fill="white" stroke="black" points="652,-348.5 652,-367.5 736,-367.5 736,-348.5 652,-348.5"/>
<text text-anchor="middle" x="694" y="-355.5" font-family="Helvetica,sans-Serif" font-size="10.00">IPlugPlatform.h</text>
</a>
</g>
</g>
<!-- Node3&#45;&gt;Node4 -->
<g id="edge3" class="edge"><title>Node3&#45;&gt;Node4</title>
<path fill="none" stroke="midnightblue" d="M692.711,-393.805C693.04,-384.91 693.416,-374.78 693.676,-367.751"/>
<polygon fill="midnightblue" stroke="midnightblue" points="689.203,-393.96 692.33,-404.083 696.198,-394.219 689.203,-393.96"/>
</g>
<!-- Node4&#45;&gt;Node2 -->
<g id="edge35" class="edge"><title>Node4&#45;&gt;Node2</title>
<path fill="none" stroke="midnightblue" d="M674.258,-373.427C654.558,-387.435 623.111,-408.758 594,-424 565.667,-438.835 531.318,-452.202 508.625,-460.441"/>
<polygon fill="midnightblue" stroke="midnightblue" points="676.353,-376.232 682.432,-367.554 672.269,-370.547 676.353,-376.232"/>
</g>
<!-- Node5 -->
<g id="node5" class="node"><title>Node5</title>
<g id="a_node5"><a xlink:href="_i_graphics_constants_8h_source.html" target="_top" xlink:title="IGraphicsConstants.h">
<polygon fill="white" stroke="black" points="813,-286.5 813,-305.5 925,-305.5 925,-286.5 813,-286.5"/>
<text text-anchor="middle" x="869" y="-293.5" font-family="Helvetica,sans-Serif" font-size="10.00">IGraphicsConstants.h</text>
</a>
</g>
</g>
<!-- Node4&#45;&gt;Node5 -->
<g id="edge4" class="edge"><title>Node4&#45;&gt;Node5</title>
<path fill="none" stroke="midnightblue" d="M728.612,-345.133C762.629,-333.47 813.716,-315.955 843.973,-305.581"/>
<polygon fill="midnightblue" stroke="midnightblue" points="727.398,-341.849 719.073,-348.403 729.668,-348.471 727.398,-341.849"/>
</g>
<!-- Node15 -->
<g id="node15" class="node"><title>Node15</title>
<g id="a_node15"><a xlink:href="_i_graphics_cairo_8h_source.html" target="_top" xlink:title="IGraphicsCairo.h">
<polygon fill="white" stroke="black" points="1067,-112.5 1067,-131.5 1157,-131.5 1157,-112.5 1067,-112.5"/>
<text text-anchor="middle" x="1112" y="-119.5" font-family="Helvetica,sans-Serif" font-size="10.00">IGraphicsCairo.h</text>
</a>
</g>
</g>
<!-- Node4&#45;&gt;Node15 -->
<g id="edge31" class="edge"><title>Node4&#45;&gt;Node15</title>
<path fill="none" stroke="midnightblue" d="M746.046,-354.959C850.539,-350.337 1077.97,-337.444 1102,-312 1150.74,-260.404 1124.35,-161.325 1114.91,-131.622"/>
<polygon fill="midnightblue" stroke="midnightblue" points="745.868,-351.463 736.029,-355.393 746.171,-358.456 745.868,-351.463"/>
</g>
<!-- Node17 -->
<g id="node17" class="node"><title>Node17</title>
<g id="a_node17"><a xlink:href="_i_graphics_lice_8h_source.html" target="_top" xlink:title="IGraphicsLice.h">
<polygon fill="white" stroke="black" points="958.5,-112.5 958.5,-131.5 1043.5,-131.5 1043.5,-112.5 958.5,-112.5"/>
<text text-anchor="middle" x="1001" y="-119.5" font-family="Helvetica,sans-Serif" font-size="10.00">IGraphicsLice.h</text>
</a>
</g>
</g>
<!-- Node4&#45;&gt;Node17 -->
<g id="edge32" class="edge"><title>Node4&#45;&gt;Node17</title>
<path fill="none" stroke="midnightblue" d="M746.351,-353.165C808.001,-347.642 905.508,-335.429 933,-312 990.329,-263.144 999.326,-162.181 1000.74,-131.823"/>
<polygon fill="midnightblue" stroke="midnightblue" points="745.694,-349.709 736.032,-354.058 746.297,-356.683 745.694,-349.709"/>
</g>
<!-- Node21 -->
<g id="node21" class="node"><title>Node21</title>
<g id="a_node21"><a xlink:href="_i_graphics_nano_v_g_8h_source.html" target="_top" xlink:title="IGraphicsNanoVG.h">
<polygon fill="white" stroke="black" points="1175,-112.5 1175,-131.5 1279,-131.5 1279,-112.5 1175,-112.5"/>
<text text-anchor="middle" x="1227" y="-119.5" font-family="Helvetica,sans-Serif" font-size="10.00">IGraphicsNanoVG.h</text>
</a>
</g>
</g>
<!-- Node4&#45;&gt;Node21 -->
<g id="edge33" class="edge"><title>Node4&#45;&gt;Node21</title>
<path fill="none" stroke="midnightblue" d="M746.345,-357.504C847.284,-357.527 1064.24,-352.677 1125,-312 1192.23,-266.987 1218.77,-162.484 1225.3,-131.689"/>
<polygon fill="midnightblue" stroke="midnightblue" points="746.083,-354.004 736.077,-357.485 746.07,-361.004 746.083,-354.004"/>
</g>
<!-- Node24 -->
<g id="node24" class="node"><title>Node24</title>
<g id="a_node24"><a xlink:href="_i_graphics_structs_8h_source.html" target="_top" xlink:title="IGraphicsStructs.h">
<polygon fill="white" stroke="black" points="722,-224.5 722,-243.5 820,-243.5 820,-224.5 722,-224.5"/>
<text text-anchor="middle" x="771" y="-231.5" font-family="Helvetica,sans-Serif" font-size="10.00">IGraphicsStructs.h</text>
</a>
</g>
</g>
<!-- Node4&#45;&gt;Node24 -->
<g id="edge30" class="edge"><title>Node4&#45;&gt;Node24</title>
<path fill="none" stroke="midnightblue" d="M704.978,-339.606C721.693,-313.124 752.909,-263.664 765.513,-243.694"/>
<polygon fill="midnightblue" stroke="midnightblue" points="701.915,-337.901 699.538,-348.226 707.835,-341.638 701.915,-337.901"/>
</g>
<!-- Node26 -->
<g id="node26" class="node"><title>Node26</title>
<g id="a_node26"><a xlink:href="_i_plug__include__in__plug__hdr_8h.html" target="_top" xlink:title="IPlug header include. ">
<polygon fill="white" stroke="black" points="982.5,-281 982.5,-311 1093.5,-311 1093.5,-281 982.5,-281"/>
<text text-anchor="start" x="990.5" y="-299" font-family="Helvetica,sans-Serif" font-size="10.00">IPlug_include_in_plug</text>
<text text-anchor="middle" x="1038" y="-288" font-family="Helvetica,sans-Serif" font-size="10.00">_hdr.h</text>
</a>
</g>
</g>
<!-- Node4&#45;&gt;Node26 -->
<g id="edge34" class="edge"><title>Node4&#45;&gt;Node26</title>
<path fill="none" stroke="midnightblue" d="M746.259,-349.186C801.491,-340.748 891.08,-326.549 968,-312 972.641,-311.122 977.446,-310.175 982.265,-309.197"/>
<polygon fill="midnightblue" stroke="midnightblue" points="745.716,-345.728 736.357,-350.693 746.77,-352.648 745.716,-345.728"/>
</g>
<!-- Node27 -->
<g id="node27" class="node"><title>Node27</title>
<g id="a_node27"><a xlink:href="_i_plug_a_a_x_8h.html" target="_top" xlink:title="AAX API base class for an IPlug plug&#45;in, inherits from IPlugBase or IPlugBaseGraphics. ">
<polygon fill="white" stroke="black" points="393,-56.5 393,-75.5 461,-75.5 461,-56.5 393,-56.5"/>
<text text-anchor="middle" x="427" y="-63.5" font-family="Helvetica,sans-Serif" font-size="10.00">IPlugAAX.h</text>
</a>
</g>
</g>
<!-- Node4&#45;&gt;Node27 -->
<g id="edge36" class="edge"><title>Node4&#45;&gt;Node27</title>
<path fill="none" stroke="midnightblue" d="M690.475,-338.373C682.081,-295.79 659.823,-193.071 636,-168 603.749,-134.061 579.335,-151.994 537,-132 500.295,-114.664 459.856,-88.8981 439.778,-75.613"/>
<polygon fill="midnightblue" stroke="midnightblue" points="687.091,-339.308 692.425,-348.462 693.964,-337.98 687.091,-339.308"/>
</g>
<!-- Node4&#45;&gt;Node29 -->
<g id="edge38" class="edge"><title>Node4&#45;&gt;Node29</title>
<path fill="none" stroke="midnightblue" d="M675.982,-341.817C652.168,-321.984 611.223,-288.754 594,-280 555.512,-260.438 507.175,-248.068 475.026,-241.352"/>
<polygon fill="midnightblue" stroke="midnightblue" points="673.99,-344.713 683.905,-348.447 678.482,-339.345 673.99,-344.713"/>
</g>
<!-- Node32 -->
<g id="node32" class="node"><title>Node32</title>
<g id="a_node32"><a xlink:href="_i_plug_a_p_p_8h.html" target="_top" xlink:title="Standalone application base class for an IPlug plug&#45;in, inherits from IPlugBase or IPlugBaseGraphics...">
<polygon fill="white" stroke="black" points="489,-56.5 489,-75.5 557,-75.5 557,-56.5 489,-56.5"/>
<text text-anchor="middle" x="523" y="-63.5" font-family="Helvetica,sans-Serif" font-size="10.00">IPlugAPP.h</text>
</a>
</g>
</g>
<!-- Node4&#45;&gt;Node32 -->
<g id="edge64" class="edge"><title>Node4&#45;&gt;Node32</title>
<path fill="none" stroke="midnightblue" d="M694,-338.288C694,-314.344 694,-271.586 694,-235 694,-235 694,-235 694,-177 694,-146.775 695.467,-133.278 674,-112 657.486,-95.6318 596.317,-81.1586 557.082,-73.2816"/>
<polygon fill="midnightblue" stroke="midnightblue" points="690.5,-338.421 694,-348.421 697.5,-338.421 690.5,-338.421"/>
</g>
<!-- Node4&#45;&gt;Node45 -->
<g id="edge57" class="edge"><title>Node4&#45;&gt;Node45</title>
<path fill="none" stroke="midnightblue" d="M641.933,-348.779C565.048,-336.639 422.813,-314.181 353.726,-303.273"/>
<polygon fill="midnightblue" stroke="midnightblue" points="641.458,-352.247 651.881,-350.35 642.55,-345.333 641.458,-352.247"/>
</g>
<!-- Node4&#45;&gt;Node46 -->
<g id="edge63" class="edge"><title>Node4&#45;&gt;Node46</title>
<path fill="none" stroke="midnightblue" d="M648.301,-346.068C547.998,-322.074 310.311,-265.216 219.823,-243.569"/>
<polygon fill="midnightblue" stroke="midnightblue" points="647.598,-349.499 658.138,-348.421 649.226,-342.691 647.598,-349.499"/>
</g>
<!-- Node6 -->
<g id="node6" class="node"><title>Node6</title>
<g id="a_node6"><a xlink:href="_i_graphics_8h.html" target="_top" xlink:title="The lowest level base class of an IGraphics context. ">
<polygon fill="white" stroke="black" points="847.5,-168.5 847.5,-187.5 914.5,-187.5 914.5,-168.5 847.5,-168.5"/>
<text text-anchor="middle" x="881" y="-175.5" font-family="Helvetica,sans-Serif" font-size="10.00">IGraphics.h</text>
</a>
</g>
</g>
<!-- Node5&#45;&gt;Node6 -->
<g id="edge5" class="edge"><title>Node5&#45;&gt;Node6</title>
<path fill="none" stroke="midnightblue" d="M896.311,-281.374C910.348,-272.762 926.125,-260.189 934,-244 945.146,-221.086 916.287,-199.125 896.908,-187.522"/>
<polygon fill="midnightblue" stroke="midnightblue" points="894.373,-278.45 887.437,-286.46 897.854,-284.524 894.373,-278.45"/>
</g>
<!-- Node5&#45;&gt;Node24 -->
<g id="edge27" class="edge"><title>Node5&#45;&gt;Node24</title>
<path fill="none" stroke="midnightblue" d="M846.343,-281.129C827.411,-269.538 801.014,-253.376 785.015,-243.581"/>
<polygon fill="midnightblue" stroke="midnightblue" points="844.603,-284.167 854.959,-286.403 848.258,-278.197 844.603,-284.167"/>
</g>
<!-- Node25 -->
<g id="node25" class="node"><title>Node25</title>
<g id="a_node25"><a xlink:href="_i_graphics_web_8h_source.html" target="_top" xlink:title="IGraphicsWeb.h">
<polygon fill="white" stroke="red" points="838.5,-224.5 838.5,-243.5 925.5,-243.5 925.5,-224.5 838.5,-224.5"/>
<text text-anchor="middle" x="882" y="-231.5" font-family="Helvetica,sans-Serif" font-size="10.00">IGraphicsWeb.h</text>
</a>
</g>
</g>
<!-- Node5&#45;&gt;Node25 -->
<g id="edge29" class="edge"><title>Node5&#45;&gt;Node25</title>
<path fill="none" stroke="midnightblue" d="M873.008,-276.503C875.386,-265.527 878.289,-252.129 880.141,-243.581"/>
<polygon fill="midnightblue" stroke="midnightblue" points="869.56,-275.889 870.863,-286.403 876.401,-277.371 869.56,-275.889"/>
</g>
<!-- Node7 -->
<g id="node7" class="node"><title>Node7</title>
<g id="a_node7"><a xlink:href="_i_control_8h.html" target="_top" xlink:title="The lowest level base class of an IGraphics control. ">
<polygon fill="white" stroke="black" points="722.5,-112.5 722.5,-131.5 781.5,-131.5 781.5,-112.5 722.5,-112.5"/>
<text text-anchor="middle" x="752" y="-119.5" font-family="Helvetica,sans-Serif" font-size="10.00">IControl.h</text>
</a>
</g>
</g>
<!-- Node6&#45;&gt;Node7 -->
<g id="edge6" class="edge"><title>Node6&#45;&gt;Node7</title>
<path fill="none" stroke="midnightblue" d="M846.032,-164.772C820.28,-154.629 786.675,-140.467 767.265,-131.516"/>
<polygon fill="midnightblue" stroke="midnightblue" points="844.882,-168.08 855.471,-168.444 847.42,-161.556 844.882,-168.08"/>
</g>
<!-- Node12 -->
<g id="node12" class="node"><title>Node12</title>
<g id="a_node12"><a xlink:href="_i_graphics_8cpp_source.html" target="_top" xlink:title="IGraphics.cpp">
<polygon fill="white" stroke="black" points="765.5,-0.5 765.5,-19.5 842.5,-19.5 842.5,-0.5 765.5,-0.5"/>
<text text-anchor="middle" x="804" y="-7.5" font-family="Helvetica,sans-Serif" font-size="10.00">IGraphics.cpp</text>
</a>
</g>
</g>
<!-- Node6&#45;&gt;Node12 -->
<g id="edge14" class="edge"><title>Node6&#45;&gt;Node12</title>
<path fill="none" stroke="midnightblue" d="M890.197,-158.921C895.671,-145.882 900.863,-127.859 897,-112 890.367,-84.7679 886.437,-77.1105 868,-56 854.419,-40.4498 834.403,-27.5012 820.381,-19.5469"/>
<polygon fill="midnightblue" stroke="midnightblue" points="886.939,-157.627 885.914,-168.172 893.291,-160.567 886.939,-157.627"/>
</g>
<!-- Node14 -->
<g id="node14" class="node"><title>Node14</title>
<g id="a_node14"><a xlink:href="_i_graphics_a_g_g_8h_source.html" target="_top" xlink:title="IGraphicsAGG.h">
<polygon fill="white" stroke="red" points="799.5,-112.5 799.5,-131.5 888.5,-131.5 888.5,-112.5 799.5,-112.5"/>
<text text-anchor="middle" x="844" y="-119.5" font-family="Helvetica,sans-Serif" font-size="10.00">IGraphicsAGG.h</text>
</a>
</g>
</g>
<!-- Node6&#45;&gt;Node14 -->
<g id="edge15" class="edge"><title>Node6&#45;&gt;Node14</title>
<path fill="none" stroke="midnightblue" d="M869.054,-159.566C862.688,-150.275 855.133,-139.248 849.996,-131.751"/>
<polygon fill="midnightblue" stroke="midnightblue" points="866.351,-161.812 874.89,-168.083 872.125,-157.855 866.351,-161.812"/>
</g>
<!-- Node6&#45;&gt;Node15 -->
<g id="edge16" class="edge"><title>Node6&#45;&gt;Node15</title>
<path fill="none" stroke="midnightblue" d="M924.329,-166.871C967.883,-156.69 1034.29,-141.167 1075.32,-131.576"/>
<polygon fill="midnightblue" stroke="midnightblue" points="923.53,-163.463 914.589,-169.148 925.124,-170.28 923.53,-163.463"/>
</g>
<!-- Node6&#45;&gt;Node17 -->
<g id="edge18" class="edge"><title>Node6&#45;&gt;Node17</title>
<path fill="none" stroke="midnightblue" d="M909.373,-164.232C931.82,-154.131 962.535,-140.309 982.075,-131.516"/>
<polygon fill="midnightblue" stroke="midnightblue" points="907.697,-161.148 900.014,-168.444 910.57,-167.532 907.697,-161.148"/>
</g>
<!-- Node6&#45;&gt;Node21 -->
<g id="edge24" class="edge"><title>Node6&#45;&gt;Node21</title>
<path fill="none" stroke="midnightblue" d="M924.937,-170.143C988.725,-160.187 1106.78,-141.763 1174.88,-131.135"/>
<polygon fill="midnightblue" stroke="midnightblue" points="924.147,-166.724 914.806,-171.724 925.226,-173.64 924.147,-166.724"/>
</g>
<!-- Node23 -->
<g id="node23" class="node"><title>Node23</title>
<g id="a_node23"><a xlink:href="_i_plug_base_graphics_8cpp_source.html" target="_top" xlink:title="IPlugBaseGraphics.cpp">
<polygon fill="white" stroke="black" points="546.5,-112.5 546.5,-131.5 665.5,-131.5 665.5,-112.5 546.5,-112.5"/>
<text text-anchor="middle" x="606" y="-119.5" font-family="Helvetica,sans-Serif" font-size="10.00">IPlugBaseGraphics.cpp</text>
</a>
</g>
</g>
<!-- Node6&#45;&gt;Node23 -->
<g id="edge26" class="edge"><title>Node6&#45;&gt;Node23</title>
<path fill="none" stroke="midnightblue" d="M837.46,-168.45C786.019,-158.349 700.948,-141.644 649.518,-131.545"/>
<polygon fill="midnightblue" stroke="midnightblue" points="836.793,-171.886 847.28,-170.379 838.141,-165.017 836.793,-171.886"/>
</g>
<!-- Node7&#45;&gt;Node6 -->
<g id="edge8" class="edge"><title>Node7&#45;&gt;Node6</title>
<path fill="none" stroke="midnightblue" d="M786.853,-135.183C812.582,-145.314 846.196,-159.478 865.648,-168.444"/>
<polygon fill="midnightblue" stroke="midnightblue" points="788.013,-131.879 777.425,-131.516 785.476,-138.403 788.013,-131.879"/>
</g>
<!-- Node8 -->
<g id="node8" class="node"><title>Node8</title>
<g id="a_node8"><a xlink:href="_i_control_8cpp_source.html" target="_top" xlink:title="IControl.cpp">
<polygon fill="white" stroke="black" points="789,-56.5 789,-75.5 859,-75.5 859,-56.5 789,-56.5"/>
<text text-anchor="middle" x="824" y="-63.5" font-family="Helvetica,sans-Serif" font-size="10.00">IControl.cpp</text>
</a>
</g>
</g>
<!-- Node7&#45;&gt;Node8 -->
<g id="edge7" class="edge"><title>Node7&#45;&gt;Node8</title>
<path fill="none" stroke="midnightblue" d="M771.866,-106.101C784.823,-96.3824 801.297,-84.0269 812.221,-75.8339"/>
<polygon fill="midnightblue" stroke="midnightblue" points="769.468,-103.524 763.568,-112.324 773.668,-109.124 769.468,-103.524"/>
</g>
<!-- Node9 -->
<g id="node9" class="node"><title>Node9</title>
<g id="a_node9"><a xlink:href="_i_controls_8h.html" target="_top" xlink:title="A collection of IControls for common UI widgets, such as knobs, sliders, switches. ">
<polygon fill="white" stroke="black" points="585.5,-56.5 585.5,-75.5 650.5,-75.5 650.5,-56.5 585.5,-56.5"/>
<text text-anchor="middle" x="618" y="-63.5" font-family="Helvetica,sans-Serif" font-size="10.00">IControls.h</text>
</a>
</g>
</g>
<!-- Node7&#45;&gt;Node9 -->
<g id="edge9" class="edge"><title>Node7&#45;&gt;Node9</title>
<path fill="none" stroke="midnightblue" d="M721.323,-108.638C696.177,-98.504 661.246,-84.4274 639.133,-75.5164"/>
<polygon fill="midnightblue" stroke="midnightblue" points="720.184,-111.952 730.767,-112.444 722.8,-105.459 720.184,-111.952"/>
</g>
<!-- Node11 -->
<g id="node11" class="node"><title>Node11</title>
<g id="a_node11"><a xlink:href="_i_graphics_live_edit_8h_source.html" target="_top" xlink:title="IGraphicsLiveEdit.h">
<polygon fill="white" stroke="black" points="669,-56.5 669,-75.5 771,-75.5 771,-56.5 669,-56.5"/>
<text text-anchor="middle" x="720" y="-63.5" font-family="Helvetica,sans-Serif" font-size="10.00">IGraphicsLiveEdit.h</text>
</a>
</g>
</g>
<!-- Node7&#45;&gt;Node11 -->
<g id="edge11" class="edge"><title>Node7&#45;&gt;Node11</title>
<path fill="none" stroke="midnightblue" d="M741.496,-103.275C736.027,-94.0454 729.582,-83.1703 725.186,-75.7511"/>
<polygon fill="midnightblue" stroke="midnightblue" points="738.607,-105.264 746.716,-112.083 744.629,-101.696 738.607,-105.264"/>
</g>
<!-- Node13 -->
<g id="node13" class="node"><title>Node13</title>
<g id="a_node13"><a xlink:href="_i_graphics_mac_8mm_source.html" target="_top" xlink:title="IGraphicsMac.mm">
<polygon fill="white" stroke="black" points="952.5,-0.5 952.5,-19.5 1049.5,-19.5 1049.5,-0.5 952.5,-0.5"/>
<text text-anchor="middle" x="1001" y="-7.5" font-family="Helvetica,sans-Serif" font-size="10.00">IGraphicsMac.mm</text>
</a>
</g>
</g>
<!-- Node7&#45;&gt;Node13 -->
<g id="edge13" class="edge"><title>Node7&#45;&gt;Node13</title>
<path fill="none" stroke="midnightblue" d="M785.241,-108.957C808.599,-100.287 840.466,-88.0432 868,-76 910.619,-57.3587 959.458,-32.5843 984.416,-19.668"/>
<polygon fill="midnightblue" stroke="midnightblue" points="783.96,-105.698 775.788,-112.442 786.382,-112.266 783.96,-105.698"/>
</g>
<!-- Node10 -->
<g id="node10" class="node"><title>Node10</title>
<g id="a_node10"><a xlink:href="_i_controls_8cpp_source.html" target="_top" xlink:title="IControls.cpp">
<polygon fill="white" stroke="black" points="580.5,-0.5 580.5,-19.5 655.5,-19.5 655.5,-0.5 580.5,-0.5"/>
<text text-anchor="middle" x="618" y="-7.5" font-family="Helvetica,sans-Serif" font-size="10.00">IControls.cpp</text>
</a>
</g>
</g>
<!-- Node9&#45;&gt;Node10 -->
<g id="edge10" class="edge"><title>Node9&#45;&gt;Node10</title>
<path fill="none" stroke="midnightblue" d="M618,-45.8045C618,-36.9102 618,-26.7798 618,-19.7511"/>
<polygon fill="midnightblue" stroke="midnightblue" points="614.5,-46.083 618,-56.083 621.5,-46.083 614.5,-46.083"/>
</g>
<!-- Node11&#45;&gt;Node12 -->
<g id="edge12" class="edge"><title>Node11&#45;&gt;Node12</title>
<path fill="none" stroke="midnightblue" d="M741.932,-50.9005C757.335,-40.9986 777.446,-28.0705 790.537,-19.6545"/>
<polygon fill="midnightblue" stroke="midnightblue" points="740.015,-47.9722 733.496,-56.324 743.801,-53.8605 740.015,-47.9722"/>
</g>
<!-- Node16 -->
<g id="node16" class="node"><title>Node16</title>
<g id="a_node16"><a xlink:href="_i_graphics_cairo_8cpp_source.html" target="_top" xlink:title="IGraphicsCairo.cpp">
<polygon fill="white" stroke="black" points="1273.5,-56.5 1273.5,-75.5 1374.5,-75.5 1374.5,-56.5 1273.5,-56.5"/>
<text text-anchor="middle" x="1324" y="-63.5" font-family="Helvetica,sans-Serif" font-size="10.00">IGraphicsCairo.cpp</text>
</a>
</g>
</g>
<!-- Node15&#45;&gt;Node16 -->
<g id="edge17" class="edge"><title>Node15&#45;&gt;Node16</title>
<path fill="none" stroke="midnightblue" d="M1155.35,-109.959C1195.39,-99.7598 1254.03,-84.8217 1290.57,-75.5164"/>
<polygon fill="midnightblue" stroke="midnightblue" points="1154.42,-106.583 1145.59,-112.444 1156.15,-113.367 1154.42,-106.583"/>
</g>
<!-- Node18 -->
<g id="node18" class="node"><title>Node18</title>
<g id="a_node18"><a xlink:href="_i_graphics_lice_8cpp_source.html" target="_top" xlink:title="IGraphicsLice.cpp">
<polygon fill="white" stroke="red" points="953.5,-56.5 953.5,-75.5 1048.5,-75.5 1048.5,-56.5 953.5,-56.5"/>
<text text-anchor="middle" x="1001" y="-63.5" font-family="Helvetica,sans-Serif" font-size="10.00">IGraphicsLice.cpp</text>
</a>
</g>
</g>
<!-- Node17&#45;&gt;Node18 -->
<g id="edge19" class="edge"><title>Node17&#45;&gt;Node18</title>
<path fill="none" stroke="midnightblue" d="M1001,-101.805C1001,-92.9102 1001,-82.7798 1001,-75.7511"/>
<polygon fill="midnightblue" stroke="midnightblue" points="997.5,-102.083 1001,-112.083 1004.5,-102.083 997.5,-102.083"/>
</g>
<!-- Node19 -->
<g id="node19" class="node"><title>Node19</title>
<g id="a_node19"><a xlink:href="_i_graphics_mac_8h_source.html" target="_top" xlink:title="IGraphicsMac.h">
<polygon fill="white" stroke="red" points="1067,-56.5 1067,-75.5 1153,-75.5 1153,-56.5 1067,-56.5"/>
<text text-anchor="middle" x="1110" y="-63.5" font-family="Helvetica,sans-Serif" font-size="10.00">IGraphicsMac.h</text>
</a>
</g>
</g>
<!-- Node17&#45;&gt;Node19 -->
<g id="edge21" class="edge"><title>Node17&#45;&gt;Node19</title>
<path fill="none" stroke="midnightblue" d="M1027.52,-107.862C1047.73,-97.8492 1074.99,-84.3458 1092.53,-75.6545"/>
<polygon fill="midnightblue" stroke="midnightblue" points="1025.92,-104.748 1018.51,-112.324 1029.03,-111.021 1025.92,-104.748"/>
</g>
<!-- Node20 -->
<g id="node20" class="node"><title>Node20</title>
<g id="a_node20"><a xlink:href="_i_graphics_win_8h_source.html" target="_top" xlink:title="IGraphicsWin.h">
<polygon fill="white" stroke="red" points="1171,-56.5 1171,-75.5 1255,-75.5 1255,-56.5 1171,-56.5"/>
<text text-anchor="middle" x="1213" y="-63.5" font-family="Helvetica,sans-Serif" font-size="10.00">IGraphicsWin.h</text>
</a>
</g>
</g>
<!-- Node17&#45;&gt;Node20 -->
<g id="edge23" class="edge"><title>Node17&#45;&gt;Node20</title>
<path fill="none" stroke="midnightblue" d="M1044.35,-109.959C1084.39,-99.7598 1143.03,-84.8217 1179.57,-75.5164"/>
<polygon fill="midnightblue" stroke="midnightblue" points="1043.42,-106.583 1034.59,-112.444 1045.15,-113.367 1043.42,-106.583"/>
</g>
<!-- Node18&#45;&gt;Node13 -->
<g id="edge20" class="edge"><title>Node18&#45;&gt;Node13</title>
<path fill="none" stroke="midnightblue" d="M1001,-45.8045C1001,-36.9102 1001,-26.7798 1001,-19.7511"/>
<polygon fill="midnightblue" stroke="midnightblue" points="997.5,-46.083 1001,-56.083 1004.5,-46.083 997.5,-46.083"/>
</g>
<!-- Node19&#45;&gt;Node13 -->
<g id="edge22" class="edge"><title>Node19&#45;&gt;Node13</title>
<path fill="none" stroke="midnightblue" d="M1083.48,-51.8622C1063.27,-41.8492 1036.01,-28.3458 1018.47,-19.6545"/>
<polygon fill="midnightblue" stroke="midnightblue" points="1081.97,-55.0209 1092.49,-56.324 1085.08,-48.7485 1081.97,-55.0209"/>
</g>
<!-- Node22 -->
<g id="node22" class="node"><title>Node22</title>
<g id="a_node22"><a xlink:href="_i_graphics_nano_v_g_8cpp_source.html" target="_top" xlink:title="IGraphicsNanoVG.cpp">
<polygon fill="white" stroke="black" points="1392.5,-56.5 1392.5,-75.5 1507.5,-75.5 1507.5,-56.5 1392.5,-56.5"/>
<text text-anchor="middle" x="1450" y="-63.5" font-family="Helvetica,sans-Serif" font-size="10.00">IGraphicsNanoVG.cpp</text>
</a>
</g>
</g>
<!-- Node21&#45;&gt;Node22 -->
<g id="edge25" class="edge"><title>Node21&#45;&gt;Node22</title>
<path fill="none" stroke="midnightblue" d="M1272.06,-110.088C1314.19,-99.8865 1376.24,-84.8612 1414.83,-75.5164"/>
<polygon fill="midnightblue" stroke="midnightblue" points="1271.23,-106.688 1262.34,-112.444 1272.88,-113.492 1271.23,-106.688"/>
</g>
<!-- Node24&#45;&gt;Node6 -->
<g id="edge28" class="edge"><title>Node24&#45;&gt;Node6</title>
<path fill="none" stroke="midnightblue" d="M797.762,-219.862C818.159,-209.849 845.666,-196.346 863.37,-187.655"/>
<polygon fill="midnightblue" stroke="midnightblue" points="796.108,-216.775 788.673,-224.324 799.192,-223.059 796.108,-216.775"/>
</g>
<!-- Node28 -->
<g id="node28" class="node"><title>Node28</title>
<g id="a_node28"><a xlink:href="_i_plug_a_a_x_8cpp_source.html" target="_top" xlink:title="IPlugAAX.cpp">
<polygon fill="white" stroke="black" points="388,-0.5 388,-19.5 466,-19.5 466,-0.5 388,-0.5"/>
<text text-anchor="middle" x="427" y="-7.5" font-family="Helvetica,sans-Serif" font-size="10.00">IPlugAAX.cpp</text>
</a>
</g>
</g>
<!-- Node27&#45;&gt;Node28 -->
<g id="edge37" class="edge"><title>Node27&#45;&gt;Node28</title>
<path fill="none" stroke="midnightblue" d="M427,-45.8045C427,-36.9102 427,-26.7798 427,-19.7511"/>
<polygon fill="midnightblue" stroke="midnightblue" points="423.5,-46.083 427,-56.083 430.5,-46.083 423.5,-46.083"/>
</g>
<!-- Node30 -->
<g id="node30" class="node"><title>Node30</title>
<g id="a_node30"><a xlink:href="_i_plug_base_graphics_8h.html" target="_top" xlink:title="An IPlugBase class for an IPlug plug&#45;in that uses IGraphics for it&#39;s UI. ">
<polygon fill="white" stroke="black" points="178.5,-168.5 178.5,-187.5 287.5,-187.5 287.5,-168.5 178.5,-168.5"/>
<text text-anchor="middle" x="233" y="-175.5" font-family="Helvetica,sans-Serif" font-size="10.00">IPlugBaseGraphics.h</text>
</a>
</g>
</g>
<!-- Node29&#45;&gt;Node30 -->
<g id="edge39" class="edge"><title>Node29&#45;&gt;Node30</title>
<path fill="none" stroke="midnightblue" d="M397.178,-221.829C358.094,-211.633 301.165,-196.782 265.646,-187.516"/>
<polygon fill="midnightblue" stroke="midnightblue" points="396.641,-225.306 407.2,-224.444 398.408,-218.533 396.641,-225.306"/>
</g>
<!-- Node42 -->
<g id="node42" class="node"><title>Node42</title>
<g id="a_node42"><a xlink:href="_i_plug_a_u___view_factory_8mm_source.html" target="_top" xlink:title="IPlugAU_ViewFactory.mm">
<polygon fill="white" stroke="black" points="494.5,-168.5 494.5,-187.5 627.5,-187.5 627.5,-168.5 494.5,-168.5"/>
<text text-anchor="middle" x="561" y="-175.5" font-family="Helvetica,sans-Serif" font-size="10.00">IPlugAU_ViewFactory.mm</text>
</a>
</g>
</g>
<!-- Node29&#45;&gt;Node42 -->
<g id="edge54" class="edge"><title>Node29&#45;&gt;Node42</title>
<path fill="none" stroke="midnightblue" d="M468.306,-220.368C490.965,-210.255 522.126,-196.349 541.917,-187.516"/>
<polygon fill="midnightblue" stroke="midnightblue" points="466.878,-217.172 459.173,-224.444 469.731,-223.564 466.878,-217.172"/>
</g>
<!-- Node43 -->
<g id="node43" class="node"><title>Node43</title>
<g id="a_node43"><a xlink:href="_i_plug_base_8cpp_source.html" target="_top" xlink:title="IPlugBase.cpp">
<polygon fill="white" stroke="black" points="306,-168.5 306,-187.5 386,-187.5 386,-168.5 306,-168.5"/>
<text text-anchor="middle" x="346" y="-175.5" font-family="Helvetica,sans-Serif" font-size="10.00">IPlugBase.cpp</text>
</a>
</g>
</g>
<!-- Node29&#45;&gt;Node43 -->
<g id="edge55" class="edge"><title>Node29&#45;&gt;Node43</title>
<path fill="none" stroke="midnightblue" d="M415.938,-219.177C398.641,-209.241 375.852,-196.149 361.065,-187.655"/>
<polygon fill="midnightblue" stroke="midnightblue" points="414.483,-222.378 424.897,-224.324 417.97,-216.308 414.483,-222.378"/>
</g>
<!-- Node44 -->
<g id="node44" class="node"><title>Node44</title>
<g id="a_node44"><a xlink:href="_i_plug_w_a_m_8h_source.html" target="_top" xlink:title="IPlugWAM.h">
<polygon fill="white" stroke="black" points="404,-168.5 404,-187.5 476,-187.5 476,-168.5 404,-168.5"/>
<text text-anchor="middle" x="440" y="-175.5" font-family="Helvetica,sans-Serif" font-size="10.00">IPlugWAM.h</text>
</a>
</g>
</g>
<!-- Node29&#45;&gt;Node44 -->
<g id="edge56" class="edge"><title>Node29&#45;&gt;Node44</title>
<path fill="none" stroke="midnightblue" d="M440,-213.805C440,-204.91 440,-194.78 440,-187.751"/>
<polygon fill="midnightblue" stroke="midnightblue" points="436.5,-214.083 440,-224.083 443.5,-214.083 436.5,-214.083"/>
</g>
<!-- Node30&#45;&gt;Node7 -->
<g id="edge40" class="edge"><title>Node30&#45;&gt;Node7</title>
<path fill="none" stroke="midnightblue" d="M297.724,-167.964C465.82,-148.321 509.798,-149.311 674,-132 689.997,-130.314 707.818,-128.27 722.384,-126.556"/>
<polygon fill="midnightblue" stroke="midnightblue" points="297.315,-164.488 287.792,-169.131 298.132,-171.44 297.315,-164.488"/>
</g>
<!-- Node30&#45;&gt;Node23 -->
<g id="edge53" class="edge"><title>Node30&#45;&gt;Node23</title>
<path fill="none" stroke="midnightblue" d="M297.701,-167.633C367.998,-157.456 479.327,-141.339 547.214,-131.511"/>
<polygon fill="midnightblue" stroke="midnightblue" points="297.032,-164.193 287.637,-169.09 298.035,-171.121 297.032,-164.193"/>
</g>
<!-- Node31 -->
<g id="node31" class="node"><title>Node31</title>
<g id="a_node31"><a xlink:href="_i_plug_base__select_8h_source.html" target="_top" xlink:title="IPlugBase_select.h">
<polygon fill="white" stroke="black" points="184.5,-112.5 184.5,-131.5 285.5,-131.5 285.5,-112.5 184.5,-112.5"/>
<text text-anchor="middle" x="235" y="-119.5" font-family="Helvetica,sans-Serif" font-size="10.00">IPlugBase_select.h</text>
</a>
</g>
</g>
<!-- Node30&#45;&gt;Node31 -->
<g id="edge41" class="edge"><title>Node30&#45;&gt;Node31</title>
<path fill="none" stroke="midnightblue" d="M233.711,-157.805C234.04,-148.91 234.416,-138.78 234.676,-131.751"/>
<polygon fill="midnightblue" stroke="midnightblue" points="230.203,-157.96 233.33,-168.083 237.198,-158.219 230.203,-157.96"/>
</g>
<!-- Node31&#45;&gt;Node27 -->
<g id="edge42" class="edge"><title>Node31&#45;&gt;Node27</title>
<path fill="none" stroke="midnightblue" d="M275.183,-109.699C311.419,-99.507 363.914,-84.7429 396.719,-75.5164"/>
<polygon fill="midnightblue" stroke="midnightblue" points="274.102,-106.367 265.423,-112.444 275.997,-113.105 274.102,-106.367"/>
</g>
<!-- Node31&#45;&gt;Node32 -->
<g id="edge43" class="edge"><title>Node31&#45;&gt;Node32</title>
<path fill="none" stroke="midnightblue" d="M290.483,-110.597C349.163,-99.5944 439.884,-82.5843 488.853,-73.4026"/>
<polygon fill="midnightblue" stroke="midnightblue" points="289.818,-107.161 280.634,-112.444 291.108,-114.041 289.818,-107.161"/>
</g>
<!-- Node34 -->
<g id="node34" class="node"><title>Node34</title>
<g id="a_node34"><a xlink:href="_i_plug_a_u_8h.html" target="_top" xlink:title="AudioUnit v2 API base class for an IPlug plug&#45;in, inherits from IPlugBase or IPlugBaseGraphics. ">
<polygon fill="white" stroke="black" points="297,-56.5 297,-75.5 359,-75.5 359,-56.5 297,-56.5"/>
<text text-anchor="middle" x="328" y="-63.5" font-family="Helvetica,sans-Serif" font-size="10.00">IPlugAU.h</text>
</a>
</g>
</g>
<!-- Node31&#45;&gt;Node34 -->
<g id="edge45" class="edge"><title>Node31&#45;&gt;Node34</title>
<path fill="none" stroke="midnightblue" d="M258.806,-107.177C275.919,-97.2407 298.465,-84.1492 313.095,-75.6545"/>
<polygon fill="midnightblue" stroke="midnightblue" points="256.832,-104.276 249.942,-112.324 260.347,-110.329 256.832,-104.276"/>
</g>
<!-- Node36 -->
<g id="node36" class="node"><title>Node36</title>
<g id="a_node36"><a xlink:href="_i_plug_a_uv3_8h_source.html" target="_top" xlink:title="IPlugAUv3.h">
<polygon fill="white" stroke="black" points="12,-56.5 12,-75.5 84,-75.5 84,-56.5 12,-56.5"/>
<text text-anchor="middle" x="48" y="-63.5" font-family="Helvetica,sans-Serif" font-size="10.00">IPlugAUv3.h</text>
</a>
</g>
</g>
<!-- Node31&#45;&gt;Node36 -->
<g id="edge47" class="edge"><title>Node31&#45;&gt;Node36</title>
<path fill="none" stroke="midnightblue" d="M195.41,-109.568C160.134,-99.381 109.306,-84.7034 77.4921,-75.5164"/>
<polygon fill="midnightblue" stroke="midnightblue" points="194.791,-113.032 205.369,-112.444 196.733,-106.307 194.791,-113.032"/>
</g>
<!-- Node38 -->
<g id="node38" class="node"><title>Node38</title>
<g id="a_node38"><a xlink:href="_i_plug_v_s_t_8h.html" target="_top" xlink:title="VST2.4 API base class for an IPlug plug&#45;in, inherits from IPlugBase or IPlugBaseGraphics. ">
<polygon fill="white" stroke="black" points="109.5,-56.5 109.5,-75.5 176.5,-75.5 176.5,-56.5 109.5,-56.5"/>
<text text-anchor="middle" x="143" y="-63.5" font-family="Helvetica,sans-Serif" font-size="10.00">IPlugVST.h</text>
</a>
</g>
</g>
<!-- Node31&#45;&gt;Node38 -->
<g id="edge49" class="edge"><title>Node31&#45;&gt;Node38</title>
<path fill="none" stroke="midnightblue" d="M211.45,-107.177C194.521,-97.2407 172.217,-84.1492 157.745,-75.6545"/>
<polygon fill="midnightblue" stroke="midnightblue" points="209.823,-110.28 220.219,-112.324 213.366,-104.243 209.823,-110.28"/>
</g>
<!-- Node40 -->
<g id="node40" class="node"><title>Node40</title>
<g id="a_node40"><a xlink:href="_i_plug_v_s_t3_8h.html" target="_top" xlink:title="VST3 base class for an IPlug plug&#45;in, inherits from IPlugBase or IPlugBaseGraphics. ">
<polygon fill="white" stroke="black" points="200,-56.5 200,-75.5 272,-75.5 272,-56.5 200,-56.5"/>
<text text-anchor="middle" x="236" y="-63.5" font-family="Helvetica,sans-Serif" font-size="10.00">IPlugVST3.h</text>
</a>
</g>
</g>
<!-- Node31&#45;&gt;Node40 -->
<g id="edge51" class="edge"><title>Node31&#45;&gt;Node40</title>
<path fill="none" stroke="midnightblue" d="M235.355,-101.805C235.52,-92.9102 235.708,-82.7798 235.838,-75.7511"/>
<polygon fill="midnightblue" stroke="midnightblue" points="231.851,-102.02 235.165,-112.083 238.85,-102.15 231.851,-102.02"/>
</g>
<!-- Node33 -->
<g id="node33" class="node"><title>Node33</title>
<g id="a_node33"><a xlink:href="_i_plug_a_p_p_8cpp_source.html" target="_top" xlink:title="IPlugAPP.cpp">
<polygon fill="white" stroke="black" points="484,-0.5 484,-19.5 562,-19.5 562,-0.5 484,-0.5"/>
<text text-anchor="middle" x="523" y="-7.5" font-family="Helvetica,sans-Serif" font-size="10.00">IPlugAPP.cpp</text>
</a>
</g>
</g>
<!-- Node32&#45;&gt;Node33 -->
<g id="edge44" class="edge"><title>Node32&#45;&gt;Node33</title>
<path fill="none" stroke="midnightblue" d="M523,-45.8045C523,-36.9102 523,-26.7798 523,-19.7511"/>
<polygon fill="midnightblue" stroke="midnightblue" points="519.5,-46.083 523,-56.083 526.5,-46.083 519.5,-46.083"/>
</g>
<!-- Node35 -->
<g id="node35" class="node"><title>Node35</title>
<g id="a_node35"><a xlink:href="_i_plug_a_u_8cpp_source.html" target="_top" xlink:title="IPlugAU.cpp">
<polygon fill="white" stroke="black" points="297,-0.5 297,-19.5 369,-19.5 369,-0.5 297,-0.5"/>
<text text-anchor="middle" x="333" y="-7.5" font-family="Helvetica,sans-Serif" font-size="10.00">IPlugAU.cpp</text>
</a>
</g>
</g>
<!-- Node34&#45;&gt;Node35 -->
<g id="edge46" class="edge"><title>Node34&#45;&gt;Node35</title>
<path fill="none" stroke="midnightblue" d="M329.75,-46.1005C330.58,-37.1357 331.532,-26.8579 332.19,-19.7511"/>
<polygon fill="midnightblue" stroke="midnightblue" points="326.263,-45.8029 328.826,-56.083 333.233,-46.4483 326.263,-45.8029"/>
</g>
<!-- Node37 -->
<g id="node37" class="node"><title>Node37</title>
<g id="a_node37"><a xlink:href="_i_plug_a_uv3_8mm_source.html" target="_top" xlink:title="IPlugAUv3.mm">
<polygon fill="white" stroke="black" points="-0.5,-0.5 -0.5,-19.5 82.5,-19.5 82.5,-0.5 -0.5,-0.5"/>
<text text-anchor="middle" x="41" y="-7.5" font-family="Helvetica,sans-Serif" font-size="10.00">IPlugAUv3.mm</text>
</a>
</g>
</g>
<!-- Node36&#45;&gt;Node37 -->
<g id="edge48" class="edge"><title>Node36&#45;&gt;Node37</title>
<path fill="none" stroke="midnightblue" d="M45.5501,-46.1005C44.388,-37.1357 43.0557,-26.8579 42.1344,-19.7511"/>
<polygon fill="midnightblue" stroke="midnightblue" points="42.0875,-46.6159 46.8441,-56.083 49.0294,-45.716 42.0875,-46.6159"/>
</g>
<!-- Node39 -->
<g id="node39" class="node"><title>Node39</title>
<g id="a_node39"><a xlink:href="_i_plug_v_s_t_8cpp_source.html" target="_top" xlink:title="IPlugVST.cpp">
<polygon fill="white" stroke="black" points="100.5,-0.5 100.5,-19.5 177.5,-19.5 177.5,-0.5 100.5,-0.5"/>
<text text-anchor="middle" x="139" y="-7.5" font-family="Helvetica,sans-Serif" font-size="10.00">IPlugVST.cpp</text>
</a>
</g>
</g>
<!-- Node38&#45;&gt;Node39 -->
<g id="edge50" class="edge"><title>Node38&#45;&gt;Node39</title>
<path fill="none" stroke="midnightblue" d="M141.6,-46.1005C140.936,-37.1357 140.175,-26.8579 139.648,-19.7511"/>
<polygon fill="midnightblue" stroke="midnightblue" points="138.11,-46.3689 142.339,-56.083 145.091,-45.8517 138.11,-46.3689"/>
</g>
<!-- Node41 -->
<g id="node41" class="node"><title>Node41</title>
<g id="a_node41"><a xlink:href="_i_plug_v_s_t3_8cpp_source.html" target="_top" xlink:title="IPlugVST3.cpp">
<polygon fill="white" stroke="black" points="195.5,-0.5 195.5,-19.5 278.5,-19.5 278.5,-0.5 195.5,-0.5"/>
<text text-anchor="middle" x="237" y="-7.5" font-family="Helvetica,sans-Serif" font-size="10.00">IPlugVST3.cpp</text>
</a>
</g>
</g>
<!-- Node40&#45;&gt;Node41 -->
<g id="edge52" class="edge"><title>Node40&#45;&gt;Node41</title>
<path fill="none" stroke="midnightblue" d="M236.355,-45.8045C236.52,-36.9102 236.708,-26.7798 236.838,-19.7511"/>
<polygon fill="midnightblue" stroke="midnightblue" points="232.851,-46.0199 236.165,-56.083 239.85,-46.1495 232.851,-46.0199"/>
</g>
<!-- Node45&#45;&gt;Node29 -->
<g id="edge58" class="edge"><title>Node45&#45;&gt;Node29</title>
<path fill="none" stroke="midnightblue" d="M341.16,-282.066C365.61,-270.424 400.85,-253.643 421.981,-243.581"/>
<polygon fill="midnightblue" stroke="midnightblue" points="339.577,-278.944 332.053,-286.403 342.586,-285.264 339.577,-278.944"/>
</g>
<!-- Node45&#45;&gt;Node46 -->
<g id="edge59" class="edge"><title>Node45&#45;&gt;Node46</title>
<path fill="none" stroke="midnightblue" d="M285.977,-282.066C260.752,-270.424 224.393,-253.643 202.591,-243.581"/>
<polygon fill="midnightblue" stroke="midnightblue" points="284.828,-285.391 295.374,-286.403 287.761,-279.035 284.828,-285.391"/>
</g>
<!-- Node46&#45;&gt;Node31 -->
<g id="edge60" class="edge"><title>Node46&#45;&gt;Node31</title>
<path fill="none" stroke="midnightblue" d="M173.348,-214.869C166.883,-201.322 161.238,-182.687 169,-168 178.137,-150.712 197.231,-138.816 212.541,-131.618"/>
<polygon fill="midnightblue" stroke="midnightblue" points="170.462,-216.898 178.243,-224.088 176.645,-213.615 170.462,-216.898"/>
</g>
<!-- Node47 -->
<g id="node47" class="node"><title>Node47</title>
<g id="a_node47"><a xlink:href="_i_plug_processor_8cpp_source.html" target="_top" xlink:title="IPlugProcessor.cpp">
<polygon fill="white" stroke="black" points="20,-168.5 20,-187.5 122,-187.5 122,-168.5 20,-168.5"/>
<text text-anchor="middle" x="71" y="-175.5" font-family="Helvetica,sans-Serif" font-size="10.00">IPlugProcessor.cpp</text>
</a>
</g>
</g>
<!-- Node46&#45;&gt;Node47 -->
<g id="edge61" class="edge"><title>Node46&#45;&gt;Node47</title>
<path fill="none" stroke="midnightblue" d="M151.75,-220.368C129.133,-210.255 100.278,-196.349 83.7415,-187.516"/>
<polygon fill="midnightblue" stroke="midnightblue" points="150.444,-223.617 161.006,-224.444 153.264,-217.21 150.444,-223.617"/>
</g>
<!-- Node47&#45;&gt;Node46 -->
<g id="edge62" class="edge"><title>Node47&#45;&gt;Node46</title>
<path fill="none" stroke="midnightblue" d="M103.419,-191.707C125.874,-201.753 154.417,-215.507 170.959,-224.324"/>
<polygon fill="midnightblue" stroke="midnightblue" points="104.783,-188.484 94.2205,-187.655 101.96,-194.89 104.783,-188.484"/>
</g>
<!-- Node48&#45;&gt;Node45 -->
<g id="edge66" class="edge"><title>Node48&#45;&gt;Node45</title>
<path fill="none" stroke="midnightblue" d="M287.979,-394.369C294.795,-368.865 306.751,-324.124 311.727,-305.505"/>
<polygon fill="midnightblue" stroke="midnightblue" points="284.531,-393.717 285.33,-404.281 291.293,-395.524 284.531,-393.717"/>
</g>
<!-- Node49&#45;&gt;Node29 -->
<g id="edge69" class="edge"><title>Node49&#45;&gt;Node29</title>
<path fill="none" stroke="midnightblue" d="M502.109,-397.237C509.812,-389.335 517.943,-379.092 522,-368 525.053,-359.652 524.744,-356.455 522,-348 507.407,-303.043 467.468,-261.011 449.263,-243.532"/>
<polygon fill="midnightblue" stroke="midnightblue" points="499.525,-394.865 494.714,-404.305 504.362,-399.925 499.525,-394.865"/>
</g>
<!-- Node50 -->
<g id="node50" class="node"><title>Node50</title>
<g id="a_node50"><a xlink:href="_i_plug_parameter_8cpp_source.html" target="_top" xlink:title="IPlugParameter.cpp">
<polygon fill="white" stroke="black" points="410.5,-348.5 410.5,-367.5 513.5,-367.5 513.5,-348.5 410.5,-348.5"/>
<text text-anchor="middle" x="462" y="-355.5" font-family="Helvetica,sans-Serif" font-size="10.00">IPlugParameter.cpp</text>
</a>
</g>
</g>
<!-- Node49&#45;&gt;Node50 -->
<g id="edge70" class="edge"><title>Node49&#45;&gt;Node50</title>
<path fill="none" stroke="midnightblue" d="M476.54,-394.69C472.833,-385.589 468.524,-375.014 465.565,-367.751"/>
<polygon fill="midnightblue" stroke="midnightblue" points="473.353,-396.143 480.367,-404.083 479.835,-393.502 473.353,-396.143"/>
</g>
</g>
</svg>
