<?xml version="1.0" encoding="UTF-8" standalone="no"?>
<!DOCTYPE svg PUBLIC "-//W3C//DTD SVG 1.1//EN"
 "http://www.w3.org/Graphics/SVG/1.1/DTD/svg11.dtd">
<!-- Generated by graphviz version 2.36.0 (20140111.2315)
 -->
<!-- Title: IPlugBaseGraphics.h Pages: 1 -->
<svg width="862pt" height="364pt"
 viewBox="0.00 0.00 862.00 364.00" xmlns="http://www.w3.org/2000/svg" xmlns:xlink="http://www.w3.org/1999/xlink">
<g id="graph0" class="graph" transform="scale(1 1) rotate(0) translate(4 360)">
<title>IPlugBaseGraphics.h</title>
<polygon fill="white" stroke="none" points="-4,4 -4,-360 858,-360 858,4 -4,4"/>
<!-- Node1 -->
<g id="node1" class="node"><title>Node1</title>
<polygon fill="#bfbfbf" stroke="black" points="412.5,-336.5 412.5,-355.5 521.5,-355.5 521.5,-336.5 412.5,-336.5"/>
<text text-anchor="middle" x="467" y="-343.5" font-family="Helvetica,sans-Serif" font-size="10.00">IPlugBaseGraphics.h</text>
</g>
<!-- Node2 -->
<g id="node2" class="node"><title>Node2</title>
<g id="a_node2"><a xlink:href="_i_plug_base_8h.html" target="_top" xlink:title="The lowest level base class of an IPlug plug&#45;in. ">
<polygon fill="white" stroke="black" points="432,-280.5 432,-299.5 502,-299.5 502,-280.5 432,-280.5"/>
<text text-anchor="middle" x="467" y="-287.5" font-family="Helvetica,sans-Serif" font-size="10.00">IPlugBase.h</text>
</a>
</g>
</g>
<!-- Node1&#45;&gt;Node2 -->
<g id="edge1" class="edge"><title>Node1&#45;&gt;Node2</title>
<path fill="none" stroke="midnightblue" d="M467,-336.083C467,-329.006 467,-318.861 467,-309.986"/>
<polygon fill="midnightblue" stroke="midnightblue" points="470.5,-309.751 467,-299.751 463.5,-309.751 470.5,-309.751"/>
</g>
<!-- Node3 -->
<g id="node3" class="node"><title>Node3</title>
<polygon fill="white" stroke="#bfbfbf" points="26,-0.5 26,-19.5 72,-19.5 72,-0.5 26,-0.5"/>
<text text-anchor="middle" x="49" y="-7.5" font-family="Helvetica,sans-Serif" font-size="10.00">cstring</text>
</g>
<!-- Node2&#45;&gt;Node3 -->
<g id="edge2" class="edge"><title>Node2&#45;&gt;Node3</title>
<path fill="none" stroke="midnightblue" d="M431.899,-288.241C323.293,-284.951 0,-267.709 0,-179 0,-179 0,-179 0,-121 0,-85.4659 21.6,-48.627 36.1178,-27.8799"/>
<polygon fill="midnightblue" stroke="midnightblue" points="39.1314,-29.6871 42.1868,-19.5423 33.4719,-25.5675 39.1314,-29.6871"/>
</g>
<!-- Node4 -->
<g id="node4" class="node"><title>Node4</title>
<polygon fill="white" stroke="#bfbfbf" points="664,-56.5 664,-75.5 710,-75.5 710,-56.5 664,-56.5"/>
<text text-anchor="middle" x="687" y="-63.5" font-family="Helvetica,sans-Serif" font-size="10.00">cstdint</text>
</g>
<!-- Node2&#45;&gt;Node4 -->
<g id="edge3" class="edge"><title>Node2&#45;&gt;Node4</title>
<path fill="none" stroke="midnightblue" d="M502.061,-280.878C527.262,-273.893 561.203,-262.048 587,-244 643.348,-204.578 671.851,-122.631 682.253,-85.7282"/>
<polygon fill="midnightblue" stroke="midnightblue" points="685.701,-86.384 684.911,-75.8186 678.94,-84.5704 685.701,-86.384"/>
</g>
<!-- Node5 -->
<g id="node5" class="node"><title>Node5</title>
<polygon fill="white" stroke="#bfbfbf" points="804.5,-224.5 804.5,-243.5 853.5,-243.5 853.5,-224.5 804.5,-224.5"/>
<text text-anchor="middle" x="829" y="-231.5" font-family="Helvetica,sans-Serif" font-size="10.00">ptrlist.h</text>
</g>
<!-- Node2&#45;&gt;Node5 -->
<g id="edge4" class="edge"><title>Node2&#45;&gt;Node5</title>
<path fill="none" stroke="midnightblue" d="M502.055,-285.145C561.528,-278.376 685.885,-263.227 790,-244 791.452,-243.732 792.932,-243.446 794.425,-243.148"/>
<polygon fill="midnightblue" stroke="midnightblue" points="795.259,-246.549 804.311,-241.044 793.802,-239.702 795.259,-246.549"/>
</g>
<!-- Node6 -->
<g id="node6" class="node"><title>Node6</title>
<polygon fill="white" stroke="#bfbfbf" points="488,-56.5 488,-75.5 540,-75.5 540,-56.5 488,-56.5"/>
<text text-anchor="middle" x="514" y="-63.5" font-family="Helvetica,sans-Serif" font-size="10.00">mutex.h</text>
</g>
<!-- Node2&#45;&gt;Node6 -->
<g id="edge5" class="edge"><title>Node2&#45;&gt;Node6</title>
<path fill="none" stroke="midnightblue" d="M468.842,-280.297C475.758,-247.633 500.267,-131.866 509.987,-85.9573"/>
<polygon fill="midnightblue" stroke="midnightblue" points="513.472,-86.3918 512.119,-75.8837 506.624,-84.9419 513.472,-86.3918"/>
</g>
<!-- Node7 -->
<g id="node7" class="node"><title>Node7</title>
<g id="a_node7"><a xlink:href="_i_plug_platform_8h.html" target="_top" xlink:title="Include to get consistently named preprocessor macros for different platforms and logging functionali...">
<polygon fill="white" stroke="black" points="355,-168.5 355,-187.5 439,-187.5 439,-168.5 355,-168.5"/>
<text text-anchor="middle" x="397" y="-175.5" font-family="Helvetica,sans-Serif" font-size="10.00">IPlugPlatform.h</text>
</a>
</g>
</g>
<!-- Node2&#45;&gt;Node7 -->
<g id="edge6" class="edge"><title>Node2&#45;&gt;Node7</title>
<path fill="none" stroke="midnightblue" d="M461.507,-280.368C450.006,-262.296 423.203,-220.176 408.014,-196.307"/>
<polygon fill="midnightblue" stroke="midnightblue" points="410.789,-194.149 402.467,-187.591 404.883,-197.907 410.789,-194.149"/>
</g>
<!-- Node15 -->
<g id="node15" class="node"><title>Node15</title>
<g id="a_node15"><a xlink:href="_i_plug_utilities_8h.html" target="_top" xlink:title="Utility functions and macros. ">
<polygon fill="white" stroke="black" points="104,-56.5 104,-75.5 184,-75.5 184,-56.5 104,-56.5"/>
<text text-anchor="middle" x="144" y="-63.5" font-family="Helvetica,sans-Serif" font-size="10.00">IPlugUtilities.h</text>
</a>
</g>
</g>
<!-- Node2&#45;&gt;Node15 -->
<g id="edge36" class="edge"><title>Node2&#45;&gt;Node15</title>
<path fill="none" stroke="midnightblue" d="M431.696,-280.568C368.399,-263.603 235.552,-219.285 164,-132 153.133,-118.743 148.159,-99.6161 145.889,-85.5415"/>
<polygon fill="midnightblue" stroke="midnightblue" points="149.35,-85.0101 144.588,-75.5457 142.408,-85.9139 149.35,-85.0101"/>
</g>
<!-- Node18 -->
<g id="node18" class="node"><title>Node18</title>
<g id="a_node18"><a xlink:href="_i_plug_constants_8h.html" target="_top" xlink:title="Constant definitions, magic numbers. ">
<polygon fill="white" stroke="black" points="641,-0.5 641,-19.5 733,-19.5 733,-0.5 641,-0.5"/>
<text text-anchor="middle" x="687" y="-7.5" font-family="Helvetica,sans-Serif" font-size="10.00">IPlugConstants.h</text>
</a>
</g>
</g>
<!-- Node2&#45;&gt;Node18 -->
<g id="edge25" class="edge"><title>Node2&#45;&gt;Node18</title>
<path fill="none" stroke="midnightblue" d="M502.145,-284.104C583.134,-271.839 776,-236.584 776,-179 776,-179 776,-179 776,-121 776,-78.8457 736.01,-43.7791 709.642,-25.2392"/>
<polygon fill="midnightblue" stroke="midnightblue" points="711.544,-22.3003 701.299,-19.5989 707.623,-28.0994 711.544,-22.3003"/>
</g>
<!-- Node19 -->
<g id="node19" class="node"><title>Node19</title>
<g id="a_node19"><a xlink:href="_i_plug_structs_8h_source.html" target="_top" xlink:title="IPlugStructs.h">
<polygon fill="white" stroke="black" points="499.5,-224.5 499.5,-243.5 578.5,-243.5 578.5,-224.5 499.5,-224.5"/>
<text text-anchor="middle" x="539" y="-231.5" font-family="Helvetica,sans-Serif" font-size="10.00">IPlugStructs.h</text>
</a>
</g>
</g>
<!-- Node2&#45;&gt;Node19 -->
<g id="edge26" class="edge"><title>Node2&#45;&gt;Node19</title>
<path fill="none" stroke="midnightblue" d="M478.568,-280.324C489.42,-272.185 505.881,-259.839 518.883,-250.087"/>
<polygon fill="midnightblue" stroke="midnightblue" points="521.321,-252.634 527.221,-243.834 517.121,-247.034 521.321,-252.634"/>
</g>
<!-- Node22 -->
<g id="node22" class="node"><title>Node22</title>
<g id="a_node22"><a xlink:href="_i_plug_parameter_8h_source.html" target="_top" xlink:title="IPlugParameter.h">
<polygon fill="white" stroke="black" points="173,-112.5 173,-131.5 265,-131.5 265,-112.5 173,-112.5"/>
<text text-anchor="middle" x="219" y="-119.5" font-family="Helvetica,sans-Serif" font-size="10.00">IPlugParameter.h</text>
</a>
</g>
</g>
<!-- Node2&#45;&gt;Node22 -->
<g id="edge37" class="edge"><title>Node2&#45;&gt;Node22</title>
<path fill="none" stroke="midnightblue" d="M454.016,-280.309C413.671,-253.304 290.213,-170.667 240.286,-137.248"/>
<polygon fill="midnightblue" stroke="midnightblue" points="242.113,-134.259 231.856,-131.605 238.219,-140.076 242.113,-134.259"/>
</g>
<!-- Node8 -->
<g id="node8" class="node"><title>Node8</title>
<g id="a_node8"><a xlink:href="_i_plug_logger_8h.html" target="_top" xlink:title="IPlug Logging functionailty To trace some arbitrary data: Trace(TRACELOC, &quot;%s:%d&quot;, myStr, myInt); To simply create a trace entry in the log: TRACE; No need to wrap tracer calls in #ifdef TRACER_BUILD because Trace is a no&#45;op unless TRACER_BUILD is defined. ">
<polygon fill="white" stroke="black" points="361.5,-112.5 361.5,-131.5 438.5,-131.5 438.5,-112.5 361.5,-112.5"/>
<text text-anchor="middle" x="400" y="-119.5" font-family="Helvetica,sans-Serif" font-size="10.00">IPlugLogger.h</text>
</a>
</g>
</g>
<!-- Node7&#45;&gt;Node8 -->
<g id="edge7" class="edge"><title>Node7&#45;&gt;Node8</title>
<path fill="none" stroke="midnightblue" d="M397.495,-168.083C397.889,-161.006 398.452,-150.861 398.945,-141.986"/>
<polygon fill="midnightblue" stroke="midnightblue" points="402.454,-141.93 399.514,-131.751 395.464,-141.542 402.454,-141.93"/>
</g>
<!-- Node8&#45;&gt;Node3 -->
<g id="edge12" class="edge"><title>Node8&#45;&gt;Node3</title>
<path fill="none" stroke="midnightblue" d="M361.274,-117.005C284.262,-108.811 117.35,-89.7243 95,-76 77.1962,-65.0671 64.3821,-44.3903 56.871,-29.2839"/>
<polygon fill="midnightblue" stroke="midnightblue" points="59.9037,-27.504 52.5221,-19.9038 53.553,-30.4484 59.9037,-27.504"/>
</g>
<!-- Node8&#45;&gt;Node4 -->
<g id="edge11" class="edge"><title>Node8&#45;&gt;Node4</title>
<path fill="none" stroke="midnightblue" d="M438.706,-113.717C495.509,-103.03 600.481,-83.2788 653.903,-73.2273"/>
<polygon fill="midnightblue" stroke="midnightblue" points="654.69,-76.6407 663.87,-71.3519 653.396,-69.7615 654.69,-76.6407"/>
</g>
<!-- Node8&#45;&gt;Node6 -->
<g id="edge16" class="edge"><title>Node8&#45;&gt;Node6</title>
<path fill="none" stroke="midnightblue" d="M418.064,-112.444C436.575,-103.675 465.581,-89.9355 486.855,-79.8579"/>
<polygon fill="midnightblue" stroke="midnightblue" points="488.482,-82.9604 496.021,-75.5164 485.485,-76.6343 488.482,-82.9604"/>
</g>
<!-- Node9 -->
<g id="node9" class="node"><title>Node9</title>
<polygon fill="white" stroke="#bfbfbf" points="249.5,-0.5 249.5,-19.5 292.5,-19.5 292.5,-0.5 249.5,-0.5"/>
<text text-anchor="middle" x="271" y="-7.5" font-family="Helvetica,sans-Serif" font-size="10.00">cstdio</text>
</g>
<!-- Node8&#45;&gt;Node9 -->
<g id="edge8" class="edge"><title>Node8&#45;&gt;Node9</title>
<path fill="none" stroke="midnightblue" d="M375.796,-112.459C357.093,-104.98 331.38,-92.6901 313,-76 298.273,-62.627 286.532,-42.9799 279.249,-28.7895"/>
<polygon fill="midnightblue" stroke="midnightblue" points="282.289,-27.0383 274.755,-19.5889 275.999,-30.1105 282.289,-27.0383"/>
</g>
<!-- Node10 -->
<g id="node10" class="node"><title>Node10</title>
<polygon fill="white" stroke="#bfbfbf" points="344,-0.5 344,-19.5 390,-19.5 390,-0.5 344,-0.5"/>
<text text-anchor="middle" x="367" y="-7.5" font-family="Helvetica,sans-Serif" font-size="10.00">cctype</text>
</g>
<!-- Node8&#45;&gt;Node10 -->
<g id="edge9" class="edge"><title>Node8&#45;&gt;Node10</title>
<path fill="none" stroke="midnightblue" d="M397.411,-112.368C392.061,-94.5366 379.689,-53.2953 372.482,-29.2717"/>
<polygon fill="midnightblue" stroke="midnightblue" points="375.803,-28.1639 369.577,-19.5914 369.099,-30.1754 375.803,-28.1639"/>
</g>
<!-- Node11 -->
<g id="node11" class="node"><title>Node11</title>
<polygon fill="white" stroke="#bfbfbf" points="322.5,-56.5 322.5,-75.5 371.5,-75.5 371.5,-56.5 322.5,-56.5"/>
<text text-anchor="middle" x="347" y="-63.5" font-family="Helvetica,sans-Serif" font-size="10.00">cstdarg</text>
</g>
<!-- Node8&#45;&gt;Node11 -->
<g id="edge10" class="edge"><title>Node8&#45;&gt;Node11</title>
<path fill="none" stroke="midnightblue" d="M391.248,-112.083C383.53,-104.22 372.095,-92.5688 362.783,-83.0813"/>
<polygon fill="midnightblue" stroke="midnightblue" points="365.092,-80.4363 355.589,-75.7511 360.096,-85.3396 365.092,-80.4363"/>
</g>
<!-- Node12 -->
<g id="node12" class="node"><title>Node12</title>
<polygon fill="white" stroke="#bfbfbf" points="428.5,-56.5 428.5,-75.5 469.5,-75.5 469.5,-56.5 428.5,-56.5"/>
<text text-anchor="middle" x="449" y="-63.5" font-family="Helvetica,sans-Serif" font-size="10.00">ctime</text>
</g>
<!-- Node8&#45;&gt;Node12 -->
<g id="edge13" class="edge"><title>Node8&#45;&gt;Node12</title>
<path fill="none" stroke="midnightblue" d="M408.091,-112.083C415.155,-104.298 425.588,-92.8015 434.149,-83.3665"/>
<polygon fill="midnightblue" stroke="midnightblue" points="436.931,-85.5087 441.059,-75.7511 431.747,-80.8047 436.931,-85.5087"/>
</g>
<!-- Node13 -->
<g id="node13" class="node"><title>Node13</title>
<polygon fill="white" stroke="#bfbfbf" points="558.5,-56.5 558.5,-75.5 607.5,-75.5 607.5,-56.5 558.5,-56.5"/>
<text text-anchor="middle" x="583" y="-63.5" font-family="Helvetica,sans-Serif" font-size="10.00">cassert</text>
</g>
<!-- Node8&#45;&gt;Node13 -->
<g id="edge14" class="edge"><title>Node8&#45;&gt;Node13</title>
<path fill="none" stroke="midnightblue" d="M428.997,-112.444C461.469,-102.862 514.058,-87.3435 548.586,-77.1548"/>
<polygon fill="midnightblue" stroke="midnightblue" points="549.646,-80.4913 558.247,-74.3042 547.665,-73.7775 549.646,-80.4913"/>
</g>
<!-- Node14 -->
<g id="node14" class="node"><title>Node14</title>
<polygon fill="white" stroke="#bfbfbf" points="202,-56.5 202,-75.5 266,-75.5 266,-56.5 202,-56.5"/>
<text text-anchor="middle" x="234" y="-63.5" font-family="Helvetica,sans-Serif" font-size="10.00">wdlstring.h</text>
</g>
<!-- Node8&#45;&gt;Node14 -->
<g id="edge15" class="edge"><title>Node8&#45;&gt;Node14</title>
<path fill="none" stroke="midnightblue" d="M373.697,-112.444C345.649,-103.32 301.056,-88.8133 269.816,-78.6509"/>
<polygon fill="midnightblue" stroke="midnightblue" points="270.772,-75.2816 260.18,-75.5164 268.607,-81.9383 270.772,-75.2816"/>
</g>
<!-- Node8&#45;&gt;Node15 -->
<g id="edge17" class="edge"><title>Node8&#45;&gt;Node15</title>
<path fill="none" stroke="midnightblue" d="M361.397,-112.857C316.799,-103.45 243.281,-87.942 194.256,-77.6009"/>
<polygon fill="midnightblue" stroke="midnightblue" points="194.693,-74.1161 184.186,-75.4767 193.248,-80.9654 194.693,-74.1161"/>
</g>
<!-- Node15&#45;&gt;Node3 -->
<g id="edge21" class="edge"><title>Node15&#45;&gt;Node3</title>
<path fill="none" stroke="midnightblue" d="M128.737,-56.324C113.779,-47.8215 90.7452,-34.7288 73.2733,-24.7975"/>
<polygon fill="midnightblue" stroke="midnightblue" points="74.6488,-21.5534 64.2255,-19.6545 71.1896,-27.639 74.6488,-21.5534"/>
</g>
<!-- Node15&#45;&gt;Node7 -->
<g id="edge24" class="edge"><title>Node15&#45;&gt;Node7</title>
<path fill="none" stroke="midnightblue" d="M172.625,-75.5208C199.289,-83.7815 239.935,-97.2065 274,-112 309.79,-127.543 349.393,-149.355 373.743,-163.333"/>
<polygon fill="midnightblue" stroke="midnightblue" points="372.181,-166.473 382.589,-168.453 375.687,-160.415 372.181,-166.473"/>
</g>
<!-- Node15&#45;&gt;Node9 -->
<g id="edge19" class="edge"><title>Node15&#45;&gt;Node9</title>
<path fill="none" stroke="midnightblue" d="M164.124,-56.4435C185.024,-47.5566 217.935,-33.5632 241.716,-23.4514"/>
<polygon fill="midnightblue" stroke="midnightblue" points="243.138,-26.6504 250.971,-19.5164 240.398,-20.2085 243.138,-26.6504"/>
</g>
<!-- Node15&#45;&gt;Node10 -->
<g id="edge22" class="edge"><title>Node15&#45;&gt;Node10</title>
<path fill="none" stroke="midnightblue" d="M179.335,-56.4435C221.792,-46.1626 292.471,-29.0475 333.905,-19.0141"/>
<polygon fill="midnightblue" stroke="midnightblue" points="334.878,-22.3796 343.774,-16.6243 333.231,-15.5762 334.878,-22.3796"/>
</g>
<!-- Node16 -->
<g id="node16" class="node"><title>Node16</title>
<polygon fill="white" stroke="#bfbfbf" points="101,-0.5 101,-19.5 145,-19.5 145,-0.5 101,-0.5"/>
<text text-anchor="middle" x="123" y="-7.5" font-family="Helvetica,sans-Serif" font-size="10.00">cmath</text>
</g>
<!-- Node15&#45;&gt;Node16 -->
<g id="edge18" class="edge"><title>Node15&#45;&gt;Node16</title>
<path fill="none" stroke="midnightblue" d="M140.532,-56.083C137.688,-48.77 133.571,-38.1814 130.04,-29.1034"/>
<polygon fill="midnightblue" stroke="midnightblue" points="133.29,-27.8025 126.403,-19.7511 126.766,-30.3397 133.29,-27.8025"/>
</g>
<!-- Node17 -->
<g id="node17" class="node"><title>Node17</title>
<polygon fill="white" stroke="#bfbfbf" points="163.5,-0.5 163.5,-19.5 208.5,-19.5 208.5,-0.5 163.5,-0.5"/>
<text text-anchor="middle" x="186" y="-7.5" font-family="Helvetica,sans-Serif" font-size="10.00">cstdlib</text>
</g>
<!-- Node15&#45;&gt;Node17 -->
<g id="edge20" class="edge"><title>Node15&#45;&gt;Node17</title>
<path fill="none" stroke="midnightblue" d="M150.935,-56.083C156.929,-48.3768 165.752,-37.0333 173.048,-27.6531"/>
<polygon fill="midnightblue" stroke="midnightblue" points="175.817,-29.7934 179.194,-19.7511 170.291,-25.4958 175.817,-29.7934"/>
</g>
<!-- Node15&#45;&gt;Node18 -->
<g id="edge23" class="edge"><title>Node15&#45;&gt;Node18</title>
<path fill="none" stroke="midnightblue" d="M184.064,-57.3352C187.083,-56.8515 190.087,-56.3994 193,-56 350.942,-34.3469 538.771,-20.479 630.679,-14.4593"/>
<polygon fill="midnightblue" stroke="midnightblue" points="631.118,-17.9383 640.87,-13.7983 630.665,-10.953 631.118,-17.9383"/>
</g>
<!-- Node19&#45;&gt;Node7 -->
<g id="edge30" class="edge"><title>Node19&#45;&gt;Node7</title>
<path fill="none" stroke="midnightblue" d="M516.5,-224.444C492.923,-215.478 455.678,-201.314 429.036,-191.183"/>
<polygon fill="midnightblue" stroke="midnightblue" points="429.986,-187.8 419.395,-187.516 427.498,-194.342 429.986,-187.8"/>
</g>
<!-- Node19&#45;&gt;Node14 -->
<g id="edge28" class="edge"><title>Node19&#45;&gt;Node14</title>
<path fill="none" stroke="midnightblue" d="M528.801,-224.476C512.399,-211.081 478.773,-184.892 447,-168 407.132,-146.804 392.988,-150.94 352,-132 318.038,-116.307 280.447,-94.8469 257.022,-80.9543"/>
<polygon fill="midnightblue" stroke="midnightblue" points="258.572,-77.8035 248.193,-75.6778 254.981,-83.8122 258.572,-77.8035"/>
</g>
<!-- Node19&#45;&gt;Node18 -->
<g id="edge29" class="edge"><title>Node19&#45;&gt;Node18</title>
<path fill="none" stroke="midnightblue" d="M565.815,-224.454C586.246,-217.041 614.294,-204.841 635,-188 683.272,-148.739 699.324,-135.029 719,-76 724.808,-58.5765 713.58,-39.8826 702.86,-27.0358"/>
<polygon fill="midnightblue" stroke="midnightblue" points="705.37,-24.5924 696.074,-19.5102 700.172,-29.2804 705.37,-24.5924"/>
</g>
<!-- Node20 -->
<g id="node20" class="node"><title>Node20</title>
<polygon fill="white" stroke="#bfbfbf" points="571,-168.5 571,-187.5 627,-187.5 627,-168.5 571,-168.5"/>
<text text-anchor="middle" x="599" y="-175.5" font-family="Helvetica,sans-Serif" font-size="10.00">algorithm</text>
</g>
<!-- Node19&#45;&gt;Node20 -->
<g id="edge27" class="edge"><title>Node19&#45;&gt;Node20</title>
<path fill="none" stroke="midnightblue" d="M548.64,-224.324C557.51,-216.341 570.875,-204.313 581.608,-194.653"/>
<polygon fill="midnightblue" stroke="midnightblue" points="584.093,-197.125 589.185,-187.834 579.41,-191.922 584.093,-197.125"/>
</g>
<!-- Node21 -->
<g id="node21" class="node"><title>Node21</title>
<g id="a_node21"><a xlink:href="_i_plug_midi_8h_source.html" target="_top" xlink:title="IPlugMidi.h">
<polygon fill="white" stroke="black" points="550.5,-112.5 550.5,-131.5 615.5,-131.5 615.5,-112.5 550.5,-112.5"/>
<text text-anchor="middle" x="583" y="-119.5" font-family="Helvetica,sans-Serif" font-size="10.00">IPlugMidi.h</text>
</a>
</g>
</g>
<!-- Node19&#45;&gt;Node21 -->
<g id="edge31" class="edge"><title>Node19&#45;&gt;Node21</title>
<path fill="none" stroke="midnightblue" d="M541.72,-224.488C545.785,-211.976 553.841,-187.942 562,-168 565.76,-158.81 570.387,-148.781 574.34,-140.528"/>
<polygon fill="midnightblue" stroke="midnightblue" points="577.496,-142.041 578.724,-131.518 571.202,-138.978 577.496,-142.041"/>
</g>
<!-- Node21&#45;&gt;Node4 -->
<g id="edge33" class="edge"><title>Node21&#45;&gt;Node4</title>
<path fill="none" stroke="midnightblue" d="M599.709,-112.324C616.312,-103.703 642.002,-90.3643 661.22,-80.3855"/>
<polygon fill="midnightblue" stroke="midnightblue" points="663.07,-83.3689 670.332,-75.6545 659.844,-77.1565 663.07,-83.3689"/>
</g>
<!-- Node21&#45;&gt;Node13 -->
<g id="edge32" class="edge"><title>Node21&#45;&gt;Node13</title>
<path fill="none" stroke="midnightblue" d="M583,-112.083C583,-105.006 583,-94.8611 583,-85.9865"/>
<polygon fill="midnightblue" stroke="midnightblue" points="586.5,-85.751 583,-75.7511 579.5,-85.7511 586.5,-85.751"/>
</g>
<!-- Node21&#45;&gt;Node15 -->
<g id="edge35" class="edge"><title>Node21&#45;&gt;Node15</title>
<path fill="none" stroke="midnightblue" d="M550.289,-117.971C484.713,-111.737 332.32,-96.4477 194.008,-76.0624"/>
<polygon fill="midnightblue" stroke="midnightblue" points="194.481,-72.5943 184.075,-74.5859 193.452,-79.5183 194.481,-72.5943"/>
</g>
<!-- Node21&#45;&gt;Node18 -->
<g id="edge34" class="edge"><title>Node21&#45;&gt;Node18</title>
<path fill="none" stroke="midnightblue" d="M591.161,-112.368C608.552,-93.9744 649.493,-50.6712 671.824,-27.0519"/>
<polygon fill="midnightblue" stroke="midnightblue" points="674.55,-29.2625 678.877,-19.5914 669.464,-24.4534 674.55,-29.2625"/>
</g>
<!-- Node22&#45;&gt;Node3 -->
<g id="edge38" class="edge"><title>Node22&#45;&gt;Node3</title>
<path fill="none" stroke="midnightblue" d="M172.85,-120.111C137.495,-116.87 90.148,-106.548 62,-76 50.678,-63.7124 48.0168,-44.4554 47.8345,-30.0864"/>
<polygon fill="midnightblue" stroke="midnightblue" points="51.3398,-29.9251 48.1015,-19.8373 44.3421,-29.7427 51.3398,-29.9251"/>
</g>
<!-- Node22&#45;&gt;Node14 -->
<g id="edge39" class="edge"><title>Node22&#45;&gt;Node14</title>
<path fill="none" stroke="midnightblue" d="M221.477,-112.083C223.486,-104.849 226.386,-94.4087 228.89,-85.3968"/>
<polygon fill="midnightblue" stroke="midnightblue" points="232.265,-86.323 231.569,-75.7511 225.52,-84.4495 232.265,-86.323"/>
</g>
<!-- Node22&#45;&gt;Node15 -->
<g id="edge40" class="edge"><title>Node22&#45;&gt;Node15</title>
<path fill="none" stroke="midnightblue" d="M206.95,-112.324C195.537,-104.107 178.169,-91.6017 164.565,-81.8069"/>
<polygon fill="midnightblue" stroke="midnightblue" points="166.43,-78.8366 156.269,-75.8339 162.34,-84.5174 166.43,-78.8366"/>
</g>
</g>
</svg>
