<?xml version="1.0" encoding="UTF-8" standalone="no"?>
<!DOCTYPE svg PUBLIC "-//W3C//DTD SVG 1.1//EN"
 "http://www.w3.org/Graphics/SVG/1.1/DTD/svg11.dtd">
<!-- Generated by graphviz version 2.36.0 (20140111.2315)
 -->
<!-- Title: IPlugProcessor.h Pages: 1 -->
<svg width="569pt" height="196pt"
 viewBox="0.00 0.00 569.00 196.00" xmlns="http://www.w3.org/2000/svg" xmlns:xlink="http://www.w3.org/1999/xlink">
<g id="graph0" class="graph" transform="scale(1 1) rotate(0) translate(4 192)">
<title>IPlugProcessor.h</title>
<polygon fill="white" stroke="none" points="-4,4 -4,-192 565,-192 565,4 -4,4"/>
<!-- Node1 -->
<g id="node1" class="node"><title>Node1</title>
<polygon fill="#bfbfbf" stroke="black" points="348,-168.5 348,-187.5 440,-187.5 440,-168.5 348,-168.5"/>
<text text-anchor="middle" x="394" y="-175.5" font-family="Helvetica,sans-Serif" font-size="10.00">IPlugProcessor.h</text>
</g>
<!-- Node2 -->
<g id="node2" class="node"><title>Node2</title>
<g id="a_node2"><a xlink:href="_i_plug_base__select_8h_source.html" target="_top" xlink:title="IPlugBase_select.h">
<polygon fill="white" stroke="black" points="223.5,-112.5 223.5,-131.5 324.5,-131.5 324.5,-112.5 223.5,-112.5"/>
<text text-anchor="middle" x="274" y="-119.5" font-family="Helvetica,sans-Serif" font-size="10.00">IPlugBase_select.h</text>
</a>
</g>
</g>
<!-- Node1&#45;&gt;Node2 -->
<g id="edge1" class="edge"><title>Node1&#45;&gt;Node2</title>
<path fill="none" stroke="midnightblue" d="M365.627,-164.232C343.18,-154.131 312.465,-140.309 292.925,-131.516"/>
<polygon fill="midnightblue" stroke="midnightblue" points="364.43,-167.532 374.986,-168.444 367.303,-161.148 364.43,-167.532"/>
</g>
<!-- Node15 -->
<g id="node15" class="node"><title>Node15</title>
<g id="a_node15"><a xlink:href="_i_plug_processor_8cpp_source.html" target="_top" xlink:title="IPlugProcessor.cpp">
<polygon fill="white" stroke="black" points="343,-112.5 343,-131.5 445,-131.5 445,-112.5 343,-112.5"/>
<text text-anchor="middle" x="394" y="-119.5" font-family="Helvetica,sans-Serif" font-size="10.00">IPlugProcessor.cpp</text>
</a>
</g>
</g>
<!-- Node1&#45;&gt;Node15 -->
<g id="edge14" class="edge"><title>Node1&#45;&gt;Node15</title>
<path fill="none" stroke="midnightblue" d="M387.528,-158.101C386.896,-149.136 387.343,-138.858 388.869,-131.751"/>
<polygon fill="midnightblue" stroke="midnightblue" points="384.066,-158.622 388.834,-168.083 391.007,-157.713 384.066,-158.622"/>
</g>
<!-- Node3 -->
<g id="node3" class="node"><title>Node3</title>
<g id="a_node3"><a xlink:href="_i_plug_a_a_x_8h.html" target="_top" xlink:title="AAX API base class for an IPlug plug&#45;in, inherits from IPlugBase or IPlugBaseGraphics. ">
<polygon fill="white" stroke="black" points="10,-56.5 10,-75.5 78,-75.5 78,-56.5 10,-56.5"/>
<text text-anchor="middle" x="44" y="-63.5" font-family="Helvetica,sans-Serif" font-size="10.00">IPlugAAX.h</text>
</a>
</g>
</g>
<!-- Node2&#45;&gt;Node3 -->
<g id="edge2" class="edge"><title>Node2&#45;&gt;Node3</title>
<path fill="none" stroke="midnightblue" d="M227.62,-110.111C183.338,-99.7142 117.657,-84.2933 78.0243,-74.9883"/>
<polygon fill="midnightblue" stroke="midnightblue" points="227.021,-113.565 237.556,-112.444 228.621,-106.75 227.021,-113.565"/>
</g>
<!-- Node5 -->
<g id="node5" class="node"><title>Node5</title>
<g id="a_node5"><a xlink:href="_i_plug_a_p_p_8h.html" target="_top" xlink:title="Standalone application base class for an IPlug plug&#45;in, inherits from IPlugBase or IPlugBaseGraphics...">
<polygon fill="white" stroke="black" points="106,-56.5 106,-75.5 174,-75.5 174,-56.5 106,-56.5"/>
<text text-anchor="middle" x="140" y="-63.5" font-family="Helvetica,sans-Serif" font-size="10.00">IPlugAPP.h</text>
</a>
</g>
</g>
<!-- Node2&#45;&gt;Node5 -->
<g id="edge4" class="edge"><title>Node2&#45;&gt;Node5</title>
<path fill="none" stroke="midnightblue" d="M243.323,-108.638C218.177,-98.504 183.246,-84.4274 161.133,-75.5164"/>
<polygon fill="midnightblue" stroke="midnightblue" points="242.184,-111.952 252.767,-112.444 244.8,-105.459 242.184,-111.952"/>
</g>
<!-- Node7 -->
<g id="node7" class="node"><title>Node7</title>
<g id="a_node7"><a xlink:href="_i_plug_a_u_8h.html" target="_top" xlink:title="AudioUnit v2 API base class for an IPlug plug&#45;in, inherits from IPlugBase or IPlugBaseGraphics. ">
<polygon fill="white" stroke="black" points="199,-56.5 199,-75.5 261,-75.5 261,-56.5 199,-56.5"/>
<text text-anchor="middle" x="230" y="-63.5" font-family="Helvetica,sans-Serif" font-size="10.00">IPlugAU.h</text>
</a>
</g>
</g>
<!-- Node2&#45;&gt;Node7 -->
<g id="edge6" class="edge"><title>Node2&#45;&gt;Node7</title>
<path fill="none" stroke="midnightblue" d="M260.265,-104.144C252.599,-94.7357 243.367,-83.4046 237.131,-75.7511"/>
<polygon fill="midnightblue" stroke="midnightblue" points="257.704,-106.541 266.734,-112.083 263.131,-102.12 257.704,-106.541"/>
</g>
<!-- Node9 -->
<g id="node9" class="node"><title>Node9</title>
<g id="a_node9"><a xlink:href="_i_plug_a_uv3_8h_source.html" target="_top" xlink:title="IPlugAUv3.h">
<polygon fill="white" stroke="black" points="283,-56.5 283,-75.5 355,-75.5 355,-56.5 283,-56.5"/>
<text text-anchor="middle" x="319" y="-63.5" font-family="Helvetica,sans-Serif" font-size="10.00">IPlugAUv3.h</text>
</a>
</g>
</g>
<!-- Node2&#45;&gt;Node9 -->
<g id="edge8" class="edge"><title>Node2&#45;&gt;Node9</title>
<path fill="none" stroke="midnightblue" d="M288.047,-104.144C295.887,-94.7357 305.329,-83.4046 311.707,-75.7511"/>
<polygon fill="midnightblue" stroke="midnightblue" points="285.144,-102.16 281.431,-112.083 290.521,-106.641 285.144,-102.16"/>
</g>
<!-- Node11 -->
<g id="node11" class="node"><title>Node11</title>
<g id="a_node11"><a xlink:href="_i_plug_v_s_t_8h.html" target="_top" xlink:title="VST2.4 API base class for an IPlug plug&#45;in, inherits from IPlugBase or IPlugBaseGraphics. ">
<polygon fill="white" stroke="black" points="381.5,-56.5 381.5,-75.5 448.5,-75.5 448.5,-56.5 381.5,-56.5"/>
<text text-anchor="middle" x="415" y="-63.5" font-family="Helvetica,sans-Serif" font-size="10.00">IPlugVST.h</text>
</a>
</g>
</g>
<!-- Node2&#45;&gt;Node11 -->
<g id="edge10" class="edge"><title>Node2&#45;&gt;Node11</title>
<path fill="none" stroke="midnightblue" d="M305.929,-108.772C332.414,-98.6287 369.392,-84.4669 392.763,-75.5164"/>
<polygon fill="midnightblue" stroke="midnightblue" points="304.429,-105.599 296.342,-112.444 306.932,-112.136 304.429,-105.599"/>
</g>
<!-- Node13 -->
<g id="node13" class="node"><title>Node13</title>
<g id="a_node13"><a xlink:href="_i_plug_v_s_t3_8h.html" target="_top" xlink:title="VST3 base class for an IPlug plug&#45;in, inherits from IPlugBase or IPlugBaseGraphics. ">
<polygon fill="white" stroke="black" points="482,-56.5 482,-75.5 554,-75.5 554,-56.5 482,-56.5"/>
<text text-anchor="middle" x="518" y="-63.5" font-family="Helvetica,sans-Serif" font-size="10.00">IPlugVST3.h</text>
</a>
</g>
</g>
<!-- Node2&#45;&gt;Node13 -->
<g id="edge12" class="edge"><title>Node2&#45;&gt;Node13</title>
<path fill="none" stroke="midnightblue" d="M322.611,-110.242C369.593,-99.8442 439.683,-84.3324 481.905,-74.9883"/>
<polygon fill="midnightblue" stroke="midnightblue" points="321.67,-106.865 312.663,-112.444 323.183,-113.7 321.67,-106.865"/>
</g>
<!-- Node4 -->
<g id="node4" class="node"><title>Node4</title>
<g id="a_node4"><a xlink:href="_i_plug_a_a_x_8cpp_source.html" target="_top" xlink:title="IPlugAAX.cpp">
<polygon fill="white" stroke="black" points="0,-0.5 0,-19.5 78,-19.5 78,-0.5 0,-0.5"/>
<text text-anchor="middle" x="39" y="-7.5" font-family="Helvetica,sans-Serif" font-size="10.00">IPlugAAX.cpp</text>
</a>
</g>
</g>
<!-- Node3&#45;&gt;Node4 -->
<g id="edge3" class="edge"><title>Node3&#45;&gt;Node4</title>
<path fill="none" stroke="midnightblue" d="M42.25,-46.1005C41.42,-37.1357 40.4683,-26.8579 39.8103,-19.7511"/>
<polygon fill="midnightblue" stroke="midnightblue" points="38.7672,-46.4483 43.1744,-56.083 45.7374,-45.8029 38.7672,-46.4483"/>
</g>
<!-- Node6 -->
<g id="node6" class="node"><title>Node6</title>
<g id="a_node6"><a xlink:href="_i_plug_a_p_p_8cpp_source.html" target="_top" xlink:title="IPlugAPP.cpp">
<polygon fill="white" stroke="black" points="96,-0.5 96,-19.5 174,-19.5 174,-0.5 96,-0.5"/>
<text text-anchor="middle" x="135" y="-7.5" font-family="Helvetica,sans-Serif" font-size="10.00">IPlugAPP.cpp</text>
</a>
</g>
</g>
<!-- Node5&#45;&gt;Node6 -->
<g id="edge5" class="edge"><title>Node5&#45;&gt;Node6</title>
<path fill="none" stroke="midnightblue" d="M138.25,-46.1005C137.42,-37.1357 136.468,-26.8579 135.81,-19.7511"/>
<polygon fill="midnightblue" stroke="midnightblue" points="134.767,-46.4483 139.174,-56.083 141.737,-45.8029 134.767,-46.4483"/>
</g>
<!-- Node8 -->
<g id="node8" class="node"><title>Node8</title>
<g id="a_node8"><a xlink:href="_i_plug_a_u_8cpp_source.html" target="_top" xlink:title="IPlugAU.cpp">
<polygon fill="white" stroke="black" points="192,-0.5 192,-19.5 264,-19.5 264,-0.5 192,-0.5"/>
<text text-anchor="middle" x="228" y="-7.5" font-family="Helvetica,sans-Serif" font-size="10.00">IPlugAU.cpp</text>
</a>
</g>
</g>
<!-- Node7&#45;&gt;Node8 -->
<g id="edge7" class="edge"><title>Node7&#45;&gt;Node8</title>
<path fill="none" stroke="midnightblue" d="M229.289,-45.8045C228.96,-36.9102 228.584,-26.7798 228.324,-19.7511"/>
<polygon fill="midnightblue" stroke="midnightblue" points="225.802,-46.2194 229.67,-56.083 232.797,-45.9603 225.802,-46.2194"/>
</g>
<!-- Node10 -->
<g id="node10" class="node"><title>Node10</title>
<g id="a_node10"><a xlink:href="_i_plug_a_uv3_8mm_source.html" target="_top" xlink:title="IPlugAUv3.mm">
<polygon fill="white" stroke="black" points="282.5,-0.5 282.5,-19.5 365.5,-19.5 365.5,-0.5 282.5,-0.5"/>
<text text-anchor="middle" x="324" y="-7.5" font-family="Helvetica,sans-Serif" font-size="10.00">IPlugAUv3.mm</text>
</a>
</g>
</g>
<!-- Node9&#45;&gt;Node10 -->
<g id="edge9" class="edge"><title>Node9&#45;&gt;Node10</title>
<path fill="none" stroke="midnightblue" d="M320.75,-46.1005C321.58,-37.1357 322.532,-26.8579 323.19,-19.7511"/>
<polygon fill="midnightblue" stroke="midnightblue" points="317.263,-45.8029 319.826,-56.083 324.233,-46.4483 317.263,-45.8029"/>
</g>
<!-- Node12 -->
<g id="node12" class="node"><title>Node12</title>
<g id="a_node12"><a xlink:href="_i_plug_v_s_t_8cpp_source.html" target="_top" xlink:title="IPlugVST.cpp">
<polygon fill="white" stroke="black" points="383.5,-0.5 383.5,-19.5 460.5,-19.5 460.5,-0.5 383.5,-0.5"/>
<text text-anchor="middle" x="422" y="-7.5" font-family="Helvetica,sans-Serif" font-size="10.00">IPlugVST.cpp</text>
</a>
</g>
</g>
<!-- Node11&#45;&gt;Node12 -->
<g id="edge11" class="edge"><title>Node11&#45;&gt;Node12</title>
<path fill="none" stroke="midnightblue" d="M417.45,-46.1005C418.612,-37.1357 419.944,-26.8579 420.866,-19.7511"/>
<polygon fill="midnightblue" stroke="midnightblue" points="413.971,-45.716 416.156,-56.083 420.912,-46.6159 413.971,-45.716"/>
</g>
<!-- Node14 -->
<g id="node14" class="node"><title>Node14</title>
<g id="a_node14"><a xlink:href="_i_plug_v_s_t3_8cpp_source.html" target="_top" xlink:title="IPlugVST3.cpp">
<polygon fill="white" stroke="black" points="478.5,-0.5 478.5,-19.5 561.5,-19.5 561.5,-0.5 478.5,-0.5"/>
<text text-anchor="middle" x="520" y="-7.5" font-family="Helvetica,sans-Serif" font-size="10.00">IPlugVST3.cpp</text>
</a>
</g>
</g>
<!-- Node13&#45;&gt;Node14 -->
<g id="edge13" class="edge"><title>Node13&#45;&gt;Node14</title>
<path fill="none" stroke="midnightblue" d="M518.711,-45.8045C519.04,-36.9102 519.416,-26.7798 519.676,-19.7511"/>
<polygon fill="midnightblue" stroke="midnightblue" points="515.203,-45.9603 518.33,-56.083 522.198,-46.2194 515.203,-45.9603"/>
</g>
<!-- Node15&#45;&gt;Node1 -->
<g id="edge15" class="edge"><title>Node15&#45;&gt;Node1</title>
<path fill="none" stroke="midnightblue" d="M400.458,-141.691C401.106,-150.635 400.676,-160.927 399.166,-168.083"/>
<polygon fill="midnightblue" stroke="midnightblue" points="403.923,-141.2 399.131,-131.751 396.985,-142.126 403.923,-141.2"/>
</g>
</g>
</svg>
