<?xml version="1.0" encoding="UTF-8" standalone="no"?>
<!DOCTYPE svg PUBLIC "-//W3C//DTD SVG 1.1//EN"
 "http://www.w3.org/Graphics/SVG/1.1/DTD/svg11.dtd">
<!-- Generated by graphviz version 2.36.0 (20140111.2315)
 -->
<!-- Title: RtAudio.h Pages: 1 -->
<svg width="331pt" height="84pt"
 viewBox="0.00 0.00 331.00 84.00" xmlns="http://www.w3.org/2000/svg" xmlns:xlink="http://www.w3.org/1999/xlink">
<g id="graph0" class="graph" transform="scale(1 1) rotate(0) translate(4 80)">
<title>RtAudio.h</title>
<polygon fill="white" stroke="none" points="-4,4 -4,-80 327,-80 327,4 -4,4"/>
<!-- Node1 -->
<g id="node1" class="node"><title>Node1</title>
<polygon fill="#bfbfbf" stroke="black" points="121,-56.5 121,-75.5 181,-75.5 181,-56.5 121,-56.5"/>
<text text-anchor="middle" x="151" y="-63.5" font-family="Helvetica,sans-Serif" font-size="10.00">RtAudio.h</text>
</g>
<!-- Node2 -->
<g id="node2" class="node"><title>Node2</title>
<polygon fill="white" stroke="#bfbfbf" points="-0.5,-0.5 -0.5,-19.5 40.5,-19.5 40.5,-0.5 -0.5,-0.5"/>
<text text-anchor="middle" x="20" y="-7.5" font-family="Helvetica,sans-Serif" font-size="10.00">string</text>
</g>
<!-- Node1&#45;&gt;Node2 -->
<g id="edge1" class="edge"><title>Node1&#45;&gt;Node2</title>
<path fill="none" stroke="midnightblue" d="M130.243,-56.4435C108.684,-47.5566 74.7367,-33.5632 50.2062,-23.4514"/>
<polygon fill="midnightblue" stroke="midnightblue" points="51.2394,-20.0917 40.6602,-19.5164 48.5717,-26.5634 51.2394,-20.0917"/>
</g>
<!-- Node3 -->
<g id="node3" class="node"><title>Node3</title>
<polygon fill="white" stroke="#bfbfbf" points="59,-0.5 59,-19.5 103,-19.5 103,-0.5 59,-0.5"/>
<text text-anchor="middle" x="81" y="-7.5" font-family="Helvetica,sans-Serif" font-size="10.00">vector</text>
</g>
<!-- Node1&#45;&gt;Node3 -->
<g id="edge2" class="edge"><title>Node1&#45;&gt;Node3</title>
<path fill="none" stroke="midnightblue" d="M139.753,-56.324C129.203,-48.1849 113.199,-35.8395 100.558,-26.0874"/>
<polygon fill="midnightblue" stroke="midnightblue" points="102.507,-23.1707 92.4513,-19.8339 98.2314,-28.7132 102.507,-23.1707"/>
</g>
<!-- Node4 -->
<g id="node4" class="node"><title>Node4</title>
<polygon fill="white" stroke="#bfbfbf" points="121.5,-0.5 121.5,-19.5 180.5,-19.5 180.5,-0.5 121.5,-0.5"/>
<text text-anchor="middle" x="151" y="-7.5" font-family="Helvetica,sans-Serif" font-size="10.00">stdexcept</text>
</g>
<!-- Node1&#45;&gt;Node4 -->
<g id="edge3" class="edge"><title>Node1&#45;&gt;Node4</title>
<path fill="none" stroke="midnightblue" d="M151,-56.083C151,-49.0059 151,-38.8611 151,-29.9865"/>
<polygon fill="midnightblue" stroke="midnightblue" points="154.5,-29.751 151,-19.7511 147.5,-29.7511 154.5,-29.751"/>
</g>
<!-- Node5 -->
<g id="node5" class="node"><title>Node5</title>
<polygon fill="white" stroke="#bfbfbf" points="199,-0.5 199,-19.5 253,-19.5 253,-0.5 199,-0.5"/>
<text text-anchor="middle" x="226" y="-7.5" font-family="Helvetica,sans-Serif" font-size="10.00">iostream</text>
</g>
<!-- Node1&#45;&gt;Node5 -->
<g id="edge4" class="edge"><title>Node1&#45;&gt;Node5</title>
<path fill="none" stroke="midnightblue" d="M163.05,-56.324C174.463,-48.1066 191.831,-35.6017 205.435,-25.8069"/>
<polygon fill="midnightblue" stroke="midnightblue" points="207.66,-28.5174 213.731,-19.8339 203.57,-22.8366 207.66,-28.5174"/>
</g>
<!-- Node6 -->
<g id="node6" class="node"><title>Node6</title>
<polygon fill="white" stroke="#bfbfbf" points="271,-0.5 271,-19.5 323,-19.5 323,-0.5 271,-0.5"/>
<text text-anchor="middle" x="297" y="-7.5" font-family="Helvetica,sans-Serif" font-size="10.00">sstream</text>
</g>
<!-- Node1&#45;&gt;Node6 -->
<g id="edge5" class="edge"><title>Node1&#45;&gt;Node6</title>
<path fill="none" stroke="midnightblue" d="M174.134,-56.4435C198.482,-47.4381 237.007,-33.1891 264.423,-23.049"/>
<polygon fill="midnightblue" stroke="midnightblue" points="265.809,-26.2681 273.974,-19.5164 263.381,-19.7028 265.809,-26.2681"/>
</g>
</g>
</svg>
