<?xml version="1.0" encoding="UTF-8" standalone="no"?>
<!DOCTYPE svg PUBLIC "-//W3C//DTD SVG 1.1//EN"
 "http://www.w3.org/Graphics/SVG/1.1/DTD/svg11.dtd">
<!-- Generated by graphviz version 2.36.0 (20140111.2315)
 -->
<!-- Title: RtMidi.h Pages: 1 -->
<svg width="163pt" height="140pt"
 viewBox="0.00 0.00 163.00 140.00" xmlns="http://www.w3.org/2000/svg" xmlns:xlink="http://www.w3.org/1999/xlink">
<g id="graph0" class="graph" transform="scale(1 1) rotate(0) translate(4 136)">
<title>RtMidi.h</title>
<polygon fill="white" stroke="none" points="-4,4 -4,-136 159,-136 159,4 -4,4"/>
<!-- Node1 -->
<g id="node1" class="node"><title>Node1</title>
<polygon fill="#bfbfbf" stroke="black" points="54.5,-112.5 54.5,-131.5 107.5,-131.5 107.5,-112.5 54.5,-112.5"/>
<text text-anchor="middle" x="81" y="-119.5" font-family="Helvetica,sans-Serif" font-size="10.00">RtMidi.h</text>
</g>
<!-- Node2 -->
<g id="node2" class="node"><title>Node2</title>
<g id="a_node2"><a xlink:href="_i_plug_a_p_p_8h.html" target="_top" xlink:title="Standalone application base class for an IPlug plug&#45;in, inherits from IPlugBase or IPlugBaseGraphics...">
<polygon fill="white" stroke="black" points="5,-56.5 5,-75.5 73,-75.5 73,-56.5 5,-56.5"/>
<text text-anchor="middle" x="39" y="-63.5" font-family="Helvetica,sans-Serif" font-size="10.00">IPlugAPP.h</text>
</a>
</g>
</g>
<!-- Node1&#45;&gt;Node2 -->
<g id="edge1" class="edge"><title>Node1&#45;&gt;Node2</title>
<path fill="none" stroke="midnightblue" d="M67.8898,-104.144C60.5722,-94.7357 51.7591,-83.4046 45.8064,-75.7511"/>
<polygon fill="midnightblue" stroke="midnightblue" points="65.1624,-106.338 74.0646,-112.083 70.6878,-102.041 65.1624,-106.338"/>
</g>
<!-- Node4 -->
<g id="node4" class="node"><title>Node4</title>
<g id="a_node4"><a xlink:href="_rt_midi_8cpp_source.html" target="_top" xlink:title="RtMidi.cpp">
<polygon fill="white" stroke="black" points="91,-56.5 91,-75.5 155,-75.5 155,-56.5 91,-56.5"/>
<text text-anchor="middle" x="123" y="-63.5" font-family="Helvetica,sans-Serif" font-size="10.00">RtMidi.cpp</text>
</a>
</g>
</g>
<!-- Node1&#45;&gt;Node4 -->
<g id="edge3" class="edge"><title>Node1&#45;&gt;Node4</title>
<path fill="none" stroke="midnightblue" d="M94.1102,-104.144C101.428,-94.7357 110.241,-83.4046 116.194,-75.7511"/>
<polygon fill="midnightblue" stroke="midnightblue" points="91.3122,-102.041 87.9354,-112.083 96.8376,-106.338 91.3122,-102.041"/>
</g>
<!-- Node3 -->
<g id="node3" class="node"><title>Node3</title>
<g id="a_node3"><a xlink:href="_i_plug_a_p_p_8cpp_source.html" target="_top" xlink:title="IPlugAPP.cpp">
<polygon fill="white" stroke="black" points="0,-0.5 0,-19.5 78,-19.5 78,-0.5 0,-0.5"/>
<text text-anchor="middle" x="39" y="-7.5" font-family="Helvetica,sans-Serif" font-size="10.00">IPlugAPP.cpp</text>
</a>
</g>
</g>
<!-- Node2&#45;&gt;Node3 -->
<g id="edge2" class="edge"><title>Node2&#45;&gt;Node3</title>
<path fill="none" stroke="midnightblue" d="M39,-45.8045C39,-36.9102 39,-26.7798 39,-19.7511"/>
<polygon fill="midnightblue" stroke="midnightblue" points="35.5001,-46.083 39,-56.083 42.5001,-46.083 35.5001,-46.083"/>
</g>
</g>
</svg>
