<?xml version="1.0" encoding="UTF-8" standalone="no"?>
<!DOCTYPE svg PUBLIC "-//W3C//DTD SVG 1.1//EN"
 "http://www.w3.org/Graphics/SVG/1.1/DTD/svg11.dtd">
<!-- Generated by graphviz version 2.36.0 (20140111.2315)
 -->
<!-- Title: IPlugVST3 Pages: 1 -->
<svg width="368pt" height="126pt"
 viewBox="0.00 0.00 368.00 126.00" xmlns="http://www.w3.org/2000/svg" xmlns:xlink="http://www.w3.org/1999/xlink">
<g id="graph0" class="graph" transform="scale(1 1) rotate(0) translate(4 122)">
<title>IPlugVST3</title>
<polygon fill="white" stroke="none" points="-4,4 -4,-122 364,-122 364,4 -4,4"/>
<!-- Node1 -->
<g id="node1" class="node"><title>Node1</title>
<polygon fill="#bfbfbf" stroke="black" points="296,-54.5 296,-73.5 360,-73.5 360,-54.5 296,-54.5"/>
<text text-anchor="middle" x="328" y="-61.5" font-family="Helvetica,sans-Serif" font-size="10.00">IPlugVST3</text>
</g>
<!-- Node2 -->
<g id="node2" class="node"><title>Node2</title>
<g id="a_node2"><a xlink:href="class_i_plug_base_graphics.html" target="_top" xlink:title="An IPlugBase class for an IPlug plug&#45;in that uses IGraphics for it&#39;s UI. ">
<polygon fill="white" stroke="black" points="120.5,-98.5 120.5,-117.5 237.5,-117.5 237.5,-98.5 120.5,-98.5"/>
<text text-anchor="middle" x="179" y="-105.5" font-family="Helvetica,sans-Serif" font-size="10.00">IPLUG_BASE_CLASS</text>
</a>
</g>
</g>
<!-- Node2&#45;&gt;Node1 -->
<g id="edge1" class="edge"><title>Node2&#45;&gt;Node1</title>
<path fill="none" stroke="midnightblue" d="M231.189,-96.0044C240.808,-93.524 250.747,-90.8063 260,-88 274.07,-83.7326 289.537,-78.2466 302.062,-73.5971"/>
<polygon fill="midnightblue" stroke="midnightblue" points="230.161,-92.654 221.323,-98.4971 231.876,-99.4408 230.161,-92.654"/>
</g>
<!-- Node3 -->
<g id="node3" class="node"><title>Node3</title>
<g id="a_node3"><a xlink:href="class_i_plug_base.html" target="_top" xlink:title="The lowest level base class of an IPlug plug&#45;in. ">
<polygon fill="white" stroke="black" points="0,-98.5 0,-117.5 62,-117.5 62,-98.5 0,-98.5"/>
<text text-anchor="middle" x="31" y="-105.5" font-family="Helvetica,sans-Serif" font-size="10.00">IPlugBase</text>
</a>
</g>
</g>
<!-- Node3&#45;&gt;Node2 -->
<g id="edge2" class="edge"><title>Node3&#45;&gt;Node2</title>
<path fill="none" stroke="midnightblue" d="M72.5747,-108C87.3564,-108 104.364,-108 120.344,-108"/>
<polygon fill="midnightblue" stroke="midnightblue" points="72.2513,-104.5 62.2513,-108 72.2513,-111.5 72.2513,-104.5"/>
</g>
<!-- Node4 -->
<g id="node4" class="node"><title>Node4</title>
<g id="a_node4"><a xlink:href="class_i_plug_processor.html" target="_top" xlink:title="IPlugProcessor\&lt; PLUG\l_SAMPLE_DST \&gt;">
<polygon fill="white" stroke="black" points="119.5,-49 119.5,-79 238.5,-79 238.5,-49 119.5,-49"/>
<text text-anchor="start" x="127.5" y="-67" font-family="Helvetica,sans-Serif" font-size="10.00">IPlugProcessor&lt; PLUG</text>
<text text-anchor="middle" x="179" y="-56" font-family="Helvetica,sans-Serif" font-size="10.00">_SAMPLE_DST &gt;</text>
</a>
</g>
</g>
<!-- Node4&#45;&gt;Node1 -->
<g id="edge3" class="edge"><title>Node4&#45;&gt;Node1</title>
<path fill="none" stroke="midnightblue" d="M248.695,-64C265.15,-64 281.928,-64 295.71,-64"/>
<polygon fill="midnightblue" stroke="midnightblue" points="248.521,-60.5001 238.521,-64 248.521,-67.5001 248.521,-60.5001"/>
</g>
<!-- Node5 -->
<g id="node5" class="node"><title>Node5</title>
<polygon fill="white" stroke="#bfbfbf" points="98,-0 98,-30 260,-30 260,-0 98,-0"/>
<text text-anchor="start" x="106" y="-18" font-family="Helvetica,sans-Serif" font-size="10.00">Steinberg::Vst::SingleComponent</text>
<text text-anchor="middle" x="179" y="-7" font-family="Helvetica,sans-Serif" font-size="10.00">Effect</text>
</g>
<!-- Node5&#45;&gt;Node1 -->
<g id="edge4" class="edge"><title>Node5&#45;&gt;Node1</title>
<path fill="none" stroke="midnightblue" d="M241.861,-33.1166C248.007,-35.0487 254.137,-37.0291 260,-39 274.239,-43.7868 289.986,-49.6337 302.634,-54.4691"/>
<polygon fill="midnightblue" stroke="midnightblue" points="242.815,-29.7481 232.227,-30.1286 240.741,-36.4339 242.815,-29.7481"/>
</g>
</g>
</svg>
