<?xml version="1.0" encoding="UTF-8" standalone="no"?>
<!DOCTYPE svg PUBLIC "-//W3C//DTD SVG 1.1//EN"
 "http://www.w3.org/Graphics/SVG/1.1/DTD/svg11.dtd">
<!-- Generated by graphviz version 2.36.0 (20140111.2315)
 -->
<!-- Title: RtMidi Pages: 1 -->
<svg width="139pt" height="84pt"
 viewBox="0.00 0.00 139.00 84.00" xmlns="http://www.w3.org/2000/svg" xmlns:xlink="http://www.w3.org/1999/xlink">
<g id="graph0" class="graph" transform="scale(1 1) rotate(0) translate(4 80)">
<title>RtMidi</title>
<polygon fill="white" stroke="none" points="-4,4 -4,-80 135,-80 135,4 -4,4"/>
<!-- Node1 -->
<g id="node1" class="node"><title>Node1</title>
<polygon fill="#bfbfbf" stroke="black" points="40.5,-56.5 40.5,-75.5 85.5,-75.5 85.5,-56.5 40.5,-56.5"/>
<text text-anchor="middle" x="63" y="-63.5" font-family="Helvetica,sans-Serif" font-size="10.00">RtMidi</text>
</g>
<!-- Node2 -->
<g id="node2" class="node"><title>Node2</title>
<g id="a_node2"><a xlink:href="class_rt_midi_in.html" target="_top" xlink:title="A realtime MIDI input class. ">
<polygon fill="white" stroke="black" points="-0.5,-0.5 -0.5,-19.5 52.5,-19.5 52.5,-0.5 -0.5,-0.5"/>
<text text-anchor="middle" x="26" y="-7.5" font-family="Helvetica,sans-Serif" font-size="10.00">RtMidiIn</text>
</a>
</g>
</g>
<!-- Node1&#45;&gt;Node2 -->
<g id="edge1" class="edge"><title>Node1&#45;&gt;Node2</title>
<path fill="none" stroke="midnightblue" d="M51.0542,-47.5656C44.6883,-38.2747 37.1332,-27.2484 31.9961,-19.7511"/>
<polygon fill="midnightblue" stroke="midnightblue" points="48.3506,-49.812 56.8902,-56.083 54.1251,-45.8553 48.3506,-49.812"/>
</g>
<!-- Node3 -->
<g id="node3" class="node"><title>Node3</title>
<g id="a_node3"><a xlink:href="class_rt_midi_out.html" target="_top" xlink:title="A realtime MIDI output class. ">
<polygon fill="white" stroke="black" points="70.5,-0.5 70.5,-19.5 131.5,-19.5 131.5,-0.5 70.5,-0.5"/>
<text text-anchor="middle" x="101" y="-7.5" font-family="Helvetica,sans-Serif" font-size="10.00">RtMidiOut</text>
</a>
</g>
</g>
<!-- Node1&#45;&gt;Node3 -->
<g id="edge2" class="edge"><title>Node1&#45;&gt;Node3</title>
<path fill="none" stroke="midnightblue" d="M75.0647,-47.8554C81.6447,-38.5048 89.511,-27.3265 94.8418,-19.7511"/>
<polygon fill="midnightblue" stroke="midnightblue" points="72.1676,-45.8907 69.2749,-56.083 77.8922,-49.9192 72.1676,-45.8907"/>
</g>
</g>
</svg>
