<?xml version="1.0" encoding="UTF-8" standalone="no"?>
<!DOCTYPE svg PUBLIC "-//W3C//DTD SVG 1.1//EN"
 "http://www.w3.org/Graphics/SVG/1.1/DTD/svg11.dtd">
<!-- Generated by graphviz version 2.36.0 (20140111.2315)
 -->
<!-- Title: IPlugAAX Pages: 1 -->
<svg width="402pt" height="152pt"
 viewBox="0.00 0.00 402.00 152.00" xmlns="http://www.w3.org/2000/svg" xmlns:xlink="http://www.w3.org/1999/xlink">
<g id="graph0" class="graph" transform="scale(1 1) rotate(0) translate(4 148)">
<title>IPlugAAX</title>
<polygon fill="white" stroke="none" points="-4,4 -4,-148 398,-148 398,4 -4,4"/>
<!-- Node1 -->
<g id="node1" class="node"><title>Node1</title>
<polygon fill="#bfbfbf" stroke="black" points="164.5,-0.5 164.5,-19.5 223.5,-19.5 223.5,-0.5 164.5,-0.5"/>
<text text-anchor="middle" x="194" y="-7.5" font-family="Helvetica,sans-Serif" font-size="10.00">IPlugAAX</text>
</g>
<!-- Node2 -->
<g id="node2" class="node"><title>Node2</title>
<g id="a_node2"><a xlink:href="class_i_plug_base_graphics.html" target="_top" xlink:title="An IPlugBase class for an IPlug plug&#45;in that uses IGraphics for it&#39;s UI. ">
<polygon fill="white" stroke="black" points="-0.5,-62.5 -0.5,-81.5 116.5,-81.5 116.5,-62.5 -0.5,-62.5"/>
<text text-anchor="middle" x="58" y="-69.5" font-family="Helvetica,sans-Serif" font-size="10.00">IPLUG_BASE_CLASS</text>
</a>
</g>
</g>
<!-- Node2&#45;&gt;Node1 -->
<g id="edge1" class="edge"><title>Node2&#45;&gt;Node1</title>
<path fill="none" stroke="midnightblue" d="M86.9665,-58.2207C113.369,-46.5726 151.642,-29.6874 174.551,-19.5806"/>
<polygon fill="midnightblue" stroke="midnightblue" points="85.2219,-55.1648 77.4855,-62.4035 88.0474,-61.5692 85.2219,-55.1648"/>
</g>
<!-- Node3 -->
<g id="node3" class="node"><title>Node3</title>
<g id="a_node3"><a xlink:href="class_i_plug_base.html" target="_top" xlink:title="The lowest level base class of an IPlug plug&#45;in. ">
<polygon fill="white" stroke="black" points="27,-124.5 27,-143.5 89,-143.5 89,-124.5 27,-124.5"/>
<text text-anchor="middle" x="58" y="-131.5" font-family="Helvetica,sans-Serif" font-size="10.00">IPlugBase</text>
</a>
</g>
</g>
<!-- Node3&#45;&gt;Node2 -->
<g id="edge2" class="edge"><title>Node3&#45;&gt;Node2</title>
<path fill="none" stroke="midnightblue" d="M58,-114.16C58,-103.248 58,-90.04 58,-81.5806"/>
<polygon fill="midnightblue" stroke="midnightblue" points="54.5001,-114.403 58,-124.403 61.5001,-114.403 54.5001,-114.403"/>
</g>
<!-- Node4 -->
<g id="node4" class="node"><title>Node4</title>
<g id="a_node4"><a xlink:href="class_i_plug_processor.html" target="_top" xlink:title="IPlugProcessor\&lt; PLUG\l_SAMPLE_DST \&gt;">
<polygon fill="white" stroke="black" points="134.5,-57 134.5,-87 253.5,-87 253.5,-57 134.5,-57"/>
<text text-anchor="start" x="142.5" y="-75" font-family="Helvetica,sans-Serif" font-size="10.00">IPlugProcessor&lt; PLUG</text>
<text text-anchor="middle" x="194" y="-64" font-family="Helvetica,sans-Serif" font-size="10.00">_SAMPLE_DST &gt;</text>
</a>
</g>
</g>
<!-- Node4&#45;&gt;Node1 -->
<g id="edge3" class="edge"><title>Node4&#45;&gt;Node1</title>
<path fill="none" stroke="midnightblue" d="M194,-46.5858C194,-37.0743 194,-26.7864 194,-19.7305"/>
<polygon fill="midnightblue" stroke="midnightblue" points="190.5,-46.7808 194,-56.7808 197.5,-46.7809 190.5,-46.7808"/>
</g>
<!-- Node5 -->
<g id="node5" class="node"><title>Node5</title>
<polygon fill="white" stroke="#bfbfbf" points="272,-62.5 272,-81.5 394,-81.5 394,-62.5 272,-62.5"/>
<text text-anchor="middle" x="333" y="-69.5" font-family="Helvetica,sans-Serif" font-size="10.00">AAX_CIPlugParameters</text>
</g>
<!-- Node5&#45;&gt;Node1 -->
<g id="edge4" class="edge"><title>Node5&#45;&gt;Node1</title>
<path fill="none" stroke="midnightblue" d="M303.75,-58.3743C276.755,-46.7215 237.396,-29.7319 213.878,-19.5806"/>
<polygon fill="midnightblue" stroke="midnightblue" points="302.516,-61.6537 313.085,-62.4035 305.291,-55.2269 302.516,-61.6537"/>
</g>
</g>
</svg>
