<?xml version="1.0" encoding="UTF-8" standalone="no"?>
<!DOCTYPE svg PUBLIC "-//W3C//DTD SVG 1.1//EN"
 "http://www.w3.org/Graphics/SVG/1.1/DTD/svg11.dtd">
<!-- Generated by graphviz version 2.36.0 (20140111.2315)
 -->
<!-- Title: MidiOutApi Pages: 1 -->
<svg width="92pt" height="140pt"
 viewBox="0.00 0.00 92.00 140.00" xmlns="http://www.w3.org/2000/svg" xmlns:xlink="http://www.w3.org/1999/xlink">
<g id="graph0" class="graph" transform="scale(1 1) rotate(0) translate(4 136)">
<title>MidiOutApi</title>
<polygon fill="white" stroke="none" points="-4,4 -4,-136 88,-136 88,4 -4,4"/>
<!-- Node1 -->
<g id="node1" class="node"><title>Node1</title>
<polygon fill="#bfbfbf" stroke="black" points="9.5,-56.5 9.5,-75.5 74.5,-75.5 74.5,-56.5 9.5,-56.5"/>
<text text-anchor="middle" x="42" y="-63.5" font-family="Helvetica,sans-Serif" font-size="10.00">MidiOutApi</text>
</g>
<!-- Node3 -->
<g id="node3" class="node"><title>Node3</title>
<g id="a_node3"><a xlink:href="class_midi_out_dummy.html" target="_top" xlink:title="MidiOutDummy">
<polygon fill="white" stroke="black" points="-0.5,-0.5 -0.5,-19.5 84.5,-19.5 84.5,-0.5 -0.5,-0.5"/>
<text text-anchor="middle" x="42" y="-7.5" font-family="Helvetica,sans-Serif" font-size="10.00">MidiOutDummy</text>
</a>
</g>
</g>
<!-- Node1&#45;&gt;Node3 -->
<g id="edge2" class="edge"><title>Node1&#45;&gt;Node3</title>
<path fill="none" stroke="midnightblue" d="M42,-45.8045C42,-36.9102 42,-26.7798 42,-19.7511"/>
<polygon fill="midnightblue" stroke="midnightblue" points="38.5001,-46.083 42,-56.083 45.5001,-46.083 38.5001,-46.083"/>
</g>
<!-- Node2 -->
<g id="node2" class="node"><title>Node2</title>
<g id="a_node2"><a xlink:href="class_midi_api.html" target="_top" xlink:title="MidiApi">
<polygon fill="white" stroke="black" points="17.5,-112.5 17.5,-131.5 66.5,-131.5 66.5,-112.5 17.5,-112.5"/>
<text text-anchor="middle" x="42" y="-119.5" font-family="Helvetica,sans-Serif" font-size="10.00">MidiApi</text>
</a>
</g>
</g>
<!-- Node2&#45;&gt;Node1 -->
<g id="edge1" class="edge"><title>Node2&#45;&gt;Node1</title>
<path fill="none" stroke="midnightblue" d="M42,-101.805C42,-92.9102 42,-82.7798 42,-75.7511"/>
<polygon fill="midnightblue" stroke="midnightblue" points="38.5001,-102.083 42,-112.083 45.5001,-102.083 38.5001,-102.083"/>
</g>
</g>
</svg>
