<?xml version="1.0" encoding="UTF-8" standalone="no"?>
<!DOCTYPE svg PUBLIC "-//W3C//DTD SVG 1.1//EN"
 "http://www.w3.org/Graphics/SVG/1.1/DTD/svg11.dtd">
<!-- Generated by graphviz version 2.36.0 (20140111.2315)
 -->
<!-- Title: IPlugAPP Pages: 1 -->
<svg width="261pt" height="152pt"
 viewBox="0.00 0.00 261.00 152.00" xmlns="http://www.w3.org/2000/svg" xmlns:xlink="http://www.w3.org/1999/xlink">
<g id="graph0" class="graph" transform="scale(1 1) rotate(0) translate(4 148)">
<title>IPlugAPP</title>
<polygon fill="white" stroke="none" points="-4,4 -4,-148 257,-148 257,4 -4,4"/>
<!-- Node1 -->
<g id="node1" class="node"><title>Node1</title>
<polygon fill="#bfbfbf" stroke="black" points="96.5,-0.5 96.5,-19.5 155.5,-19.5 155.5,-0.5 96.5,-0.5"/>
<text text-anchor="middle" x="126" y="-7.5" font-family="Helvetica,sans-Serif" font-size="10.00">IPlugAPP</text>
</g>
<!-- Node2 -->
<g id="node2" class="node"><title>Node2</title>
<g id="a_node2"><a xlink:href="class_i_plug_base_graphics.html" target="_top" xlink:title="An IPlugBase class for an IPlug plug&#45;in that uses IGraphics for it&#39;s UI. ">
<polygon fill="white" stroke="black" points="-0.5,-62.5 -0.5,-81.5 116.5,-81.5 116.5,-62.5 -0.5,-62.5"/>
<text text-anchor="middle" x="58" y="-69.5" font-family="Helvetica,sans-Serif" font-size="10.00">IPLUG_BASE_CLASS</text>
</a>
</g>
</g>
<!-- Node2&#45;&gt;Node1 -->
<g id="edge1" class="edge"><title>Node2&#45;&gt;Node1</title>
<path fill="none" stroke="midnightblue" d="M75.5433,-55.5206C88.5076,-44.0815 105.679,-28.9305 116.275,-19.5806"/>
<polygon fill="midnightblue" stroke="midnightblue" points="72.9255,-53.1628 67.7427,-62.4035 77.5568,-58.4117 72.9255,-53.1628"/>
</g>
<!-- Node3 -->
<g id="node3" class="node"><title>Node3</title>
<g id="a_node3"><a xlink:href="class_i_plug_base.html" target="_top" xlink:title="The lowest level base class of an IPlug plug&#45;in. ">
<polygon fill="white" stroke="black" points="27,-124.5 27,-143.5 89,-143.5 89,-124.5 27,-124.5"/>
<text text-anchor="middle" x="58" y="-131.5" font-family="Helvetica,sans-Serif" font-size="10.00">IPlugBase</text>
</a>
</g>
</g>
<!-- Node3&#45;&gt;Node2 -->
<g id="edge2" class="edge"><title>Node3&#45;&gt;Node2</title>
<path fill="none" stroke="midnightblue" d="M58,-114.16C58,-103.248 58,-90.04 58,-81.5806"/>
<polygon fill="midnightblue" stroke="midnightblue" points="54.5001,-114.403 58,-124.403 61.5001,-114.403 54.5001,-114.403"/>
</g>
<!-- Node4 -->
<g id="node4" class="node"><title>Node4</title>
<g id="a_node4"><a xlink:href="class_i_plug_processor.html" target="_top" xlink:title="IPlugProcessor\&lt; PLUG\l_SAMPLE_DST \&gt;">
<polygon fill="white" stroke="black" points="134.5,-57 134.5,-87 253.5,-87 253.5,-57 134.5,-57"/>
<text text-anchor="start" x="142.5" y="-75" font-family="Helvetica,sans-Serif" font-size="10.00">IPlugProcessor&lt; PLUG</text>
<text text-anchor="middle" x="194" y="-64" font-family="Helvetica,sans-Serif" font-size="10.00">_SAMPLE_DST &gt;</text>
</a>
</g>
</g>
<!-- Node4&#45;&gt;Node1 -->
<g id="edge3" class="edge"><title>Node4&#45;&gt;Node1</title>
<path fill="none" stroke="midnightblue" d="M170.111,-49.9216C158.36,-39.5533 144.837,-27.6209 135.895,-19.7305"/>
<polygon fill="midnightblue" stroke="midnightblue" points="168.071,-52.789 177.885,-56.7808 172.702,-47.5401 168.071,-52.789"/>
</g>
</g>
</svg>
