<?xml version="1.0" encoding="UTF-8" standalone="no"?>
<!DOCTYPE svg PUBLIC "-//W3C//DTD SVG 1.1//EN"
 "http://www.w3.org/Graphics/SVG/1.1/DTD/svg11.dtd">
<!-- Generated by graphviz version 2.36.0 (20140111.2315)
 -->
<!-- Title: MidiApi Pages: 1 -->
<svg width="187pt" height="140pt"
 viewBox="0.00 0.00 187.00 140.00" xmlns="http://www.w3.org/2000/svg" xmlns:xlink="http://www.w3.org/1999/xlink">
<g id="graph0" class="graph" transform="scale(1 1) rotate(0) translate(4 136)">
<title>MidiApi</title>
<polygon fill="white" stroke="none" points="-4,4 -4,-136 183,-136 183,4 -4,4"/>
<!-- Node1 -->
<g id="node1" class="node"><title>Node1</title>
<polygon fill="#bfbfbf" stroke="black" points="62.5,-112.5 62.5,-131.5 111.5,-131.5 111.5,-112.5 62.5,-112.5"/>
<text text-anchor="middle" x="87" y="-119.5" font-family="Helvetica,sans-Serif" font-size="10.00">MidiApi</text>
</g>
<!-- Node2 -->
<g id="node2" class="node"><title>Node2</title>
<g id="a_node2"><a xlink:href="class_midi_in_api.html" target="_top" xlink:title="MidiInApi">
<polygon fill="white" stroke="black" points="14.5,-56.5 14.5,-75.5 71.5,-75.5 71.5,-56.5 14.5,-56.5"/>
<text text-anchor="middle" x="43" y="-63.5" font-family="Helvetica,sans-Serif" font-size="10.00">MidiInApi</text>
</a>
</g>
</g>
<!-- Node1&#45;&gt;Node2 -->
<g id="edge1" class="edge"><title>Node1&#45;&gt;Node2</title>
<path fill="none" stroke="midnightblue" d="M73.2655,-104.144C65.5995,-94.7357 56.3667,-83.4046 50.1305,-75.7511"/>
<polygon fill="midnightblue" stroke="midnightblue" points="70.7042,-106.541 79.7343,-112.083 76.1309,-102.12 70.7042,-106.541"/>
</g>
<!-- Node4 -->
<g id="node4" class="node"><title>Node4</title>
<g id="a_node4"><a xlink:href="class_midi_out_api.html" target="_top" xlink:title="MidiOutApi">
<polygon fill="white" stroke="black" points="99.5,-56.5 99.5,-75.5 164.5,-75.5 164.5,-56.5 99.5,-56.5"/>
<text text-anchor="middle" x="132" y="-63.5" font-family="Helvetica,sans-Serif" font-size="10.00">MidiOutApi</text>
</a>
</g>
</g>
<!-- Node1&#45;&gt;Node4 -->
<g id="edge3" class="edge"><title>Node1&#45;&gt;Node4</title>
<path fill="none" stroke="midnightblue" d="M101.047,-104.144C108.887,-94.7357 118.329,-83.4046 124.707,-75.7511"/>
<polygon fill="midnightblue" stroke="midnightblue" points="98.1439,-102.16 94.4308,-112.083 103.521,-106.641 98.1439,-102.16"/>
</g>
<!-- Node3 -->
<g id="node3" class="node"><title>Node3</title>
<g id="a_node3"><a xlink:href="class_midi_in_dummy.html" target="_top" xlink:title="MidiInDummy">
<polygon fill="white" stroke="black" points="-0.5,-0.5 -0.5,-19.5 76.5,-19.5 76.5,-0.5 -0.5,-0.5"/>
<text text-anchor="middle" x="38" y="-7.5" font-family="Helvetica,sans-Serif" font-size="10.00">MidiInDummy</text>
</a>
</g>
</g>
<!-- Node2&#45;&gt;Node3 -->
<g id="edge2" class="edge"><title>Node2&#45;&gt;Node3</title>
<path fill="none" stroke="midnightblue" d="M41.25,-46.1005C40.42,-37.1357 39.4683,-26.8579 38.8103,-19.7511"/>
<polygon fill="midnightblue" stroke="midnightblue" points="37.7672,-46.4483 42.1744,-56.083 44.7374,-45.8029 37.7672,-46.4483"/>
</g>
<!-- Node5 -->
<g id="node5" class="node"><title>Node5</title>
<g id="a_node5"><a xlink:href="class_midi_out_dummy.html" target="_top" xlink:title="MidiOutDummy">
<polygon fill="white" stroke="black" points="94.5,-0.5 94.5,-19.5 179.5,-19.5 179.5,-0.5 94.5,-0.5"/>
<text text-anchor="middle" x="137" y="-7.5" font-family="Helvetica,sans-Serif" font-size="10.00">MidiOutDummy</text>
</a>
</g>
</g>
<!-- Node4&#45;&gt;Node5 -->
<g id="edge4" class="edge"><title>Node4&#45;&gt;Node5</title>
<path fill="none" stroke="midnightblue" d="M133.75,-46.1005C134.58,-37.1357 135.532,-26.8579 136.19,-19.7511"/>
<polygon fill="midnightblue" stroke="midnightblue" points="130.263,-45.8029 132.826,-56.083 137.233,-46.4483 130.263,-45.8029"/>
</g>
</g>
</svg>
