<?xml version="1.0" encoding="UTF-8" standalone="no"?>
<!DOCTYPE svg PUBLIC "-//W3C//DTD SVG 1.1//EN"
 "http://www.w3.org/Graphics/SVG/1.1/DTD/svg11.dtd">
<!-- Generated by graphviz version 2.36.0 (20140111.2315)
 -->
<!-- Title: IPlug Pages: 1 -->
<svg width="182pt" height="148pt"
 viewBox="0.00 0.00 182.00 148.00" xmlns="http://www.w3.org/2000/svg" xmlns:xlink="http://www.w3.org/1999/xlink">
<g id="graph0" class="graph" transform="scale(1 1) rotate(0) translate(4 144)">
<title>IPlug</title>
<polygon fill="white" stroke="none" points="-4,4 -4,-144 178,-144 178,4 -4,4"/>
<g id="clust1" class="cluster"><title>clusterdir_a8a4892678035c62db3a4af7d9811050</title>
<g id="a_clust1"><a xlink:href="dir_a8a4892678035c62db3a4af7d9811050.html" target="_top">
<polygon fill="#eeeeff" stroke="black" points="8,-8 8,-132 166,-132 166,-8 8,-8"/>
</a>
</g>
</g>
<!-- dir_a8a4892678035c62db3a4af7d9811050 -->
<g id="node1" class="node"><title>dir_a8a4892678035c62db3a4af7d9811050</title>
<text text-anchor="middle" x="86" y="-103.5" font-family="Helvetica,sans-Serif" font-size="10.00">IPlug</text>
</g>
<!-- dir_02b921c665a2b7698f690c5b6b11d065 -->
<g id="node2" class="node"><title>dir_02b921c665a2b7698f690c5b6b11d065</title>
<g id="a_node2"><a xlink:href="dir_02b921c665a2b7698f690c5b6b11d065.html" target="_top" xlink:title="IGraphics">
<polygon fill="white" stroke="black" points="75.25,-52 16.75,-52 16.75,-16 75.25,-16 75.25,-52"/>
<text text-anchor="middle" x="46" y="-31.5" font-family="Helvetica,sans-Serif" font-size="10.00">IGraphics</text>
</a>
</g>
</g>
<!-- dir_a8a4892678035c62db3a4af7d9811050&#45;&gt;dir_02b921c665a2b7698f690c5b6b11d065 -->
<g id="edge2" class="edge"><title>dir_a8a4892678035c62db3a4af7d9811050&#45;&gt;dir_02b921c665a2b7698f690c5b6b11d065</title>
<path fill="none" stroke="black" d="M76.1124,-87.6966C71.5107,-79.6436 65.9397,-69.8945 60.8471,-60.9824"/>
<polygon fill="black" stroke="black" points="63.7742,-59.0503 55.7739,-52.1043 57.6965,-62.5233 63.7742,-59.0503"/>
<g id="a_edge2&#45;headlabel"><a xlink:href="dir_000000_000001.html" target="_top" xlink:title="1">
<text text-anchor="middle" x="68.0228" y="-58.2626" font-family="Helvetica,sans-Serif" font-size="10.00">1</text>
</a>
</g>
</g>
<!-- dir_25c3051ec0c921a358aa6ed07ae9475d -->
<g id="node3" class="node"><title>dir_25c3051ec0c921a358aa6ed07ae9475d</title>
<g id="a_node3"><a xlink:href="dir_25c3051ec0c921a358aa6ed07ae9475d.html" target="_top" xlink:title="rtaudiomidi">
<polygon fill="white" stroke="black" points="158,-52 94,-52 94,-16 158,-16 158,-52"/>
<text text-anchor="middle" x="126" y="-31.5" font-family="Helvetica,sans-Serif" font-size="10.00">rtaudiomidi</text>
</a>
</g>
</g>
<!-- dir_a8a4892678035c62db3a4af7d9811050&#45;&gt;dir_25c3051ec0c921a358aa6ed07ae9475d -->
<g id="edge1" class="edge"><title>dir_a8a4892678035c62db3a4af7d9811050&#45;&gt;dir_25c3051ec0c921a358aa6ed07ae9475d</title>
<path fill="none" stroke="black" d="M95.8876,-87.6966C100.489,-79.6436 106.06,-69.8945 111.153,-60.9824"/>
<polygon fill="black" stroke="black" points="114.304,-62.5233 116.226,-52.1043 108.226,-59.0503 114.304,-62.5233"/>
<g id="a_edge1&#45;headlabel"><a xlink:href="dir_000000_000002.html" target="_top" xlink:title="1">
<text text-anchor="middle" x="114.985" y="-64.5529" font-family="Helvetica,sans-Serif" font-size="10.00">1</text>
</a>
</g>
</g>
</g>
</svg>
