<?xml version="1.0" encoding="UTF-8" standalone="no"?>
<!DOCTYPE svg PUBLIC "-//W3C//DTD SVG 1.1//EN"
 "http://www.w3.org/Graphics/SVG/1.1/DTD/svg11.dtd">
<!-- Generated by graphviz version 2.36.0 (20140111.2315)
 -->
<!-- Title: Graphical Class Hierarchy Pages: 1 -->
<svg width="360pt" height="418pt"
 viewBox="0.00 0.00 360.00 418.23" xmlns="http://www.w3.org/2000/svg" xmlns:xlink="http://www.w3.org/1999/xlink">
<g id="graph0" class="graph" transform="scale(1 1) rotate(0) translate(4 414.227)">
<title>Graphical Class Hierarchy</title>
<polygon fill="white" stroke="none" points="-4,4 -4,-414.227 356,-414.227 356,4 -4,4"/>
<!-- Node1 -->
<g id="node1" class="node"><title>Node1</title>
<g id="a_node1"><a xlink:href="class_i_control.html" target="_top" xlink:title="The lowest level base class of an IGraphics control. ">
<polygon fill="white" stroke="black" points="10.5,-219.727 10.5,-238.727 61.5,-238.727 61.5,-219.727 10.5,-219.727"/>
<text text-anchor="middle" x="36" y="-226.727" font-family="Helvetica,sans-Serif" font-size="10.00">IControl</text>
</a>
</g>
</g>
<!-- Node2 -->
<g id="node2" class="node"><title>Node2</title>
<g id="a_node2"><a xlink:href="class_i_bitmap_control.html" target="_top" xlink:title="A basic control to draw a bitmap, or one frame of a stacked bitmap depending on the current value...">
<polygon fill="white" stroke="black" points="127,-390.727 127,-409.727 209,-409.727 209,-390.727 127,-390.727"/>
<text text-anchor="middle" x="168" y="-397.727" font-family="Helvetica,sans-Serif" font-size="10.00">IBitmapControl</text>
</a>
</g>
</g>
<!-- Node1&#45;&gt;Node2 -->
<g id="edge1" class="edge"><title>Node1&#45;&gt;Node2</title>
<path fill="none" stroke="midnightblue" d="M40.901,-249.037C48.2859,-281.35 67.3538,-345.385 108,-381.227 113.408,-385.996 120.026,-389.57 126.851,-392.248"/>
<polygon fill="midnightblue" stroke="midnightblue" points="44.2745,-248.075 38.7599,-239.029 37.4294,-249.539 44.2745,-248.075"/>
</g>
<!-- Node4 -->
<g id="node4" class="node"><title>Node4</title>
<g id="a_node4"><a xlink:href="class_i_b_slider_control.html" target="_top" xlink:title="A slider with a bitmap for the handle. ">
<polygon fill="white" stroke="black" points="126.5,-276.727 126.5,-295.727 209.5,-295.727 209.5,-276.727 126.5,-276.727"/>
<text text-anchor="middle" x="168" y="-283.727" font-family="Helvetica,sans-Serif" font-size="10.00">IBSliderControl</text>
</a>
</g>
</g>
<!-- Node1&#45;&gt;Node4 -->
<g id="edge3" class="edge"><title>Node1&#45;&gt;Node4</title>
<path fill="none" stroke="midnightblue" d="M61.9867,-244.026C75.3524,-251.573 92.2595,-260.545 108,-267.227 116.221,-270.718 125.314,-273.942 133.848,-276.706"/>
<polygon fill="midnightblue" stroke="midnightblue" points="63.3624,-240.779 52.9476,-238.834 59.8762,-246.85 63.3624,-240.779"/>
</g>
<!-- Node5 -->
<g id="node5" class="node"><title>Node5</title>
<g id="a_node5"><a xlink:href="class_i_dir_browse_control_base.html" target="_top" xlink:title="An abstract IControl base class that you can inherit from in order to make a control that pops up a m...">
<polygon fill="white" stroke="black" points="108.5,-238.727 108.5,-257.727 227.5,-257.727 227.5,-238.727 108.5,-238.727"/>
<text text-anchor="middle" x="168" y="-245.727" font-family="Helvetica,sans-Serif" font-size="10.00">IDirBrowseControlBase</text>
</a>
</g>
</g>
<!-- Node1&#45;&gt;Node5 -->
<g id="edge4" class="edge"><title>Node1&#45;&gt;Node5</title>
<path fill="none" stroke="midnightblue" d="M71.9806,-234.34C83.1937,-235.979 95.9341,-237.841 108.361,-239.657"/>
<polygon fill="midnightblue" stroke="midnightblue" points="72.1591,-230.829 61.758,-232.846 71.1467,-237.755 72.1591,-230.829"/>
</g>
<!-- Node6 -->
<g id="node6" class="node"><title>Node6</title>
<g id="a_node6"><a xlink:href="class_i_graphics_live_edit.html" target="_top" xlink:title="IGraphicsLiveEdit">
<polygon fill="white" stroke="black" points="121,-200.727 121,-219.727 215,-219.727 215,-200.727 121,-200.727"/>
<text text-anchor="middle" x="168" y="-207.727" font-family="Helvetica,sans-Serif" font-size="10.00">IGraphicsLiveEdit</text>
</a>
</g>
</g>
<!-- Node1&#45;&gt;Node6 -->
<g id="edge5" class="edge"><title>Node1&#45;&gt;Node6</title>
<path fill="none" stroke="midnightblue" d="M71.6804,-224.158C86.7381,-221.958 104.593,-219.348 120.756,-216.986"/>
<polygon fill="midnightblue" stroke="midnightblue" points="71.1467,-220.699 61.758,-225.609 72.1591,-227.626 71.1467,-220.699"/>
</g>
<!-- Node7 -->
<g id="node7" class="node"><title>Node7</title>
<g id="a_node7"><a xlink:href="class_i_knob_control_base.html" target="_top" xlink:title="Parent for knobs, to handle mouse action and ballistics. ">
<polygon fill="white" stroke="black" points="120,-162.727 120,-181.727 216,-181.727 216,-162.727 120,-162.727"/>
<text text-anchor="middle" x="168" y="-169.727" font-family="Helvetica,sans-Serif" font-size="10.00">IKnobControlBase</text>
</a>
</g>
</g>
<!-- Node1&#45;&gt;Node7 -->
<g id="edge6" class="edge"><title>Node1&#45;&gt;Node7</title>
<path fill="none" stroke="midnightblue" d="M61.9867,-214.429C75.3524,-206.881 92.2595,-197.91 108,-191.227 116.221,-187.737 125.314,-184.512 133.848,-181.749"/>
<polygon fill="midnightblue" stroke="midnightblue" points="59.8762,-211.605 52.9476,-219.62 63.3624,-217.675 59.8762,-211.605"/>
</g>
<!-- Node9 -->
<g id="node9" class="node"><title>Node9</title>
<g id="a_node9"><a xlink:href="class_i_panel_control.html" target="_top" xlink:title="A basic control to fill a rectangle with a color. ">
<polygon fill="white" stroke="black" points="130,-48.7272 130,-67.7272 206,-67.7272 206,-48.7272 130,-48.7272"/>
<text text-anchor="middle" x="168" y="-55.7272" font-family="Helvetica,sans-Serif" font-size="10.00">IPanelControl</text>
</a>
</g>
</g>
<!-- Node1&#45;&gt;Node9 -->
<g id="edge8" class="edge"><title>Node1&#45;&gt;Node9</title>
<path fill="none" stroke="midnightblue" d="M40.901,-209.418C48.2859,-177.105 67.3538,-113.07 108,-77.2272 114.215,-71.7468 122.029,-67.8443 129.918,-65.0663"/>
<polygon fill="midnightblue" stroke="midnightblue" points="37.4294,-208.915 38.7599,-219.426 44.2745,-210.379 37.4294,-208.915"/>
</g>
<!-- Node10 -->
<g id="node10" class="node"><title>Node10</title>
<g id="a_node10"><a xlink:href="class_i_s_v_g_control.html" target="_top" xlink:title="A basic control to draw an SVG image to the screen. ">
<polygon fill="white" stroke="black" points="132,-314.727 132,-333.727 204,-333.727 204,-314.727 132,-314.727"/>
<text text-anchor="middle" x="168" y="-321.727" font-family="Helvetica,sans-Serif" font-size="10.00">ISVGControl</text>
</a>
</g>
</g>
<!-- Node1&#45;&gt;Node10 -->
<g id="edge9" class="edge"><title>Node1&#45;&gt;Node10</title>
<path fill="none" stroke="midnightblue" d="M49.3565,-246.988C62.1759,-264.174 83.7225,-289.821 108,-305.227 115.269,-309.84 123.756,-313.425 131.991,-316.175"/>
<polygon fill="midnightblue" stroke="midnightblue" points="52.1793,-244.919 43.48,-238.871 46.5093,-249.024 52.1793,-244.919"/>
</g>
<!-- Node11 -->
<g id="node11" class="node"><title>Node11</title>
<g id="a_node11"><a xlink:href="class_i_switch_control_base.html" target="_top" xlink:title="Parent for switch controls (including buttons a.k.a. ">
<polygon fill="white" stroke="black" points="116,-124.727 116,-143.727 220,-143.727 220,-124.727 116,-124.727"/>
<text text-anchor="middle" x="168" y="-131.727" font-family="Helvetica,sans-Serif" font-size="10.00">ISwitchControlBase</text>
</a>
</g>
</g>
<!-- Node1&#45;&gt;Node11 -->
<g id="edge10" class="edge"><title>Node1&#45;&gt;Node11</title>
<path fill="none" stroke="midnightblue" d="M49.3565,-211.466C62.1759,-194.28 83.7225,-168.634 108,-153.227 113.997,-149.422 120.823,-146.315 127.652,-143.801"/>
<polygon fill="midnightblue" stroke="midnightblue" points="46.5093,-209.43 43.48,-219.583 52.1793,-213.535 46.5093,-209.43"/>
</g>
<!-- Node13 -->
<g id="node13" class="node"><title>Node13</title>
<g id="a_node13"><a xlink:href="class_i_text_control.html" target="_top" xlink:title="A basic control to output text to the screen. ">
<polygon fill="white" stroke="black" points="132.5,-352.727 132.5,-371.727 203.5,-371.727 203.5,-352.727 132.5,-352.727"/>
<text text-anchor="middle" x="168" y="-359.727" font-family="Helvetica,sans-Serif" font-size="10.00">ITextControl</text>
</a>
</g>
</g>
<!-- Node1&#45;&gt;Node13 -->
<g id="edge12" class="edge"><title>Node1&#45;&gt;Node13</title>
<path fill="none" stroke="midnightblue" d="M44.0111,-248.325C54.2521,-273.628 75.6714,-317.999 108,-343.227 115.041,-348.722 123.719,-352.651 132.231,-355.452"/>
<polygon fill="midnightblue" stroke="midnightblue" points="47.182,-246.821 40.3073,-238.76 40.6543,-249.349 47.182,-246.821"/>
</g>
<!-- Node15 -->
<g id="node15" class="node"><title>Node15</title>
<g id="a_node15"><a xlink:href="class_i_v_keyboard_control.html" target="_top" xlink:title="IVKeyboardControl">
<polygon fill="white" stroke="black" points="118.5,-86.7272 118.5,-105.727 217.5,-105.727 217.5,-86.7272 118.5,-86.7272"/>
<text text-anchor="middle" x="168" y="-93.7272" font-family="Helvetica,sans-Serif" font-size="10.00">IVKeyboardControl</text>
</a>
</g>
</g>
<!-- Node1&#45;&gt;Node15 -->
<g id="edge14" class="edge"><title>Node1&#45;&gt;Node15</title>
<path fill="none" stroke="midnightblue" d="M44.0111,-210.129C54.2521,-184.826 75.6714,-140.456 108,-115.227 112.92,-111.387 118.64,-108.312 124.544,-105.852"/>
<polygon fill="midnightblue" stroke="midnightblue" points="40.6543,-209.106 40.3073,-219.695 47.182,-211.633 40.6543,-209.106"/>
</g>
<!-- Node3 -->
<g id="node3" class="node"><title>Node3</title>
<g id="a_node3"><a xlink:href="class_i_b_switch_control.html" target="_top" xlink:title="A vector switch control. ">
<polygon fill="white" stroke="black" points="264,-390.727 264,-409.727 352,-409.727 352,-390.727 264,-390.727"/>
<text text-anchor="middle" x="308" y="-397.727" font-family="Helvetica,sans-Serif" font-size="10.00">IBSwitchControl</text>
</a>
</g>
</g>
<!-- Node2&#45;&gt;Node3 -->
<g id="edge2" class="edge"><title>Node2&#45;&gt;Node3</title>
<path fill="none" stroke="midnightblue" d="M219.547,-400.227C233.975,-400.227 249.564,-400.227 263.53,-400.227"/>
<polygon fill="midnightblue" stroke="midnightblue" points="219.286,-396.727 209.286,-400.227 219.286,-403.727 219.286,-396.727"/>
</g>
<!-- Node8 -->
<g id="node8" class="node"><title>Node8</title>
<g id="a_node8"><a xlink:href="class_i_v_knob_control.html" target="_top" xlink:title="A vector knob control. ">
<polygon fill="white" stroke="black" points="268,-124.727 268,-143.727 348,-143.727 348,-124.727 268,-124.727"/>
<text text-anchor="middle" x="308" y="-131.727" font-family="Helvetica,sans-Serif" font-size="10.00">IVKnobControl</text>
</a>
</g>
</g>
<!-- Node7&#45;&gt;Node8 -->
<g id="edge7" class="edge"><title>Node7&#45;&gt;Node8</title>
<path fill="none" stroke="midnightblue" d="M213.473,-159.981C232.495,-154.743 254.375,-148.718 272.188,-143.813"/>
<polygon fill="midnightblue" stroke="midnightblue" points="212.535,-156.609 203.823,-162.638 214.394,-163.358 212.535,-156.609"/>
</g>
<!-- Node12 -->
<g id="node12" class="node"><title>Node12</title>
<g id="a_node12"><a xlink:href="class_i_v_switch_control.html" target="_top" xlink:title="A vector switch control. ">
<polygon fill="white" stroke="black" points="264,-10.7272 264,-29.7272 352,-29.7272 352,-10.7272 264,-10.7272"/>
<text text-anchor="middle" x="308" y="-17.7272" font-family="Helvetica,sans-Serif" font-size="10.00">IVSwitchControl</text>
</a>
</g>
</g>
<!-- Node11&#45;&gt;Node12 -->
<g id="edge11" class="edge"><title>Node11&#45;&gt;Node12</title>
<path fill="none" stroke="midnightblue" d="M218.614,-120.619C221.894,-119.007 225.058,-117.216 228,-115.227 262.656,-91.8053 290.353,-48.9447 301.584,-29.8488"/>
<polygon fill="midnightblue" stroke="midnightblue" points="216.946,-117.527 209.152,-124.704 219.72,-123.954 216.946,-117.527"/>
</g>
<!-- Node14 -->
<g id="node14" class="node"><title>Node14</title>
<g id="a_node14"><a xlink:href="class_i_b_text_control.html" target="_top" xlink:title="Display monospace bitmap font text. ">
<polygon fill="white" stroke="black" points="269.5,-352.727 269.5,-371.727 346.5,-371.727 346.5,-352.727 269.5,-352.727"/>
<text text-anchor="middle" x="308" y="-359.727" font-family="Helvetica,sans-Serif" font-size="10.00">IBTextControl</text>
</a>
</g>
</g>
<!-- Node13&#45;&gt;Node14 -->
<g id="edge13" class="edge"><title>Node13&#45;&gt;Node14</title>
<path fill="none" stroke="midnightblue" d="M214.017,-362.227C231.885,-362.227 252.203,-362.227 269.279,-362.227"/>
<polygon fill="midnightblue" stroke="midnightblue" points="213.823,-358.727 203.823,-362.227 213.823,-365.727 213.823,-358.727"/>
</g>
<!-- Node16 -->
<g id="node16" class="node"><title>Node16</title>
<g id="a_node16"><a xlink:href="class_i_vector_base.html" target="_top" xlink:title="A An interface for IVControls, in order for them to share a common set of colors. ...">
<polygon fill="white" stroke="black" points="0.5,-29.7272 0.5,-48.7272 71.5,-48.7272 71.5,-29.7272 0.5,-29.7272"/>
<text text-anchor="middle" x="36" y="-36.7272" font-family="Helvetica,sans-Serif" font-size="10.00">IVectorBase</text>
</a>
</g>
</g>
<!-- Node16&#45;&gt;Node8 -->
<g id="edge17" class="edge"><title>Node16&#45;&gt;Node8</title>
<path fill="none" stroke="midnightblue" d="M81.7153,-28.9118C121.972,-21.9528 181.74,-17.5311 228,-39.2272 266.453,-57.2619 292.682,-104.229 302.594,-124.585"/>
<polygon fill="midnightblue" stroke="midnightblue" points="80.864,-25.5099 71.6679,-30.7713 82.1378,-32.393 80.864,-25.5099"/>
</g>
<!-- Node16&#45;&gt;Node9 -->
<g id="edge15" class="edge"><title>Node16&#45;&gt;Node9</title>
<path fill="none" stroke="midnightblue" d="M81.8231,-45.7782C97.4637,-48.0642 114.834,-50.603 129.788,-52.7885"/>
<polygon fill="midnightblue" stroke="midnightblue" points="82.2387,-42.3019 71.8376,-44.3188 81.2263,-49.2283 82.2387,-42.3019"/>
</g>
<!-- Node16&#45;&gt;Node12 -->
<g id="edge18" class="edge"><title>Node16&#45;&gt;Node12</title>
<path fill="none" stroke="midnightblue" d="M61.322,-24.7031C74.6144,-17.6095 91.6594,-9.83909 108,-6.22717 161.939,5.69556 225.914,-2.67318 266.481,-10.6766"/>
<polygon fill="midnightblue" stroke="midnightblue" points="59.4097,-21.7616 52.3701,-29.6795 62.8109,-27.8798 59.4097,-21.7616"/>
</g>
<!-- Node16&#45;&gt;Node15 -->
<g id="edge16" class="edge"><title>Node16&#45;&gt;Node15</title>
<path fill="none" stroke="midnightblue" d="M61.9867,-54.0255C75.3524,-61.5732 92.2595,-70.5447 108,-77.2272 116.221,-80.7175 125.314,-83.9419 133.848,-86.7057"/>
<polygon fill="midnightblue" stroke="midnightblue" points="63.3624,-50.7795 52.9476,-48.8344 59.8762,-56.8497 63.3624,-50.7795"/>
</g>
</g>
</svg>
