<?xml version="1.0" encoding="UTF-8" standalone="no"?>
<!DOCTYPE svg PUBLIC "-//W3C//DTD SVG 1.1//EN"
 "http://www.w3.org/Graphics/SVG/1.1/DTD/svg11.dtd">
<!-- Generated by graphviz version 2.36.0 (20140111.2315)
 -->
<!-- Title: Graphical Class Hierarchy Pages: 1 -->
<svg width="328pt" height="256pt"
 viewBox="0.00 0.00 328.00 256.00" xmlns="http://www.w3.org/2000/svg" xmlns:xlink="http://www.w3.org/1999/xlink">
<g id="graph0" class="graph" transform="scale(1 1) rotate(0) translate(4 252)">
<title>Graphical Class Hierarchy</title>
<polygon fill="white" stroke="none" points="-4,4 -4,-252 324,-252 324,4 -4,4"/>
<!-- Node1 -->
<g id="node1" class="node"><title>Node1</title>
<polygon fill="white" stroke="#bfbfbf" points="98,-228.5 98,-247.5 220,-247.5 220,-228.5 98,-228.5"/>
<text text-anchor="middle" x="159" y="-235.5" font-family="Helvetica,sans-Serif" font-size="10.00">AAX_CIPlugParameters</text>
</g>
<!-- Node2 -->
<g id="node2" class="node"><title>Node2</title>
<g id="a_node2"><a xlink:href="class_i_plug_a_a_x.html" target="_top" xlink:title="AAX API base class for an IPlug plug&#45;in, inherits from IPlugBase or IPlugBaseGraphics. ">
<polygon fill="white" stroke="black" points="258.5,-228.5 258.5,-247.5 317.5,-247.5 317.5,-228.5 258.5,-228.5"/>
<text text-anchor="middle" x="288" y="-235.5" font-family="Helvetica,sans-Serif" font-size="10.00">IPlugAAX</text>
</a>
</g>
</g>
<!-- Node1&#45;&gt;Node2 -->
<g id="edge1" class="edge"><title>Node1&#45;&gt;Node2</title>
<path fill="none" stroke="midnightblue" d="M230.154,-238C240.119,-238 249.863,-238 258.39,-238"/>
<polygon fill="midnightblue" stroke="midnightblue" points="230.153,-234.5 220.153,-238 230.153,-241.5 230.153,-234.5"/>
</g>
<!-- Node3 -->
<g id="node3" class="node"><title>Node3</title>
<g id="a_node3"><a xlink:href="class_i_plug_base.html" target="_top" xlink:title="The lowest level base class of an IPlug plug&#45;in. ">
<polygon fill="white" stroke="black" points="0,-108.5 0,-127.5 62,-127.5 62,-108.5 0,-108.5"/>
<text text-anchor="middle" x="31" y="-115.5" font-family="Helvetica,sans-Serif" font-size="10.00">IPlugBase</text>
</a>
</g>
</g>
<!-- Node4 -->
<g id="node4" class="node"><title>Node4</title>
<g id="a_node4"><a xlink:href="class_i_plug_base_graphics.html" target="_top" xlink:title="An IPlugBase class for an IPlug plug&#45;in that uses IGraphics for it&#39;s UI. ">
<polygon fill="white" stroke="black" points="108.5,-108.5 108.5,-127.5 209.5,-127.5 209.5,-108.5 108.5,-108.5"/>
<text text-anchor="middle" x="159" y="-115.5" font-family="Helvetica,sans-Serif" font-size="10.00">IPlugBaseGraphics</text>
</a>
</g>
</g>
<!-- Node3&#45;&gt;Node4 -->
<g id="edge2" class="edge"><title>Node3&#45;&gt;Node4</title>
<path fill="none" stroke="midnightblue" d="M72.3365,-118C83.8069,-118 96.4337,-118 108.387,-118"/>
<polygon fill="midnightblue" stroke="midnightblue" points="72.1802,-114.5 62.1801,-118 72.1801,-121.5 72.1802,-114.5"/>
</g>
<!-- Node4&#45;&gt;Node2 -->
<g id="edge3" class="edge"><title>Node4&#45;&gt;Node2</title>
<path fill="none" stroke="midnightblue" d="M214.394,-132.663C216.37,-133.986 218.25,-135.428 220,-137 249.609,-163.599 229.836,-189.006 256,-219 259.154,-222.615 263.167,-225.758 267.252,-228.391"/>
<polygon fill="midnightblue" stroke="midnightblue" points="215.668,-129.368 205.223,-127.594 212.282,-135.495 215.668,-129.368"/>
</g>
<!-- Node5 -->
<g id="node5" class="node"><title>Node5</title>
<g id="a_node5"><a xlink:href="class_i_plug_a_p_p.html" target="_top" xlink:title="Standalone application base class for an IPlug plug&#45;in, inherits from IPlugBase or IPlugBaseGraphics...">
<polygon fill="white" stroke="black" points="258.5,-76.5 258.5,-95.5 317.5,-95.5 317.5,-76.5 258.5,-76.5"/>
<text text-anchor="middle" x="288" y="-83.5" font-family="Helvetica,sans-Serif" font-size="10.00">IPlugAPP</text>
</a>
</g>
</g>
<!-- Node4&#45;&gt;Node5 -->
<g id="edge4" class="edge"><title>Node4&#45;&gt;Node5</title>
<path fill="none" stroke="midnightblue" d="M207.605,-106.005C224.718,-101.693 243.478,-96.9662 258.463,-93.1905"/>
<polygon fill="midnightblue" stroke="midnightblue" points="206.602,-102.648 197.76,-108.486 208.312,-109.436 206.602,-102.648"/>
</g>
<!-- Node6 -->
<g id="node6" class="node"><title>Node6</title>
<g id="a_node6"><a xlink:href="class_i_plug_a_u.html" target="_top" xlink:title="AudioUnit v2 API base class for an IPlug plug&#45;in, inherits from IPlugBase or IPlugBaseGraphics. ">
<polygon fill="white" stroke="black" points="261.5,-190.5 261.5,-209.5 314.5,-209.5 314.5,-190.5 261.5,-190.5"/>
<text text-anchor="middle" x="288" y="-197.5" font-family="Helvetica,sans-Serif" font-size="10.00">IPlugAU</text>
</a>
</g>
</g>
<!-- Node4&#45;&gt;Node6 -->
<g id="edge5" class="edge"><title>Node4&#45;&gt;Node6</title>
<path fill="none" stroke="midnightblue" d="M210.629,-131.604C213.904,-133.216 217.062,-135.008 220,-137 240.912,-151.181 236.962,-164.388 256,-181 259.9,-184.403 264.482,-187.576 268.91,-190.316"/>
<polygon fill="midnightblue" stroke="midnightblue" points="211.741,-128.272 201.173,-127.527 208.969,-134.7 211.741,-128.272"/>
</g>
<!-- Node7 -->
<g id="node7" class="node"><title>Node7</title>
<g id="a_node7"><a xlink:href="class_i_plug_a_uv3.html" target="_top" xlink:title="IPlugAUv3">
<polygon fill="white" stroke="black" points="256,-152.5 256,-171.5 320,-171.5 320,-152.5 256,-152.5"/>
<text text-anchor="middle" x="288" y="-159.5" font-family="Helvetica,sans-Serif" font-size="10.00">IPlugAUv3</text>
</a>
</g>
</g>
<!-- Node4&#45;&gt;Node7 -->
<g id="edge6" class="edge"><title>Node4&#45;&gt;Node7</title>
<path fill="none" stroke="midnightblue" d="M201.06,-130.699C207.419,-132.753 213.899,-134.897 220,-137 234.085,-141.855 249.687,-147.651 262.289,-152.44"/>
<polygon fill="midnightblue" stroke="midnightblue" points="201.83,-127.271 191.239,-127.564 199.701,-133.94 201.83,-127.271"/>
</g>
<!-- Node8 -->
<g id="node8" class="node"><title>Node8</title>
<g id="a_node8"><a xlink:href="class_i_plug_v_s_t.html" target="_top" xlink:title="VST2.4 API base class for an IPlug plug&#45;in, inherits from IPlugBase or IPlugBaseGraphics. ">
<polygon fill="white" stroke="black" points="258.5,-114.5 258.5,-133.5 317.5,-133.5 317.5,-114.5 258.5,-114.5"/>
<text text-anchor="middle" x="288" y="-121.5" font-family="Helvetica,sans-Serif" font-size="10.00">IPlugVST</text>
</a>
</g>
</g>
<!-- Node4&#45;&gt;Node8 -->
<g id="edge7" class="edge"><title>Node4&#45;&gt;Node8</title>
<path fill="none" stroke="midnightblue" d="M219.942,-120.832C233.271,-121.462 246.81,-122.101 258.199,-122.639"/>
<polygon fill="midnightblue" stroke="midnightblue" points="219.983,-117.33 209.829,-120.354 219.653,-124.322 219.983,-117.33"/>
</g>
<!-- Node9 -->
<g id="node9" class="node"><title>Node9</title>
<g id="a_node9"><a xlink:href="class_i_plug_v_s_t3.html" target="_top" xlink:title="VST3 base class for an IPlug plug&#45;in, inherits from IPlugBase or IPlugBaseGraphics. ">
<polygon fill="white" stroke="black" points="256,-0.5 256,-19.5 320,-19.5 320,-0.5 256,-0.5"/>
<text text-anchor="middle" x="288" y="-7.5" font-family="Helvetica,sans-Serif" font-size="10.00">IPlugVST3</text>
</a>
</g>
</g>
<!-- Node4&#45;&gt;Node9 -->
<g id="edge8" class="edge"><title>Node4&#45;&gt;Node9</title>
<path fill="none" stroke="midnightblue" d="M176.314,-100.974C194.733,-82.2178 226.05,-51.7075 256,-29 260.326,-25.7202 265.244,-22.4998 269.868,-19.669"/>
<polygon fill="midnightblue" stroke="midnightblue" points="173.715,-98.6263 169.251,-108.235 178.733,-103.507 173.715,-98.6263"/>
</g>
<!-- Node10 -->
<g id="node10" class="node"><title>Node10</title>
<g id="a_node10"><a xlink:href="class_i_plug_w_a_m.html" target="_top" xlink:title="Web Audio Module (WAM) API base class for an IPlug plug&#45;in, inherits from IPlugBase or IPlugBaseGraph...">
<polygon fill="white" stroke="black" points="256,-38.5 256,-57.5 320,-57.5 320,-38.5 256,-38.5"/>
<text text-anchor="middle" x="288" y="-45.5" font-family="Helvetica,sans-Serif" font-size="10.00">IPlugWAM</text>
</a>
</g>
</g>
<!-- Node4&#45;&gt;Node10 -->
<g id="edge9" class="edge"><title>Node4&#45;&gt;Node10</title>
<path fill="none" stroke="midnightblue" d="M186.301,-103.504C211.195,-89.7821 247.872,-69.5665 269.41,-57.6953"/>
<polygon fill="midnightblue" stroke="midnightblue" points="184.461,-100.521 177.393,-108.414 187.84,-106.652 184.461,-100.521"/>
</g>
<!-- Node11 -->
<g id="node11" class="node"><title>Node11</title>
<g id="a_node11"><a xlink:href="class_i_plug_processor.html" target="_top" xlink:title="IPlugProcessor\&lt; PLUG\l_SAMPLE_DST \&gt;">
<polygon fill="white" stroke="black" points="99.5,-147 99.5,-177 218.5,-177 218.5,-147 99.5,-147"/>
<text text-anchor="start" x="107.5" y="-165" font-family="Helvetica,sans-Serif" font-size="10.00">IPlugProcessor&lt; PLUG</text>
<text text-anchor="middle" x="159" y="-154" font-family="Helvetica,sans-Serif" font-size="10.00">_SAMPLE_DST &gt;</text>
</a>
</g>
</g>
<!-- Node11&#45;&gt;Node2 -->
<g id="edge10" class="edge"><title>Node11&#45;&gt;Node2</title>
<path fill="none" stroke="midnightblue" d="M193.874,-182.271C218.783,-197.177 251.531,-216.775 270.819,-228.317"/>
<polygon fill="midnightblue" stroke="midnightblue" points="195.469,-179.147 185.091,-177.015 191.875,-185.154 195.469,-179.147"/>
</g>
<!-- Node11&#45;&gt;Node5 -->
<g id="edge11" class="edge"><title>Node11&#45;&gt;Node5</title>
<path fill="none" stroke="midnightblue" d="M210.271,-142.551C213.629,-140.798 216.903,-138.945 220,-137 238.129,-125.616 238.807,-117.754 256,-105 260.461,-101.69 265.519,-98.4111 270.235,-95.5323"/>
<polygon fill="midnightblue" stroke="midnightblue" points="208.706,-139.42 201.256,-146.954 211.778,-145.71 208.706,-139.42"/>
</g>
<!-- Node11&#45;&gt;Node6 -->
<g id="edge12" class="edge"><title>Node11&#45;&gt;Node6</title>
<path fill="none" stroke="midnightblue" d="M220.133,-179.993C234.597,-184.32 249.295,-188.718 261.214,-192.284"/>
<polygon fill="midnightblue" stroke="midnightblue" points="220.777,-176.532 210.194,-177.019 218.771,-183.238 220.777,-176.532"/>
</g>
<!-- Node11&#45;&gt;Node7 -->
<g id="edge13" class="edge"><title>Node11&#45;&gt;Node7</title>
<path fill="none" stroke="midnightblue" d="M228.938,-162C238.382,-162 247.664,-162 255.941,-162"/>
<polygon fill="midnightblue" stroke="midnightblue" points="228.667,-158.5 218.667,-162 228.667,-165.5 228.667,-158.5"/>
</g>
<!-- Node11&#45;&gt;Node8 -->
<g id="edge14" class="edge"><title>Node11&#45;&gt;Node8</title>
<path fill="none" stroke="midnightblue" d="M219.888,-144.081C233.301,-140.067 246.93,-135.989 258.37,-132.566"/>
<polygon fill="midnightblue" stroke="midnightblue" points="218.771,-140.762 210.194,-146.981 220.777,-147.468 218.771,-140.762"/>
</g>
<!-- Node11&#45;&gt;Node9 -->
<g id="edge15" class="edge"><title>Node11&#45;&gt;Node9</title>
<path fill="none" stroke="midnightblue" d="M215.664,-141.129C217.194,-139.832 218.646,-138.457 220,-137 254.447,-99.9405 224.527,-68.6162 256,-29 258.906,-25.3426 262.722,-22.212 266.679,-19.6093"/>
<polygon fill="midnightblue" stroke="midnightblue" points="213.562,-138.329 207.455,-146.986 217.628,-144.027 213.562,-138.329"/>
</g>
<!-- Node12 -->
<g id="node12" class="node"><title>Node12</title>
<polygon fill="white" stroke="#bfbfbf" points="99,-0.5 99,-19.5 219,-19.5 219,-0.5 99,-0.5"/>
<text text-anchor="middle" x="159" y="-7.5" font-family="Helvetica,sans-Serif" font-size="10.00">SingleComponentEffect</text>
</g>
<!-- Node12&#45;&gt;Node9 -->
<g id="edge16" class="edge"><title>Node12&#45;&gt;Node9</title>
<path fill="none" stroke="midnightblue" d="M229.168,-10C238.479,-10 247.626,-10 255.8,-10"/>
<polygon fill="midnightblue" stroke="midnightblue" points="229.038,-6.5001 219.038,-10 229.038,-13.5001 229.038,-6.5001"/>
</g>
</g>
</svg>
