<?xml version="1.0" encoding="UTF-8" standalone="no"?>
<!DOCTYPE svg PUBLIC "-//W3C//DTD SVG 1.1//EN"
 "http://www.w3.org/Graphics/SVG/1.1/DTD/svg11.dtd">
<!-- Generated by graphviz version 2.36.0 (20140111.2315)
 -->
<!-- Title: Graphical Class Hierarchy Pages: 1 -->
<svg width="152pt" height="66pt"
 viewBox="0.00 0.00 152.00 66.00" xmlns="http://www.w3.org/2000/svg" xmlns:xlink="http://www.w3.org/1999/xlink">
<g id="graph0" class="graph" transform="scale(1 1) rotate(0) translate(4 62)">
<title>Graphical Class Hierarchy</title>
<polygon fill="white" stroke="none" points="-4,4 -4,-62 148,-62 148,4 -4,4"/>
<!-- Node1 -->
<g id="node1" class="node"><title>Node1</title>
<g id="a_node1"><a xlink:href="class_rt_midi.html" target="_top" xlink:title="An abstract base class for realtime MIDI input/output. ">
<polygon fill="white" stroke="black" points="0.5,-19.5 0.5,-38.5 45.5,-38.5 45.5,-19.5 0.5,-19.5"/>
<text text-anchor="middle" x="23" y="-26.5" font-family="Helvetica,sans-Serif" font-size="10.00">RtMidi</text>
</a>
</g>
</g>
<!-- Node2 -->
<g id="node2" class="node"><title>Node2</title>
<g id="a_node2"><a xlink:href="class_rt_midi_in.html" target="_top" xlink:title="A realtime MIDI input class. ">
<polygon fill="white" stroke="black" points="86.5,-38.5 86.5,-57.5 139.5,-57.5 139.5,-38.5 86.5,-38.5"/>
<text text-anchor="middle" x="113" y="-45.5" font-family="Helvetica,sans-Serif" font-size="10.00">RtMidiIn</text>
</a>
</g>
</g>
<!-- Node1&#45;&gt;Node2 -->
<g id="edge1" class="edge"><title>Node1&#45;&gt;Node2</title>
<path fill="none" stroke="midnightblue" d="M55.8104,-35.8682C65.877,-38.0416 76.8677,-40.4146 86.4378,-42.4809"/>
<polygon fill="midnightblue" stroke="midnightblue" points="56.2663,-32.386 45.7528,-33.6966 54.7889,-39.2283 56.2663,-32.386"/>
</g>
<!-- Node3 -->
<g id="node3" class="node"><title>Node3</title>
<g id="a_node3"><a xlink:href="class_rt_midi_out.html" target="_top" xlink:title="A realtime MIDI output class. ">
<polygon fill="white" stroke="black" points="82.5,-0.5 82.5,-19.5 143.5,-19.5 143.5,-0.5 82.5,-0.5"/>
<text text-anchor="middle" x="113" y="-7.5" font-family="Helvetica,sans-Serif" font-size="10.00">RtMidiOut</text>
</a>
</g>
</g>
<!-- Node1&#45;&gt;Node3 -->
<g id="edge2" class="edge"><title>Node1&#45;&gt;Node3</title>
<path fill="none" stroke="midnightblue" d="M55.5348,-22.1913C64.2213,-20.3158 73.6144,-18.2878 82.1995,-16.4342"/>
<polygon fill="midnightblue" stroke="midnightblue" points="54.7889,-18.7717 45.7528,-24.3034 56.2663,-25.614 54.7889,-18.7717"/>
</g>
</g>
</svg>
