<?xml version="1.0" encoding="UTF-8" standalone="no"?>
<!DOCTYPE svg PUBLIC "-//W3C//DTD SVG 1.1//EN"
 "http://www.w3.org/Graphics/SVG/1.1/DTD/svg11.dtd">
<!-- Generated by graphviz version 2.36.0 (20140111.2315)
 -->
<!-- Title: Graphical Class Hierarchy Pages: 1 -->
<svg width="282pt" height="66pt"
 viewBox="0.00 0.00 282.00 66.00" xmlns="http://www.w3.org/2000/svg" xmlns:xlink="http://www.w3.org/1999/xlink">
<g id="graph0" class="graph" transform="scale(1 1) rotate(0) translate(4 62)">
<title>Graphical Class Hierarchy</title>
<polygon fill="white" stroke="none" points="-4,4 -4,-62 278,-62 278,4 -4,4"/>
<!-- Node1 -->
<g id="node1" class="node"><title>Node1</title>
<g id="a_node1"><a xlink:href="class_midi_api.html" target="_top" xlink:title="MidiApi">
<polygon fill="white" stroke="black" points="0.5,-19.5 0.5,-38.5 49.5,-38.5 49.5,-19.5 0.5,-19.5"/>
<text text-anchor="middle" x="25" y="-26.5" font-family="Helvetica,sans-Serif" font-size="10.00">MidiApi</text>
</a>
</g>
</g>
<!-- Node2 -->
<g id="node2" class="node"><title>Node2</title>
<g id="a_node2"><a xlink:href="class_midi_in_api.html" target="_top" xlink:title="MidiInApi">
<polygon fill="white" stroke="black" points="90.5,-38.5 90.5,-57.5 147.5,-57.5 147.5,-38.5 90.5,-38.5"/>
<text text-anchor="middle" x="119" y="-45.5" font-family="Helvetica,sans-Serif" font-size="10.00">MidiInApi</text>
</a>
</g>
</g>
<!-- Node1&#45;&gt;Node2 -->
<g id="edge1" class="edge"><title>Node1&#45;&gt;Node2</title>
<path fill="none" stroke="midnightblue" d="M59.4942,-35.9173C69.6726,-38.0193 80.735,-40.304 90.4729,-42.3151"/>
<polygon fill="midnightblue" stroke="midnightblue" points="60.1935,-32.4879 49.6923,-33.893 58.7777,-39.3433 60.1935,-32.4879"/>
</g>
<!-- Node4 -->
<g id="node4" class="node"><title>Node4</title>
<g id="a_node4"><a xlink:href="class_midi_out_api.html" target="_top" xlink:title="MidiOutApi">
<polygon fill="white" stroke="black" points="86.5,-0.5 86.5,-19.5 151.5,-19.5 151.5,-0.5 86.5,-0.5"/>
<text text-anchor="middle" x="119" y="-7.5" font-family="Helvetica,sans-Serif" font-size="10.00">MidiOutApi</text>
</a>
</g>
</g>
<!-- Node1&#45;&gt;Node4 -->
<g id="edge3" class="edge"><title>Node1&#45;&gt;Node4</title>
<path fill="none" stroke="midnightblue" d="M59.5921,-22.0625C68.3508,-20.2536 77.7582,-18.3108 86.4092,-16.5242"/>
<polygon fill="midnightblue" stroke="midnightblue" points="58.7777,-18.6567 49.6923,-24.107 60.1935,-25.5121 58.7777,-18.6567"/>
</g>
<!-- Node3 -->
<g id="node3" class="node"><title>Node3</title>
<g id="a_node3"><a xlink:href="class_midi_in_dummy.html" target="_top" xlink:title="MidiInDummy">
<polygon fill="white" stroke="black" points="192.5,-38.5 192.5,-57.5 269.5,-57.5 269.5,-38.5 192.5,-38.5"/>
<text text-anchor="middle" x="231" y="-45.5" font-family="Helvetica,sans-Serif" font-size="10.00">MidiInDummy</text>
</a>
</g>
</g>
<!-- Node2&#45;&gt;Node3 -->
<g id="edge2" class="edge"><title>Node2&#45;&gt;Node3</title>
<path fill="none" stroke="midnightblue" d="M158.009,-48C169.097,-48 181.208,-48 192.279,-48"/>
<polygon fill="midnightblue" stroke="midnightblue" points="157.758,-44.5001 147.758,-48 157.758,-51.5001 157.758,-44.5001"/>
</g>
<!-- Node5 -->
<g id="node5" class="node"><title>Node5</title>
<g id="a_node5"><a xlink:href="class_midi_out_dummy.html" target="_top" xlink:title="MidiOutDummy">
<polygon fill="white" stroke="black" points="188.5,-0.5 188.5,-19.5 273.5,-19.5 273.5,-0.5 188.5,-0.5"/>
<text text-anchor="middle" x="231" y="-7.5" font-family="Helvetica,sans-Serif" font-size="10.00">MidiOutDummy</text>
</a>
</g>
</g>
<!-- Node4&#45;&gt;Node5 -->
<g id="edge4" class="edge"><title>Node4&#45;&gt;Node5</title>
<path fill="none" stroke="midnightblue" d="M161.786,-10C170.441,-10 179.56,-10 188.215,-10"/>
<polygon fill="midnightblue" stroke="midnightblue" points="161.522,-6.5001 151.522,-10 161.522,-13.5001 161.522,-6.5001"/>
</g>
</g>
</svg>
